<?xml version="1.0" encoding="utf-8"?>
<!-- Generator: Adobe Illustrator 24.2.1, SVG Export Plug-In . SVG Version: 6.00 Build 0)  -->
<svg version="1.1" id="Layer_1" xmlns="http://www.w3.org/2000/svg" xmlns:xlink="http://www.w3.org/1999/xlink" x="0px" y="0px"
	 viewBox="0 0 2500 2141" style="enable-background:new 0 0 2500 2141;" xml:space="preserve">
<style type="text/css">
	.st0{fill-rule:evenodd;clip-rule:evenodd;fill:#ED1C24;}
	.st1{fill-rule:evenodd;clip-rule:evenodd;fill:#FFFFFF;}
</style>
<g>
	<polygon class="st0" points="146,0 2351.9,0 2351.9,2141 146,2141 	"/>
	<path class="st1" d="M646.5,1599h538.6V954c0-148.9-29.1-238.5-105.3-307.9L652.1,251.9C652.1,251.9,646.5,1597.9,646.5,1599
		L646.5,1599z"/>
	<path class="st1" d="M1849.2,1599h-538.6V954c0-148.9,29.1-238.5,105.3-307.9l426.6-394.2C1843.6,251.9,1849.2,1597.9,1849.2,1599
		L1849.2,1599z"/>
	<path class="st1" d="M639.8,1658.4H726v225.1h-86.2V1658.4L639.8,1658.4z M915.3,1723.3c-2.2-13.4-13.4-19-35.8-19
		c-16.8,0-25.8,4.5-26.9,12.3c0,4.5,2.2,9,9,12.3c5.6,3.4,13.4,5.6,23.5,7.8c10.1,2.2,20.2,4.5,29.1,5.6
		c30.2,5.6,52.6,14.6,68.3,24.6c14.6,11.2,21.3,24.6,21.3,43.7c0,17.9-5.6,33.6-16.8,44.8c-11.2,11.2-26.9,20.2-44.8,24.6
		c-17.9,5.6-39.2,7.8-59.3,7.8c-32.5,0-59.3-6.7-80.6-21.3c-22.4-14.6-33.6-32.5-35.8-54.9h81.7c2.2,9,6.7,14.6,14.6,19
		c7.8,3.4,16.8,5.6,24.6,5.6c21.3-1.1,32.5-5.6,33.6-15.7c1.1-5.6-2.2-11.2-11.2-14.6c-9-3.4-21.3-6.7-39.2-11.2
		c-22.4-4.5-40.3-10.1-53.7-14.6c-13.4-4.5-24.6-12.3-32.5-22.4c-9-10.1-13.4-23.5-12.3-39.2c1.1-20.2,11.2-37,31.4-49.3
		s48.2-19,82.9-19c17.9,0,35.8,2.2,51.5,6.7c15.7,4.5,29.1,12.3,39.2,23.5c11.2,11.2,17.9,24.6,20.2,41.4L915.3,1723.3L915.3,1723.3
		z M1040.7,1658.4h86.2v135.5c0,14.6,2.2,24.6,9,30.2c5.6,6.7,16.8,10.1,30.2,10.1c14.6,0,24.6-3.4,31.4-10.1c5.6-6.7,9-16.8,9-30.2
		v-135.5h86.2V1786c0,37-11.2,62.7-32.5,78.4c-21.3,16.8-52.6,24.6-94.1,24.6c-41.4,0-73.9-7.8-94.1-23.5
		c-21.3-16.8-32.5-42.6-32.5-79.5L1040.7,1658.4L1040.7,1658.4z M1337.4,1658.4h225.1v52.6l-127.7,119.8H1567v52.6h-236.3v-53.7
		l125.4-118.7h-119.8L1337.4,1658.4L1337.4,1658.4z M1606.2,1658.4h86.2v135.5c0,14.6,2.2,24.6,9,30.2c5.6,6.7,16.8,10.1,30.2,10.1
		c14.6,0,24.6-3.4,31.4-10.1c5.6-6.7,9-16.8,9-30.2v-135.5h86.2V1786c0,37-11.2,62.7-32.5,78.4c-21.3,16.8-52.6,24.6-94.1,24.6
		c-41.4,0-72.8-7.8-94.1-23.5c-21.3-16.8-32.5-42.6-32.5-79.5L1606.2,1658.4L1606.2,1658.4z"/>
</g>
</svg>
