<?xml version="1.0" encoding="utf-8"?>
<!-- Generator: Adobe Illustrator 24.2.3, SVG Export Plug-In . SVG Version: 6.00 Build 0)  -->
<svg version="1.1" id="Layer_1" xmlns="http://www.w3.org/2000/svg" xmlns:xlink="http://www.w3.org/1999/xlink" x="0px" y="0px"
	 viewBox="0 0 320 320" style="enable-background:new 0 0 320 320;" xml:space="preserve">
<style type="text/css">
	.st0{fill:#F7DE9F;}
	.st1{fill:#F9CE5C;}
	.st2{fill:#D8A016;}
	.st3{fill:#9F6B08;}
	.st4{fill:#5C4B21;}
	.st5{fill:#282928;}
	.st6{fill:#040404;}
</style>
<g id="g3854" transform="translate(-2.3121387,3.8535645)">
	<path id="path3040" class="st0" d="M158.4,257.6c-2.8-1.6-10.8-7.8-17.2-13.2c-10.6-9.1-19.9-19.1-28.2-30.5
		c-17.9-24.3-28.9-52.7-33.8-86.5c-2.3-16.1-3.2-38.7-1.7-43.7c0.9-3.2,3-6.2,5.7-8c2.9-2,12.1-5.7,20.4-8c17.5-5,36.9-7.5,59.9-7.5
		c29.3,0,53.3,3.9,73.5,12c7.2,2.9,9.9,5,12,9.3l1.4,2.8l0,12.4c-0.1,34.5-7.9,68.1-22.1,95.2c-3.6,6.9-12.2,20.3-16.4,25.6
		c-7.8,9.9-16.9,19.4-25.9,27.1c-6.1,5.2-15.1,12-17.5,13.3C165.2,259.6,161.6,259.4,158.4,257.6L158.4,257.6z M164.5,256.7
		c-0.5-0.1-1.2-0.1-1.7,0c-0.5,0.1-0.1,0.2,0.9,0.2C164.6,257,165,256.9,164.5,256.7z M145.1,244.5c0-0.1-0.4-0.5-0.9-0.9
		c-0.8-0.6-0.8-0.6-0.2,0.2C144.7,244.6,145.1,244.9,145.1,244.5L145.1,244.5z M142.2,242c0-0.1-0.6-0.7-1.3-1.4l-1.3-1.2l1.2,1.4
		C141.8,242.1,142.2,242.4,142.2,242z M135.3,235.5c-1.7-1.8-3.3-3.2-3.4-3.2c-0.1,0,1.2,1.5,2.9,3.2c1.7,1.8,3.3,3.2,3.4,3.2
		C138.4,238.7,137.1,237.2,135.3,235.5z M128,228c-1.7-1.8-3.3-3.2-3.4-3.2c-0.1,0,1.2,1.5,2.9,3.2c1.7,1.8,3.3,3.2,3.4,3.2
		S129.8,229.8,128,228z M123.6,223.1c0-0.1-0.6-0.7-1.3-1.4l-1.3-1.2l1.2,1.4C123.2,223.2,123.6,223.5,123.6,223.1z M120.7,219.6
		c0-0.1-0.5-0.6-1.1-1.1l-1.1-0.9l0.9,1.1C120.3,219.7,120.7,220,120.7,219.6z M118.7,217.1c0-0.1-0.5-0.6-1.1-1.1l-1.1-0.9l0.9,1.1
		C118.4,217.2,118.7,217.5,118.7,217.1L118.7,217.1z M116.8,214.6c0-0.1-0.4-0.5-0.9-0.9c-0.8-0.6-0.8-0.6-0.2,0.2
		C116.4,214.8,116.8,215,116.8,214.6z M115.3,212.6c0-0.1-0.4-0.5-0.9-0.9c-0.8-0.6-0.8-0.6-0.2,0.2
		C114.9,212.8,115.3,213.1,115.3,212.6L115.3,212.6z M113.9,210.7c0-0.1-0.4-0.5-0.9-0.9c-0.8-0.6-0.8-0.6-0.2,0.2
		C113.5,210.8,113.9,211.1,113.9,210.7L113.9,210.7z M107,200.4c-0.3-0.5-0.6-1-0.8-1s0,0.4,0.3,1c0.3,0.5,0.6,1,0.8,1
		S107.3,201,107,200.4z M105.6,197.9c-0.3-0.5-0.6-1-0.8-1c-0.1,0,0,0.4,0.3,1c0.3,0.5,0.6,1,0.8,1S105.9,198.5,105.6,197.9z
		 M104.1,195.4c-0.3-0.5-0.6-1-0.8-1c-0.1,0,0,0.4,0.3,1c0.3,0.5,0.6,1,0.8,1C104.5,196.4,104.4,196,104.1,195.4z M99.6,186.8
		c-1.4-2.9-2.6-5.1-2.7-5c-0.2,0.2,4.7,10.2,5,10.2C102,192,101,189.6,99.6,186.8z M95.4,177.7c-0.6-1-0.7-0.7-0.2,0.6
		c0.2,0.4,0.4,0.7,0.5,0.6C95.8,178.7,95.7,178.2,95.4,177.7z M142.3,91.7c-0.4-0.1-0.8-0.1-0.9,0c-0.2,0.2,0.1,0.3,0.6,0.3
		C142.5,92,142.7,91.8,142.3,91.7z M80.9,82.3c0.2-0.4,0.1-0.6-0.2-0.5c-0.3,0.2-0.5,0.5-0.5,0.8C80.2,83.3,80.5,83.2,80.9,82.3z
		 M247.1,82.6c0-0.2-0.5-1-1-1.6l-1-1.2l0.9,1.6C246.9,83.1,247.1,83.4,247.1,82.6z M131.5,75.3c-0.4-0.1-0.8-0.1-0.9,0
		c-0.2,0.2,0.1,0.3,0.6,0.3C131.8,75.5,131.9,75.4,131.5,75.3z M152.7,74.6c0.5-0.5,0.8-1,0.6-1s-0.6,0.4-1.1,1s-0.8,1-0.6,1
		S152.2,75.2,152.7,74.6z M140.3,74.3c-0.4-0.1-0.8-0.1-0.9,0c-0.2,0.2,0.1,0.3,0.6,0.3C140.6,74.5,140.7,74.4,140.3,74.3z
		 M198.9,64.8c-0.4-0.1-0.8-0.1-0.9,0c-0.2,0.2,0.1,0.3,0.6,0.3C199.2,65.1,199.3,65,198.9,64.8z M195,64.3c-0.4-0.1-0.8-0.1-0.9,0
		c-0.2,0.2,0.1,0.3,0.6,0.3C195.3,64.6,195.4,64.5,195,64.3z M191.1,63.8c-0.3-0.1-0.9-0.1-1.2,0c-0.3,0.1-0.1,0.3,0.6,0.3
		S191.4,64,191.1,63.8z M142.8,63.3c-0.4-0.1-0.8-0.1-0.9,0c-0.2,0.2,0.1,0.3,0.6,0.3C143,63.6,143.1,63.5,142.8,63.3z M185.5,63.3
		c-0.5-0.1-1.1-0.1-1.5,0c-0.3,0.1,0.1,0.2,0.9,0.2C185.7,63.6,186,63.5,185.5,63.3z M152.1,62.8c-0.9-0.1-2.2-0.1-2.9,0
		s0,0.2,1.6,0.2C152.3,63,152.9,62.9,152.1,62.8z M177.9,62.8c-0.9-0.1-2.2-0.1-2.9,0c-0.7,0.1,0,0.2,1.6,0.2
		C178.2,63,178.8,62.9,177.9,62.8L177.9,62.8z"/>
	<path id="path3038" class="st1" d="M159.1,257.8c-8.7-4.7-29.2-23.2-39.8-36C92.3,189,78.8,149.5,77,97.5
		c-0.5-12.9,0.4-16.2,5.2-20.6c6.1-5.6,30.3-12.6,51.7-15c39.9-4.4,78.2-0.3,105.5,11.4c7.6,3.3,10.6,7.6,11,16.1
		c0.3,5.6-0.6,22.3-1.6,31.3c-6.3,55.3-29,97.1-70.5,129.9c-8.7,6.9-10.8,8.1-14.1,8.3C162,259.1,161,258.9,159.1,257.8z
		 M170.3,254.1c15.8-10.9,32.1-27.1,43.8-43.5c15.6-21.8,25.9-47.6,31-77.8c3-17.7,4.3-43.3,2.5-49.5c-1.1-3.6-4.4-6.2-11.5-9.1
		c-20.9-8.4-49.4-12.7-78.5-11.9c-26.5,0.7-47.9,4.6-66.2,11.8c-5.2,2.1-6.6,2.8-8.9,5c-2.6,2.5-2.7,2.7-3.3,6.6
		c-0.7,4.6-0.1,22.4,1.3,34c6.3,56.3,29.5,98.3,72.3,131.1c6.7,5.2,8.4,6.1,11,6.1C165.7,257.1,166.6,256.7,170.3,254.1z
		 M158.8,254.5c-2.3-1.4-8.7-6.4-13.7-10.5c-26.6-22.4-44.9-49.6-55.4-82.4c-4-12.6-7.1-27.4-8.8-42.8c-0.8-7.4-1.8-28.7-1.4-31
		c0.6-3.8,0.6-3.8,1.7-3.2c1.6,0.8,2.2-0.2,1.2-1.8c-0.6-1-0.7-1.5-0.3-2.3c2.7-5.1,27.1-12.9,49-15.6c10.6-1.3,18.9-1.8,32.5-1.8
		c26.3,0,46.1,2.8,65.1,9.2c8.6,2.9,13.8,5.2,15.1,6.8c0.9,1,0.9,1.1,0,2.5c-1.1,1.8-0.7,2.5,1.4,2.5c1.8,0,1.7-0.1,2.4,3.9
		c0.4,2.4-0.6,24.1-1.5,31.9c-4,35.9-15.2,66.6-33.6,91.8c-10.8,14.9-27.5,31.3-42.2,41.6l-3.5,2.5l-0.8-1.1c-0.7-1-1.1-1.1-2.8-0.9
		c-1.1,0.1-2.2,0.6-2.5,1C160.5,255.5,160.2,255.4,158.8,254.5L158.8,254.5z M148.2,192.7c0.9-0.9,1-2.2,0.3-2.2
		c-0.3,0-0.5,0.2-0.5,0.5s-0.5,0.6-1.2,0.8c-1.2,0.3-1.5,0.7-0.9,1.4C146.5,193.7,147.4,193.5,148.2,192.7z M135.3,186.2
		c0-0.1-0.2-0.2-0.5-0.2c-0.3,0-0.5,0.2-0.5,0.5c0,0.3,0.2,0.4,0.5,0.2C135.1,186.6,135.3,186.3,135.3,186.2z M169.5,182
		c-0.8-1.4-1.6-2.5-1.7-2.5s0.4,1.2,1.1,2.7s1.5,2.6,1.7,2.5C170.8,184.5,170.3,183.3,169.5,182z M177.6,173.6
		c0.2-0.3-0.2-0.4-0.8-0.4c-0.9,0.1-1.2-0.2-1.4-1.4c-0.3-1.4-0.3-1.4-0.4-0.2C174.8,173.5,176.7,174.9,177.6,173.6L177.6,173.6z
		 M166.5,165.9c2.2-0.4,3-1.1,3-2.8c0-1.5-1.4-3.9-1.4-2.5c0,0.4-1,1.7-2.2,2.9c-1.2,1.2-2.3,2.6-2.4,3.1c-0.2,0.9-0.2,0.9,0.6,0.3
		C164.5,166.6,165.6,166.1,166.5,165.9L166.5,165.9z M182.2,165.1c-3.2-0.4-4.4-1-6-3c-2.1-2.5-1.5-5.4,1.3-6.7l1.5-0.7l-1.7,0
		c-5.1-0.1-5.2,7.1-0.1,9.9c1.3,0.7,2.7,1,4.8,1l2.9,0L182.2,165.1L182.2,165.1z M195.8,160.4c0-0.5-0.1-0.7-0.3-0.4
		c-0.1,0.3-0.7,0.6-1.2,0.6s-0.9,0.2-0.9,0.4s0.5,0.4,1.2,0.4C195.6,161.4,195.9,161.1,195.8,160.4L195.8,160.4z M143.9,157.5
		c0.8-1.3,2-2.5,2.6-2.6c1.3-0.4,4.6,0.6,6.5,1.9c1.9,1.3,4.4,1.7,5.2,0.7c0.4-0.4,1.2-0.8,1.9-0.8c1.2,0,1.2,0,0.3-0.7
		c-0.6-0.5-2.1-0.7-3.9-0.7c-3.6,0-5.2-0.7-6.2-2.9l-0.8-1.6l-0.9,1c-1.3,1.5-2.9,1.1-3.2-0.7l-0.3-1.5l-1.5,2.2
		c-2.1,3.2-3.1,5.2-3.1,6.6C140.7,160.9,141.9,160.6,143.9,157.5L143.9,157.5z M173.3,151.7c0.5-0.1-0.1-3.4-0.8-5
		c-0.7-1.5-1.3-2-2.6-2.2c-4.8-1-6-2.4-5.5-6.9c0.3-3.4,0.3-3.5-2.3-5.5c-1-0.8-2.1-2-2.4-2.6c-0.7-1.6-1.4-1.5-4.8,0.4
		c-3.9,2.2-4.3,3-2.5,5.3c0.8,1,1.6,2.8,1.8,4c0.2,1.2,0.6,2.1,0.9,2.1c0.9,0,1.7,2.2,1.7,4.6c0,1.8,0.3,2.5,2.1,4.6l2.1,2.5l6-0.6
		C170.5,152,173.2,151.7,173.3,151.7L173.3,151.7z M183.9,147.9c-0.7-1.8-1.9-5.9-2.7-9.1c-0.9-3.4-2.4-7.7-3.7-10.4
		c-2.1-4.4-2.7-5.1-3.3-4.2c-0.3,0.5,2.2,7,4.1,10.2c0.8,1.4,2,4.9,2.7,7.7c0.7,3,1.8,6,2.5,7.1c0.7,1,1.3,1.9,1.4,1.9
		C185,151.2,184.5,149.7,183.9,147.9z M172.3,122.2c-2.5-2.1-1.2-3.7,1.8-2.2c1,0.5,1.2,0.9,1.1,1.8c-0.1,0.8-0.1,1,0.3,0.7
		c0.9-0.9,0.2-2.3-1.6-3.2c-3.2-1.6-4.8,0.3-2.3,2.7c0.8,0.8,1.7,1.4,1.8,1.4C173.5,123.3,173.1,122.8,172.3,122.2z M192.7,119.1
		c0.4-0.9,0.7-2.2,0.7-2.9c0-1.5-1.6-4.2-3-4.9l-1.1-0.6l1,1.2c2.3,2.6,2.7,4.9,1.4,7.4c-0.5,0.9-0.5,1.5-0.2,1.5
		C191.8,120.9,192.3,120.1,192.7,119.1z M156.9,107.4c-2.2-1.3-2-3.2,0.4-4.9c1.4-0.9,2.2-1.1,4.3-1c1.7,0.1,2.6,0,2.6-0.4
		c0-0.3,1-0.9,2.3-1.3l2.3-0.7l-2.9,0.3c-4.5,0.4-7.7,1.5-9.7,3.3c-1.6,1.4-1.8,1.9-1.6,3c0.2,0.7,0.9,1.7,1.7,2.1
		C158.2,108.8,158.8,108.6,156.9,107.4L156.9,107.4z M92.8,95.1c-0.2-9.8-0.2-9.8,0.9-10.3c1.6-0.7,1.3-1.3-0.4-0.7l-1.5,0.5v10.1
		c0,7,0.2,10.1,0.5,10.1C92.8,104.9,92.9,102,92.8,95.1z M173.3,104.5c0.5-0.3,0.4-0.5-0.3-0.7c-0.5-0.1-1.2,0.1-1.5,0.4
		c-0.5,0.5-0.5,0.7,0.3,0.7C172.3,104.9,173,104.7,173.3,104.5z M233.8,84.6c0.7,0.3,1.1,0.3,0.8,0c-0.3-0.3-1-0.6-1.6-0.8l-1.1-0.3
		l0.1,10.4l0.1,10.4l0.1-10.1l0.1-10.1L233.8,84.6L233.8,84.6z M101.4,99.4c0.3-0.3,0.1-0.4-0.7-0.1c-1.9,0.6-4.4,1.7-4.4,1.9
		C96.3,101.5,100.9,99.9,101.4,99.4z M106.1,89.8c2.1-9.2,2.2-9.4,3.6-10l1.5-0.7l-1.3,0c-0.7,0-1.5,0.3-1.8,0.6
		c-0.5,0.6-5,19.7-5,20.9C103.2,101.9,104.1,98.9,106.1,89.8z M224.7,98.6c-0.6-1-0.7-0.7-0.2,0.6c0.2,0.4,0.4,0.7,0.5,0.6
		S225,99.1,224.7,98.6z M218.1,79.7c0.7,0.1,1.1,0,0.9-0.2c-0.1-0.2-0.8-0.4-1.4-0.4h-1.2l0.1,10.1l0.1,10.1l0.1-9.9l0.1-9.9
		C216.9,79.5,218.1,79.7,218.1,79.7z M112.6,96.3c-0.2-1-0.4-1.7-0.6-1.6c-0.1,0.1-0.1,1.1,0.1,2.1s0.4,1.7,0.6,1.6
		C112.8,98.2,112.8,97.3,112.6,96.3z M118.9,87.5c0.1-9.6,0.1-9.6,1.2-9.8c0.6-0.1,1.1-0.4,1.1-0.7c0-0.3-0.5-0.4-1.1-0.2
		c-0.6,0.2-1.3,0.3-1.5,0.3c-0.2,0-0.4,4.6-0.4,10.3s0.1,10.1,0.3,10C118.7,97.2,118.9,92.8,118.9,87.5z M211.4,78
		c1.2-0.2,1.2-0.2-0.3-0.3l-1.6-0.1l0.1,10.1l0.1,10.1l0.1-9.8l0.1-9.8L211.4,78L211.4,78z M124.2,91.8c-0.7-2-1.3-3.6-1.4-3.5
		c-0.1,0.1,0.3,2,1,4.2c0.6,2.2,1.3,3.8,1.4,3.5C125.3,95.7,124.9,93.8,124.2,91.8z M203.1,89.7c-0.1-1.3-0.2-0.2-0.2,2.4
		c0,2.6,0.1,3.7,0.2,2.4C203.2,93.1,203.2,91,203.1,89.7z M130,90.2c0-2.9-0.1-5.2-0.2-5.1c-0.4,0.5-0.7,10.4-0.3,10.4
		C129.8,95.5,130,93.1,130,90.2z M136.8,84.8v-9.6l2.2-0.3c1.2-0.2,3-0.2,3.9-0.1c0.9,0.1,1.5,0,1.3-0.2c-0.2-0.2-2.1-0.4-4.3-0.3
		l-3.9,0.1l-0.1,10.4c-0.1,6.9,0,10.2,0.4,10C136.6,94.6,136.8,90.8,136.8,84.8L136.8,84.8z M195.8,75.6l1.3,0l-1.2-0.4
		c-0.7-0.2-1.4-0.3-1.6-0.2c-0.2,0.1-0.3,4.7-0.3,10.2l0.1,10l0.1-9.8l0.1-9.8C194.4,75.6,195.8,75.6,195.8,75.6z M227,82.2
		c1.3,0.3,1.3,0.3-0.1-0.4l-1.5-0.7l-0.2,6c-0.1,3.3-0.1,6.4,0,6.8s0.3-2.1,0.4-5.6l0.1-6.4C225.7,82,227,82.2,227,82.2z M152.2,92
		c-1.5-1.8-2-4.1-2-8.8c0-4.1,1.2-7.7,2.8-8.8c0.6-0.4,1.9-0.8,3-0.8c1.6,0,1.8-0.1,1.1-0.5c-1.2-0.7-3.2-0.1-4.9,1.4
		c-3.4,3.3-3.8,14.2-0.6,17.7C153.3,94,153.7,93.8,152.2,92z M169.5,73.7c2.1,0.1,3.6,0,3.3-0.2s-2.2-0.4-4.1-0.4l-3.5,0l0.1,10.3
		l0.1,10.3l0.1-10.1l0.1-10.1L169.5,73.7L169.5,73.7z M172.7,90.5c-0.5-1.4-0.9-2.4-1.1-2.3s0.1,1.4,0.6,2.8
		c0.5,1.4,0.9,2.4,1.1,2.3S173.1,91.9,172.7,90.5z M143.7,91.2c1.2-1.1,1.3-4.1,0.2-5.5c-0.7-0.9-0.7-0.9-0.2,0.1
		c1.3,2.7,0,5.6-2.4,5.6c-0.7,0-1.6,0.2-2,0.5c-0.5,0.4-0.2,0.5,1.4,0.3C141.8,92.2,143.2,91.7,143.7,91.2L143.7,91.2z M180.4,90.9
		c-1.1-2.1-1.5-9.1-0.7-12.1c0.8-3,3-4.9,5.4-4.6c1,0.1,1.7,0,1.6-0.2c-0.1-0.2-1.1-0.4-2.2-0.4c-2.4,0-4.5,1.9-5.3,4.8
		c-0.9,3.2-0.7,9.6,0.4,12c0.5,1.2,1.1,2.1,1.2,2.1S180.9,91.8,180.4,90.9L180.4,90.9z M110.9,91.6c0.5-0.3,0.5-0.8-0.1-2.9
		l-0.8-2.4l0.3,2.3c0.2,2,0.2,2.3-0.9,2.8c-1,0.5-1,0.6-0.2,0.6C109.8,92,110.5,91.8,110.9,91.6z M187.5,91.1
		c0.3-0.5,0.5-1.3,0.5-1.6c0-0.4-0.3-0.1-0.6,0.6c-0.5,1-1,1.2-2.4,1.2c-1,0-1.7,0.1-1.5,0.4C184,92.4,187,92.1,187.5,91.1z
		 M158.4,89.5c0.6-1.2,0.9-2.9,0.9-6c0-5.3-0.9-7.6-3.2-7.9c-0.9-0.1-1.8,0.2-2.1,0.6c-0.5,0.6-0.4,0.7,0.9,0.1
		c1.4-0.5,1.6-0.5,2.4,0.5c1.8,2.2,1.9,10.2,0.2,12.8c-0.6,1-1.1,1.2-2.2,1.1c-0.8-0.1-1.3,0-1.1,0.2c0.1,0.2,1,0.4,1.8,0.3
		C157.2,91.3,157.7,90.9,158.4,89.5z M129.8,76.1c0.2-0.2,0.9-0.5,1.4-0.6c0.7-0.2,0.5-0.3-0.5-0.3l-1.5-0.1l-1.5,5.3
		c-0.8,2.9-1.5,5.7-1.5,6.1c0,0.4,0.8-1.7,1.7-4.7C128.7,78.9,129.6,76.3,129.8,76.1z M188.2,84.4l2.5-0.2l-2.8-0.1
		c-2.8-0.1-2.8-0.1-2.7,1.3c0.1,1.1,0.1,1.2,0.3,0.3C185.6,84.8,186.1,84.6,188.2,84.4z M146.3,84.6c-0.2-0.3-0.6-0.5-0.8-0.5
		c-0.3,0-0.3,0.3,0.1,0.8C146.3,85.6,146.9,85.5,146.3,84.6z M203.2,80.5v-4l1.3,0.3c1,0.2,1.2,0.2,0.6-0.2
		c-0.4-0.3-1.1-0.5-1.6-0.5c-0.7,0-0.9,0.5-0.9,4v4l-2.6-0.2c-2-0.2-2.2-0.1-0.9,0.2C203.3,84.9,203.2,85,203.2,80.5L203.2,80.5z
		 M143.2,82.1c1.4-1.1,1.5-3.7,0.2-4.9c-0.8-0.8-0.9-0.8-0.3,0c0.8,1.1,0.5,3.9-0.4,4.4c-0.4,0.2-1.5,0.6-2.4,0.9l-1.7,0.5l1.8,0.1
		C141.4,83,142.5,82.7,143.2,82.1L143.2,82.1z M172.9,81.6c1.2-1.2,1.3-3.6,0.2-4.7c-1.1-1.1-1.4-1-0.5,0.3c1.7,2.5,0.6,4.3-2.8,4.9
		l-2,0.3l2.1,0.1C171.4,82.6,172.2,82.3,172.9,81.6L172.9,81.6z M187.4,78.2c-0.2-0.2-0.3,0.1-0.3,0.7c0,0.6,0.1,0.7,0.3,0.3
		C187.6,78.8,187.5,78.4,187.4,78.2L187.4,78.2z"/>
	<path id="path3036" class="st2" d="M159.5,257.9c-5.9-2.9-21.2-15.8-31.5-26.5c-28-29.3-43.6-63.9-49.3-109.3
		c-0.8-6-1.9-24.2-2-29.9c0-9.2,2.9-14.8,9.2-17.9c6.7-3.3,20.3-7.5,30.6-9.6c18.1-3.7,43.4-5.3,62.5-4c21.4,1.4,37.6,4.4,53.1,9.9
		c11.1,3.9,14.4,6.2,16.9,11.5c1.3,2.7,1.3,2.8,1.2,13.7c-0.4,44.6-11.9,83.9-33.9,115.2c-10.3,14.7-25,29.7-40.7,41.8
		C167.1,259.2,164.1,260.2,159.5,257.9L159.5,257.9z M170.1,254.4c11.5-7.8,29.6-24.9,38.6-36.4c9.7-12.3,20-30.2,25.1-43.5
		c7.9-20.5,12.4-41.5,14.2-66.9c0.6-8.5,0.6-20.2,0.1-22.7c-0.3-1.3-0.2-1.9,0.1-2c0.7-0.2-0.9-2.8-1.8-2.8c-0.3,0-1.2-0.6-1.8-1.3
		c-4.6-5-28.2-12.1-49.7-14.8c-15.6-2-42-2.3-57.6-0.6c-24,2.6-49.7,9.9-54.9,15.6c-0.8,0.8-1.6,1.4-1.8,1.3
		c-2.5-1.6-2.5,22,0.1,42.5c5.6,45,21.6,79.8,50.2,108.9c10.1,10.3,22.3,20.6,28.9,24.4C163.4,258.2,165,257.9,170.1,254.4
		L170.1,254.4z M160.9,251.9c-1.1-0.7-4.3-2.9-7-5.1c-2.8-2.1-5.3-3.9-5.7-3.9c-0.4,0-1.4-0.7-2.2-1.4l-1.6-1.4l1.8,1.3
		c2.5,1.8,2.3,1.3-0.2-0.8c-1.1-0.9-1.9-1.4-1.7-1.1c0.8,1.3-0.6,0.4-2.4-1.5c-1.1-1.2-1.4-1.7-0.7-1.1c0.7,0.5-2.4-2.8-6.8-7.5
		c-7.8-8.2-15.3-17.2-20.2-24.4c-2.8-4.1-3.5-4.9-2.7-3.2l0.6,1.2l-1-1.2c-0.6-0.7-0.9-1.5-0.8-1.9c0.1-0.4,0-0.5-0.2-0.4
		c-0.5,0.3-2.1-2.4-1.7-2.8c0.1-0.1-0.8-2.3-2.2-4.8c-3.5-6.6-6.2-12.4-9.3-20.1c-1.5-3.8-2.9-6.7-3.1-6.5s-0.2-0.2,0-0.9
		c0.2-0.8,0.1-1-0.2-0.5c-0.6,0.9-2.3-4-1.9-5.4c0.3-0.9,0.2-1-0.2-0.4c-0.4,0.6-0.5,0.4-0.2-1c0.2-1.4,0.2-1.6-0.3-1
		c-0.5,0.6-0.5,0.6-0.3-0.2c0.2-0.5-0.2-3.1-0.9-5.7c-3.2-12.8-6.5-35.6-6.6-45.8c0-1.6-0.1-1.9-0.4-1.3c-0.3,0.9-0.4,0.9-0.7-0.2
		c-0.2-0.7-0.3-2.4-0.3-3.8c0-4-1-3.4-1.6,0.9c-0.1,0.7-0.2-2.1-0.3-6.2c0-4.1,0.1-7.7,0.3-8c0.2-0.3,1-0.5,1.8-0.5
		c1.8,0,2.1-1.1,1.1-3.2c-0.7-1.4-0.7-1.5,0.6-2.8c1.2-1.3,5.8-3.7,8.4-4.4c1.2-0.3,1.2-0.3-0.1,0.5c-0.7,0.4-1.3,1-1.3,1.3
		c0,0.6,0,0.6,2.4-0.3c2.5-0.9,3.1-0.9,2.7-0.2c-0.2,0.4,0,0.4,0.6,0.3c10.5-3.4,19.5-5.6,29-7.2c4.5-0.8,7.6-1.5,7.1-1.7
		c-0.5-0.2,0.1-0.2,1.5,0c1.9,0.2,2.3,0.1,1.7-0.3c-0.6-0.4-0.1-0.5,2-0.3c1.5,0.1,7.4,0.1,13.2-0.2c19.5-0.8,27.6-1,27-0.6
		c-0.3,0.2,2.7,0.7,6.6,1c8.8,0.7,22.3,2.7,29.6,4.3c3,0.7,6,1.1,6.6,0.9c1-0.2,1-0.2,0.4,0.3c-0.6,0.5-0.5,0.5,0.3,0.3
		c1.3-0.4,3.7,0.2,3.3,0.7c-0.1,0.2,0.2,0.3,0.8,0.1c0.8-0.2,0.9-0.1,0.7,0.3c-0.3,0.5-0.1,0.5,0.7,0.3c0.7-0.2,1-0.2,0.8,0.2
		c-0.2,0.3,0.8,0.9,2.3,1.4c4.9,1.6,10.4,4.3,11.8,5.6c2.9,2.8,3,3.4,2.9,14.4c-0.1,8.5-1,23.7-1.9,29.9c-0.3,2-0.1,1.6,1.3-3
		c0.6-1.8,1.2-3.5,1.4-3.8c0.2-0.3,0.6-1.8,0.9-3.2c0.4-2.6,0.5-2.5,0.2,1c-1.7,24.8-10.1,54.4-21.5,75.2
		c-9.6,17.8-23.6,35.3-37.3,47l-3.2,2.7l2.2-2.5c1.2-1.4,2.6-3.3,3-4.3c0.4-1,1.5-2.7,2.4-3.7l1.6-1.9l-1.7,1.5
		c-0.9,0.8-3.1,2.8-4.9,4.4c-3.8,3.5-13.7,11.6-18.1,14.8C164.9,253.2,163.5,253.5,160.9,251.9L160.9,251.9z M148.5,192.9
		c2.1-2.1,0.8-3.6-1.6-1.9c-0.9,0.6-1.7,1.2-1.8,1.3c-0.4,0.2,1.1,1.6,1.7,1.6C147.2,193.9,148,193.5,148.5,192.9z M135.6,185.5
		c0-0.8-0.1-1.5-0.3-1.5c-0.7,0-1.6,2.4-1.3,3.3C134.5,188.5,135.6,187.4,135.6,185.5z M171.4,185.2c0.9-0.5,1-0.7,0.4-1
		c-0.4-0.2-1.2-1.2-1.7-2.2c-1.3-2.2-3.1-4.1-3.4-3.8c-0.1,0.1,0.5,1.4,1.3,2.8c1.3,2.1,1.5,2.9,1.3,4.5c-0.3,2.1,0.2,3.3,0.6,1.4
		C170.2,186.3,170.8,185.5,171.4,185.2L171.4,185.2z M197.3,184.4c0-0.3-0.2-0.9-0.4-1.3c-0.5-0.9-1.2,0.1-0.8,1.2
		C196.4,185.2,197.3,185.2,197.3,184.4z M177.8,173.5c0-0.2-0.4-0.7-1-1c-0.5-0.3-1-0.9-1-1.3s-0.2-0.7-0.5-0.7
		c-0.8,0-0.5,2.9,0.3,3.4C176.6,174.5,177.8,174.2,177.8,173.5L177.8,173.5z M139.4,166.6l0.3-2.7l-0.8,1.7c-0.4,1-0.8,2.9-0.9,4.2
		c-0.2,2.4-0.2,2.5,0.5,1C138.8,170,139.2,168.1,139.4,166.6z M165,169.8c0.1-0.8,0.5-1,2.5-1c2.7,0,4.2-1,4.7-3.3
		c0.2-1.1,0.1-1.7-0.7-2.6c-0.6-0.6-1.9-2.8-2.9-5c-2.1-4.4-2.1-4.6,1.9-4.2c1.3,0.1,2.4,0.1,2.4-0.1c0-0.7,2.5-1.5,4.4-1.5
		c1.4,0,2.1,0.3,2.5,1c0.3,0.5,0.9,1,1.3,1c0.6,0,0.6-0.1-0.1-0.5c-1.5-0.9-0.9-1.5,0.7-0.7c1.2,0.6,1.4,0.9,0.9,1.2
		c-0.5,0.3-0.4,0.4,0.5,0.4c1.2,0,1.2,0-0.4-1.5c-1.2-1.1-2.1-1.5-3.6-1.5c-1.1,0-2.4-0.2-2.9-0.5c-1.2-0.6-1.3-2.2-0.2-1.8
		c0.4,0.2,1.4,0.4,2.1,0.6l1.3,0.3l-1.2-1.1c-0.7-0.6-1.8-1.3-2.6-1.6c-1.6-0.6-1.8-1.8-0.3-2.3c1-0.4,1-0.4-0.4-0.7
		c-0.9-0.2-1.7-0.9-2.3-1.9c-0.8-1.4-1-1.5-2.3-1.2c-1.7,0.4-3.9-0.8-3.9-2c0-0.4,0.5-1.2,1-1.8l1-1l-0.9-3.1
		c-0.9-2.9-1.1-3.1-3.6-4.4c-4-2-4.1-3.6-0.5-6.1c2.2-1.5,3.9-1.6,6.5-0.2c2.1,1.1,3.4,3.3,3.4,5.9c0,1,0.9,2.7,2.7,5.1
		c2.8,3.8,3.9,6.7,3.6,9.2c-0.1,1.2-0.4,1.5-1.6,1.7c-1.3,0.2-1.2,0.3,0.7,0.5c1.8,0.2,2.3,0.5,2.9,1.8c1,2,3.4,5.1,3.4,4.3
		c0-0.3-0.5-1.8-1-3.2c-0.6-1.4-1.8-5.5-2.7-9.1c-1-3.7-2.6-8.2-3.7-10.7c-1.1-2.3-2.1-4.4-2.2-4.6s0.3-0.4,0.8-0.4
		c1.6,0,4.4,2.9,6.5,6.7c2.1,3.8,3.7,5.3,5.5,5.1c0.9-0.1,1.1-0.4,1-2.2c-0.1-2.4-1.7-5.9-3.1-6.8c-1.4-0.9-1.2-1.4,0.7-1.4
		c1.7,0,2.7-0.7,1.8-1.2c-0.3-0.2-2.1-0.7-4.1-1.2c-2-0.5-5.9-2-8.6-3.3c-3-1.4-5.3-2.2-5.9-2c-0.5,0.2-2.1,1.4-3.5,2.6
		c-4,3.6-7.2,5.8-10.7,7.5c-5.9,2.8-7.1,4.8-8.5,14c-0.4,2.9-1,5.3-1.2,5.5c-0.9,0.6-5.5,7.2-6.2,8.8c-0.9,2.1-0.9,3.2-0.2,4.8
		c0.7,1.6,2.5,1.7,3.5,0.2c1.1-1.6,2.3-0.9,1.9,1.3c-0.2,1.2-0.1,1.8,0.3,1.8c0.9,0,2.5-1.9,3.3-3.8c0.9-2.3,1.8-2.5,4.1-1.2
		c2.3,1.3,5.1,1.4,6.7,0.1c0.7-0.5,1.4-0.9,1.6-0.7c0.5,0.3,1.2-0.8,1.2-2c0-1.3,1.5-1.6,2.2-0.3c0.4,0.7,0.4,1.3-0.1,2
		c-0.9,1.4-0.1,1.9,1.5,0.9l1.4-0.8l0.2,1.8c0.2,1.6,0,2-2.1,4.1c-2.6,2.6-3.3,4.3-2.4,6.2C163.7,171.3,164.8,171.2,165,169.8
		L165,169.8z M146.1,159.4c0-1.5,0.8-3.2,1.5-3.2c0.7,0,0.6,3.2-0.1,3.9C146.5,161,146.1,160.7,146.1,159.4z M152.7,152.8
		c-0.4-0.5-1-1.4-1.2-2c-0.6-1.7-1.8-2-3.2-0.6c-1.4,1.4-2,1-1.3-0.9c0.3-0.8,0.8-3.5,1.1-6.1c0.9-7.3,3-8.6,4.7-2.7
		c0.4,1.5,1.1,3,1.5,3.4c0.4,0.4,0.7,1.6,0.7,2.7c0,1.6,0.4,2.4,2,4.3c1.1,1.3,2,2.4,2,2.5s-1.2,0.2-2.6,0.2
		C154.3,153.7,153.2,153.4,152.7,152.8L152.7,152.8z M172.2,121.6c-1.2-1-1.3-1.3-0.8-1.7c1.4-0.9,4.4,1.1,3.4,2.3
		C174.1,123.1,173.9,123,172.2,121.6z M186.7,165.2c0.5-0.5-0.1-0.6-2.9-0.6c-5.3,0-7.9-1.8-7.9-5.5c0-4.1,5.1-5.2,6.4-1.4
		c0.3,0.8,0.7,1.5,1,1.5c0.3,0,0.2-0.4,0-1c-0.8-1.6-0.6-2,1.1-2.1c1.2,0,0.9-0.2-1-0.5c-1.4-0.2-3-0.7-3.5-0.9
		c-2-1.1-5.3-0.4-6.7,1.4c-1.7,2.3,0.3,7,3.8,8.9c1.9,1,2.7,1.2,5.7,1C184.5,165.9,186.3,165.6,186.7,165.2L186.7,165.2z
		 M196.6,162.1c-0.2-0.3-0.4-1-0.4-1.6c0-0.6-0.4-1.1-0.7-1.2c-0.4-0.1-0.5,0-0.3,0.3c0.2,0.3,0,0.6-0.6,0.6c-0.5,0-1.1,0.3-1.2,0.7
		c-0.2,0.6,0.1,0.7,1.1,0.7c0.8,0,1.6,0.2,1.7,0.5c0.2,0.3,0.4,0.5,0.5,0.5C196.8,162.6,196.7,162.4,196.6,162.1L196.6,162.1z
		 M194.6,149.4c0.4-1-0.2-4.7-0.7-4.7c-0.8,0-1.3,4.4-0.6,5.1C193.8,150.4,194.3,150.2,194.6,149.4L194.6,149.4z M144.1,146.6
		c1.1-1.7,1.9-3.3,1.9-3.6c0-0.3-0.5,0.4-1.2,1.6c-0.7,1.2-1.7,2.8-2.2,3.6c-0.6,0.8-0.9,1.5-0.7,1.5
		C142.1,149.7,143.1,148.3,144.1,146.6L144.1,146.6z M196.1,135.7c-0.3-2.1-1.1-2.9-1.7-1.8c-0.7,1.2-0.5,3.9,0.4,4.8
		c0.8,0.9,0.9,0.8,1.2-0.1C196.2,138,196.3,136.7,196.1,135.7z M146.9,136.4c-0.2-0.2-0.3,0.1-0.3,0.7c0,0.6,0.1,0.7,0.3,0.3
		C147,137,147,136.6,146.9,136.4L146.9,136.4z M150.7,129.3c0.5-0.5,0.8-1,0.6-1c-0.1,0-0.6,0.4-1.1,1c-0.5,0.5-0.8,1-0.6,1
		C149.7,130.3,150.2,129.9,150.7,129.3z M193.7,117.7c0.6-3.5-2.5-7.3-6.6-8.1c-1.7-0.3-1.7-0.3,0.5,0.9c3.8,2.1,5.6,6.5,3.6,9.3
		c-0.4,0.6-0.6,1.4-0.4,1.7C191.3,122.3,193.3,119.7,193.7,117.7z M164.4,120.4c0.5-0.5,0.8-1,0.6-1s-0.6,0.4-1.1,1s-0.8,1-0.6,1
		C163.4,121.4,163.9,120.9,164.4,120.4z M167.6,117.6c0.3-0.4,0.5-0.7,0.4-0.7s-0.5,0.3-0.9,0.7c-0.3,0.4-0.5,0.7-0.4,0.7
		S167.2,118,167.6,117.6z M159,108.1c-4.2-1.5-4.4-4.4-0.4-6c1.9-0.8,3.2-0.7,5.3,0.1c0.5,0.2,0.8,0,0.8-0.5c0-1.1,1.9-1.8,5-1.8
		c2,0,2.3-0.1,1.3-0.4c-5-1.6-14.2,1-16.3,4.6l-0.9,1.5l1.8,1.7c1.4,1.3,2.2,1.7,3.6,1.6l1.8,0L159,108.1L159,108.1z M92.9,95
		c0-8.3,0.1-9.9,0.7-10.1c0.6-0.2,0.7,0.9,0.7,8.4c0,9.6-0.2,9.2,3.4,7.9c2.4-0.9,2.9-0.9,2.9-0.3c0,0.2-1.7,1-3.7,1.8
		c-2,0.8-3.6,1.5-3.5,1.6s1.9-0.4,3.9-1.2c3.3-1.2,3.7-1.5,3.9-2.7c0.2-1.5,0-1.5-3.5-0.1c-3.1,1.3-3,1.6-2.9-8
		c0.1-4.8,0.1-8.7,0.1-8.7c0,0-0.7,0.2-1.6,0.5l-1.5,0.5v10.4c0,6.8,0.2,10.3,0.5,10.1C92.7,105,92.9,101.1,92.9,95z M173.8,104.5
		c0.5-0.3,0.4-0.5-0.5-0.7c-0.6-0.2-1.2-0.1-1.4,0.1c-0.1,0.2-1,0.5-2,0.6c-1.4,0.2-1.2,0.2,0.7,0.3
		C172.1,104.9,173.5,104.7,173.8,104.5z M232.6,94.2l-0.1-9.8l1.4,0.3c1.6,0.4,1-0.4-0.7-0.9l-1.1-0.3v10.2c0,5.6,0.2,10.2,0.4,10.2
		C232.5,103.9,232.6,99.6,232.6,94.2L232.6,94.2z M223.1,94.1c-1.7-4.1-3.1-7.5-3.2-7.3c-0.1,0.1,0.9,3.1,2.3,6.6
		c1.4,3.5,2.7,6.9,3,7.6c0.2,0.7,0.6,1.1,0.7,0.9C226,101.7,224.8,98.2,223.1,94.1L223.1,94.1z M106.3,98.1c0.5-3.1,0.6-3.5,2.1-3.8
		c0.7-0.2,1.7-0.4,2.1-0.6c0.7-0.2,0.9,0.3,1.4,2.5l0.6,2.7l1.5-0.5c1.7-0.6,1.8,0.5-1.2-11.4l-2.1-8.2l-1.5,0.4
		c-1.4,0.4-1.6,0.6-2.3,4.3c-0.5,2.1-1.6,7-2.4,10.9l-1.6,7l1.6-0.5C105.8,100.4,106,100.1,106.3,98.1z M104.8,98.2
		c-0.2-0.4-0.2-0.9,0-1c0.1-0.1,0.4,0.2,0.5,0.8C105.5,99.1,105.2,99.3,104.8,98.2L104.8,98.2z M105.1,95.8c0-0.5,0.1-0.8,0.3-0.7
		s0.2,0.6,0,1C105.3,96.5,105.1,96.4,105.1,95.8L105.1,95.8z M106.1,91.3c0-0.5,0.1-0.8,0.3-0.7c0.2,0.2,0.2,0.6,0,1
		C106.2,92,106.1,91.9,106.1,91.3L106.1,91.3z M108.1,90.2c0-0.8,0.3-2.5,0.6-3.9l0.6-2.5l0.6,3.4c0.5,2.8,0.5,3.5,0,3.8
		C108.7,91.9,108,91.5,108.1,90.2z M106.6,89.3c0-0.5,0.1-0.8,0.3-0.7c0.2,0.2,0.2,0.6,0,1C106.7,90,106.6,89.9,106.6,89.3
		L106.6,89.3z M107.3,86.3c0.6-3.3,1.2-4.8,0.9-2c-0.2,1.4-0.5,2.8-0.7,3.2C107.2,88,107.1,87.6,107.3,86.3z M108.5,81
		c0-0.6,0.4-0.9,1.1-0.8c0.7,0,0.9,0.1,0.4,0.3c-0.4,0.2-0.9,0.5-1.1,0.8C108.7,81.6,108.5,81.5,108.5,81z M217.3,89.3v-9.6l1.3,0.2
		c1,0.2,1.2,0.1,0.6-0.3c-0.4-0.3-1.2-0.5-1.8-0.5l-1.1,0V89c0,6.3,0.2,9.9,0.5,9.9C217.2,99,217.3,95.4,217.3,89.3z M120.5,97
		c0.6,0,0.7-1.3,0.8-6.6c0-3.6,0.2-6,0.3-5.3c0.3,2,3.1,11.1,3.5,11.6c0.2,0.2,0.5-0.4,0.7-1.5s1.1-4.2,2-7.1l1.7-5.2l-0.3,6.5
		l-0.3,6.5l1.5-0.2l1.5-0.2l0.1-10.1l0.1-10.1l-1.5,0c-1.5,0-1.6,0.1-2.6,3.6c-0.6,2-1.5,5.1-1.9,7l-0.8,3.4l-1.8-5.7
		c-1-3.1-1.8-5.9-1.8-6.2c0-0.6-0.7-0.7-2.3-0.2c-1.1,0.3-1.1,0.3-1.1,10.5c0,9.1,0.1,10.2,0.8,9.9C119.5,97.1,120.1,97,120.5,97z
		 M210.1,87.7L210,78l1.2,0.3c0.7,0.2,1.2,0.1,1.2-0.1c0-0.2-0.7-0.5-1.5-0.7l-1.5-0.2v10.1c0,5.6,0.2,10.1,0.4,10.1
		C210.1,97.5,210.2,93.1,210.1,87.7L210.1,87.7z M203.1,88.9c-0.1-1.4-0.2-0.3-0.2,2.6c0,2.9,0.1,4,0.2,2.6
		C203.2,92.7,203.2,90.3,203.1,88.9z M142.7,94c2.7-0.7,4-2.5,4.3-5.6c0.2-2.4,0.1-2.9-1-3.9c-1.2-1.2-1.2-1.2-0.3-2.3
		c1.4-1.7,1.2-5.2-0.3-6.8c-1.1-1.2-1.5-1.2-5.2-1.1l-4,0.1l-0.1,10.2l-0.1,10.2l2.6-0.2C139.8,94.5,141.7,94.2,142.7,94z
		 M138.8,88.3v-3.2h1.9c2.3,0,3.5,1.2,3.5,3.3c0,2-1.3,3.1-3.6,3.1h-1.8V88.3z M139,81.9c-0.1-0.4-0.2-1.7-0.1-2.9
		c0.1-1.9,0.3-2.2,1.5-2.3c2.1-0.2,3.3,0.7,3.3,2.6c0,1.9-0.6,2.5-2.8,2.9C139.7,82.5,139.1,82.3,139,81.9L139,81.9z M194.9,85.2
		c0-9.5,0-9.7,1-9.5c0.5,0.1,1,0.1,1-0.1c0-0.4-1.6-1-2.6-1c-0.2,0-0.4,4.6-0.4,10.2c0,6.5,0.2,10.2,0.5,10.2
		C194.7,95,194.9,91.4,194.9,85.2z M227,82.3c1.3,0.3,1.3,0.3-0.1-0.4l-1.5-0.7l-0.1,5.7c-0.1,5.2-0.2,5.6-0.9,4.8
		c-0.7-0.9-0.7-0.8-0.2,0.5c1.1,3.2,1.2,2.8,1.3-3.6l0.1-6.6L227,82.3L227,82.3z M188.1,93.7c0.8-0.5,0.9-0.6,0.2-0.4
		c-0.5,0.2-1.7,0.5-2.7,0.7c-1.7,0.4-1.7,0.4-0.2,0.4C186.2,94.4,187.4,94.1,188.1,93.7z M158.2,93c2-1.2,3-3.5,3.3-7.6
		c0.8-8.5-3-14.3-7.8-12c-2.5,1.2-3.9,4.3-4.1,9.2C149.1,91.5,153,96.2,158.2,93z M153.9,90.1c-2-2-2-10.5,0-12.7
		c1.5-1.6,2.7-1.6,3.8,0.1c0.7,1.1,0.9,2.4,0.9,6.1s-0.2,5.1-0.9,6.1C156.6,91.3,155.2,91.4,153.9,90.1L153.9,90.1z M175.9,93
		c0-0.2-0.6-2.2-1.4-4.4l-1.4-4l1.2-0.8c2.6-1.7,2.5-7.4-0.1-9.6c-1-0.8-2-1-5.1-1h-3.8v10.2v10.2h1.2c1.2,0,1.2,0,1.2-4.5v-4.5
		l1.3,0c1.3,0,1.4,0.3,2.7,4.6c1.4,4.6,1.4,4.6,2.8,4.4C175.2,93.5,175.9,93.2,175.9,93L175.9,93z M173.8,92.6
		c-0.1-0.2-0.8-2.2-1.5-4.5l-1.3-4.1H169c-1.2,0-1.9-0.2-1.9-0.6c0-0.4,0.9-0.6,2.7-0.7c1.5,0,3-0.3,3.4-0.6c1.8-1.5,1.2-5.4-1-6.4
		c-1.4-0.7-4.4-0.7-4.8-0.1c-0.1,0.2-0.3,2.9-0.4,6c-0.1,3-0.2,5.4-0.4,5.2c-0.1-0.2-0.4-3.1-0.5-6.5l-0.2-6.2l3.4,0
		c4,0,5.3,0.7,6.1,3.2c0.8,2.4,0.2,4.5-1.5,5.8l-1.4,1.1l1.4,4.3c1.1,3.3,1.3,4.3,0.8,4.3C174.3,93,173.9,92.8,173.8,92.6
		L173.8,92.6z M167.8,81.4c-0.1-0.4-0.2-1.8-0.1-3.1c0.1-2.3,0.2-2.4,1.7-2.6c3.2-0.3,5.4,3.9,2.9,5.6
		C171,82.3,168.1,82.3,167.8,81.4z M182.3,92.7c-1.9-1.6-2.7-4.1-2.7-8.7c0-5,1.2-8.3,3.4-9.2c2.2-0.9,4.9-0.1,6,2
		c0.3,0.5,0.6,0.7,0.6,0.3c0-0.4-0.6-1.3-1.4-2.1c-1.1-1.1-1.9-1.5-3.4-1.5c-4.2,0-6.2,3.6-5.9,11c0.2,5.1,1.2,8.1,3,8.9
		C183.7,94.3,183.8,94,182.3,92.7z M187.2,91.8c1.7-1.7,1.4-5.7-0.5-5.7c-0.4,0-0.7-0.4-0.7-0.8c0-0.5,0.3-0.7,0.8-0.5
		c0.4,0.2,1.3,0.3,1.9,0.3c1,0,1.2,0.2,1.3,2.6l0.2,2.6l0.1-3.1l0.1-3.1h-2.7c-2.5,0-2.7,0.1-2.7,1.2c0,1,0.3,1.2,1.3,1.4
		c1.2,0.1,1.3,0.3,1.2,1.6c-0.3,2.2-0.9,3.2-2.2,3.2c-1.8,0-3.3-1.6-3.7-4c-0.3-1.5-0.4-1.8-0.5-0.9C181.1,90.7,185,94.1,187.2,91.8
		z M189.9,91.3c-0.2-0.2-0.4,0.1-0.6,0.6c-0.3,0.7-0.2,0.8,0.3,0.3C189.9,91.8,190.1,91.4,189.9,91.3z M203.2,80.8
		c0-3.6,0-3.7,1.2-3.7c0.7,0,1.1-0.2,0.9-0.5c-0.2-0.3-0.8-0.5-1.5-0.5c-1.2,0-1.2,0.1-1.2,4c0,2.9-0.2,4-0.6,3.9
		c-0.3,0-1.7-0.2-2.9-0.4c-1.3-0.2-2.3-0.2-2.3,0c0,0.2,1,0.5,2.3,0.7c1.3,0.2,2.5,0.4,2.8,0.5C203,85.1,203.2,84.4,203.2,80.8
		L203.2,80.8z M181.9,79.9c0.2-1,0.7-2.3,1.3-2.9c0.5-0.5,0.7-1,0.5-1c-0.9,0-2,2.4-2.3,4.6C181.2,83.1,181.5,82.7,181.9,79.9
		L181.9,79.9z M188.1,79.4c0-0.7-1.2-2.7-1.7-2.9c-0.4-0.2-0.3,0.3,0.2,1.4C187.2,79.3,188.1,80.1,188.1,79.4L188.1,79.4z M190,78.6
		c0-0.3-0.3-0.4-0.7-0.2c-0.4,0.2-0.7,0.4-0.7,0.5s0.3,0.2,0.7,0.2C189.7,79.1,190,78.9,190,78.6z M89.7,77.2
		c-0.2-0.2-0.5,0-0.9,0.3c-0.5,0.5-0.4,0.5,0.3,0.3C89.6,77.6,89.9,77.3,89.7,77.2z"/>
	<path id="path2991" class="st3" d="M162.5,258.6c-1.8-0.3-3.1-0.9-5.7-2.8c-9-6.6-16.4-12.7-23.1-18.9c-2.6-2.4-8.2-8.2-10.1-10.4
		c-8.1-9.2-14.8-18.7-23-32.4c-1.8-3-4-7.5-7-14.4c-9.8-22.3-14.9-44.7-16.4-72.1c-0.3-5.3-0.4-9.4-0.4-15.5c0-5,0-5.6,0.3-6.9
		c0.5-2.5,1.3-4.9,2.4-6.5c1.3-2,4.9-4.8,7.7-6.2c4-1.9,13.8-4.9,22.7-6.8c2.4-0.5,7.1-1.5,8.7-1.8c0.5-0.1,1.5-0.3,2.2-0.4
		c0.7-0.1,1.7-0.3,2.2-0.4c0.5-0.1,1.2-0.2,1.7-0.3c0.5-0.1,1.3-0.2,2-0.3c0.6-0.1,1.9-0.2,2.8-0.4c0.9-0.1,2-0.3,2.3-0.3
		c2.9-0.4,3.9-0.5,5.9-0.7c9.9-1.1,23.1-1.6,32.7-1.3c4.2,0.1,13.7,0.7,14.4,0.8c0.2,0,1.1,0.1,2.1,0.2c0.9,0.1,2.5,0.2,3.4,0.3
		c0.9,0.1,2.5,0.3,3.4,0.4c4.3,0.5,7.9,1,9.5,1.2c0.6,0.1,2.1,0.3,3.4,0.6c13.4,2.2,24.6,5.3,32.9,9.3c3.6,1.7,5,2.7,6.8,4.6
		c2,2.2,3.2,4.5,3.9,7.4c0.5,2.5,0.3,17.8-0.4,27.5c-1,13.3-2.7,24.5-5.6,36.2c-3.1,12.6-7.2,24.2-13.2,37c-2,4.3-2.6,5.4-4.2,8.3
		c-0.9,1.5-1.7,2.9-1.7,2.9c0,0.1-0.2,0.4-0.4,0.7c-0.2,0.3-0.4,0.7-0.5,0.8c-0.1,0.1-0.4,0.6-0.7,1.1s-0.5,0.9-0.6,1
		c0,0.1-0.1,0.2-0.1,0.2c0,0-0.3,0.5-0.6,0.9c-0.3,0.5-0.7,1.2-1,1.6c-0.3,0.4-0.5,0.8-0.5,0.8c0,0.1,0,0.1-0.1,0.2
		c-0.1,0.1-0.8,1.1-0.8,1.2c0,0.1-0.1,0.1-0.2,0.2c-0.1,0-0.2,0.1-0.2,0.2s-0.3,0.6-0.7,1.1c-0.4,0.5-0.7,1-0.7,1.1
		c0,0.1-0.1,0.2-0.2,0.2c-0.1,0-0.2,0.2-0.2,0.3c0,0.1,0,0.2-0.1,0.2c-0.1,0-0.2,0.2-0.3,0.3c-0.1,0.2-0.2,0.4-0.3,0.5
		c-0.4,0.5-0.9,1.3-1.8,2.5c-0.9,1.3-1.8,2.6-3,4.2c-11,14.9-22.5,26-40.6,39.3c-2.6,1.9-3.9,2.6-5.4,3
		C164.9,258.6,163.4,258.7,162.5,258.6L162.5,258.6z M165.6,257.5c1.5-0.4,2.8-1.1,5.2-2.9c23.1-17,36-30.9,50.7-54.4
		c3.9-6.3,5.9-9.7,7.4-13c4.3-9.1,7.4-16.6,9.9-24.3c6.1-18.5,9.5-38.1,10.3-60.8c0.2-5.3,0.2-15.7-0.1-16.9
		c-0.6-3.5-2.7-6.8-5.8-9.2c-1.1-0.9-5.1-2.9-7.7-4c-7.6-3.1-16.3-5.4-27.6-7.4c-6.7-1.2-15.4-2.2-23.8-2.9
		c-0.9-0.1-1.9-0.2-2.3-0.2c-1.1-0.1-6.5-0.4-9.6-0.6c-5.9-0.3-16.5-0.1-24,0.3c-19.5,1.2-40.9,5.1-55.6,10.2c-4,1.4-5.5,2-7.6,3.4
		c-3.4,2.2-4.9,3.9-6.1,6.7c-1.3,3.2-1.5,5.9-1.3,15.5c0.2,12.2,1,21.7,2.4,31.7c2.8,19.8,7.8,36.6,16.2,54.9
		c3.3,7.1,4.2,8.8,9.4,17.2c1.3,2.1,4.8,7.4,6.3,9.4c9.8,14.1,19.4,24.2,33.5,35.8c3.7,3,12.4,9.7,13.9,10.6c0.5,0.3,2,0.9,2.6,1
		C163,257.8,164.6,257.8,165.6,257.5L165.6,257.5z M162.3,252.5c-0.7-0.2-2.4-1.4-5.9-4.1c-21.3-16.8-33.4-29.9-45.4-49.5
		c-1.6-2.6-3.8-6.3-5.2-8.9c-1.4-2.6-6-12.3-8.3-17.7c-8.1-18.9-12.6-38.5-14-61.2c-0.5-8-0.6-19-0.1-21.3c0.5-2.5,1.3-4.7,2.4-6.4
		c1.2-1.9,3.5-3.7,5.6-4.6c4.4-1.8,14.4-4.7,23-6.6c14.9-3.3,28.8-5,44.3-5.4c4.3-0.1,11.7-0.1,13.3,0.1c0.3,0,1.3,0.1,2.3,0.1
		c9.6,0.4,22.6,1.8,31.9,3.4c11.5,2,20.2,4.6,27.7,8.2c1.2,0.6,2.5,1.2,3.1,1.5c4.1,2,6,5,6.6,10.6c0.3,2.8-0.4,16.5-1.4,26.1
		c-2.8,27.4-8.3,47.3-18.7,67.5c-4.2,8.2-10.9,19.3-16,26.6c-8.7,12.4-17.1,21.1-34.1,35.1c-0.3,0.3-1.8,1.5-3.2,2.6
		c-1.4,1.2-2.9,2.4-3.4,2.7C165.1,252.4,163.6,252.8,162.3,252.5L162.3,252.5z M130.6,208c1.5-0.7,2-1.8,2.2-4.7
		c0.1-1.9,0.5-2.7,1.5-2.9l0.5-0.1l-0.1-1.2c-0.1-1.8-0.1-4.4,0-4.7c0.1-0.2,0.7-1.1,1.4-1.9c1.6-2.1,2.6-3.5,2.9-4.2
		c0.1-0.3,0.3-1.4,0.5-2.4c0.3-2,0.2-1.7,2.4-5.4c0.7-1.1,1.6-2.9,2.2-4c0.6-1.2,1.2-2.3,1.5-2.6c0.3-0.3,0.6-0.6,0.7-0.8
		c0.1-0.2,0.3-0.3,0.4-0.3c0.2,0,1,0.8,1.2,1.3c0.3,0.6,0.3,0.7,0.3,3.5c0,2.9,0,2.9,0.3,3.1c0.2,0.1,0.4,0.2,0.6,0.2
		c0.3,0,0.3,0-0.1-0.4c-0.5-0.5-0.6-1.3-0.5-3.4c0.1-1.7,0.1-1.9-0.2-2.6c-0.1-0.4-0.3-1-0.2-1.2c0-0.4,0.1-0.4,0.6-0.4
		c0.6,0,0.9-0.3,1.2-0.9c0.2-0.5,0.3-0.8,0.3-1.6c0-0.3-0.1-0.4-0.7-0.7c-0.8-0.5-1.1-0.8-1.2-1.8c-0.2-1.2,0-4.9,0.2-5.7
		c0.2-0.7,0.3-0.8,1.2-0.2c0.9,0.6,3.4,1.7,4.7,2c1.6,0.4,3.7,0.4,4.4,0.1c0.6-0.3,2.8-2,3.7-2.9c0.4-0.4,1.1-1,1.5-1.3
		c0.4-0.3,0.9-0.7,1.2-1c0.3-0.2,0.6-0.4,0.8-0.4c0.4,0,1.6,0.5,2,0.8c0.7,0.6,0.4,1.3-1.4,2.5c-1.4,0.9-2.9,2.6-3.6,4
		c-0.3,0.6-1.8,5.1-1.8,5.4c0,0.5,0.4,1.6,0.8,2.2c1.5,2.1,2.2,3.2,2.3,3.8c0.1,0.4,0.2,0.8,0.4,1.1c0.4,1-0.1,1.5-1.7,1.9
		c-0.6,0.2-1.4,0.3-1.8,0.4l-0.7,0.1l0.2,0.3c0.2,0.3,0.2,0.3,0.3,0.1c0.1-0.2,0.4-0.2,1.5-0.2c1.1,0,1.5,0,2-0.3l0.6-0.3l0.3,0.4
		c0.3,0.4,2.3,2.5,2.3,2.4c0-0.3-0.9-2.5-1.7-3.9c-0.5-1-1.2-2.3-1.5-3c-0.3-0.7-1-1.8-1.5-2.5c-0.5-0.7-1-1.5-1.1-1.7
		c-0.2-0.6-0.1-1.7,0.2-2.5c0.5-1.4,0.8-1.3,0.9,0.2c0,1.1,0.1,1.4,1.3,3.1c1.3,2,1.4,2.1,2.1,3.8c0.6,1.4,1.3,2.7,2.1,3.9
		c0.4,0.6,1.2,2.7,1.2,3.3c0,0.2-0.1,0.5-0.4,0.7l-0.4,0.4l-0.3-0.3c-0.1-0.2-0.3-0.3-0.3-0.3c0,0-0.1,0.4-0.1,0.9
		c0,0.8,0,0.8,0.4,1.2c0.4,0.4,0.4,0.4,0.4,1.2c0,0.9,0.3,1.5,0.8,1.9c0.2,0.2,1,0.4,1.7,0.5l1.4,0.3l0.5-0.4c0.8-0.7,1.8-1.9,2-2.4
		c0.2-0.6,0.1-1.1-0.3-1.4c-0.1-0.1-0.3-0.4-0.4-0.6c-0.2-0.5,0-0.6,1.1-0.6c0.9,0,1,0,1.2-0.4c0.3-0.4,1.2-2.2,1.6-3.7
		c0.2-0.7,0.3-1.1,0.3-2.1c0-1,0.1-1.3,0.3-2.1c0.4-1.3,0.4-2.2,0-3.1c-0.4-0.7-0.6-1-1.5-1.5c-1-0.6-0.9-1,0.5-1.6
		c0.8-0.3,1.2-0.6,1.2-1c0-0.3,0-0.3-1.1-0.2c-1.1,0.1-1.1,0.1-1.3-0.3c-0.7-1-1.1-1.1-1.8-0.7c-0.8,0.5-2.4,3.6-2.4,4.5
		c0,0.5,0.6,1,1.6,1.4c0.5,0.2,1.1,0.5,1.2,0.6c0.5,0.3,0.8,0.9,0.8,1.7c0,0.4,0.1,0.9,0.1,1.1c0.1,0.2,0.1,0.7,0.1,1.1
		c0,0.7-0.1,0.9-0.4,1.6c-0.5,1-2,3-2.4,3.2c-0.4,0.2-0.9-0.2-1.1-0.9c-0.2-0.5-0.1-0.6,0.1-1.2c0.6-1.3,0.6-1.8,0.5-3.7
		c-0.1-1-0.2-1.9-0.3-2.1c-0.3-0.6-0.7-0.4-1.5,0.6c-0.8,1-1.3,1.4-1.7,1.4c-0.4,0-0.6-0.4-0.5-1.4c0.1-1,0.3-1.7,1.2-3.6
		c0.7-1.5,1.7-4.2,2.1-5.5c0.3-0.9,0.3-3.3,0.1-4.3c-0.1-0.5-0.3-0.8-0.8-1.4c-1.1-1.2-2.5-3.2-3.3-4.7c-0.9-1.7-1.5-3.5-1.2-3.5
		c0.2,0,1.5,1.8,2.1,2.7c0.7,1.1,1,1.4,1.6,1.4c0.4-0.1,0.5,0,0.5,0.4c0.2,1.5,0.9,2.9,2,4.2c0.5,0.6,2.6,2.3,3.2,2.6
		c0.7,0.4,1.8,0.7,3.2,1.1c0.8,0.2,1.5,0.3,3,0.3c2.1,0,2.6-0.1,3.1-0.6c0.1-0.1,0.6-0.4,1-0.5c0.4-0.1,0.8-0.3,1-0.4
		c0.4-0.2,0.8-0.7,0.7-1c-0.1-0.2-0.2-0.3-1.6-0.3c-1.9-0.1-3.5-0.5-4.8-1.1c-0.5-0.2-1.2-0.6-1.7-0.8c-1.4-0.5-2.5-1.4-2.8-2.3
		c-0.1-0.4,0.1-0.8,0.6-0.9c0.2,0,0.5-0.1,0.5-0.2c0-0.1,0.2-0.1,0.3-0.1c0.5,0,0.6-0.2,0.3-1.3c-0.3-1.4-0.3-1.6,0-1.6
		c0.5,0,0.9,0.3,1.6,1.3c0.4,0.6,1,1.4,1.4,1.8c0.6,0.6,0.7,0.7,1.2,0.7c0.3,0,0.5-0.1,0.6-0.1c0-0.1,0-0.3-0.2-0.6
		c-0.2-0.3-0.2-0.7-0.2-1.1c0-0.5,0.1-0.7,0.4-1.1c0.4-0.4,0.4-0.4,1.1-0.4c0.8,0,1.4,0.3,1.8,1c0.3,0.4,0.3,0.5,0.8,0.5
		c0.4,0,0.7-0.1,1-0.3c0.4-0.3,0.5-0.3,0.8-0.2c0.2,0.1,0.4,0.4,0.6,0.6c0.2,0.3,0.5,0.6,0.7,0.8c0.3,0.3,0.4,0.4,1,0.3
		c0.4,0,0.8,0,1,0c0.6,0.2,0.6,0.5,0.4,1.7c-0.2,1-0.2,1.1,0,1.7c0.1,0.3,0.4,0.7,0.6,1c0.4,0.5,0.4,0.5,0.6,2.1
		c0.2,1.5,0,2.5-0.6,4.2c-0.3,0.7-0.7,1.8-0.9,2.5c-0.2,0.7-0.6,1.4-0.8,1.6l-0.3,0.4l0.5,0.4c0.6,0.5,1.1,1.3,1.8,3.1
		c1,2.6,1.1,2.9,1.1,3.9c0,0.8-0.1,1.2-0.5,2.5c-0.7,2.1-0.7,2.9-0.1,3.8c0.2,0.3,0.4,0.7,0.4,0.8s-0.3,0.7-0.7,1.3
		c-1.5,2.6-1.5,3.7,0,5.2c0.8,0.8,1.5,1.1,2,1.1c0.3,0,0.3-0.1,0.4-0.7c0-0.8,0.4-1.3,0.8-1.2c0.2,0,0.3,0.2,0.3,0.9
		c0.1,1.1,0.2,1.2,0.4,1.2c0.5,0,2.2-1.3,2.5-2l0.2-0.4l-0.5,0.4c-0.3,0.2-0.7,0.5-0.8,0.7c-0.4,0.4-0.7,0.4-1.1,0.1
		c-0.4-0.3-0.5-0.8-0.3-1.8c0.3-1.1,0.2-1.9-0.2-2.3c-0.3-0.2-0.5-0.3-1.3-0.3c-0.5,0-1-0.1-1.1-0.1c-0.3-0.2,0-0.7,0.8-1.1
		c1.1-0.6,1.2-1,0.2-1.5c-0.7-0.3-0.8-0.6-0.8-1.1c0-0.6,0.4-1.2,1.1-1.5c0.8-0.3,1.1-0.7,1.1-1.5c0-0.9-0.3-1.4-1-2
		c-1.2-0.9-1.2-0.9-1.2-2c0-0.8,0-1,0.2-1.2c0.2-0.2,0.2-0.5,0.3-1.2c0-0.7,0.2-1.2,0.3-1.6c0.4-0.8,0.4-1.1-0.4-2.3
		c-0.5-0.8-0.7-1.5-0.7-3.3c0-0.7-0.1-1.5-0.1-1.6c-0.2-0.4,0-1.8,0.2-1.9c0.4-0.1,0.9,0.2,1.3,0.9c0.4,0.7,0.5,0.8,0.6,0.4
		c0.1-0.4,0.7-0.3,2.1,0.3c3.2,1.4,6.8,1.7,8.7,0.7c1.1-0.6,3.1-2.3,3.6-3.2c0.5-0.8,0.4-0.8-1.5-0.7c-2,0.1-3.2-0.1-4.5-0.6
		c-1.1-0.4-2.4-1.3-3.1-2.1c-0.3-0.4-1.1-1.1-1.8-1.7c-0.7-0.6-1.3-1.1-1.3-1.3c0-0.1-0.2-0.2-0.3-0.2c-0.4,0-2-0.8-2.9-1.4
		c-0.5-0.3-1.1-0.7-1.4-0.9c-0.9-0.5-4.2-1.1-6.3-1.3l-1.1-0.1l-0.1-0.5c-0.1-0.8-0.4-1.4-1.1-2.5c-0.6-1-0.7-1.2-0.7-1.7
		c0-0.7-0.3-1.3-1.1-2.7c-0.4-0.7-0.7-1.4-0.9-2.1c-0.1-0.5-0.5-1.5-0.7-2.1c-0.6-1.4-0.8-2.1-1-3.5c-0.2-1.6-0.4-2.4-1-3.9
		c-0.3-0.7-0.6-1.9-0.8-2.7c-0.4-2-0.5-2.3-1.5-3.8c-0.5-0.7-0.9-1.5-1-1.7c0-0.2-0.2-0.6-0.4-0.8c-0.2-0.2-0.5-0.7-0.8-1.2
		c-0.3-0.4-0.6-1-0.8-1.2c-0.2-0.2-0.3-0.6-0.3-0.8c0-0.5,0.3-0.7,1.2-0.6c1.9,0.1,3.4,1.6,5.4,5.3c1.6,3,2.8,4.5,4.4,5.3
		c0.6,0.3,1,0.4,1.4,0.4c0.7,0,1-0.3,1.1-1.1c0.1-0.7-0.1-1.4-0.7-3.5c-0.4-1.2-0.5-1.8-0.6-2.8c-0.1-1.5-0.2-1.6-1.5-2.1
		c-1.2-0.4-1.3-0.6-0.3-0.9c1-0.2,2,0,3.1,0.8c0.7,0.5,0.9,0.6,1.4,0.5c0.4,0,0.7-0.2,1.2-0.7c0.6-0.6,0.7-0.7,0.7-1.1
		c-0.1-0.5,0.3-1.3,0.7-1.7c0.4-0.3,0.6-0.8,1-2.5c0.6-2.2,0.4-4-0.4-5.5c-0.7-1.2-4-3.8-5.8-4.7c-1.7-0.8-1.8-0.8-11.2-0.9
		c-10.5-0.1-15.1-0.4-16.5-0.8c-2-0.7-3.4-1.9-3.2-2.7c0.1-0.5,0.8-1.1,1.4-1.4c1.1-0.4,2.6-0.1,5.6,1.1c2.7,1.1,4.4,1.4,7.6,1.3
		c2.8-0.1,5-0.4,5.6-0.9c0.2-0.2,0.2-0.2,0-0.4c-0.1-0.1-1-0.4-2-0.7c-2.1-0.6-3.3-1-3.3-1.3c0-0.2,0.2-0.2,1.6-0.1
		c1.6,0.1,3.5,0.4,4.9,0.8c0.9,0.3,2.9,0.3,3.5,0.1c0.4-0.2,0.5-0.5,0.2-0.8c-0.8-0.8-5.1-2.4-8.4-3c-2.1-0.4-3.7-0.5-7.2-0.5
		c-4.3,0.1-6,0.4-8.1,1.5c-1.7,0.9-3.6,2.7-4.2,3.9c-0.7,1.5-0.2,2.4,1.8,3.7c1.4,0.9,2.6,1.2,4.9,1.6c4.3,0.6,7.4,0.8,15.8,0.8
		c4.1,0,7.4,0,7.8,0.1c1.3,0.2,2.8,0.8,3.5,1.3c0.9,0.6,2,2,2.6,3.1c0.4,0.8,0.4,1,0.4,1.8c0,0.8,0,1-0.3,1.6
		c-0.5,0.9-1.4,2-1.9,2.2c-0.6,0.2-2,0-3.6-0.6c-1.1-0.4-1.5-0.5-2.7-0.6c-1.5-0.1-1.7-0.2-3.9-1.2c-2.3-1-5.7-2.2-7.4-2.5
		c-0.8-0.1-1.6,0-2.8,0.6c-1.2,0.5-1.8,1.1-4.1,3.3c-2.2,2.1-3.1,2.9-4.4,3.5c-2.2,1.1-8.5,4.7-9.1,5.2c-0.9,0.8-2.3,2.5-2.9,3.6
		c-1.1,1.9-1.5,3.4-1.6,6.9c-0.1,2.4-0.1,2.5-0.5,3.5c-0.4,1.1-1.6,3.1-3.1,5.4c-1.4,2.2-2.5,3.9-3.2,5.3c-1.4,2.7-1.6,3.8-1.7,7.7
		l-0.1,2.9l-0.4,1.3c-0.2,0.7-0.8,2.1-1.1,3c-1.4,3.4-1.4,3.2-1.5,9.5l-0.1,4.6l-0.5,1c-0.3,0.6-0.8,1.4-1,1.8
		c-0.7,1-0.9,1.8-1.1,4.7c-0.1,1.2-0.2,2.5-0.2,2.8c-0.1,0.5-0.2,0.7-1.6,2.2c-2.6,2.9-3.6,4.4-3.6,5.4c0,0.5,0,0.6-0.5,0.9
		c-0.9,0.7-2.3,2.2-2.7,3.2c-0.5,1.1-0.7,2.2-0.3,2.8c0.4,0.7,0.6,0.6,1.6-0.8l0.9-1.2l0.3,0.3c0.2,0.2,0.3,0.4,0.3,0.4
		c0,0.1-0.2,0.6-0.5,1.2c-0.3,0.6-0.5,1.2-0.5,1.3c0,0.4,0.5,0.5,3,0.5C129.8,208.3,130.1,208.3,130.6,208L130.6,208z M129.5,201.3
		c-0.4-0.2-1.1-1.6-0.9-2.2c0.1-0.5,0.2-0.5,0.8-0.2c0.7,0.3,1,0.2,1.6-0.2c0.6-0.5,0.8-0.5,1-0.3c0.2,0.2,0.2,0.6-0.1,1.2
		c-0.1,0.3-0.3,0.6-0.4,0.8C131.1,201,130.1,201.5,129.5,201.3z M133.5,189.6c-0.3-0.3-0.3-0.4-0.3-1.4c0-0.6,0-1.1-0.1-1.2
		c0-0.1,0-0.2,0.1-0.4c0.1-0.2,0.2-0.1,0.5,0.2c0.3,0.3,0.5,0.4,0.9,0.4c0.3,0,0.6-0.1,0.8-0.3c0.4-0.4,0.7-0.2,0.6,0.3
		c0,0.8-0.5,1.8-1.3,2.3C134.1,189.9,133.8,190,133.5,189.6L133.5,189.6z M172.3,188.4c-0.3-0.1-0.6-0.2-0.7-0.3
		c-0.2-0.2-0.4-1.7-0.3-2.1c0.3-0.7,1.2-0.4,1.4,0.5c0.1,0.5,0.2,0.6,0.6,0.6c0.5,0,0.7,0.2,0.7,0.9c0,0.4,0,0.4-0.4,0.5
		C173.2,188.7,173,188.6,172.3,188.4L172.3,188.4z M136,178.1c-0.5-0.2-0.7-0.8-0.6-2.1c0.1-1.2,0.5-2.3,1.2-2.7l0.4-0.3l0.3,0.4
		c0.2,0.2,0.4,0.4,0.6,0.4c0.4,0,1.4-0.5,2.1-1.2c0.3-0.3,0.9-0.9,1.3-1.2c0.9-0.8,1.1-1.3,1.1-2.6c0-1.7-0.1-2-0.9-2.7
		c-0.8-0.7-1.1-1.3-1.1-2.3c0-1.1,0.5-1.7,1.4-1.7c0.5,0,0.9,0.3,1.5,1.4c1,1.8,2.6,2.5,3.6,1.7c0.5-0.4,0.6-0.4,0.9-0.2
		c0.2,0.2,0.2,0.5,0.2,2c0,1,0.1,1.9,0.1,2.1c0.1,0.2,0.3,0.4,0.8,0.6c0.8,0.3,1.1,0.8,1,1.6c-0.1,0.7-0.4,1.1-1.1,1.3
		c-0.7,0.2-1.2,0-3.3-1.2c-0.6-0.4-1.3-0.4-1.8-0.1c-0.2,0.1-0.6,0.6-0.9,1.1c-0.5,0.7-0.9,1-1.8,1.7c-1.3,0.9-1.7,1.3-2.5,2.5
		c-0.6,0.9-1.2,1.6-1.5,1.6c-0.1,0-0.3,0-0.4,0.1C136.5,178.3,136.2,178.2,136,178.1L136,178.1z M155.6,151.8
		c-0.4-0.2-1.1-0.4-1.4-0.5c-0.8-0.2-1.2-0.4-1.5-0.8c-0.2-0.3-0.2-0.4,0-1c0.2-0.9,0.1-1.6-0.3-2c-0.2-0.2-0.4-0.2-1.3-0.2
		c-0.6,0-1.3,0.1-1.6,0.2c-0.3,0.1-0.5,0.2-0.6,0.2c-0.1,0,0.1-1.2,0.2-1.6c0.1-0.3,0.2-0.5,0.5-0.7c0.7-0.5,0.8-0.7,0.8-2
		c-0.1-1.5,0.1-2.2,0.6-2.2c0.1,0,0.3,0.2,0.6,0.5c0.3,0.3,0.5,0.7,0.7,1.3c0.5,1.5,0.7,1.8,1.1,1.8c0.7,0,0.8,0.1,0.8,1.8
		c0,1.9,0.1,2.2,1.4,3.5C157.6,152,157.6,152.7,155.6,151.8L155.6,151.8z M175.5,141.8c0-0.2,0-0.8,0-1.4l0.1-1.1l-0.3-0.2
		c-0.3-0.2-0.6-0.2-2.9-0.2c-2.2,0-2.6,0-3-0.2l-0.5-0.2l0.4-0.1c0.2,0,0.9-0.1,1.5-0.1c1.3,0,1.9-0.1,2.4-0.6
		c1.6-1.2,1.3-2.7-1.1-5c-1.5-1.5-1.7-1.9-1.7-2.6l0-0.5l0.6,0.6c0.3,0.3,0.8,1,1,1.4c0.7,1.2,2.9,4.3,3.7,5.2
		c1.2,1.4,1.7,2.5,1.5,3.8c-0.1,0.7-0.8,1.6-1.4,1.7C175.6,142.2,175.6,142.1,175.5,141.8L175.5,141.8z M172.8,122.2
		c-0.2-0.2-0.4-0.5-0.6-0.8c-0.2-0.2-0.5-0.7-0.9-1.1c-0.7-0.8-0.8-1.1-0.5-1.4c0.3-0.3,1.7-0.3,2.3,0c0.6,0.3,1.1,1.3,1.2,2.5
		l0.1,0.9l-0.4-0.1c-0.3-0.1-0.4,0-0.4,0.1C173.6,122.6,173.2,122.5,172.8,122.2L172.8,122.2z M169.2,104.6c-0.1,0-0.5-0.2-0.8-0.3
		c-0.7-0.3-0.9-0.7-0.5-1c0.4-0.3,0.6-0.3,1.2,0c0.3,0.1,0.8,0.3,1.2,0.3c0.5,0,0.9,0.2,1.2,0.4c0.5,0.3,0.6,0.5,0.3,0.6
		C171.7,104.7,169.6,104.7,169.2,104.6L169.2,104.6z M144.1,201.8c0.8-0.4,1.6-1.3,2.3-2.7c0.3-0.7,0.8-1.4,1.2-1.7
		c0.7-0.7,0.9-1,1.2-2.3c0.3-1.2,0.9-2.3,1.8-3.8c1.1-1.7,1.6-2.2,3.1-3c2.3-1.3,2.4-1.4,2.6-3.2c0.1-0.7,0.2-1.4,0.3-1.6
		c0.2-0.4,1.4-1.5,2.3-2.1l0.7-0.5h-3.4c-2.6,0-3.6,0-4.2,0.2c-0.5,0.1-1.1,0.2-1.4,0.2l-0.6,0l-0.8,1.9c-0.4,1.1-0.8,2-0.8,2.2
		c0,0.4-0.4,1.9-0.6,2.3c-0.3,0.6-2.4,2.8-2.9,3.1c-0.3,0.1-0.6,0.2-0.8,0.2c-0.4,0-0.9,0.4-1.1,0.8c-0.1,0.2-0.5,0.6-1,1
		c-1.1,0.8-2.4,2.1-2.8,2.6c-0.4,0.7-0.6,1.6-0.6,2.9c0,1.3,0.3,2.5,0.6,2.5c0.1,0,0.6-0.3,1.1-0.6c1.4-1,1.7-0.8,0.8,0.6
		c-0.3,0.4-0.5,0.9-0.5,1c0,0.2,0.9,0.4,2,0.4C143.3,202.1,143.6,202,144.1,201.8L144.1,201.8z M145.3,195c-0.8-0.6-1.5-1.3-1.5-1.6
		c0-0.1,0.3-0.4,0.7-0.6l0.7-0.4l0.5,0.3c0.7,0.5,1.2,0.5,2,0.2c0.9-0.3,1-0.3,0.9,0.5c-0.1,0.4-0.2,0.8-0.3,0.9
		c-0.2,0.4-1,0.7-1.9,0.8C145.9,195.4,145.8,195.3,145.3,195L145.3,195z M158.1,195.2c0.3-0.1,0.1-0.1-0.5-0.1c-0.8,0-0.9,0-0.9-0.2
		c0-0.1,0.3-0.4,0.7-0.5c0.3-0.2,0.7-0.4,0.7-0.4c0.1-0.1,0.1-0.5,0.1-1.1c0-1.2,0.2-1.4,1.1-1.6c0.6-0.1,0.9-0.4,0.9-0.8
		c0-0.2-0.1-0.3-0.5-0.5c-0.7-0.3-0.9-0.7-0.6-0.9c0.1-0.1,0.7-0.6,1.2-1.1c0.9-0.8,1-1,1.2-1.5c0.3-1.2,0.6-2.8,0.5-3
		c-0.1-0.3-0.5-0.8-0.7-0.8c-0.1,0-0.3-0.1-0.4-0.2c-0.2-0.2-0.2-0.2-0.2-0.1c0,0.1-0.4,0.8-0.8,1.5c-0.4,0.7-1,1.8-1.3,2.4
		c-0.4,0.9-0.6,1.1-1.2,1.5c-1.9,1.3-2.9,2.9-3.1,5.1c-0.1,1,0,1.7,0.2,1.7c0.1,0,0.5-0.3,0.8-0.6s0.7-0.6,0.9-0.6
		c0.2,0,0.2,0.1,0.1,0.8l-0.1,0.8l0.4,0.1C157,195.3,157.6,195.4,158.1,195.2L158.1,195.2z M196.3,152.4c0.2-0.2,0.7-0.7,1-1.1
		l0.5-0.7l-0.3-0.4c-1.2-1.5-2-2.7-2.6-3.9c-0.4-0.8-0.7-1.5-0.7-1.6c0-0.3,0.4-0.7,1.1-1.2c1.7-1.1,1.8-1.5,1.9-4.7
		c0-1.5,0-2.6-0.1-3.1c-0.2-1-0.8-2.2-1.5-3L195,132l-0.5,0.1c-0.6,0.2-1.5,1-1.8,1.7c-0.3,0.7-0.3,1.5,0.1,3.2
		c0.3,1,0.4,1.8,0.4,2.4c0,1.1,0,1.4-0.6,3.6c-0.5,2.2-0.7,3.4-0.7,5.3c0,1.6,0.2,2.4,0.6,3.1C193.5,152.7,195.3,153.1,196.3,152.4z
		 M93.2,105.3c1.1-0.6,4.1-1.9,6.6-2.8l2.1-0.8l0-1.7c0-1,0-1.7-0.1-1.7c-0.2,0-3.7,1.5-4.9,2c-0.5,0.2-1,0.4-1.1,0.4
		c-0.1,0-0.1-3.8-0.1-8.8c0-4.8,0-8.8-0.1-8.8c-0.1,0-0.9,0.4-1.9,0.8l-1.8,0.8l-0.1,10.3c0,5.7,0,10.4,0,10.4
		C91.9,105.8,92.5,105.7,93.2,105.3L93.2,105.3z M234.9,100.9c0-2.4-0.1-7.1-0.1-10.4l-0.1-6l-1.6-0.7c-0.9-0.4-1.7-0.7-1.9-0.7
		l-0.3,0v10.4v10.4l0.5,0.1c0.3,0.1,1.2,0.4,1.9,0.7s1.5,0.6,1.5,0.6C234.9,105.3,234.9,103.8,234.9,100.9L234.9,100.9z M228.2,87.7
		l0-5.8l-1.4-0.5c-0.8-0.3-1.5-0.5-1.6-0.6c-0.1-0.1-0.4-0.1-0.6-0.1h-0.4l0,5.3c0,2.9,0,5.3,0,5.4c0.1,0.7-0.5-0.7-2.7-6
		c-1.9-4.6-2.6-6.2-2.7-6.3c-0.5-0.2-2.7-0.7-3.1-0.7h-0.4v10.4v10.4h0.3c0.3,0,2.6,0.6,3.5,0.8c0.2,0.1,0.2-0.3,0.1-6.3
		c-0.1-4.4,0-6.3,0-6.3c0.1,0.1,1.4,3.3,3,7.2l2.9,7.1l1.4,0.4l1.4,0.4l0.1-4.6C228.1,95.5,228.2,90.9,228.2,87.7L228.2,87.7z
		 M103.6,101.2c0.2-0.1,0.9-0.4,1.6-0.6c0.7-0.2,1.2-0.4,1.2-0.4c0,0,0.3-1.4,0.6-3l0.6-3l0.6-0.2c1.9-0.6,3.2-0.9,3.3-0.7
		c0,0.1,0.3,1.2,0.6,2.5c0.3,1.3,0.6,2.4,0.6,2.5c0,0.1,0.9-0.1,1.8-0.3c1.5-0.3,1.8-0.5,1.7-0.6c0-0.1-0.5-1.7-1-3.6
		c-0.5-1.9-1.8-6.2-2.8-9.5c-1-3.4-1.8-6.2-1.8-6.2c0,0-0.6,0.1-1.3,0.3c-0.7,0.2-1.4,0.3-1.6,0.4c-0.3,0-0.3,0.2-1.8,6.8
		c-0.8,3.7-1.9,8.8-2.5,11.2c-1,4.4-1,4.4-0.7,4.5C103.1,101.4,103.1,101.4,103.6,101.2z M108.1,91.6c0-0.2,1.2-6.3,1.3-6.5
		c0.1-0.2,0.2,0.3,1,3.5l0.5,2.3l-0.5,0.1c-0.5,0.1-1.7,0.5-2.1,0.6C108.2,91.7,108.1,91.6,108.1,91.6z M212.7,88l0.1-10.3l-0.7-0.1
		c-0.4-0.1-1.3-0.3-2-0.4c-0.7-0.2-1.4-0.3-1.5-0.3c-0.2,0-0.2,0.5-0.2,7.5c0,7.2,0,13.3,0.1,13.4c0.1,0.1,4,0.8,4.1,0.8
		C212.6,98.3,212.7,93.7,212.7,88L212.7,88z M119.8,96.9c0.9-0.2,1.6-0.3,1.6-0.3c0,0,0.1-2.4,0.1-5.3c0-3.9,0.1-5.2,0.2-4.9
		c0.1,0.2,0.9,2.4,1.8,4.9c0.9,2.5,1.7,4.6,1.8,4.6c0.4,0,0.4,0.1,2.9-8.7c0.3-1.2,0.7-2.2,0.7-2.3c0.1-0.1,0.1,2.2,0.1,5.1
		c0,2.9,0,5.2,0.1,5.2c0.1,0,2.9-0.4,3.3-0.4l0.4-0.1l0-10c0-5.5-0.1-10.2-0.1-10.5c-0.1-0.4-0.1-0.4-0.5-0.3
		c-1,0.2-2.8,0.4-3.1,0.3c-0.2,0-0.3,0-0.4,0c0,0-0.8,2.5-1.7,5.5c-0.9,3-1.7,5.6-1.8,5.8c-0.1,0.2-0.2,0.4-0.2,0.4
		c0,0-0.8-2.3-1.8-5.1s-1.7-5.1-1.8-5.2c0-0.1-0.5,0-1.5,0.2c-0.8,0.2-1.6,0.3-1.8,0.3l-0.4,0l-0.1,3.9c0,2.2-0.1,6.9-0.1,10.4
		c0,6.9,0,6.5,0.5,6.6C118.2,97.3,118.9,97.1,119.8,96.9L119.8,96.9z M205.7,86.7l0-10.4l-0.3-0.1c-1.2-0.3-3-0.6-3.3-0.6h-0.4
		l0.1,4c0.1,3.9,0.1,4-0.2,4c-0.1,0-1.1-0.1-2.2-0.3c-1.1-0.2-2.1-0.3-2.1-0.3c-0.1,0-0.1-1.8-0.1-4.1v-4.1l-0.3-0.1
		c-0.5-0.1-3.1-0.4-3.4-0.4h-0.3v10.4v10.4l1.9,0.3c1.1,0.1,2,0.2,2,0.2c0,0,0-2.2,0-4.8l-0.1-4.7l0.3,0.1c0.2,0,1.2,0.2,2.3,0.3
		l2,0.3v4.8v4.8l0.4,0c0.2,0,1.1,0.1,1.9,0.3s1.6,0.3,1.6,0.3C205.6,97.1,205.7,93.5,205.7,86.7L205.7,86.7z M186.8,94.8
		c1.9-0.5,3.1-1.7,3.6-3.6c0.2-0.7,0.2-1.2,0.2-4.2v-3.5h-2.8h-2.8v0.6c0,0.3,0,1-0.1,1.6l-0.1,1h1.2h1.2l0,1.7
		c0,1.5-0.1,1.7-0.4,2.2c-0.9,1.4-2.8,1.1-3.9-0.5c-0.8-1.2-0.8-1.5-0.8-6.7c0-4.6,0-4.7,0.3-5.2c0.3-0.6,1-1.3,1.5-1.4
		c0.2,0,0.4-0.1,0.5-0.1c0.3-0.1,1,0.2,1.5,0.6c0.5,0.5,0.9,1.2,1,1.9l0.1,0.6h1.8c2.1,0,1.9,0.1,1.6-1.3c-0.6-2.8-2.9-4.7-5.7-4.7
		c-2.8,0-5.1,1.8-6,4.6c-0.1,0.4-0.2,1.7-0.2,5.5c0,5.4,0.1,6.1,0.8,7.5c0.5,0.9,1.5,2.1,2.4,2.7c0.7,0.4,1.8,0.9,2.5,1
		C184.9,95.1,186.2,95,186.8,94.8L186.8,94.8z M140.6,94.2c4.2-0.4,4.5-0.4,5.5-1.6c2-2.1,2.2-6.5,0.5-8.3c-0.4-0.4-1.2-0.8-1.6-0.8
		c-0.2,0-0.1-0.1,0.3-0.3c1.8-0.9,2.4-4.8,1.1-7.6c-0.5-1.1-1.2-1.8-2.1-2.3l-0.7-0.3l-2,0.2c-2.1,0.2-6,0.5-6.1,0.6
		c0,0-0.1,4.7-0.1,10.4l-0.1,10.4l1.1-0.1C137.1,94.4,139,94.3,140.6,94.2z M139,91.2c-0.1-0.1-0.1-1.4-0.1-3v-2.9l1.8-0.1l1.8-0.1
		l0.4,0.4c0.2,0.2,0.6,0.7,0.7,1.1c0.3,0.6,0.3,0.8,0.3,1.8c0,1,0,1.2-0.3,1.7c-0.5,0.9-0.8,1-2.8,1.1C139.8,91.3,139,91.3,139,91.2
		L139,91.2z M139.6,82.1l-0.7,0l0-2.7l0-2.7l1.7,0l1.7,0l0.6,0.6c1.3,1.5,1.2,3.9-0.3,4.7C142,82.2,141.6,82.3,139.6,82.1
		L139.6,82.1z M157.3,93.7c2.5-0.5,4.3-2.4,4.6-4.8c0.1-0.5,0.1-3.1,0.1-5.9c0-5.5-0.1-5.7-0.8-7.2c-0.5-0.9-1.6-2.1-2.5-2.6
		c-0.8-0.4-1.9-0.7-2.8-0.8c-2.1-0.1-4.5,1.5-5.7,3.9c-0.8,1.7-0.9,2.2-0.8,7.8c0.1,5.3,0.1,5.8,0.8,6.9
		C151.2,93.2,154.4,94.3,157.3,93.7L157.3,93.7z M154.6,90.5c-0.7-0.2-1.2-0.7-1.5-1.3l-0.3-0.5l0-5.2l0-5.2l0.3-0.7
		c0.9-1.8,2.9-2.1,4.3-0.7c0.6,0.5,0.9,1.2,1,2.1c0.1,0.4,0.1,2.7,0.1,5.1c0,4.3,0,4.4-0.2,4.9C157.7,90.4,156,91,154.6,90.5
		L154.6,90.5z M176.6,93.6c0-0.1-0.8-2.2-1.8-4.7c-1-2.5-1.8-4.6-1.8-4.6c0-0.1,0.2-0.1,0.5-0.2c1.8-0.3,2.8-2.1,2.8-5
		c0-2.7-1.1-5.1-2.8-6.1c-0.6-0.4-1.6-0.5-6.4-0.6l-3-0.1v10.4v10.4l0.4,0.1c0.2,0,1.1,0.1,1.9,0.1l1.5,0l0-4.4l0-4.4l1,0l1,0
		l1.1,3.6c0.6,2,1.2,4,1.4,4.6l0.3,1l1.3,0c0.7,0,1.4,0.1,1.5,0.1C176.2,93.8,176.6,93.8,176.6,93.6L176.6,93.6z M168,81.6
		c0,0-0.1-1.4-0.1-2.9v-2.8l1.5-0.1c1.7-0.1,2.2,0,2.8,0.6c1.1,1,1,3.9-0.1,4.9l-0.4,0.4h-1.8C168.9,81.7,168.1,81.7,168,81.6z"/>
	<path id="path3032" class="st4" d="M160.3,251.2c-4.1-2.5-14.3-10.8-21.1-17.2c-11.2-10.4-22.5-24.4-30.1-37.4
		c-16.3-27.8-24.8-60.1-25.8-98.5C83,87,83,86.6,84.1,84.4c1.4-3,2.7-3.8,9.4-6.5c18.5-7.2,38.1-10.6,64.8-11.1
		c30.2-0.6,55.2,3.1,75.3,11c7,2.7,8.2,3.6,9.6,6.6c1.1,2.2,1.1,2.6,0.8,14c-1.6,63-23.3,109.7-67.4,145.6
		c-5.3,4.4-10.9,8.3-12.3,8.8C163.7,253,162.4,252.5,160.3,251.2L160.3,251.2z M130.7,208.3c0.8-0.4,1.3-1.3,1.7-2.8
		c0.3-1.3,1-2.7,1.4-3.2c0.5-0.5,0.8-2.2,1-4.2c0.2-2.9,0.4-3.6,2.1-5.7c1.1-1.4,2.2-3.6,2.7-5.2c0.4-1.6,1.1-3.5,1.6-4.3
		c3.1-6.1,5.2-9.7,5.5-9.7c1.1,0,1.9,2.4,1.9,5.3c0,2.3,0.2,3.2,0.8,3.5c0.7,0.4,0.7,0.6,0.1,1.9c-0.4,0.8-0.9,2.1-1.1,2.9
		c-0.5,2-2,4.1-3.7,5c-0.7,0.4-2.4,1.7-3.6,3c-1.8,1.8-2.3,2.6-2.3,3.9c0,2.2,0.7,3.3,1.5,2.5c1-1,1.4-0.7,1.1,0.7
		c-0.3,1.3-0.3,1.3,1.3,1c2-0.4,3.9-1.6,4.2-2.7c0.1-0.5,0.4-1.2,0.7-1.6s1.1-2.3,2-4.1c1.1-2.3,2.3-4,3.8-5.2
		c1.2-1,2.5-2.6,2.9-3.5c1.2-2.8,4.5-5.2,4.5-3.2c0,1.2-1.9,4.7-3.3,6.1c-1.7,1.8-3.1,4.1-3.1,5.5c0,1.2,0.7,1.5,1.2,0.6
		c0.5-0.9,1.1-0.5,0.9,0.5c-0.2,0.8,0,1,1.2,1c2.5,0,4.9-1.4,5.2-3.2c0.2-0.8,0.7-2.2,1.3-3.1c0.6-1,0.8-2,0.6-2.8
		c-0.3-1.3,0.6-4.8,1.2-4.8c0.5,0,2.3,3.7,2.7,5.7c0.2,0.8,0.8,2,1.3,2.6c0.9,1,1.3,1.1,5.7,0.8c4.5-0.3,4.8-0.3,5.9-1.8
		c0.9-1.1,1.3-2.4,1.5-4.5c0.4-3.8,2-6.4,5.8-9.2l2.8-2l0.7,1.1c0.4,0.6,1.2,2.4,1.9,4c1.1,2.6,1.1,3.1,0.5,5.3
		c-0.3,1.4-0.5,2.9-0.3,3.5c0.2,0.6-0.1,2.1-0.5,3.5l-0.9,2.5l1.2,1.3c1.3,1.4,2.2,1.6,2.6,0.5c0.4-1,1.3-1,1.3,0
		c0,1.1,1,0.7,2.1-0.8c0.8-1.2,0.9-1.4,0.1-3.4c-0.4-1.2-0.7-2.6-0.6-3.1c0.1-0.5,0-1.8-0.3-3c-0.6-2.7-0.6-5.8,0.1-9.1
		c0.5-2.3,0.4-2.8-0.7-5.2c-0.7-1.5-1.1-2.8-1-2.9s1,0.1,2.1,0.5c4.7,1.9,8.4,1.5,10.7-1.2l1.3-1.6l-2.9-0.3
		c-3.3-0.3-3.4-0.4-6.9-3.4c-2.4-2.2-2.5-2.3-2.3-4.3c0.2-1.1-0.1-3.7-0.6-5.8c-0.8-3.5-0.8-4-0.1-6.5c0.4-1.5,0.8-3.4,0.8-4.2
		c0-2.4-1.3-6.1-2.9-8.1c-0.8-1-1.7-2.7-2-3.8c-0.3-1.1-1.1-2.8-1.7-3.8c-1.1-1.7-1.2-1.9-0.5-3.5c0.4-1,0.7-3,0.7-4.5
		c0-2.4-0.2-3-1.6-4.6c-3-3.5-4.4-3.8-18.7-4.2c-16.5-0.5-19.1-1.1-16.5-4c1-1.2,2.8-1.1,6.3,0.1c3.9,1.4,8.6,1.7,11.4,0.8
		c2.4-0.8,2.4-0.7-1.7-1.6c-0.7-0.1-1.2-0.5-1.2-0.8c0-0.4,0.8-0.4,2.3-0.2c6.4,0.9,7.4,0.9,7.4,0.4c0-0.8-4.3-2.5-8.8-3.4
		c-7.2-1.5-14.1-0.3-17.4,3.1c-2,2.1-2.2,4.2-0.6,5.4c2.1,1.4,5.6,1.8,18,2.2c11.4,0.4,12.7,0.5,14.7,1.5c2.4,1.2,3.5,2.8,3.4,5.1
		c-0.1,1.9-1.3,4-2.4,4c-1.9,0-8.2-1.6-12.7-3.2c-2.6-1-5.2-1.7-5.7-1.7c-1.2,0-2.6,1-6.9,4.6c-1.8,1.6-5.1,3.8-7.2,4.9
		c-6.9,3.7-9.1,6.6-10,13.7c-0.5,3.8-1.2,5.4-4.1,9.9c-2.5,3.7-4.2,8.7-4.2,12.1c0,1.6-0.6,4.2-1.5,7c-1.3,3.6-1.5,5.2-1.6,9.3
		c-0.1,4.3-0.3,5.3-1.4,7.3c-0.8,1.4-1.4,3.6-1.6,5.6c-0.3,3-0.6,3.5-2.7,6.1c-1.3,1.6-2.4,3.1-2.4,3.5c0,0.3-0.7,1.4-1.5,2.3
		c-1.9,2.2-2.8,4.6-2,5.4c0.4,0.4,0.7,0.3,1.3-0.5c1.1-1.6,1.7-1.4,1.2,0.4c-0.3,1-0.2,1.5,0.2,1.7
		C126.5,209.4,129.3,208.9,130.7,208.3L130.7,208.3z M168.1,104c-1.4-0.9-0.1-1.1,2-0.4l2.1,0.8l-1.7,0
		C169.5,104.4,168.5,104.2,168.1,104z M97.6,103.4c3.8-1.4,4-1.6,4-2.9c0-0.8-0.1-1.4-0.2-1.4c-0.1,0-1.4,0.4-3,1
		c-1.6,0.5-2.9,1-3,1c-0.1,0-0.2-3.9-0.2-8.7s-0.1-8.7-0.2-8.7s-0.9,0.2-1.7,0.5l-1.5,0.5v10.4c0,9.7,0.1,10.4,0.9,10.1
		C93.2,105,95.4,104.2,97.6,103.4z M235.4,95V84.7l-1.5-0.5c-0.8-0.3-1.6-0.5-1.7-0.5s-0.2,4.7-0.2,10.4v10.4l1.6,0.5
		c0.9,0.3,1.6,0.5,1.7,0.6C235.3,105.4,235.4,100.8,235.4,95L235.4,95z M228,92.2l-0.1-10.3l-1.3-0.4l-1.3-0.4l0,5.6
		c0,6.4-0.1,6.3-3-1.2c-2.1-5.5-2.8-6.5-4.7-6.5h-1.1v10.2c0,7.8,0.1,10.2,0.6,10.2c0.3,0,1.1,0.1,1.7,0.3c1.1,0.3,1.1,0.2,1.2-5.8
		L220,88l2.7,6.8c1.5,3.7,3,7,3.4,7.2C228,103.1,228.1,102.9,228,92.2z M106.1,100.7c0.2-0.1,0.5-1.4,0.6-2.9c0.4-3.1,0.3-3,2.8-3.5
		l1.8-0.3l0.6,2.5c0.6,2.5,0.6,2.5,2.1,2.2c0.8-0.2,1.6-0.4,1.7-0.5C116,98,111.4,79.5,111,79c-0.2-0.2-1-0.1-1.8,0.1
		c-1.5,0.4-1.5,0.5-3.3,8.5c-1,4.4-2.1,9.4-2.5,11l-0.7,2.9l1.5-0.3C105.1,101,106,100.8,106.1,100.7z M108.2,90.6
		c0.2-0.5,0.5-1.9,0.7-3.1l0.4-2.2l0.6,2.7c0.5,2.2,0.5,2.7,0,3.1C108.7,91.8,107.9,91.6,108.2,90.6L108.2,90.6z M212.9,88.3
		c0-5.6-0.2-10.3-0.4-10.4c-0.2-0.1-1-0.4-1.7-0.5l-1.3-0.3v10.4v10.4l1.3,0.2c0.7,0.1,1.5,0.2,1.7,0.3
		C212.8,98.4,212.9,93.9,212.9,88.3L212.9,88.3z M120.8,97.2c0.5-0.2,0.6-1.2,0.5-3.6c-0.1-1.9-0.1-4.3,0-5.3
		c0.1-1.8,0.3-1.6,2.1,3.7l1.9,5.7l1.8-6.4l1.8-6.4l0.1,5.6c0.1,4.8,0.2,5.5,0.9,5.3c0.4-0.2,1.2-0.3,1.7-0.3
		c0.9,0,0.9-0.5,0.9-10.3V74.8l-1.7,0.2c-1.6,0.2-1.7,0.3-3,4.5c-0.7,2.4-1.6,5.2-1.9,6.3l-0.6,2l-1.6-5.2c-0.9-2.9-1.8-5.4-2-5.6
		c-0.2-0.2-1.1-0.3-1.9-0.1l-1.5,0.3v10.2c0,9.7,0,10.2,0.9,10.2C119.7,97.5,120.4,97.4,120.8,97.2z M205.5,86.7l-0.1-10.3l-1.3-0.2
		l-1.3-0.2v4v4l-2.1-0.3c-3.4-0.5-3.3-0.3-3.3-4.7c0-2.9-0.2-4-0.6-4c-0.3,0-1.1-0.1-1.7-0.3l-1.1-0.3v10.4v10.4l1.7,0.2l1.7,0.2
		v-4.6c0-5.1-0.2-4.9,3.5-4.3l1.8,0.3v4.6c0,4,0.1,4.7,0.9,4.8C205.7,97.2,205.7,97.5,205.5,86.7L205.5,86.7z M144.1,93.8
		c2-1,3.1-3,3.2-5.8c0-1.9-0.2-2.7-1-3.6c-1-1.1-1-1.1-0.1-2.6c1.1-1.9,1.2-3.8,0.2-5.8c-0.9-1.8-3.3-2.5-7.3-2l-2.9,0.3l-0.1,10.4
		l-0.1,10.4l3.5-0.3C141.3,94.6,143.4,94.1,144.1,93.8L144.1,93.8z M139.2,88.6c0-2.6,0.1-3,1-3.2c2.7-0.7,4.7,2,3.3,4.6
		c-0.5,1-1.2,1.3-2.5,1.4l-1.8,0.2C139.2,91.6,139.2,88.6,139.2,88.6z M139.2,79.8v-2.7h1.6c2,0,2.8,0.8,2.8,2.5
		c0,1.6-0.7,2.2-2.8,2.6l-1.6,0.3C139.2,82.5,139.2,79.8,139.2,79.8z M188.9,93.8c1.3-0.9,2.1-3.5,2.1-6.8c0-2.6,0-2.6-3.5-3
		l-2.3-0.2v1.7c0,1.5,0.2,1.7,1.2,1.7c1,0,1.2,0.2,1.2,1.3c0,2.9-2.3,4.3-4.1,2.3c-2.4-2.7-1.9-13,0.7-13.8c1.1-0.3,2.9,1,2.9,2.1
		c0,0.4,0.6,0.7,1.7,0.7c1.9,0,2.2-0.7,1-3c-1-2-2.6-3-4.9-3c-4.2,0-6.1,3.2-6.1,10.2c0,4.6,0.7,7.6,2.2,9.2
		C182.7,95,186.5,95.3,188.9,93.8L188.9,93.8z M158.7,93.2c0.6-0.4,1.6-1.7,2.2-2.9c1.5-3,1.6-10.5,0.1-13.9c-1-2.3-3-3.9-4.8-3.9
		c-1.7,0-4,1.6-5.1,3.5c-2.3,4.1-1.8,13.2,0.8,16.4c1,1.2,1.6,1.5,3.5,1.5C156.6,94,158.1,93.7,158.7,93.2L158.7,93.2z M154,89.7
		c-0.6-1-0.9-2.6-1-5.8c-0.1-3.8,0-4.7,0.9-6.1c1.3-2.1,2.8-2,3.9,0.2c1.1,2.2,1,10.1-0.1,11.8C156.6,91.4,155.1,91.4,154,89.7
		L154,89.7z M168,89.4c0-4.2,0-4.4,1-4.2c0.8,0.1,1.4,1,2.6,4.5l1.5,4.4h1.8h1.8l-1.6-4.7l-1.6-4.7l1.3-1.3c1.6-1.5,2.1-3.8,1.4-6.4
		c-0.8-2.9-2.7-3.9-7.4-3.9l-3.8,0L165,83.4c-0.1,5.6-0.1,10.3-0.1,10.3c0,0,0.8,0.1,1.6,0.1h1.5V89.4L168,89.4z M168.4,81.8
		c-0.2-0.2-0.4-1.6-0.4-3.1V76l2.1,0.3c2.9,0.4,4.2,2.5,2.7,4.5C172.1,81.7,169,82.4,168.4,81.8z M76.9,95.5c0-0.7,0.1-1,0.2-0.6
		c0.1,0.3,0.1,0.9,0,1.2C77,96.5,76.9,96.2,76.9,95.5z M76.9,91c0-1.5,0.1-2.1,0.2-1.4c0.1,0.8,0.1,2,0,2.7
		C77,93.1,76.9,92.5,76.9,91z"/>
	<path id="path3030" class="st5" d="M158.9,248.8c-12-8.7-27-22.9-35.4-33.5c-25.4-32-37.5-68.1-39.3-117.6
		c-0.5-13.2,0.2-14.8,7.3-17.8c18.7-8,42.7-12,72-11.9c22.1,0,37.5,1.7,54.4,6.1c7.7,2,18.4,5.8,21.1,7.5c2,1.3,3.4,3.6,3.8,6.4
		c0.4,2.9-0.5,23-1.5,31.8c-5.1,45.7-21.6,81-51.5,110.6c-9.6,9.5-24.1,21.2-26.3,21.2C163.2,251.6,161.1,250.4,158.9,248.8
		L158.9,248.8z M130.8,208.4c1.1-0.7,1.6-1.5,1.9-2.9c0.2-1,0.7-2.4,1.2-3.1c0.7-0.9,0.9-2,0.9-4.3c0-2.9,0.1-3.3,2-5.5
		c1.3-1.7,2.3-3.6,3.1-6.3c0.6-2.1,1.6-4.5,2.1-5.2c0.5-0.8,1.6-2.8,2.5-4.5c0.8-1.7,1.7-3.1,2-3.1c1,0,1.7,1.7,1.6,4.1
		c-0.1,3,0.2,4.3,1.2,4.3c0.6,0,0.6,0.2,0,1.5c-0.4,0.8-0.7,1.7-0.7,2.1c0,1.5-2.2,5-3.7,6c-0.9,0.6-2.2,1.6-2.8,2.1
		c-0.6,0.6-1.6,1.4-2.2,1.9c-1,0.8-1.3,2.2-1.1,4.6c0.1,1.4,0.9,2.1,1.6,1.3c0.9-0.9,1.5-0.7,0.9,0.4c-0.5,0.9-0.4,1,1.1,1
		c1.8,0,4.8-1.6,4.8-2.7c0-0.7,3.5-7.7,4.7-9.5c0.3-0.5,1.3-1.3,2.1-1.9c0.8-0.5,1.9-1.8,2.3-2.8c1.1-2.5,2.5-4.1,3.6-4.1
		c0.5,0,0.9,0.1,0.9,0.3c0,0.8-3,6.1-3.6,6.4c-0.9,0.4-3.4,5.2-3,5.8c0.4,0.6,1.7,0.6,1.7,0c0-0.3,0.2-0.5,0.5-0.5s0.3,0.4,0.2,0.8
		c-0.4,1.1,0.6,1.6,2.6,1.2c2.5-0.6,4.1-1.8,4.1-3.2c0-0.7,0.5-1.9,1-2.7c0.8-1.1,1-1.9,0.8-3.2c-0.3-1.8,0.4-4.2,1.2-4.2
		c0.6,0,1.7,2.4,2.4,5c1,3.7,1.3,3.9,6.9,3.9c3.7,0,5-0.2,5.5-0.7c0.3-0.4,1-1.2,1.5-1.8c0.7-0.7,1-1.9,1-3.9
		c0.1-2.4,0.4-3.2,1.7-5.2c2.1-3,6.2-5.9,7.1-5.2c0.3,0.3,1.2,2,1.9,3.8c1.2,3,1.2,3.5,0.7,5.4c-0.3,1.2-0.5,2.7-0.3,3.5
		c0.1,0.8-0.1,2.1-0.4,3.1c-1,2.4-0.9,3.4,0.5,4.8c1.5,1.5,2.1,1.5,2.7,0.1l0.4-1.1l0.5,1.2l0.5,1.2l1.3-1.3
		c1.5-1.5,1.6-2.8,0.6-4.8c-0.4-0.8-0.6-1.9-0.4-2.5c0.2-0.6,0-2.4-0.3-4.1c-0.5-2.4-0.5-3.8,0-7.1c0.6-3.9,0.6-4.2-0.4-6.1
		c-1.6-3-1.4-3.3,1.4-2.2c4.2,1.6,8.7,1,10.4-1.6c1.2-1.8,1-2.4-0.7-2.1c-2.6,0.5-4.7-0.2-7.5-2.8l-2.8-2.5l-0.3-4.4
		c-0.3-4.6-0.3-7.2-0.1-14.5c0.1-4.4,0.1-4.4-1.8-7.3c-1.1-1.6-2.3-4-2.7-5.3s-1.3-2.9-1.9-3.6c-1-1.1-1-1.2-0.3-2.7
		c2.3-4.6,0.9-9.1-3.6-11.7l-2.6-1.5l-12.5-0.4c-15.8-0.5-18.8-1.1-17.6-3.4c0.8-1.5,2.5-1.6,6.8-0.2c4.3,1.4,9,1.7,11.7,0.7
		c1.8-0.6,1.6-1.4-0.4-1.4c-0.7,0-1.8-0.3-2.3-0.8c-0.9-0.7-0.8-0.8,1-0.5c6,0.8,8.1,0.9,8.1,0.3c0-0.3-0.9-1-2.1-1.5
		c-7.1-3.1-16-3.4-21.1-0.8c-2.6,1.3-5.1,3.9-5.1,5.3c0,0.9,2.4,2.8,4.2,3.4c1,0.3,7.6,0.8,14.6,1.1c13.7,0.5,16,0.9,17.8,3.3
		c1.3,1.7,1.3,4.2-0.1,5.9l-1.1,1.3l-3.8-0.8c-2.1-0.4-5.7-1.5-8-2.3c-7.3-2.7-7.3-2.7-13.1,2.3c-2,1.7-5.8,4.3-8.5,5.8
		c-6.9,3.9-8.4,6.1-9.4,15c-0.2,1.7-1,3.5-2.8,6.2c-3.7,5.8-4.8,8.5-5.3,13.5c-0.3,2.6-1,6.1-1.9,8.6c-1.2,3.5-1.5,5-1.5,8.8
		c0,3.9-0.2,4.9-1.2,6.7c-0.6,1.2-1.3,3.3-1.5,4.7c-0.5,4.2-0.7,4.6-2.9,7.2c-1.2,1.4-2.3,3-2.5,3.6c-0.2,0.6-1,1.9-1.7,2.8
		c-1.6,1.8-2.2,3.6-1.7,5c0.3,0.8,0.5,0.7,1.6-0.6l1.2-1.5l-0.3,1.9l-0.3,1.9l2.1,0C128.4,209.4,129.9,208.9,130.8,208.4
		L130.8,208.4z M168.3,103.9c-0.5-0.8-0.1-0.9,1.7-0.2l1.7,0.6l-1.6,0C169.3,104.4,168.4,104.2,168.3,103.9L168.3,103.9z
		 M93.5,146.6c-2.3-11.9-3.8-25.5-4.5-40.9c-0.8-16.2-0.8-16.4-1.7-17.8c-0.5-0.7-1-1.3-1.3-1.3c-1.4,0,0.4,28.2,2.8,42.8
		c1.4,8.3,4.4,20.9,5.1,20.9C94.1,150.2,93.9,148.6,93.5,146.6L93.5,146.6z M102.2,100.3c0-1-0.1-1.9-0.2-1.9c-0.1,0-1.4,0.4-3,1
		s-3,0.9-3.1,0.7c-0.1-0.1-0.4-3.9-0.5-8.5c-0.1-4.5-0.4-8.2-0.6-8.2c-0.2,0-1,0.2-1.6,0.5l-1.3,0.5v10.7v10.7L97,104l5.1-1.8
		L102.2,100.3L102.2,100.3z M235,84.5c-0.2-0.2-1-0.5-1.7-0.7l-1.3-0.3v10.5v10.5l1.6,0.7l1.6,0.7l0.1-10.4
		C235.4,89.6,235.2,84.7,235,84.5L235,84.5z M228.6,92.5c0-5.7-0.2-10.5-0.4-10.6s-1.1-0.4-2-0.6l-1.6-0.4l0.2,5
		c0.1,2.8,0.1,5-0.1,5c-0.1,0-1.2-2.4-2.3-5.3c-2.5-6.5-2.4-6.4-4.4-6.8l-1.6-0.4V89c0,5.7,0.2,10.5,0.4,10.7s1,0.4,1.7,0.5l1.3,0.3
		v-5.8c0-3.2,0.2-5.6,0.4-5.4c0.2,0.3,1.5,3.2,2.8,6.6c2.3,6,3,6.9,5,7C228.4,102.9,228.6,100.6,228.6,92.5z M105,101.4
		c1.4-0.5,1.6-0.9,2.1-3.4c0.5-2.6,0.7-2.9,2-3.2c2.2-0.4,2.2-0.4,2.6,1.6c0.5,2.9,0.8,3.2,2.8,2.6c1-0.3,1.8-0.6,1.8-0.8
		c0-0.1-0.8-3.4-1.9-7.3c-1-3.9-2.2-8.2-2.5-9.7c-0.6-2.6-0.7-2.6-2.1-2.3c-0.8,0.2-1.6,0.5-1.8,0.6c-0.4,0.3-5.3,20.7-5.3,21.8
		C102.6,102.1,103,102.1,105,101.4z M108.7,89.9c0.2-0.8,0.3-1.9,0.3-2.3c0-1.3,0.8,0,1.1,1.7c0.2,1.3,0.1,1.6-0.7,1.8
		C108.5,91.4,108.4,91.3,108.7,89.9z M242.2,91.8c0-3.6-0.3-5.7-0.9-5.7c-0.2,0-0.7,0.3-1.2,0.7c-0.8,0.6-0.8,0.9,0,6.1
		c0.5,3,1,5.8,1.1,6.2C241.5,100.1,242.2,95.8,242.2,91.8L242.2,91.8z M212.9,88.3V77.7l-1.5-0.3c-0.8-0.2-1.6-0.3-1.6-0.2
		c-0.1,0.1-0.2,4.7-0.4,10.4L209,97.9l1.8,0.5c1,0.3,1.9,0.5,2,0.5C212.9,99,212.9,94.2,212.9,88.3L212.9,88.3z M120.6,97.7
		c1-0.3,1.1-0.6,1.1-5.1l0-4.8l1.6,4.9c0.9,2.7,1.7,5,1.9,5.1s0.7-1.3,1.3-3.1c0.5-1.9,1.3-4.5,1.7-5.9l0.7-2.5l0.1,5l0.1,5l1.8-0.3
		l1.8-0.3l-0.2-10.4c-0.1-5.7-0.2-10.5-0.3-10.6c-0.1-0.1-0.9,0-1.8,0.3c-1.6,0.4-1.7,0.6-3.3,6.3l-1.7,5.9l-1.8-5.4
		c-1.8-5.3-1.8-5.4-3.2-5.2c-0.8,0.1-1.6,0.3-1.8,0.5c-0.2,0.2-0.4,5-0.5,10.6C118,98.8,117.9,98.4,120.6,97.7L120.6,97.7z
		 M206.1,87.1c0-5.7-0.2-10.5-0.4-10.6c-0.2-0.1-1-0.3-1.8-0.4l-1.5-0.2l-0.1,3.9c-0.1,3.8-0.2,3.9-1.5,3.8c-3.3,0-3.5-0.2-3.6-4.6
		l-0.1-4l-1.6-0.2l-1.6-0.2V85c0,11.1,0,11,2.5,11c0.8,0,0.9-0.5,1.1-4.6l0.1-4.6l2,0.2c1.1,0.1,2.1,0.3,2.3,0.4s0.4,2.3,0.4,4.9
		v4.7l1.6,0.2c0.9,0.1,1.8,0.2,2,0.3C205.9,97.4,206.1,92.8,206.1,87.1L206.1,87.1z M144,94.2c3.2-1.3,4.6-6.2,2.6-9.4
		c-0.8-1.3-0.8-1.7-0.2-2.5c0.9-1.3,0.8-5.2-0.1-6.6c-1.2-1.7-2.9-2.2-6.9-1.8l-3.5,0.3v10.6v10.6l3.3-0.3
		C140.9,95,143.1,94.6,144,94.2z M139.4,90.8c-0.1-0.4-0.2-1.7-0.1-2.9c0.1-2,0.3-2.2,1.5-2.3c1.9-0.2,2.8,0.7,2.8,3
		c0,1.6-0.2,2-1.3,2.4C140.7,91.7,139.8,91.6,139.4,90.8z M139.2,79.9c0-1.9,0.2-2.2,1.2-2.5c1.6-0.4,2.7,0.1,3,1.5
		c0.4,1.6-1,3.2-2.8,3.2C139.3,82.1,139.2,82,139.2,79.9z M188.3,94.4c1.8-0.8,2.7-3.3,2.7-7v-3.2l-2.3-0.3
		c-3.6-0.5-3.6-0.5-3.6,1.4c0,1.4,0.2,1.7,1,1.7c1.4,0,1.4,3.8,0,4.2c-2.5,0.8-3.9-2-3.9-7.6c0-4.2,1-6.6,2.7-6.6
		c1,0,1.4,0.4,1.9,1.5c0.5,1.4,0.7,1.5,2.3,1.2c0.9-0.2,1.8-0.4,1.9-0.5c0.1-0.1-0.2-0.9-0.6-1.9c-2.1-5.2-8.5-5.6-10.6-0.7
		c-1.3,3-1.7,7.8-0.9,11.5c0.8,4,3.3,6.7,6.3,6.7C186.1,95,187.6,94.7,188.3,94.4L188.3,94.4z M158.6,93.6c2.2-1.4,3.3-4.1,3.5-8.8
		c0.4-7.6-2-12.1-6.3-12.1c-1.6,0-2.3,0.3-3.6,1.6c-2.2,2.2-2.8,5-2.6,10.8c0.1,3.8,0.4,5.1,1.3,6.5
		C152.6,94.5,155.7,95.3,158.6,93.6L158.6,93.6z M154.7,90.3c-2.5-2.6-2.1-12.9,0.6-13.9c3.1-1.2,4.6,10.5,1.7,13.7
		C156,91.2,155.6,91.2,154.7,90.3z M176.8,94.1c0-0.2-0.7-2.4-1.5-4.8l-1.5-4.4l1.5-1.8c1.4-1.6,1.5-2,1.3-4.4
		c-0.4-4.5-2.8-6.1-9-6.1l-3.1,0v10.7V94h2h2v-4.5c0-6,0.8-6,2.9,0c1.4,3.9,1.7,4.5,2.9,4.6C176.6,94.5,176.8,94.5,176.8,94.1
		L176.8,94.1z M168.5,79v-2.7l1.7,0.2c2.1,0.3,2.8,1.1,2.6,3.2c-0.1,1.6-0.3,1.7-2.2,1.8l-2.1,0.2V79z M89.9,83.4
		c0-0.7-1.7-0.4-2.8,0.4L86,84.7l1.1,1.2l1.1,1.2l0.9-1.6C89.5,84.5,89.9,83.6,89.9,83.4z"/>
	<g id="g3060" transform="matrix(0.95536881,0,0,0.97325585,-276.43252,0.08142099)">
		<path id="path3028" class="st6" d="M453,253.1c-35.9-27-58.1-60.2-68.4-102.2c-4.1-16.9-6.7-37.8-6.7-55.3
			c0-9.6,0.7-10.6,9.1-13.9c27-10.7,67-14.5,105.9-10c19.7,2.3,44.6,9.4,48.5,13.9c1.6,1.8,2,2.8,0.9,2.5c-0.4-0.1-1.2,0.2-1.8,0.7
			c-1.2,0.9-1.2,0.9-0.4,5.2c0.4,2.4,0.9,6.8,1.1,9.8s0.5,5.5,0.7,5.5c0.7,0,1-3.6,1.1-12.3l0.1-8.4l0.2,6.9
			c0.3,13-1.6,32.2-4.7,47.8c-5.9,29.1-17.4,54.2-34.8,76.1c-11,13.8-38.7,38.6-43.2,38.6C459.8,257.9,456.9,256.1,453,253.1
			L453,253.1z M465.3,253.8c6.7-4.3,13.2-9.8,20.7-17.4c10.3-10.4,16.3-17.4,18.4-21.4c0.6-1.2,0.6-1.5-0.3-2.3c-1-0.9-1.2-0.7-8,6
			c-8.5,8.4-14.4,13.2-14.4,11.7c0-0.9-6.6-4.7-10.6-6c-7.1-2.4-14.7-2.2-21,0.6l-2.7,1.2l-0.9-2.9c-2.4-8.2-3.8-19.1-2.5-19.9
			c0.3-0.2,1.2-1.8,2-3.6c1-2.3,2.2-3.8,4.1-5.5c1.6-1.4,2.8-2.9,3.1-3.9c0.5-1.7,2.7-3.8,3.7-3.5c0.8,0.3-1,3.9-3.3,6.6
			c-1.1,1.3-2.3,3.1-2.7,4c-0.6,1.4-0.6,1.8,0.1,2.5c0.8,0.8,0.9,0.7,1.2-0.2c0.3-0.9,0.4-0.9,0.7,0.3c0.4,1.7,1.9,1.9,4.8,0.6
			c2-0.9,2.3-1.2,2.6-3c0.2-1.1,0.7-2.3,1.1-2.7c0.5-0.5,0.8-1.4,0.7-2.7c-0.1-2.2,0.4-4.9,1-4.9c0.6,0,2,2.8,2.4,4.7
			c0.2,1.1,0.8,2.5,1.4,3.2c1,1.2,1.3,1.3,6.3,1.3h5.3l1.5-1.9c1.1-1.5,1.5-2.5,1.5-4.6c0.1-3.6,2-6.7,5.7-9.3l2.9-2.1l0.8,1.1
			c0.5,0.6,1.3,2.5,1.9,4.1c0.8,2.4,1,3.3,0.6,4.4c-0.3,0.8-0.6,2.8-0.7,4.5s-0.3,3.9-0.5,4.9c-0.3,1.6-0.2,2,1.1,2.9
			c1.8,1.4,2.2,1.4,2.8-0.1c0.3-0.8,0.5-0.9,0.5-0.3c0.1,1.5,1.1,1.6,2.4,0.3c1.1-1,1.2-1.5,1-3.2c-0.2-1.1-0.5-3.5-0.7-5.4
			c-0.2-1.8-0.6-3.7-0.8-4.2s-0.1-3,0.3-5.6c0.6-4.5,0.6-4.8-0.4-6.9c-1.5-2.9-1.4-3.4,0.5-2.4c2.2,1.1,7.1,1.5,9.1,0.7
			c1.7-0.7,3.6-2.8,3.6-3.9c0-0.5-0.6-0.6-2.4-0.4c-2,0.2-2.7,0.1-4-0.9c-0.9-0.7-2.6-1.9-3.7-2.7c-2-1.5-2.1-1.6-1.8-3.6
			c0.2-1.2-0.1-3.7-0.6-5.8c-0.5-2-0.7-4.4-0.5-5.3s0.5-2.7,0.8-4c0.7-3.4-0.1-6.8-2.5-10.5c-1.1-1.6-2.2-3.8-2.6-5
			s-1.1-2.7-1.6-3.5c-1-1.4-1-1.5-0.1-4c1.6-4.9-0.1-9-4.7-11.2c-2.3-1.1-3.3-1.2-15-1.6c-11.2-0.3-17-0.9-18.4-1.7
			c-0.9-0.6-0.5-2.3,0.8-2.9c1.1-0.5,2-0.4,5.7,0.9c4.8,1.6,9.8,1.9,12.5,0.8c1.8-0.7,1.4-1.4-1.1-1.8c-1.1-0.2-2.2-0.6-2.3-0.8
			c-0.4-0.7,0.7-0.6,4.6,0.3c3.2,0.7,5.9,0.6,5.9-0.3c0-0.6-4.3-2.3-8-3.3c-4.2-1.1-11.6-1.1-14.9,0c-3.1,1-6.5,3.7-6.9,5.6
			c-0.4,1.7,1,3.4,3.7,4.2c1.1,0.4,8.1,0.9,16.2,1.3c15.2,0.7,16.6,1,18.4,3.5c1.2,1.7,1,4.2-0.4,5.8c-1.2,1.3-1.2,1.4-4,0.8
			c-1.5-0.3-5.8-1.6-9.4-2.8c-5.2-1.7-7-2.1-8.2-1.7c-0.8,0.2-3.2,1.9-5.3,3.7c-2.1,1.8-6.1,4.5-8.8,5.9c-7,3.7-9.2,6.6-10.1,13.5
			c-0.5,3.9-1.3,5.9-4.9,11.5c-2.4,3.8-3.8,7.7-3.8,10.8c0,1.6-0.7,4.6-1.8,7.9c-1.5,4.5-1.8,6.1-1.8,9.9c0,3.8-0.2,4.9-1.3,7
			c-0.7,1.4-1.4,3.6-1.6,5c-0.5,4.2-0.6,4.5-3.3,7.6c-1.4,1.7-2.6,3.5-2.6,4s-0.2,0.9-0.5,0.9c-0.9,0-3.1,3.8-3.1,5.2
			c0,1.9,1,2.3,2.1,0.9l0.9-1.2l-0.3,1.7c-0.3,1.4-0.2,1.7,0.7,1.7c0.7,0,1.5,0.8,2.4,2.4c5.4,9.5,17.3,23.4,26.2,30.6
			c4.5,3.6,10.7,7.9,11.5,7.9C461.8,255.9,463.5,254.9,465.3,253.8L465.3,253.8z M430.5,206.6c0.3-0.7,0.5-2.5,0.5-3.9
			c0-2.1,0.2-2.9,1.5-4.5c1.9-2.5,2.9-4.4,3.7-7.3c0.7-2.4,6-12.8,6.6-12.8c1.1,0,1.6,1.5,1.6,4.7c0,2.6,0.2,3.6,0.8,3.9
			c1.3,0.7-0.6,5.9-2.9,8.2c-3.1,3-4.7,4.3-6.1,5.3c-1,0.6-1.5,1.5-1.7,2.9c-0.2,1.1-0.5,2.1-0.7,2.1s-1.1,0.6-2,1.3L430,208
			L430.5,206.6L430.5,206.6z M465.8,106.7c-0.6-0.4-0.6-0.5,0.3-0.5c0.6,0,1.5,0.2,2,0.5c0.9,0.4,0.9,0.4-0.3,0.5
			C467.1,107.2,466.2,107,465.8,106.7z M393.4,171.7c-1-3-2.8-9.6-4-14.7c-4.3-17.3-5.7-29-7.2-58.6c-0.3-5-0.5-6.8-1.3-8
			c-1.1-1.9-2-2.1-2-0.4c-0.7,21,2.8,47.7,8.7,67.1c2.6,8.5,6.7,20.1,7.2,20.1C395,177.2,394.4,174.7,393.4,171.7L393.4,171.7z
			 M409.3,141.7c9.9-2.6,19.2-10.3,23.5-19.4c0.5-1.1,1-2.2,1-2.3c0-0.1,0.5-1.6,1-3.3c0.7-2.3,1-4.7,1-9.2c0-6.9-0.4-8.9-1.7-9
			c-0.5,0,0.4-0.3,2-0.5c5.5-0.8,7.5-2.8,7.5-7.5c0-1.7-0.3-2.9-1-3.7c-0.9-1.1-0.9-1.3-0.1-2.2c0.6-0.6,0.9-1.8,0.9-3.5
			c0-2.2-0.2-2.7-1.7-4c-1.8-1.6-4-1.9-8.4-1.2l-1.9,0.3V83c0,3.7-0.1,7.2-0.3,7.6s-0.9,0.8-1.5,0.8h-1.2V84c0-7.3,0-7.4-1.1-7.4
			c-3,0-3.2,0.3-5,6.5l-1.7,5.9l-1.8-5.5l-1.8-5.5l-1.8,0.3c-1,0.2-2,0.4-2.2,0.5s-0.4,3.4-0.4,7.3v7.1l-1.4,0.3
			c-0.7,0.2-1.5,0.2-1.7-0.1c-0.2-0.2-1.1-3.1-1.9-6.5c-0.9-3.3-1.7-6.2-1.8-6.3s-1-0.1-2,0.1l-1.8,0.3l-1.3,5.7
			c-2.4,10.3-2,9.3-5,10.1c-1.5,0.3-3.4,0.9-4.3,1.3l-1.7,0.7v-6.9c0-6.1-0.1-6.9-0.8-6.6c-0.4,0.2-1.4,0.5-2.1,0.6l-1.3,0.3
			l0.2,11.6c0.2,12.8,0.9,17.4,4.1,29.2c2.5,9.1,4.8,14.7,6.1,15.3C397.5,143.2,405.6,142.7,409.3,141.7L409.3,141.7z M403.1,92.6
			c0.2-0.4,0.3-1.3,0.3-1.9c0-1.4,0.8-0.6,1.2,1.3c0.3,1.2,0.2,1.4-0.8,1.4C403.1,93.4,402.9,93.2,403.1,92.6L403.1,92.6z
			 M435.6,90.9c0-2.1,0.2-2.5,1.1-2.8c1.8-0.5,3,0.5,3,2.4c0,2-0.8,2.9-2.7,2.9C435.7,93.4,435.6,93.3,435.6,90.9z M417,92.6
			c-0.2-0.2-0.3-0.7-0.3-1.1c0-0.7,0.1-0.6,0.6,0.1C417.8,92.5,417.7,93.2,417,92.6z M423.9,90.9c0-0.7,0.1-1,0.3-0.6
			c0.1,0.4,0.1,0.9,0,1.3C424.1,91.9,423.9,91.6,423.9,90.9z M435.6,81.9c0-2.3,0-2.3,1.8-2.3c1.8,0,2.1,0.4,1.8,2.6
			c-0.1,1-1.5,2-2.7,2C435.8,84.2,435.6,83.8,435.6,81.9z M534.2,128.2c1.4-3.6,3.6-16.6,3.6-21.4c0-1.8-0.4-3.7-1-5
			c-0.8-1.7-1-3.2-1-8.7l0-6.7l-1.8-0.5l-1.8-0.5l-0.1,6.2c-0.1,5.9-0.2,6.2-1.2,6.1c-2.3-0.3-2.3-0.3-2.3-7.2v-6.6l-1.6-0.3
			c-0.9-0.2-1.8-0.3-2-0.3s-0.5,2.2-0.5,5l0,5l-2.3-5.6c-1.3-3.1-2.5-5.8-2.7-5.9c-0.2-0.2-1.1-0.5-2-0.7l-1.7-0.3v6.7
			c0,6.6,0,6.7-1.2,6.7c-2.1,0-2.4-0.8-2.4-7.7c0-6.3,0-6.5-1.1-6.8c-3-0.8-2.9-0.9-2.9,6.6v7l-1.1-0.3c-0.6-0.2-1.3-0.3-1.5-0.3
			c-0.2,0-0.4-3.2-0.4-7.1v-7.1l-1.6-0.3c-0.9-0.2-1.8-0.3-2-0.3s-0.4,1.8-0.4,4.1c0,4.4,0,4.4-3,3.8l-1.6-0.3l-0.1-4.2l-0.1-4.2
			l-1.9-0.2l-1.9-0.2v11v11l1.8,0.2c1,0.1,1.9,0.1,2,0c0.1-0.1,0.2-2.3,0.2-4.8c0-4.9-0.1-4.8,3-4.2L501,90l0,3.9
			c0,4.3,0.7,14.1,1.1,15.6c2,7.9,8.3,15.2,15.8,18.2c3.9,1.6,6.2,1.9,11.3,1.9C533.5,129.5,533.7,129.5,534.2,128.2L534.2,128.2z
			 M520.2,94.8c-0.5-1.8-0.7-2.9-0.3-2.7c0.7,0.4,1.5,3.3,1,3.3C520.6,95.5,520.3,95.2,520.2,94.8z M487.1,96.7
			c1.6-1.1,2.2-2.7,2.2-6.8c0-3.9-0.2-4.1-4.2-4.1c-1.9,0-1.9,0-1.9,2c0,1.7,0.2,2,1,2c0.8,0,1,0.3,1,1.5c0,2.2-1.2,3-2.8,1.9
			c-1.6-1.1-2.1-2.7-2.1-7.5c0-5.8,2.3-8.6,4.2-5.1c0.7,1.3,1.1,1.5,2.7,1.4c1.6-0.1,1.8-0.3,1.7-1.6c-0.2-3.3-4.2-6.1-7.6-5.3
			c-2,0.5-4.1,3-4.8,5.6c-1.2,5-0.3,11.8,2,14.8C480.4,98,484.4,98.5,487.1,96.7z M455.9,95.7c2.1-1.8,3.2-4.9,3.3-9.4
			c0.1-7.5-2.2-11.8-6.5-11.8c-4.5,0-7.1,4.2-7.1,11.5c0,4.7,1.2,8.4,3.2,10C450.7,97.5,454,97.4,455.9,95.7L455.9,95.7z
			 M450.9,92.1c-0.5-0.6-0.8-2.5-0.8-5.7c-0.2-5.4,0.4-7.3,2.3-7.6c1.9-0.3,2.8,2.7,2.6,8.2c-0.2,4.6-0.8,6.1-2.5,6.1
			C452,92.9,451.3,92.5,450.9,92.1z M465.6,92.3c0.2-6,1-5.9,3.2,0.1l1.6,4.6h2.2c1.2,0,2.2-0.1,2.2-0.1c0-0.1-0.8-2.3-1.7-4.9
			l-1.7-4.8l1.4-1.4c1.2-1.2,1.4-1.9,1.4-4c0-5.3-1.8-6.8-8.3-7.1l-4.5-0.2v11c0,11.7,0,11.6,2.6,11.4
			C465.5,96.8,465.5,96.6,465.6,92.3L465.6,92.3z M465.8,81.2c0-2.5,0-2.6,1.7-2.6c2,0,2.9,0.8,2.9,2.6s-0.9,2.6-2.9,2.6
			C465.8,83.7,465.8,83.7,465.8,81.2z M382.5,88.7c0-0.3,0.6-1.5,1.3-2.5c1-1.5,1.1-1.9,0.5-1.9c-0.9,0-4.9,1.9-4.9,2.3
			c0,0.1,0.5,0.9,1.1,1.8C381.6,89.8,382.5,89.9,382.5,88.7z M412.2,76.9c21.4-3.4,42.6-4.5,65-3.3c9.2,0.5,24.7,2,30.9,3
			c2.7,0.4,3.6,0.4,3-0.2c-0.4-0.4-12.4-2.7-18.8-3.5c-12-1.6-21.4-2-38.5-1.7c-17.8,0.3-25.4,0.9-37.1,3.2
			c-8.7,1.7-16,3.8-13.1,3.8C404,78.1,407.9,77.5,412.2,76.9z"/>
	</g>
</g>
</svg>
