<?xml version="1.0" encoding="utf-8"?>
<!-- Generator: Adobe Illustrator 24.2.1, SVG Export Plug-In . SVG Version: 6.00 Build 0)  -->
<svg version="1.1" id="Layer_1" xmlns="http://www.w3.org/2000/svg" xmlns:xlink="http://www.w3.org/1999/xlink" x="0px" y="0px"
	 viewBox="0 0 2500 2141" style="enable-background:new 0 0 2500 2141;" xml:space="preserve">
<style type="text/css">
	.st0{fill:url(#SVGID_1_);stroke:#231F20;stroke-width:5.3264;stroke-miterlimit:3.864;}
	.st1{fill:#FFFFFF;}
	.st2{clip-path:url(#SVGID_4_);}
	.st3{fill:none;}
	.st4{fill:#5E707B;}
	.st5{fill:#6C7D87;}
	.st6{fill:#7B8993;}
	.st7{fill:#8996A0;}
	.st8{fill:#99A6AF;}
	.st9{fill:#ABB4BC;}
	.st10{fill:#BCC4CA;}
	.st11{fill:#CFD5D9;}
	.st12{fill:#E3E6EA;}
	.st13{fill:none;stroke:#00295E;stroke-width:15.9812;stroke-miterlimit:3.864;}
	.st14{fill-rule:evenodd;clip-rule:evenodd;fill:#E01B22;}
	.st15{fill:#000538;}
	.st16{fill:#1D3B69;}
	.st17{fill:#274372;}
	.st18{fill:#314B7A;}
	.st19{fill:#3A5382;}
	.st20{fill:#355080;}
	.st21{fill:#2F4B7C;}
	.st22{fill:#294778;}
	.st23{fill:#244476;}
	.st24{fill:#15396A;}
	.st25{fill:#032F5E;}
	.st26{fill:#002452;}
	.st27{fill:#001745;}
</style>
<g>
	<g>
		
			<linearGradient id="SVGID_1_" gradientUnits="userSpaceOnUse" x1="3125.3523" y1="4740.8208" x2="5660.354" y2="4740.8208" gradientTransform="matrix(0.5651 0 0 0.5651 -1210.9094 -1608.5378)">
			<stop  offset="0" style="stop-color:#BCC4CA"/>
			<stop  offset="0.2237" style="stop-color:#FFFFFF"/>
			<stop  offset="0.4518" style="stop-color:#FFFFFF"/>
			<stop  offset="0.557" style="stop-color:#B0B8BC"/>
			<stop  offset="0.8904" style="stop-color:#B0B8BC"/>
			<stop  offset="1" style="stop-color:#C0C7CA"/>
		</linearGradient>
		<path class="st0" d="M558.9,1070.5C558.9,478.8,878.4,0,1273.2,0s714.3,479.7,714.3,1070.5S1668,2141,1273.2,2141
			S558.9,1662.2,558.9,1070.5z"/>
	</g>
	<g>
		<g>
			<g>
				<path id="SVGID_2_" class="st1" d="M618.7,1077.3c0-557.9,293.4-1009.7,655.4-1009.7s655.4,451.8,655.4,1009.7
					s-293.4,1009.7-655.4,1009.7S618.7,1634.2,618.7,1077.3"/>
			</g>
			<g>
				<g>
					<defs>
						<path id="SVGID_3_" d="M618.7,1077.3c0-557.9,293.4-1009.7,655.4-1009.7s655.4,451.8,655.4,1009.7s-293.4,1009.7-655.4,1009.7
							S618.7,1634.2,618.7,1077.3"/>
					</defs>
					<clipPath id="SVGID_4_">
						<use xlink:href="#SVGID_3_"  style="overflow:visible;"/>
					</clipPath>
					<g class="st2">
						<path class="st3" d="M1640,327.2c120.7,223,190.2,477.8,190.2,749.1c0,351.4-115.8,674.7-309.9,936.3l1-1
							c194-261.6,308.9-585,308.9-935.4C1830.2,805,1760.7,550.2,1640,327.2z"/>
						<path class="st3" d="M1864.9,1078.2c0,69.5-3.9,136.1-12.5,202.7c8.7-67.6,13.5-136.1,13.5-204.6c0-316.6-91.7-612-250-861
							c-1-1-1.9-1.9-2.9-2.9C1772.3,462.4,1864.9,759.7,1864.9,1078.2z"/>
						<path class="st3" d="M1545.4,378.4c112.9,207.5,177.6,446,177.6,697.9c0,390-152.5,745.2-401.6,1007.8h1
							c249-262.6,401.6-616.8,401.6-1006.8C1723,823.4,1658.4,585,1545.4,378.4z"/>
						<path class="st3" d="M1651.6,1077.3c0-240.4-60.8-467.2-168-665.1C1590.8,609.1,1651.6,835.9,1651.6,1077.3
							c0,395.8-165.1,752.9-430.5,1006.8c0,0,0,0,1,0C1486.5,1830.2,1651.6,1472.1,1651.6,1077.3z"/>
						<path class="st3" d="M1658.4,444c86.9,193.1,136.1,406.4,136.1,632.3c0,369.7-131.3,710.4-349.4,975.9h1
							c218.2-265.5,349.4-605.2,349.4-974.9C1794.5,851.4,1745.2,637.1,1658.4,444z"/>
						<path class="st3" d="M1616.8,1077.3c0-234.6-59.8-455.6-164.1-647.7C1556,621.6,1615.9,841.7,1616.8,1077.3
							c0,394.8-169.9,751-438.2,999.1c0,0,0,0,1,0C1447,1827.3,1616.8,1472.1,1616.8,1077.3z"/>
						<path class="st3" d="M1580.2,1077.3c0-392.9-170.9-745.2-443.1-987.5c-296.3,96.5-519.3,501.9-519.3,987.5
							s222,891,518.4,987.5C1409.3,1821.5,1580.2,1469.2,1580.2,1077.3z"/>
						<path class="st3" d="M1541.6,298.3c138,226.8,217.2,493.3,217.2,778c0,383.2-143.8,731.7-379.4,997.1h1
							c235.5-265.5,379.4-613.9,379.4-997.1C1758.7,791.5,1678.6,525.1,1541.6,298.3z"/>
						<path class="st3" d="M1900.6,1076.3c0,253.9-57.9,495.2-161.2,710.4c1-1,1-1,1-1.9C1843.7,1570.5,1900.6,1330.2,1900.6,1076.3
							c0-251.9-57-491.3-158.3-704.7l0,0C1843.7,585,1900.6,823.4,1900.6,1076.3z"/>
						<path class="st3" d="M1575.3,519.3c72.4,170.9,112,359.1,112,556c0,393.8-160.2,752-418,1009.7c0,0,0,0,1,0
							c258.7-258.7,418-615.9,418-1009.7C1687.3,879.4,1646.8,691.1,1575.3,519.3z"/>
						<path class="st4" d="M1740.4,1784.8c115.8-182.4,187.3-432.4,187.3-707.6c0-274.1-70.5-523.2-186.3-704.7
							c101.4,214.3,158.3,452.7,158.3,704.7C1900.6,1330.2,1843.7,1570.5,1740.4,1784.8z"/>
						<path class="st5" d="M1742.3,371.6c-37.6-59.8-80.1-112-126.5-156.4c158.3,249,250,544.4,250,861c0,69.5-3.9,138-13.5,204.6
							c-29.9,239.4-112.9,461.4-236.5,656.4c45.4-42.5,86.9-93.6,123.6-151.5c103.3-215.3,161.2-455.6,161.2-710.4
							C1900.6,823.4,1843.7,585,1742.3,371.6z"/>
						<path class="st6" d="M1612,212.4c-29-26.1-58.9-50.2-89.8-69.5c43.4,57.9,83,120.7,117.8,184.4
							c121.6,223,190.2,478.8,190.2,749.1c0,350.4-114.9,673.8-308.9,935.4c32.8-20.3,63.7-44.4,92.7-72.4
							c124.5-195,207.5-418,238.4-658.3c8.7-66.6,12.5-134.2,12.5-202.7C1864.9,759.7,1772.3,462.4,1612,212.4z"/>
						<path class="st6" d="M1614,1939.3c1-1,1-1,1.9-1.9c123.6-195,206.6-417,236.5-656.4C1822.5,1521.3,1738.5,1745.2,1614,1939.3z
							"/>
						<path class="st7" d="M1446,102.3c84.9,103.3,156.4,218.2,212.4,341.7c86.9,193.1,136.1,406.4,136.1,632.3
							c0,369.7-131.3,709.5-349.4,974.9c26.1-10.6,51.2-24.1,75.3-38.6c194-261.6,309.9-585.9,309.9-936.3
							c0-271.2-68.5-526.1-190.2-749.1c-34.8-64.7-74.3-126.5-117.8-184.4C1497.2,126.5,1472.1,113.9,1446,102.3z"/>
						<path class="st7" d="M1640,327.2c-34.8-64.7-74.3-126.5-117.8-184.4l0,0C1565.7,201.7,1605.3,262.6,1640,327.2z"/>
						<path class="st8" d="M1380.4,80.1c59.8,67.6,113.9,140,160.2,217.2c138,226.8,217.2,493.3,217.2,778
							c0,383.2-143.8,731.7-379.4,997.1c22.2-5.8,43.4-12.5,64.7-21.2c219.1-265.5,349.4-605.2,349.4-975.9
							c0-224.9-48.3-439.2-136.1-632.3c-56-123.6-127.4-238.4-212.4-341.7C1423.8,93.6,1402.6,86.9,1380.4,80.1z"/>
						<path class="st8" d="M1658.4,444c-56-123.6-127.4-238.4-212.4-341.7l0,0C1530.9,205.6,1602.4,320.5,1658.4,444z"/>
						<path class="st9" d="M1322.4,70.5c86.9,91.7,162.2,195,223.9,307.9c112.9,207.5,177.6,446,177.6,698.9
							c0,390-152.5,744.2-401.6,1006.8c19.3-1.9,38.6-5.8,57-10.6c236.5-265.5,379.4-614.9,379.4-997.1
							c0-284.8-79.2-551.2-217.2-778c-47.3-77.2-101.4-150.6-161.2-217.2C1361,75.3,1341.7,72.4,1322.4,70.5z"/>
						<path class="st9" d="M1541.6,298.3c-47.3-77.2-101.4-150.6-160.2-217.2l0,0C1440.2,148.7,1494.3,221.1,1541.6,298.3z"/>
						<path class="st10" d="M1274.2,67.6c-1,0-1.9,0-3.9,0c128.4,129.3,232.6,282.8,305,452.7c72.4,170.9,112,359.1,112,556
							c0,393.8-160.2,751-418,1009.7c1,0,2.9,0,3.9,0c15.4,0,31.9-1,47.3-1.9c249-262.6,401.6-617.8,401.6-1007.8
							c0-252.9-64.7-491.3-177.6-697.9c-60.8-112-136.1-215.3-223.9-307.9C1306,68.5,1290.6,67.6,1274.2,67.6z"/>
						<path class="st10" d="M1545.4,378.4c-60.8-112-136.1-215.3-223.9-307.9l0,0C1409.3,162.2,1484.6,265.5,1545.4,378.4z"/>
						<path class="st11" d="M1223,70.5c103.3,99.4,192.1,214.3,260.6,341.7c107.1,197.9,168,424.7,168,665.1
							c0,395.8-165.1,752.9-430.5,1006.8c15.4,1.9,30.9,2.9,47.3,2.9c258.7-258.7,418-615.9,418-1009.7c0-196.9-40.5-385.1-112-556
							c-72.4-169.9-175.7-324.3-305-452.7C1253.9,67.6,1238.5,68.5,1223,70.5z"/>
						<path class="st11" d="M1575.3,519.3c-72.4-169.9-175.7-324.3-305-452.7l0,0C1398.7,196.9,1502.9,349.4,1575.3,519.3z"/>
						<path class="st12" d="M1222,70.5c-15.4,1.9-29.9,3.9-43.4,7.7c109.1,101.4,201.7,219.1,273.2,351.4
							c104.3,193.1,164.1,413.1,164.1,647.7c0,394.8-168.9,751-438.2,999.1c14.5,2.9,29,5.8,43.4,7.7
							c265.5-253.9,430.5-611,430.5-1006.8c0-240.4-60.8-467.2-168-664.1C1414.1,284.8,1326.3,169.9,1222,70.5z"/>
						<path class="st12" d="M1482.7,412.2c-69.5-126.5-157.3-242.3-260.6-341.7l0,0C1326.3,169.9,1414.1,284.8,1482.7,412.2z"/>
						<path class="st1" d="M1178.6,78.2c-13.5,2.9-27,6.8-40.5,11.6c271.2,242.3,443.1,594.6,443.1,987.5s-170.9,746.2-443.1,987.5
							c13.5,3.9,26.1,7.7,40.5,11.6c270.3-248.1,438.2-604.3,438.2-999.1c0-234.6-59.8-454.6-164.1-647.7
							C1380.4,297.3,1287.7,178.6,1178.6,78.2z"/>
						<path class="st1" d="M1451.8,428.6c-71.4-131.3-164.1-250-273.2-351.4l0,0C1287.7,178.6,1380.4,297.3,1451.8,428.6z"/>
					</g>
				</g>
			</g>
		</g>
	</g>
	<path class="st13" d="M618.7,1077.3c0-557.9,293.4-1009.7,655.4-1009.7s655.4,451.8,655.4,1009.7s-293.4,1009.7-655.4,1009.7
		S618.7,1634.2,618.7,1077.3z"/>
	<path class="st14" d="M1557,1033.8h-68.5c0,40.5,26.1,58.9,68.5,50.2V1033.8z M1558.9,882.3c1-9.7,5.8-140.9,35.7-243.3
		c33.8-112.9,101.4-180.5,96.5-187.3c-3.9-6.8-59.8,5.8-102.3,33.8c-45.4,30.9-88.8,82-84.9,85.9c1.9,1.9,16.4-10.6,44.4-20.3
		c29-10.6,41.5-8.7,41.5-8.7s-48.3,80.1-72.4,166c-20.3,72.4-30.9,166-30.9,174.7L1558.9,882.3L1558.9,882.3z M987.5,882.3
		c-1-9.7-5.8-140.9-35.7-243.3C918,526.1,850.4,458.5,855.2,451.8c3.9-6.8,59.8,5.8,102.3,33.8c45.4,30.9,88.8,82,84.9,85.9
		c-1.9,1.9-16.4-10.6-44.4-20.3c-29-10.6-41.5-8.7-41.5-8.7s48.3,80.1,72.4,166c20.3,72.4,30.9,166,30.9,174.7L987.5,882.3
		L987.5,882.3z M1233.6,378.4c28-54.1,32.8-135.1,39.6-137.1c6.8,1,11.6,83,39.6,137.1c26.1,51.2,81.1,94.6,78.2,99.4
		c-3.9,5.8-34.8-9.7-50.2-16.4c-25.1-11.6-45.4-20.3-45.4-20.3s-9.7,129.3,21.2,249c26.1,97.5,87.8,187.3,92.7,195h-79.2
		c-1.9-3.9-4.8-8.7-6.8-12.5c-21.2-37.6-36.7-70.5-52.1-126.5c-15.4,57-29.9,88.8-52.1,126.5c-1.9,3.9-4.8,8.7-6.8,11.6h-79.2
		c5.8-7.7,67.6-96.5,92.7-195c30.9-118.7,21.2-249,21.2-249s-20.3,8.7-45.4,20.3c-15.4,6.8-46.3,23.2-50.2,16.4
		C1152.5,472,1207.6,428.6,1233.6,378.4z M990.4,1033.8h68.5c0,40.5-26.1,58.9-68.5,50.2V1033.8z M1373.6,1064.7
		c-31.9,29-30.9,81.1-30.9,81.1h-136.1c0,0,0-52.1-30.9-81.1c-22.2-20.3-49.2-25.1-49.2-25.1c-17.4-3.9-17.4-5.8-17.4-6.8h333
		c0,0,0,2.9-17.4,6.8C1422.8,1040.6,1395.8,1044.4,1373.6,1064.7z M955.6,923.8v-24.1h633.2v24.1H955.6z M957.6,1013.5v-24.1h633.2
		v24.1H957.6z M987.5,968.2V944h572.4v24.1H987.5z M1200.8,1283.8v-53.1h145.8v53.1H1200.8z M1177.6,1212.4v-47.3h192.1v47.3H1177.6
		z"/>
	<g>
		<path class="st15" d="M1654.5,1823.4c-59.8,76.3-125.5,128.4-189.2,161.2c-8.7,3.9-16.4,8.7-25.1,11.6c-3.9,1.9-8.7,3.9-11.6,5.8
			l0,0c-13.5,5.8-27,10.6-40.5,15.4c-1,0-1,0-1,1c-13.5,3.9-28,7.7-40.5,10.6l0,0c-16.4,3.9-30.9,5.8-45.4,6.8l0,0
			c-8.7,1-17.4,1-26.1,1c-5.8,0-12.5,0-19.3-1c-1.9,0-3.9,0-5.8-1c-1,0-1,0-1.9,0c-10.6-1-21.2-1.9-31.9-3.9c-1,0-1.9,0-1.9-1
			c-5.8-1-11.6-1.9-18.3-2.9c-8.7-1.9-17.4-3.9-26.1-6.8c-1,0-1.9-1-1.9-1c-13.5-3.9-28-8.7-42.5-14.5h-1
			c-15.4-5.8-31.9-13.5-47.3-22.2c-1-1-1-1-1.9-1c-2.9-1.9-5.8-3.9-8.7-5.8c-13.5-7.7-26.1-16.4-39.6-25.1
			c-45.4-31.9-89.8-74.3-133.2-130.3c-42.5-55-75.3-113.9-102.3-172.8c-12.5-28-24.1-55-33.8-82c-3.9-10.6-6.8-21.2-10.6-30.9
			c0-1,0-1-1-1c-13.5-42.5-25.1-81.1-32.8-115.8v-1c-12.5-53.1-18.3-95.6-21.2-117.8c0-1,0-1,0-1c-1-9.7-1.9-15.4-1.9-15.4h4.8h1
			h38.6l0,0h38.6h1h10.6h28h146.7h25.1h6.8l0,0h29.9h1h29.9h1h18.3h13.5h1.9h26.1l0,0h3.9h35.7h1h40.5h1h40.5l0,0h40.5h1h13.5h28
			h540.6C1856.2,1284.8,1833.1,1595.6,1654.5,1823.4z"/>
		<path class="st15" d="M1229.8,1284.8L1229.8,1284.8c-10.6,28-20.3,57.9-26.1,87.8C1210.5,1342.7,1220.1,1312.8,1229.8,1284.8z"/>
		<path class="st15" d="M1299.3,2036.7L1299.3,2036.7c-20.3-24.1-40.5-49.2-57.9-75.3C1258.7,1987.5,1278,2012.6,1299.3,2036.7z"/>
		<path class="st15" d="M1344.6,2029C1344.6,2029,1345.6,2029,1344.6,2029c-26.1-28-50.2-57.9-72.4-89.8
			C1295.4,1971.1,1318.6,2002,1344.6,2029z"/>
		<path class="st15" d="M987.5,1284.8L987.5,1284.8c-2.9,11.6-5.8,23.2-8.7,35.7C981.7,1308,984.6,1296.4,987.5,1284.8z"/>
		<path class="st15" d="M1337.9,1895.8c26.1,38.6,57,75.3,89.8,107.1l0,0C1393.9,1971.1,1363.9,1934.4,1337.9,1895.8z"/>
		<path class="st16" d="M688.2,1284.8c0,0,1,5.8,1.9,15.4c1-4.8,1.9-10.6,2.9-15.4H688.2z"/>
		<path class="st17" d="M693.1,1284.8c-1,5.8-1.9,10.6-2.9,16.4c2.9,21.2,8.7,63.7,21.2,117.8c3.9-45.4,10.6-89.8,20.3-134.2H693.1
			L693.1,1284.8z"/>
		<path class="st17" d="M692.1,1284.8c-1,4.8-1.9,10.6-2.9,15.4c0,1,0,1,0,1C691.1,1295.4,692.1,1290.6,692.1,1284.8L692.1,1284.8z"
			/>
		<path class="st18" d="M770.3,1284.8h-38.6c-8.7,43.4-16.4,88.8-20.3,135.1c7.7,34.8,18.3,74.3,32.8,115.8c0-1.9,0-5.8,0-7.7
			C744.2,1445,752.9,1363,770.3,1284.8z"/>
		<path class="st18" d="M731.7,1284.8c-8.7,43.4-16.4,88.8-20.3,134.2v1C715.3,1373.6,722,1328.2,731.7,1284.8L731.7,1284.8z"/>
		<path class="st19" d="M780.9,1284.8h-10.6c-16.4,79.2-26.1,160.2-26.1,243.3c0,2.9,0,5.8,0,8.7c3.9,10.6,6.8,20.3,10.6,30.9
			c-1-12.5-1-25.1-1-37.6C754.8,1446,763.5,1363,780.9,1284.8z"/>
		<path class="st19" d="M770.3,1284.8L770.3,1284.8c-17.4,78.2-26.1,160.2-26.1,243.3c0,1.9,0,5.8,0,7.7c0,1,0,1,1,1
			c0-2.9,0-5.8,0-8.7C744.2,1445,753.9,1363,770.3,1284.8z"/>
		<path class="st19" d="M955.6,1284.8H808.9c-17.4,78.2-27,160.2-27,243.3c0,41.5,1.9,82,6.8,121.6c27,58.9,60.8,118.7,102.3,172.8
			c43.4,56,88.8,98.5,133.2,130.3c-63.7-128.4-99.4-273.2-99.4-425.7C924.7,1444.1,935.4,1362,955.6,1284.8z"/>
		<path class="st19" d="M809.9,1284.8h-28c-17.4,79.2-27,161.2-27,245.2c0,12.5,0,25.1,1,37.6c9.7,27,21.2,55,33.8,82
			c-3.9-40.5-6.8-80.1-6.8-121.6C782.8,1445,791.5,1363,809.9,1284.8z"/>
		<path class="st19" d="M978.8,1320.5c2.9-11.6,5.8-23.2,8.7-35.7h-6.8c-21.2,77.2-31.9,159.3-31.9,243.3
			c0,163.1,42.5,317.6,115.8,451.8c2.9,1.9,5.8,3.9,8.7,5.8c-75.3-134.2-118.7-289.6-118.7-454.6
			C954.7,1457.6,962.4,1387.1,978.8,1320.5z"/>
		<path class="st19" d="M980.7,1284.8h-25.1c-20.3,77.2-30.9,159.3-30.9,243.3c0,153.5,35.7,297.3,99.4,425.7
			c13.5,9.7,26.1,18.3,39.6,25.1c-74.3-134.2-115.8-287.7-115.8-451.8C947.9,1444.1,959.5,1362,980.7,1284.8z"/>
		<path class="st20" d="M1017.4,1284.8h-29.9c-2.9,11.6-5.8,23.2-8.7,35.7c-15.4,66.6-23.2,136.1-23.2,207.5
			c0,166,43.4,322.4,120.7,457.5c16.4,8.7,31.9,16.4,47.3,22.2c-87.8-139-139-303.1-139-479.7
			C983.6,1443.1,996.2,1362,1017.4,1284.8z"/>
		<path class="st20" d="M978.8,1320.5c-15.4,67.6-24.1,138-24.1,209.5c0,165.1,43.4,320.5,118.7,454.6c1,1,1,1,1.9,1
			C999.1,1850.4,954.7,1695,954.7,1528C954.7,1456.6,963.3,1387.1,978.8,1320.5z"/>
		<path class="st21" d="M1048.3,1284.8h-29.9c-21.2,77.2-33.8,159.3-33.8,243.3c0,176.6,51.2,340.7,139,479.7
			c14.5,5.8,28,10.6,42.5,14.5c-96.5-140-153.5-309.9-153.5-492.3C1012.6,1445,1025.1,1362,1048.3,1284.8z"/>
		<path class="st21" d="M1018.4,1284.8h-1c-21.2,77.2-32.8,158.3-32.8,243.3c0,176.6,51.2,341.7,139,479.7h1
			c-86.9-138-138-303.1-138-479.7C984.6,1444.1,996.2,1362,1018.4,1284.8z"/>
		<path class="st22" d="M1066.6,1284.8h-18.3c-23.2,77.2-34.8,159.3-34.8,243.3c0,183.4,57,354.3,155.4,494.2
			c8.7,1.9,18.3,4.8,26.1,6.8c-102.3-140.9-163.1-314.7-163.1-501.9C1030.9,1443.1,1043.5,1362,1066.6,1284.8z"/>
		<path class="st22" d="M1048.3,1284.8L1048.3,1284.8c-23.2,77.2-35.7,160.2-35.7,245.2c0,182.4,57,352.3,153.5,492.3
			c1,0,1.9,1,1.9,1c-97.5-140.9-155.4-310.8-155.4-494.2C1013.5,1444.1,1026.1,1362,1048.3,1284.8z"/>
		<path class="st23" d="M1107.2,1284.8L1107.2,1284.8c-8.7,26.1-15.4,53.1-21.2,80.1C1092.7,1337.9,1099.5,1310.9,1107.2,1284.8z"/>
		<path class="st23" d="M1082.1,1284.8h-1.9c-23.2,77.2-35.7,158.3-35.7,243.3c0,189.2,62.7,363.9,168.9,503.9c1,0,1.9,0,1.9,1
			c-106.2-140.9-169.9-315.6-169.9-505.8C1046.4,1443.1,1058.9,1362,1082.1,1284.8z"/>
		<path class="st23" d="M1080.1,1284.8h-13.5c-23.2,77.2-35.7,158.3-35.7,243.3c0,187.3,60.8,361,163.1,501.9
			c5.8,1,11.6,1.9,18.3,2.9c-106.2-140.9-168.9-314.7-168.9-503.9C1044.4,1443.1,1057,1362,1080.1,1284.8z"/>
		<path class="st23" d="M1086.9,1364.9c5.8-27,12.5-53.1,20.3-80.1h-25.1c-23.2,77.2-35.7,158.3-35.7,243.3
			c0,190.2,62.7,364.9,169.9,505.8c10.6,1.9,21.2,2.9,31.9,3.9c-111-139-177.6-315.6-177.6-506.8
			C1070.5,1473,1075.3,1418,1086.9,1364.9z"/>
		<path class="st24" d="M1109.1,1527.1c0-84.9,13.5-166,38.6-243.3H1112c-24.1,77.2-37.6,158.3-37.6,243.3
			c0,193.1,67.6,369.7,180.5,508.7c6.8,1,12.5,1,19.3,1c8.7,0,16.4-1,26.1-1c-21.2-24.1-40.5-49.2-57.9-75.3
			C1157.4,1837.9,1109.1,1688.3,1109.1,1527.1z"/>
		<path class="st24" d="M1112,1284.8h-3.9c-8.7,26.1-15.4,53.1-21.2,80.1c-10.6,53.1-16.4,107.1-16.4,163.1
			c0,192.1,66.6,368.7,178.6,508.7c1.9,0,3.9,0,5.8,1c-112-139-180.5-315.6-180.5-508.7C1074.4,1443.1,1087.9,1362,1112,1284.8z"/>
		<path class="st24" d="M1086.9,1364.9c-10.6,53.1-16.4,109.1-16.4,165.1c0,192.1,66.6,367.8,177.6,506.8c1,0,1,0,1.9,0
			c-112-139-178.6-315.6-178.6-508.7C1070.5,1472.1,1076.3,1418,1086.9,1364.9z"/>
		<path class="st25" d="M1146.8,1527.1c0-84.9,14.5-167,41.5-243.3h-40.5c-25.1,76.3-38.6,158.3-38.6,243.3
			c0,160.2,48.3,309.9,132.2,432.4c18.3,26.1,37.6,52.1,57.9,75.3c14.5-1,29.9-3.9,45.4-6.8c-26.1-28-50.2-57.9-72.4-89.8
			C1194.1,1821.5,1146.8,1680.6,1146.8,1527.1z"/>
		<path class="st25" d="M1241.4,1960.5c-84-123.6-132.2-273.2-132.2-432.4c0-84.9,13.5-167,38.6-243.3h-1
			c-25.1,76.3-38.6,158.3-38.6,243.3C1109.1,1688.3,1157.4,1837.9,1241.4,1960.5z"/>
		<path class="st26" d="M1203.7,1372.6c6.8-29.9,15.4-58.9,26.1-87.8h-40.5c-27,76.3-41.5,158.3-41.5,243.3
			c0,151.5,46.3,293.4,125.5,411.2c21.2,31.9,45.4,61.8,72.4,89.8c13.5-2.9,27-6.8,40.5-10.6c-123.6-125.5-199.8-298.3-199.8-489.4
			C1186.3,1475.9,1192.1,1422.8,1203.7,1372.6z"/>
		<path class="st26" d="M1273.2,1939.3c-79.2-116.8-125.5-258.7-125.5-411.2c0-84.9,14.5-167,41.5-243.3h-1
			c-26.1,76.3-41.5,158.3-41.5,243.3C1146.8,1680.6,1194.1,1821.5,1273.2,1939.3z"/>
		<path class="st27" d="M1337.9,1895.8c-70.5-105.2-112.9-231.7-112.9-368.7c0-85.9,16.4-168,46.3-243.3h-40.5
			c-10.6,28-20.3,57.9-26.1,87.8c-11.6,50.2-17.4,102.3-17.4,156.4c0,191.1,77.2,363.9,201.7,489.4c13.5-3.9,26.1-8.7,40.5-15.4
			C1393.9,1971.1,1363.9,1934.4,1337.9,1895.8z"/>
		<path class="st27" d="M1203.7,1372.6c-11.6,50.2-18.3,103.3-18.3,157.3c0,190.2,76.3,362.9,199.8,489.4c1,0,1,0,1-1
			c-124.5-126.5-201.7-299.2-201.7-489.4C1186.3,1475,1192.1,1421.9,1203.7,1372.6z"/>
		<path class="st15" d="M1237.5,1527.1c0-85.9,16.4-168,47.3-243.3h-13.5c-29.9,75.3-46.3,157.3-46.3,243.3
			c0,136.1,41.5,262.6,112,367.8c26.1,38.6,57,74.3,90.7,107.1c3.9-1.9,8.7-3.9,11.6-5.8C1315.7,1879.4,1237.5,1712.4,1237.5,1527.1
			z"/>
		<path class="st15" d="M1337.9,1895.8c-70.5-105.2-112-231.7-112-367.8c0-85.9,16.4-168,46.3-243.3h-1
			c-29.9,75.3-46.3,157.3-46.3,243.3C1224.9,1664.1,1266.4,1790.6,1337.9,1895.8z"/>
		<path class="st15" d="M1263.6,1528c0,180.5,77.2,343.6,201.7,457.5c63.7-33.8,129.3-84.9,189.2-161.2
			c177.6-227.8,201.7-538.6,201.7-538.6h-542.5C1280.9,1359.1,1263.6,1441.2,1263.6,1528z"/>
		<path class="st15" d="M1263.6,1528c0-86.9,18.3-168.9,50.2-243.3h-28c-30.9,75.3-47.3,156.4-47.3,243.3
			c0,185.3,77.2,352.3,202.7,470.1c8.7-3.9,16.4-7.7,25.1-11.6C1341.7,1872.7,1263.6,1708.6,1263.6,1528z"/>
	</g>
	<g>
		<path class="st1" d="M891,1386.1l-43.4,110h-6.8l-41.5-110l-4.8,84.9c0,1-1,5.8-1,8.7c0,7.7,9.7,7.7,15.4,7.7h1v8.7h-48.3v-8.7
			c3.9,0,15.4,0,18.3-3.9c1.9-2.9,2.9-8.7,3.9-20.3l3.9-80.1c1-6.8,0-8.7-1.9-10.6c-2.9-1.9-11.6-1.9-15.4-1.9v-6.8h41.5l37.6,97.5
			l38.6-97.5h40.5v8.7h-1c-8.7,0-12.5,0-13.5,1.9c-1.9,1.9-1.9,5.8-1,16.4l3.9,77.2c0,3.9,1,13.5,2.9,17.4
			c2.9,4.8,11.6,3.9,16.4,3.9v8.7h-59.8v-7.7c3.9-1,10.6-1,14.5-1.9c2.9-1,4.8-3.9,4.8-7.7c0-1.9,0-7.7-1-9.7L891,1386.1"/>
		<path class="st1" d="M1160.3,1361.1h6.8l2.9,32.8h-7.7c-3.9-11.6-11.6-28-28-28c-10.6,0-21.2,8.7-21.2,18.3c0,5.8,1,9.7,6.8,14.5
			c6.8,7.7,19.3,15.4,28,21.2c13.5,10.6,25.1,21.2,25.1,40.5c0,20.3-18.3,38.6-40.5,38.6c-8.7,0-16.4-2.9-24.1-5.8l-1.9-1h-1
			c-1.9,0-1.9,1-1.9,1.9h-6.8l-3.9-35.7h7.7c3.9,12.5,13.5,29,29.9,29c6.8,0,25.1-5.8,25.1-21.2c0-7.7-1.9-13.5-6.8-18.3
			c-4.8-5.8-12.5-10.6-22.2-16.4c-25.1-16.4-29-29-29-41.5c0-20.3,20.3-34.8,36.7-34.8c6.8,0,12.5,1,18.3,2.9l3.9,1.9l1.9,1l1,1
			C1159.3,1363.9,1160.3,1362,1160.3,1361.1"/>
		<path class="st1" d="M1006.8,1379.4l-17.4,50.2h33.8L1006.8,1379.4z M1002,1367.8l-2.9-9.7h22.2l37.6,112.9
			c3.9,13.5,3.9,16.4,20.3,16.4v8.7h-59.8v-8.7c3.9,0,9.7,0,13.5-1c2.9-1,4.8-2.9,4.8-5.8c0-3.9-1.9-10.6-3.9-16.4l-7.7-25.1h-37.6
			c-3.9,11.6-10.6,26.1-10.6,38.6c-1,6.8,4.8,8.7,10.6,8.7l6.8,1l1,8.7h-49.2v-7.7c10.6-1.9,13.5-4.8,17.4-13.5
			c1-2.9,1.9-6.8,3.9-10.6L1002,1367.8"/>
		<path class="st1" d="M1267.4,1371.7h-28v51.2h25.1c5.8,0,7.7,0,9.7-1.9c2.9-2.9,3.9-11.6,3.9-14.5h7.7v43.4h-7.7
			c-1-15.4,0-17.4-15.4-17.4h-23.2v42.5c0,6.8,0,8.7,1,10.6c1,1.9,7.7,1,9.7,1h20.3c16.4,0,18.3-8.7,23.2-25.1h7.7l-2.9,34.8h-100.4
			v-8.7c15.4,1,19.3-1,19.3-16.4v-84.9c0-16.4-4.8-16.4-19.3-16.4v-7.7h95.6l1,30.9h-7.7C1283.8,1377.5,1283.8,1371.7,1267.4,1371.7
			"/>
		<path class="st1" d="M1586.9,1393.9h-6.8l1.9-35.7h5.8c1,1.9,1,2.9,3.9,3.9c1,0,1.9,1,2.9,1h4.8h75.3c4.8,0,6.8,0,7.7-1
			s1.9-1.9,1.9-3.9h5.8l2.9,35.7h-6.8c-1-4.8-2.9-15.4-6.8-20.3c-1.9-1.9-5.8-1.9-10.6-1.9h-21.2v97.5c0,8.7,1,12.5,2.9,14.5
			c3.9,2.9,15.4,2.9,19.3,2.9v8.7h-66.6v-8.7c3.9,0,15.4-1,19.3-2.9c1.9-1.9,2.9-4.8,2.9-13.5v-99.4h-18.3c-7.7,0-12.5-1-15.4,6.8
			C1589.8,1384.2,1587.9,1389,1586.9,1393.9"/>
		<path class="st1" d="M1714.3,1362h62.7v8.7c-21.2,1-20.3,3.9-20.3,25.1v73.4c1,17.4,3.9,18.3,21.2,19.3v7.7h-62.7v-7.7
			c3.9-1,8.7-1,13.5-1.9c1.9-1,1.9-1,2.9-1.9c1.9-4.8,2.9-15.4,2.9-28V1390c0-16.4-3.9-18.3-20.3-19.3L1714.3,1362"/>
		<path class="st1" d="M1369.7,1428.6h13.5c5.8,0,10.6,0,15.4-2.9c5.8-3.9,10.6-10.6,10.6-26.1c0-25.1-14.5-29-26.1-29
			c-3.9,0-10.6,0-13.5,0L1369.7,1428.6L1369.7,1428.6z M1508.7,1379.4l-17.4,50.2h33.8L1508.7,1379.4z M1522.2,1357.2l37.6,112.9
			c3.9,13.5,3.9,16.4,20.3,16.4v8.7h-59.8v-8.7c5.8,0,18.3,1,18.3-7.7c0-3.9-1.9-10.6-3.9-16.4l-8.7-24.1h-37.6
			c-3.9,11.6-9.7,25.1-10.6,38.6c-1,10.6,11.6,9.7,18.3,10.6v8.7h-48.3c-18.3,1-33.8-4.8-45.4-25.1c-2.9-4.8-13.5-27-17.4-32.8
			h-16.4v29c0,18.3,1.9,20.3,11.6,20.3h9.7v8.7h-63.7v-8.7c16.4,1,20.3-1,20.3-16.4v-88.8c0-8.7,0-11.6-8.7-12.5
			c-3.9-1-7.7,0-11.6,0v-7.7c16.4-1,33.8-1,50.2-1c10.6,0,20.3-1,29.9,1.9c11.6,3.9,23.2,12.5,23.2,32.8c0,24.1-13.5,32.8-23.2,35.7
			c3.9,4.8,6.8,8.7,16.4,29.9s12.5,24.1,24.1,26.1c12.5-1,15.4-7.7,21.2-25.1l33.8-95.6l-2.9-9.7L1522.2,1357.2"/>
	</g>
</g>
</svg>
