<?xml version="1.0" encoding="utf-8"?>
<!-- Generator: Adobe Illustrator 24.2.1, SVG Export Plug-In . SVG Version: 6.00 Build 0)  -->
<svg version="1.1" id="Layer_1" xmlns="http://www.w3.org/2000/svg" xmlns:xlink="http://www.w3.org/1999/xlink" x="0px" y="0px"
	 viewBox="0 0 2500 2141" style="enable-background:new 0 0 2500 2141;" xml:space="preserve">
<style type="text/css">
	.st0{fill-rule:evenodd;clip-rule:evenodd;fill:#231F20;}
</style>
<g>
	<path class="st0" d="M1721.1,0H786.6L178.2,608.4v926.8L782.7,2141h930.6l608.4-608.4V602L1721.1,0L1721.1,0L1721.1,0z
		 M2134.9,1451.4L1628.3,1958H869.1l-506.6-504V692.2l506.6-504h769.5L2134.9,687V1451.4L2134.9,1451.4L2134.9,1451.4z"/>
	<polygon class="st0" points="794.3,827.5 665.4,564.6 473.4,745 473.4,1389.5 657.7,1577.7 657.7,950 818.8,1307 1000.6,830.1 
		1000.6,1830.4 1205.5,1830.4 1205.5,306.8 989,306.8 	"/>
	<path class="st0" d="M1348.6,306.8v1523.6h233.3l442.1-440.8v-321h-340.3v185.6h126.3l0,0c33.5-5.2,37.4,33.5,11.6,63.2
		C1797.2,1345.7,1551,1588,1551,1588l0,0V550.4l287.4,299v73.5H2024V752.8l-438.3-446L1348.6,306.8L1348.6,306.8L1348.6,306.8z"/>
</g>
</svg>
