<?xml version="1.0" encoding="utf-8"?>
<!-- Generator: Adobe Illustrator 24.2.1, SVG Export Plug-In . SVG Version: 6.00 Build 0)  -->
<svg version="1.1" id="Layer_1" xmlns="http://www.w3.org/2000/svg" xmlns:xlink="http://www.w3.org/1999/xlink" x="0px" y="0px"
	 viewBox="0 0 2500 2141" style="enable-background:new 0 0 2500 2141;" xml:space="preserve">
<style type="text/css">
	.st0{fill:#1A171B;}
</style>
<g>
	<path class="st0" d="M2475.1,1166.1L2475.1,1166.1l-234.3-15c2.1-26.9,3.2-53.7,3.2-80.6c0-550.2-446-995.1-995.1-995.1
		c-476.1,0-873.7,333.1-972.6,780.2H93.7c-11.8,0-22.6,5.4-30.1,14L8.8,944.8c-2.1,3.2-4.3,6.4-4.3,11.8c0,9.7,8.6,19.3,19.3,19.3
		l233.2,14c-2.1,26.9-3.2,53.7-3.2,80.6c0,550.2,446,995.1,995.1,995.1c476.1,0,873.7-333.1,972.6-780.2h184.8
		c11.8,0,22.6-5.4,30.1-14l54.8-75.2c2.1-3.2,4.3-6.4,4.3-11.8C2493.4,1174.7,2485.8,1166.1,2475.1,1166.1z M1248.9,1925.9
		L1248.9,1925.9c-467.5,0-855.4-387.9-855.4-855.4c0-24.7,1.1-48.4,3.2-72l715.7,45.1l-309.5,213.9c-4.3,3.2-6.4,7.5-6.4,12.9
		c0,8.6,7.5,16.1,16.1,16.1h1263.8C1978.6,1651.9,1642.2,1925.9,1248.9,1925.9z M2101.1,1142.5l-714.6-45.1l310.6-212.8
		c4.3-3.2,6.4-7.5,6.4-12.9c0-8.6-6.4-16.1-16.1-16.1H421.4c96.7-365.4,434.2-639.4,827.5-639.4l0,0l0,0l0,0
		c467.5,0,855.4,387.9,855.4,855.4C2104.3,1095.2,2103.3,1118.9,2101.1,1142.5z"/>
</g>
</svg>
