<?xml version="1.0" encoding="utf-8"?>
<!-- Generator: Adobe Illustrator 24.2.1, SVG Export Plug-In . SVG Version: 6.00 Build 0)  -->
<svg version="1.1" id="Layer_1" xmlns="http://www.w3.org/2000/svg" xmlns:xlink="http://www.w3.org/1999/xlink" x="0px" y="0px"
	 viewBox="0 0 2500 2141" style="enable-background:new 0 0 2500 2141;" xml:space="preserve">
<style type="text/css">
	.st0{fill:url(#SVGID_1_);}
	.st1{fill:url(#SVGID_2_);}
	.st2{fill:url(#SVGID_3_);}
	.st3{fill:url(#SVGID_4_);}
	.st4{fill:url(#SVGID_5_);}
	.st5{fill:url(#SVGID_6_);}
	.st6{opacity:0.85;fill:url(#SVGID_7_);enable-background:new    ;}
	.st7{opacity:0.85;fill:url(#SVGID_8_);enable-background:new    ;}
	.st8{opacity:0.85;fill:url(#SVGID_9_);enable-background:new    ;}
	.st9{fill:url(#SVGID_10_);}
	.st10{fill:#7F7F7E;}
	.st11{fill:url(#SVGID_11_);}
	.st12{fill:url(#SVGID_12_);}
	.st13{fill:url(#SVGID_13_);}
	.st14{fill:url(#SVGID_14_);}
	.st15{fill:url(#SVGID_15_);}
	.st16{fill:url(#SVGID_16_);}
	.st17{fill:url(#SVGID_17_);}
	.st18{fill:url(#SVGID_18_);}
	.st19{fill:url(#SVGID_19_);}
	.st20{fill:url(#SVGID_20_);}
	.st21{fill:url(#SVGID_21_);}
	.st22{fill:url(#SVGID_22_);}
	.st23{fill:url(#SVGID_23_);}
	.st24{fill:url(#SVGID_24_);}
	.st25{fill:url(#SVGID_25_);}
	.st26{fill:url(#SVGID_26_);}
	.st27{fill:url(#SVGID_27_);}
	.st28{fill:#192753;}
</style>
<g>
	<g>
		<g>
			<g>
				<g>
					<g>
						<path d="M1767.7,1328.3c-23.5-69.4-116.3-242.3-190-339.4c-16-21.3-9.6-32-1.1-39.5c8.5-7.5,35.2-29.9,67.2-67.2
							c33.1-37.4,40.6-79,17.1-140.9c-23.5-60.8-98.2-204.9-115.3-251.9c-18.1-54.4-20.3-79-8.5-108.9c12.8-35.2,32-36.3,47-36.3
							c7.5,0,13.9,8.5,13.9,11.7c1.1,16,1.1,35.2,16,74.7c24.5,64,86.5,105.7,105.7,114.2c13.9,5.3,16-4.3,14.9-9.6
							s-21.3-84.3-36.3-144.1c-16-63-23.5-75.8-38.4-88.6c-22.4-21.3-56.6-33.1-85.4-32c-64,2.1-92.9,64-97.1,70.4
							c-3.2,5.3-4.3,8.5-10.7,4.3c-19.2-12.8-72.6-57.6-77.9-85.4c-3.2-17.1-5.3-19.2-22.4-25.6c-64-25.6-120.6-48-182.5-57.6
							c-25.6-4.3-26.7-6.4-55.5-1.1c-49.1,8.5-79,20.3-116.3,39.5c-20.3,10.7-22.4,18.1-26.7,23.5c-3.2,4.3-6.4,8.5-13.9,10.7
							c-11.7,4.3-57.6,21.3-73.6,29.9c-9.6,5.3-14.9,11.7-10.7,22.4c8.5,19.2,35.2,59.8,47,70.4c7.5,6.4,24.5,10.7,28.8,11.7
							c4.3,1.1,7.5,2.1,8.5-1.1c2.1-3.2,2.1-8.5,10.7-13.9c11.7-8.5,35.2-14.9,47-16c8.5-1.1,14.9-1.1,20.3,2.1
							c4.3,3.2,16,16,19.2,26.7s1.1,16-5.3,19.2c-6.4,2.1-26.7,7.5-50.2,8.5c-23.5,2.1-29.9-4.3-31-5.3c-1.1-1.1-4.3-3.2-6.4,0
							c-4.3,5.3-9.6,8.5-19.2,13.9c-5.3,2.1-7.5,7.5-3.2,16c14.9,25.6,33.1,53.4,51.2,58.7c13.9,4.3,22.4,0,37.4-11.7
							c13.9-10.7,23.5-10.7,27.8-7.5c4.3,3.2,12.8,10.7,10.7,18.1c-4.3,12.8-28.8,42.7-34.2,49.1c-4.3,5.3-8.5,8.5-17.1,5.3
							c-11.7-5.3-195.3-100.3-219.9-109.9c-26.7-10.7-43.8-12.8-70.4-13.9c-21.3-1.1-50.2,1.1-67.2,4.3c-12.8,2.1-20.3,8.5-32,19.2
							c-17.1,16-34.2,35.2-35.2,51.2c-1.1,11.7,11.7,35.2,13.9,37.4c1.1,2.1,4.3,5.3,10.7,4.3c7.5-1.1,25.6-10.7,47-6.4
							c19.2,3.2,21.3,19.2,22.4,29.9c0,2.1,2.1,6.4,8.5,6.4c7.5,0,20.3,0,34.2,7.5c17.1,8.5,51.2,35.2,56.6,40.6
							c4.3,4.3,4.3,8.5-4.3,9.6c-43.8,4.3-109.9,17.1-140.9,26.7c-22.4,7.5-48,17.1-56.6,33.1c-10.7,18.1-23.5,47-26.7,67.2
							c-4.3,20.3,18.1,45.9,23.5,51.2c4.3,4.3,6.4,6.4,13.9,2.1c10.7-6.4,36.3-22.4,60.8-23.5c14.9-1.1,21.3,13.9,24.5,19.2
							c4.3,5.3,7.5,1.1,20.3-2.1c23.5-6.4,156.9-4.3,203.9-2.1c21.3,1.1,51.2,4.3,73.6,16c22.4,11.7,60.8,49.1,60.8,49.1
							s-52.3,87.5-81.1,139.8c-26.7,48-44.8,84.3-54.4,104.6c-8.5,19.2-16,47-13.9,67.2c2.1,32,3.2,48,2.1,61.9
							c-1.1,11.7-11.7,13.9-28.8,18.1c-22.4,5.3-68.3,9.6-104.6,19.2c-33.1,8.5-45.9,16-52.3,41.6c-4.3,20.3-11.7,70.4-11.7,93.9
							c-1.1,9.6-1.1,13.9,10.7,11.7c7.5-1.1,26.7-4.3,51.2-5.3c31-2.1,64-2.1,90.7-2.1c48,0,188.9,7.5,197.5,8.5
							c11.7,1.1,13.9,0,13.9-8.5c-1.1-10.7-3.2-47-4.3-67.2c-1.1-21.3-4.3-42.7,16-63c19.2-20.3,162.2-181.4,170.8-188.9
							c7.5-7.5,11.7-13.9,22.4-4.3c10.7,9.6,129.1,95,152.6,113.1c23.5,17.1,47,23.5,73.6,23.5c19.2,0,25.6,34.2,8.5,37.4
							c-17.1,3.2-42.7,8.5-60.8,12.8c-27.8,6.4-36.3,16-44.8,35.2c-7.5,16-14.9,93.9-16,101.4c0,5.3-1.1,11.7,7.5,10.7
							c35.2-7.5,88.6-8.5,147.3-7.5c67.2,2.1,132.3,7.5,142,8.5s10.7-1.1,16-8.5c8.5-13.9,33.1-42.7,56.6-60.8
							C1771.9,1345.4,1771.9,1342.2,1767.7,1328.3z M1509.4,855.5c-17.1,5.3-28.8,1.1-36.3-7.5c-7.5-8.5-75.8-89.7-98.2-115.3
							c-10.7-12.8-19.2-41.6,13.9-53.4c26.7-9.6,75.8-25.6,88.6-33.1c13.9-7.5,20.3-13.9,22.4-28.8c1.1-13.9,1.1-29.9,1.1-35.2
							s7.5-9.6,10.7-3.2c2.1,4.3,14.9,28.8,29.9,55.5c22.4,41.6,50.2,92.9,59.8,115.3c8.5,21.3,4.3,37.4-8.5,53.4
							C1573.4,827.7,1522.2,851.2,1509.4,855.5z"/>
					</g>
				</g>
				
					<linearGradient id="SVGID_1_" gradientUnits="userSpaceOnUse" x1="1747.9364" y1="860.7454" x2="1374.3452" y2="1432.9426" gradientTransform="matrix(1 0 0 1 0 -519.8898)">
					<stop  offset="0.2033" style="stop-color:#CCCCCC"/>
					<stop  offset="0.2274" style="stop-color:#A6A7A6"/>
					<stop  offset="0.2583" style="stop-color:#7D7D7D"/>
					<stop  offset="0.2885" style="stop-color:#5D5D5D"/>
					<stop  offset="0.3174" style="stop-color:#464646"/>
					<stop  offset="0.3446" style="stop-color:#383838"/>
					<stop  offset="0.3681" style="stop-color:#333333"/>
					<stop  offset="0.4381" style="stop-color:#393939"/>
					<stop  offset="0.5311" style="stop-color:#4A4A4A"/>
					<stop  offset="0.637" style="stop-color:#656565"/>
					<stop  offset="0.7516" style="stop-color:#8C8C8C"/>
					<stop  offset="0.8132" style="stop-color:#A3A3A3"/>
					<stop  offset="1" style="stop-color:#000000"/>
				</linearGradient>
				<path class="st0" d="M1579.8,283.4C1579.8,283.4,1578.7,283.4,1579.8,283.4c-53.4,0-106.7,60.8-97.1,152.6
					c6.4,56.6,14.9,81.1,32,117.4c8.5,18.1,98.2,190,102.5,208.1c5.3,25.6,1.1,42.7-19.2,60.8c-22.4,20.3-58.7,42.7-83.3,51.2
					c-5.3,2.1-10.7,3.2-16,3.2c-5.3,0-19.2-2.1-45.9-34.2l116.3,155.8c-14.9-20.3-22.4-35.2-20.3-48c2.1-12.8,23.5-26.7,48-47
					c24.5-20.3,51.2-42.7,64-75.8c4.3-8.5,5.3-19.2,5.3-28.8c0-31-14.9-66.2-33.1-104.6c-23.5-50.2-89.7-156.9-109.9-232.7
					c-5.3-19.2-7.5-35.2-7.5-50.2c0-42.7,18.1-70.4,40.6-79c10.7-4.3,20.3-5.3,28.8-5.3c11.7,0,20.3,3.2,24.5,5.3
					c6.4,3.2,7.5,10.7,7.5,17.1c0,1.1,0,1.1,0,1.1c0,1.1,0,4.3,0,8.5c0,17.1,2.1,56.6,23.5,93.9c25.6,48,69.4,74.7,86.5,82.2
					c1.1,1.1-39.5-153.7-48-182.5C1670.5,318.6,1647,284.5,1579.8,283.4z"/>
				
					<linearGradient id="SVGID_2_" gradientUnits="userSpaceOnUse" x1="697.974" y1="1275.7504" x2="765.6699" y2="1120.7039" gradientTransform="matrix(1 0 0 1 0 -519.8898)">
					<stop  offset="3.103500e-02" style="stop-color:#A6A6A6"/>
					<stop  offset="0.2" style="stop-color:#A6A6A6"/>
					<stop  offset="0.9897" style="stop-color:#4C4D4D"/>
				</linearGradient>
				<path class="st1" d="M851.9,626c10.7,10.7-7.5,9.6-60.8,13.9c-54.4,4.3-109.9,16-138.8,26.7c-21.3,7.5-34.2,13.9-42.7,33.1
					c0,0-17.1,38.4-20.3,53.4c-1.1,7.5-1.1,10.7,3.2,17.1c2.1,3.2,7.5-99.3,139.8-106.7c117.4-5.3,146.2-18.1,122.7-40.6L851.9,626z
					"/>
				
					<linearGradient id="SVGID_3_" gradientUnits="userSpaceOnUse" x1="1622.4708" y1="904.1932" x2="1539.0811" y2="896.3058" gradientTransform="matrix(1 0 0 1 0 -519.8898)">
					<stop  offset="0.1966" style="stop-color:#333333"/>
					<stop  offset="0.2597" style="stop-color:#353535"/>
					<stop  offset="0.2825" style="stop-color:#3C3C3C"/>
					<stop  offset="0.2987" style="stop-color:#474847"/>
					<stop  offset="0.3118" style="stop-color:#585858"/>
					<stop  offset="0.323" style="stop-color:#6E6E6E"/>
					<stop  offset="0.333" style="stop-color:#8A8A8A"/>
					<stop  offset="0.342" style="stop-color:#AAAAAA"/>
					<stop  offset="0.3503" style="stop-color:#D0D0D0"/>
					<stop  offset="0.3576" style="stop-color:#F9F9F9"/>
					<stop  offset="0.3586" style="stop-color:#FFFFFF"/>
					<stop  offset="0.8241" style="stop-color:#333333"/>
					<stop  offset="1" style="stop-color:#191A1A"/>
				</linearGradient>
				<path class="st2" d="M1523.2,415.7c0,0,2.1-26.7,7.5-39.5c11.7-34.2,33.1-41.6,49.1-41.6c10.7,0,14.9,2.1,19.2,7.5
					c3.2,4.3,5.3,7.5,5.3,11.7c1.1,16,1.1,33.1,16,72.6c1.1,2.1,2.1,4.3,2.1,7.5c-11.7-32-13.9-60.8-13.9-76.8c0-5.3,0-10.7,0-10.7
					c0-11.7-12.8-14.9-23.5-14.9c-7.5,0-16,1.1-25.6,5.3c-19.2,7.5-35.2,31-36.3,70.4L1523.2,415.7z"/>
				
					<linearGradient id="SVGID_4_" gradientUnits="userSpaceOnUse" x1="871.7791" y1="1357.5038" x2="940.3855" y2="1200.3696" gradientTransform="matrix(1 0 0 1 0 -519.8898)">
					<stop  offset="0" style="stop-color:#CCCCCC"/>
					<stop  offset="0.1219" style="stop-color:#B8B8B8"/>
					<stop  offset="0.2537" style="stop-color:#ABABAB"/>
					<stop  offset="0.3681" style="stop-color:#A6A6A6"/>
					<stop  offset="0.9897" style="stop-color:#000000"/>
				</linearGradient>
				<path class="st3" d="M857.2,630.3c4.3,10.7-11.7,8.5-66.2,12.8c-54.4,4.3-109.9,16-138.8,26.7c-21.3,7.5-34.2,13.9-42.7,33.1
					c0,0-17.1,38.4-20.3,53.4c-1.1,7.5,1.1,10.7,4.3,17.1c5.3,8.5,8.5,10.7,17.1,5.3c6.4-4.3,36.3-20.3,55.5-20.3
					c17.1-1.1,25.6,10.7,27.8,19.2c1.1,5.3,8.5,2.1,10.7,2.1c7.5-2.1,14.9-4.3,42.7-6.4c32-2.1,159-1.1,206,0
					c41.6,1.1,207.1,130.2,209.2,131.3l8.5-17.1c-56.6-47-264.7-211.3-314.9-260.4L857.2,630.3z"/>
				
					<linearGradient id="SVGID_5_" gradientUnits="userSpaceOnUse" x1="1538.835" y1="2099.3074" x2="313.2546" y2="852.5011" gradientTransform="matrix(1 0 0 1 0 -519.8898)">
					<stop  offset="7.692300e-02" style="stop-color:#808080"/>
					<stop  offset="0.1209" style="stop-color:#8C8C8C"/>
					<stop  offset="0.1703" style="stop-color:#666666"/>
					<stop  offset="0.3077" style="stop-color:#808080"/>
					<stop  offset="0.4725" style="stop-color:#F2F2F2"/>
					<stop  offset="0.6978" style="stop-color:#F2F2F2"/>
					<stop  offset="0.7209" style="stop-color:#E3E3E3"/>
					<stop  offset="0.7655" style="stop-color:#BBBBBB"/>
					<stop  offset="0.8268" style="stop-color:#7B7B7B"/>
					<stop  offset="0.8407" style="stop-color:#6B6B6B"/>
					<stop  offset="0.9615" style="stop-color:#333333"/>
				</linearGradient>
				<path class="st4" d="M1332.2,732.7c25.6,29.9,100.3,121.7,163.3,202.8c100.3,128.1,161.2,228.4,226.3,375.7
					c6.4,14.9,1.1,16-8.5,24.5c-20.3,16-16,22.4-29.9,48c-2.1,3.2-5.3,7.5-10.7,7.5c-13.9-1.1-119.5-10.7-190-7.5
					c-41.6,1.1-52.3,4.3-60.8,6.4c-7.5,2.1-9.6,1.1-9.6-8.5c0-4.3,7.5-47,13.9-63c5.3-16,16-22.4,28.8-25.6
					c13.9-4.3,53.4-10.7,69.4-14.9c16-4.3,17.1-19.2,16-29.9c-1.1-11.7-10.7-26.7-21.3-28.8c-13.9-2.1-23.5-4.3-38.4-10.7
					c-14.9-7.5-232.7-181.4-251.9-197.5c-5.3-4.3-8.5-7.5-10.7-5.3c-1.1,2.1,2.1,7.5,4.3,8.5c4.3,4.3,36.3,37.4,43.8,44.8
					c5.3,5.3,2.1,7.5,0,10.7c-4.3,3.2-106.7,104.6-149.4,149.4c-42.7,43.8-72.6,69.4-72.6,104.6c1.1,35.2,2.1,63,2.1,69.4
					c0,5.3-5.3,5.3-10.7,4.3c-12.8-1.1-115.3-10.7-171.8-11.7c-57.6-1.1-98.2,4.3-124.9,10.7c-6.4,1.1-8.5-2.1-7.5-7.5
					c1.1-8.5,7.5-44.8,14.9-69.4c5.3-16,17.1-22.4,31-25.6c19.2-4.3,91.8-17.1,124.9-22.4c18.1-2.1,22.4-8.5,21.3-23.5
					c0-16-2.1-48-2.1-64c-1.1-16,4.3-35.2,10.7-49.1c25.6-60.8,89.7-190,145.2-265.8c6.4-8.5,12.8-10.7,19.2-8.5
					c7.5,2.1,40.6,27.8,42.7,28.8c5.3,3.2,13.9,0,10.7-3.2c-19.2-19.2-77.9-54.4-113.1-83.3C966.1,746.6,892.4,665.5,832.7,610
					c-29.9-28.8-63-49.1-87.5-54.4c-8.5-2.1-17.1-2.1-24.5-3.2c-4.3-1.1-4.3-4.3-4.3-5.3c0-4.3,0-10.7-7.5-20.3
					c-5.3-6.4-18.1-8.5-26.7-8.5c-11.7-1.1-32,2.1-42.7,5.3c-5.3,1.1-7.5,1.1-10.7-2.1c-2.1-2.1-5.3-8.5-5.3-16
					c-1.1-4.3,1.1-8.5,3.2-13.9c7.5-13.9,25.6-26.7,36.3-37.4c10.7-10.7,18.1-10.7,28.8-11.7c25.6-3.2,57.6-5.3,91.8,2.1
					c24.5,5.3,43.8,16,68.3,26.7c23.5,11.7,163.3,83.3,181.4,91.8L1332.2,732.7z"/>
				
					<radialGradient id="SVGID_6_" cx="1009.3713" cy="1014.3145" r="279.4951" gradientTransform="matrix(1 0 0 1 0 -519.8898)" gradientUnits="userSpaceOnUse">
					<stop  offset="3.571400e-02" style="stop-color:#FFFFFF"/>
					<stop  offset="0.467" style="stop-color:#FFFFFF"/>
					<stop  offset="0.5179" style="stop-color:#FBFBFB"/>
					<stop  offset="0.5707" style="stop-color:#EEEEEE"/>
					<stop  offset="0.6243" style="stop-color:#DADADA"/>
					<stop  offset="0.6785" style="stop-color:#BDBDBD"/>
					<stop  offset="0.7326" style="stop-color:#989898"/>
					<stop  offset="0.7473" style="stop-color:#8C8C8C"/>
					<stop  offset="0.8462" style="stop-color:#666666"/>
					<stop  offset="1" style="stop-color:#333333"/>
				</radialGradient>
				<path class="st5" d="M1100.6,478.7c2.1,17.1-8.5,28.8-14.9,39.5s-20.3,26.7-26.7,35.2c-8.5,10.7-25.6,7.5-25.6,7.5
					s80,40.6,125.9,64c18.1,8.5,47,1.1,66.2-36.3c4.3-8.5,33.1-69.4,40.6-87.5s17.1-38.4,1.1-72.6c-17.1-35.2-67.2-98.2-88.6-122.7
					c-10.7-12.8-23.5-20.3-50.2-22.4c-26.7-1.1-59.8,2.1-102.5,13.9c-42.7,11.7-98.2,34.2-100.3,35.2c-1.1,1.1-1.1,2.1-1.1,3.2
					c1.1,1.1,6.4,10.7,6.4,10.7s3.2,7.5,10.7,11.7c8.5,4.3,16,6.4,19.2,7.5c2.1,1.1,3.2-1.1,4.3-1.1s8.5-17.1,38.4-24.5
					c16-4.3,26.7-4.3,32-4.3c7.5,0,20.3,4.3,26.7,10.7c10.7,10.7,20.3,28.8,22.4,37.4c2.1,8.5,1.1,19.2-7.5,23.5
					c-8.5,4.3-32,10.7-48,11.7c-16,1.1-31,1.1-39.5-4.3c-1.1-1.1-2.1-1.1-4.3,0c-3.2,2.1-5.3,5.3-11.7,8.5c-1.1,1.1-2.1,2.1-1.1,5.3
					c1.1,3.2,20.3,34.2,32,42.7c11.7,8.5,17.1,4.3,32-2.1c13.9-7.5,23.5-17.1,37.4-16C1086.7,453.1,1099.5,464.8,1100.6,478.7z"/>
				
					<radialGradient id="SVGID_7_" cx="1072.0967" cy="958.1794" r="98.6813" gradientTransform="matrix(1 0 0 0.9636 0 -485.2837)" gradientUnits="userSpaceOnUse">
					<stop  offset="3.571400e-02" style="stop-color:#FFFFFF"/>
					<stop  offset="0.2276" style="stop-color:#FFFFFF"/>
					<stop  offset="0.2932" style="stop-color:#F6F6F6"/>
					<stop  offset="0.4021" style="stop-color:#DCDCDC"/>
					<stop  offset="0.5409" style="stop-color:#B3B3B3"/>
					<stop  offset="0.7042" style="stop-color:#797979"/>
					<stop  offset="0.886" style="stop-color:#313131"/>
					<stop  offset="1" style="stop-color:#000000"/>
				</radialGradient>
				<path class="st6" d="M1075,409.3c-8.5,4.3-32,8.5-47,10.7c-16,1.1-29.9,1.1-39.5-4.3c-1.1-1.1-2.1-1.1-4.3,0
					c-3.2,2.1-5.3,4.3-11.7,8.5c-1.1,1.1-2.1,2.1-1.1,5.3c1.1,2.1,19.2,32,29.9,39.5c10.7,7.5,18.1,4.3,32-2.1
					c13.9-7.5,23.5-17.1,38.4-16L1075,409.3z"/>
				
					<radialGradient id="SVGID_8_" cx="1010.397" cy="802.9647" r="116.0466" gradientTransform="matrix(1 0 0 1 0 -519.8898)" gradientUnits="userSpaceOnUse">
					<stop  offset="0.2308" style="stop-color:#FFFFFF"/>
					<stop  offset="0.5714" style="stop-color:#F5F5F5"/>
					<stop  offset="0.8626" style="stop-color:#000000"/>
				</radialGradient>
				<path class="st7" d="M1024.8,302.6c-41.6,10.7-93.9,31-95,32c-1.1,1.1-1.1,3.2-1.1,4.3c1.1,1.1,5.3,10.7,5.3,10.7
					s2.1,6.4,10.7,10.7c7.5,4.3,13.9,6.4,17.1,7.5c2.1,1.1,3.2-1.1,4.3-1.1c1.1,0,8.5-17.1,38.4-24.5c16-4.3,26.7-4.3,32-4.3
					L1024.8,302.6z"/>
				
					<radialGradient id="SVGID_9_" cx="1204.8875" cy="1029.4053" r="390.948" gradientTransform="matrix(1 0 0 1 0 -519.8898)" gradientUnits="userSpaceOnUse">
					<stop  offset="3.571400e-02" style="stop-color:#FFFFFF"/>
					<stop  offset="0.2527" style="stop-color:#FFFFFF"/>
					<stop  offset="0.2708" style="stop-color:#FBFBFB"/>
					<stop  offset="0.2894" style="stop-color:#EEEEEE"/>
					<stop  offset="0.3084" style="stop-color:#DADADA"/>
					<stop  offset="0.3275" style="stop-color:#BDBDBD"/>
					<stop  offset="0.3462" style="stop-color:#999999"/>
					<stop  offset="0.4121" style="stop-color:#666666"/>
					<stop  offset="0.4725" style="stop-color:#333333"/>
					<stop  offset="0.8571" style="stop-color:#333333"/>
				</radialGradient>
				<path class="st8" d="M1101.6,481.9c2.1,17.1-8.5,29.9-14.9,40.6c-6.4,10.7-20.3,26.7-26.7,35.2c-8.5,10.7-22.4,6.4-22.4,6.4
					s75.8,38.4,121.7,61.9c18.1,8.5,45.9,3.2,65.1-33.1c4.3-8.5,33.1-69.4,40.6-87.5L1101.6,481.9z"/>
				<g>
					
						<linearGradient id="SVGID_10_" gradientUnits="userSpaceOnUse" x1="931.5886" y1="1250.9781" x2="740.1945" y2="1298.826" gradientTransform="matrix(1 0 0 1 0 -519.8898)">
						<stop  offset="0" style="stop-color:#F2F2F2"/>
						<stop  offset="8.055412e-02" style="stop-color:#DDDDDD"/>
						<stop  offset="0.2582" style="stop-color:#B2B3B2"/>
						<stop  offset="0.2996" style="stop-color:#C6C6C6"/>
						<stop  offset="0.3578" style="stop-color:#DADADA"/>
						<stop  offset="0.4245" style="stop-color:#E8E8E8"/>
						<stop  offset="0.5065" style="stop-color:#F0F0F0"/>
						<stop  offset="0.6484" style="stop-color:#F2F2F2"/>
						<stop  offset="0.8956" style="stop-color:#FFFFFF"/>
					</linearGradient>
					<path class="st9" d="M722.7,766.9c-4.3-1.1-4.3-5.3,1.1-10.7c2.1-3.2,23.5-20.3,36.3-23.5s58.7-7.5,77.9-8.5
						c5.3,0,75.8-6.4,82.2-6.4s22.4,25.6,41.6,47c-2.1,0-64-1.1-116.3-1.1c-50.2,0-92.9,1.1-108.9,2.1
						C732.3,766.9,725.9,769,722.7,766.9z"/>
					<path class="st10" d="M722.7,768L722.7,768L722.7,768c-2.1-1.1-3.2-2.1-3.2-4.3l0,0c0-2.1,1.1-5.3,4.3-7.5l0,0
						c3.2-3.2,23.5-20.3,36.3-23.5l0,0c12.8-3.2,58.7-7.5,77.9-8.5l0,0c5.3,0,72.6-6.4,82.2-6.4l0,0h1.1l0,0c2.1,0,4.3,2.1,7.5,4.3
						l0,0c2.1,2.1,5.3,6.4,9.6,10.7l0,0c7.5,8.5,16,20.3,25.6,31l0,0l1.1,1.1h-2.1h-1.1l0,0c-8.5,0-60.8-1.1-107.8-1.1l0,0
						c-2.1,0-4.3,0-7.5,0l0,0c-50.2,0-92.9,1.1-108.9,2.1l0,0c-3.2,1.1-7.5,1.1-10.7,1.1l0,0C725.9,769,723.8,769,722.7,768
						L722.7,768z M727,766.9c3.2,0,7.5-1.1,10.7-1.1l0,0c16-1.1,59.8-2.1,108.9-2.1l0,0c2.1,0,4.3,0,7.5,0l0,0
						c45.9,0,96.1,1.1,106.7,1.1l0,0c-13.9-16-25.6-32-33.1-39.5l0,0c-2.1-2.1-5.3-4.3-5.3-4.3l0,0c0,0,0,0-1.1,0l0,0
						c-8.5,0-76.8,5.3-82.2,6.4l0,0c-19.2,1.1-65.1,5.3-77.9,8.5l0,0c-11.7,2.1-33.1,20.3-36.3,22.4l0,0c-2.1,2.1-3.2,4.3-3.2,6.4
						l0,0c0,1.1,1.1,2.1,2.1,2.1l0,0l0,0C724.9,766.9,725.9,766.9,727,766.9L727,766.9z"/>
				</g>
				<g>
					<g>
						
							<linearGradient id="SVGID_11_" gradientUnits="userSpaceOnUse" x1="1503.0143" y1="418.223" x2="3503.1086" y2="2855.0676" gradientTransform="matrix(0.4383 0 0 0.4383 263.2159 67.7789)">
							<stop  offset="0" style="stop-color:#FFFFFF"/>
							<stop  offset="6.896600e-02" style="stop-color:#DEDEDE"/>
							<stop  offset="0.1565" style="stop-color:#FFFFFF"/>
							<stop  offset="0.2033" style="stop-color:#FFFFFF"/>
							<stop  offset="0.2785" style="stop-color:#DEDEDE"/>
							<stop  offset="0.3297" style="stop-color:#CCCCCC"/>
							<stop  offset="0.3357" style="stop-color:#D1D1D1"/>
							<stop  offset="0.3647" style="stop-color:#E6E6E6"/>
							<stop  offset="0.3976" style="stop-color:#F4F4F4"/>
							<stop  offset="0.4372" style="stop-color:#FCFCFC"/>
							<stop  offset="0.502" style="stop-color:#FFFFFF"/>
							<stop  offset="0.8852" style="stop-color:#FFFFFF"/>
							<stop  offset="0.9797" style="stop-color:#B0B0B0"/>
						</linearGradient>
						<path class="st11" d="M1739.9,1317.6c-21.3-53.4-82.2-170.8-164.4-291.4c-81.1-119.5-218.8-280.7-236.9-307.4
							c-19.2-26.7-25.6-56.6,12.8-68.3c25.6-7.5,86.5-20.3,111-27.8c24.5-6.4,25.6-14.9,27.8-33.1c2.1-20.3-3.2-118.5-16-177.2
							c-2.1-11.7-10.7-22.4-20.3-28.8c-8.5-5.3-41.6-35.2-60.8-56.6c-21.3-24.5-31-47-34.2-64c0,0-1.1-4.3-4.3-7.5
							c-1.1-2.1-2.1-2.1-5.3-4.3c-36.3-22.4-165.4-57.6-191.1-59.8c-18.1-2.1-82.2,6.4-139.8,41.6c-17.1,10.7-18.1,23.5-29.9,29.9
							c-11.7,7.5-39.5,12.8-67.2,25.6c-16,7.5-16,8.5-11.7,17.1c1.1,4.3,11.7,22.4,17.1,22.4s11.7-2.1,18.1-5.3
							c8.5-3.2,65.1-25.6,109.9-35.2c50.2-10.7,103.5-11.7,122.7,8.5c28.8,31,80,100.3,95,129.1c16,29.9,13.9,43.8,3.2,73.6
							c-8.5,27.8-44.8,101.4-54.4,116.3c-9.6,14.9-23.5,23.5-53.4,10.7c-32-13.9-151.6-73.6-177.2-87.5
							c-17.1-8.5-90.7-47-147.3-73.6c-20.3-10.7-37.4-18.1-56.6-22.4c-41.6-10.7-85.4-5.3-104.6-2.1c-8.5,1.1-14.9,16-14.9,22.4
							c1.1,7.5,22.4,2.1,39.5,3.2c14.9,1.1,64,6.4,92.9,18.1c29.9,11.7,181.4,93.9,219.9,115.3c291.4,159,416.3,260.4,641.5,639.3
							c10.7,17.1,14.9,37.4-1.1,42.7c-23.5,6.4-119.5,25.6-148.4,35.2c-24.5,8.5-27.8,10.7-32,22.4c-4.3,13.9-10.7,41.6-8.5,47
							c1.1,2.1-1.1,5.3,4.3,5.3c26.7,0,123.8,0,198.5,7.5c8.5,1.1,9.6,1.1,14.9-7.5c6.4-10.7,32-39.5,50.2-52.3
							C1746.3,1330.4,1741,1320.8,1739.9,1317.6z"/>
					</g>
				</g>
				
					<linearGradient id="SVGID_12_" gradientUnits="userSpaceOnUse" x1="700.334" y1="977.506" x2="1596.2871" y2="1828.4747" gradientTransform="matrix(1 0 0 1 0 -519.8898)">
					<stop  offset="0" style="stop-color:#D9D9D9"/>
					<stop  offset="4.297529e-02" style="stop-color:#C3C4C3"/>
					<stop  offset="0.1571" style="stop-color:#909090"/>
					<stop  offset="0.2643" style="stop-color:#686868"/>
					<stop  offset="0.3616" style="stop-color:#4B4B4B"/>
					<stop  offset="0.4457" style="stop-color:#393939"/>
					<stop  offset="0.5069" style="stop-color:#333333"/>
					<stop  offset="0.5726" style="stop-color:#383838"/>
					<stop  offset="0.6507" style="stop-color:#464746"/>
					<stop  offset="0.735" style="stop-color:#5E5E5E"/>
					<stop  offset="0.8238" style="stop-color:#808080"/>
					<stop  offset="0.915" style="stop-color:#AAAAAA"/>
					<stop  offset="1" style="stop-color:#D9D9D9"/>
				</linearGradient>
				<path class="st12" d="M1671.6,1261.1c-1.1-16-16-38.4-40.6-77.9c-24.5-39.5-56.6-93.9-99.3-153.7
					c-74.7-105.7-149.4-188.9-240.1-261.5c-67.2-53.4-138.8-97.1-191.1-127S828.4,490.5,794.3,479.8c-31-9.6-55.5-12.8-77.9-14.9
					c-14.9-1.1-27.8-1.1-40.6-1.1s-8.5-10.7-6.4-13.9c-1.1,2.1-8.5,17.1,4.3,17.1c8.5,0,29.9-1.1,44.8,1.1
					c26.7,3.2,60.8,10.7,83.3,19.2c29.9,11.7,174,97.1,211.3,118.5c112.1,63,196.4,121.7,276.4,185.7
					c121.7,98.2,227.3,212.4,359.7,444c5.3,8.5,7.5,16,7.5,24.5c1.1,12.8-10.7,17.1-13.9,19.2c-22.4,7.5-116.3,27.8-144.1,37.4
					c-23.5,8.5-27.8,13.9-31,24.5c-1.1,4.3-5.3,26.7-9.6,32c-4.3,5.3-16,7.5-26.7,7.5c-7.5,0-10.7,1.1-9.6-7.5
					c1.1-7.5,5.3-28.8,7.5-41.6c2.1-11.7,7.5-21.3,19.2-28.8c10.7-6.4,50.2-12.8,71.5-18.1c22.4-5.3,22.4-16,22.4-32
					c0,17.1-5.3,21.3-27.8,26.7c-22.4,5.3-59.8,9.6-71.5,18.1c-11.7,8.5-17.1,19.2-19.2,28.8c-7.5,31-11.7,53.4-11.7,60.8
					c1.1,6.4,3.2,7.5,10.7,7.5c7.5-1.1,26.7-3.2,54.4-4.3c8.5,0,7.5-10.7,7.5-21.3c0-4.3,0-16,2.1-22.4c2.1-5.3,6.4-11.7,13.9-13.9
					c16-4.3,101.4-28.8,146.2-41.6C1665.2,1285.6,1673.7,1279.2,1671.6,1261.1z"/>
				
					<linearGradient id="SVGID_13_" gradientUnits="userSpaceOnUse" x1="1130.8911" y1="1389.2308" x2="781.7693" y2="1911.167" gradientTransform="matrix(1 0 0 1 0 -519.8898)">
					<stop  offset="0" style="stop-color:#BFBFBF"/>
					<stop  offset="0.1" style="stop-color:#FFFFFF"/>
					<stop  offset="0.3492" style="stop-color:#EDEDED"/>
					<stop  offset="0.4228" style="stop-color:#F6F6F6"/>
					<stop  offset="0.5385" style="stop-color:#FFFFFF"/>
					<stop  offset="0.5442" style="stop-color:#F4F4F4"/>
					<stop  offset="0.5799" style="stop-color:#B2B2B2"/>
					<stop  offset="0.6139" style="stop-color:#7C7C7C"/>
					<stop  offset="0.6453" style="stop-color:#515151"/>
					<stop  offset="0.6735" style="stop-color:#333333"/>
					<stop  offset="0.6974" style="stop-color:#202020"/>
					<stop  offset="0.7143" style="stop-color:#191A1A"/>
					<stop  offset="0.7229" style="stop-color:#373737"/>
					<stop  offset="0.7398" style="stop-color:#6C6C6C"/>
					<stop  offset="0.757" style="stop-color:#999999"/>
					<stop  offset="0.7741" style="stop-color:#BEBEBE"/>
					<stop  offset="0.7912" style="stop-color:#DADADA"/>
					<stop  offset="0.8081" style="stop-color:#EFEFEF"/>
					<stop  offset="0.8249" style="stop-color:#FBFBFB"/>
					<stop  offset="0.8414" style="stop-color:#FFFFFF"/>
					<stop  offset="0.85" style="stop-color:#FAFAFA"/>
					<stop  offset="0.8597" style="stop-color:#EDEDED"/>
					<stop  offset="0.87" style="stop-color:#D6D6D6"/>
					<stop  offset="0.8806" style="stop-color:#B7B7B7"/>
					<stop  offset="0.8915" style="stop-color:#8E8E8E"/>
					<stop  offset="0.9025" style="stop-color:#5D5D5D"/>
					<stop  offset="0.9103" style="stop-color:#363636"/>
					<stop  offset="0.9451" style="stop-color:#363636"/>
					<stop  offset="1" style="stop-color:#737373"/>
				</linearGradient>
				<path class="st13" d="M1094.2,855.5c5.3,2.1,17.1,9.6,25.6,16c7.5,5.3,11.7,8.5,11.7,8.5c-57.6,72.6-145.2,198.5-172.9,251.9
					c-13.9,27.8-13.9,39.5-13.9,64c1.1,24.5,3.2,54.4,2.1,68.3s-10.7,20.3-24.5,23.5c-13.9,4.3-98.2,17.1-116.3,22.4
					c-19.2,5.3-22.4,16-25.6,28.8c-3.2,13.9-4.3,22.4-5.3,26.7c-2.1,5.3-1.1,9.6-5.3,10.7c-5.3,1.1-18.1,1.1-23.5,2.1
					c-5.3,1.1-7.5-1.1-7.5-7.5c0-6.4,6.4-36.3,10.7-51.2c4.3-16,10.7-25.6,32-31c21.3-5.3,106.7-19.2,122.7-22.4
					c19.2-3.2,23.5-11.7,22.4-29.9c-1.1-19.2-4.3-44.8-4.3-61.9c-1.1-16,1.1-29.9,5.3-44.8c5.3-16,36.3-82.2,61.9-128.1
					c35.2-64,77.9-132.3,86.5-143C1081.4,856.5,1085.6,853.3,1094.2,855.5z"/>
				
					<linearGradient id="SVGID_14_" gradientUnits="userSpaceOnUse" x1="1092.3615" y1="1662.2269" x2="1184.5172" y2="1716.5109" gradientTransform="matrix(1 0 0 1 0 -519.8898)">
					<stop  offset="0.2" style="stop-color:#FFFFFF"/>
					<stop  offset="0.3197" style="stop-color:#FDFDFD"/>
					<stop  offset="0.3903" style="stop-color:#F4F4F4"/>
					<stop  offset="0.4482" style="stop-color:#E6E6E6"/>
					<stop  offset="0.4989" style="stop-color:#D2D2D2"/>
					<stop  offset="0.5207" style="stop-color:#C7C7C7"/>
					<stop  offset="0.8189" style="stop-color:#3B3B3B"/>
					<stop  offset="0.8352" style="stop-color:#333333"/>
					<stop  offset="0.9389" style="stop-color:#242424"/>
					<stop  offset="1" style="stop-color:#191A1A"/>
				</linearGradient>
				<path class="st14" d="M1044,1324c-1.1-14.9,4.3-28.8,13.9-42.7c12.8-19.2,33.1-37.4,57.6-63c42.7-44.8,147.3-146.2,150.5-150.5
					c2.1-2.1,5.3-5.3-1.1-10.7c-10.7-9.6-16-16-32-33.1c-9.6-9.6-17.1-16-17.1-19.2c0-1.1-116.3,131.3-154.8,227.3
					c-16,35.2-20.3,54.4-20.3,71.5C1042.9,1318.7,1044,1324,1044,1324z"/>
				
					<linearGradient id="SVGID_15_" gradientUnits="userSpaceOnUse" x1="1144.939" y1="1412.498" x2="1241.87" y2="1296.4491" gradientTransform="matrix(1 0 0 1 0 -519.8898)">
					<stop  offset="2.197800e-02" style="stop-color:#FFFFFF"/>
					<stop  offset="0.1828" style="stop-color:#FFFFFF"/>
					<stop  offset="0.2088" style="stop-color:#FFFFFF"/>
					<stop  offset="0.3037" style="stop-color:#F7F7F7"/>
					<stop  offset="0.4491" style="stop-color:#E2E2E2"/>
					<stop  offset="0.5" style="stop-color:#D9D9D9"/>
					<stop  offset="0.5971" style="stop-color:#C5C5C5"/>
					<stop  offset="0.8268" style="stop-color:#9C9C9C"/>
					<stop  offset="0.9451" style="stop-color:#8C8C8C"/>
					<stop  offset="1" style="stop-color:#858585"/>
				</linearGradient>
				<path class="st15" d="M674.7,468c16,0,32-1.1,44.8,1.1c27.8,3.2,60.8,10.7,83.3,20.3c10.7,4.3,37.4,19.2,68.3,36.3
					c53.4,29.9,119.5,69.4,144.1,82.2c82.2,47,150.5,90.7,212.4,136.6c22.4,17.1,43.8,33.1,65.1,51.2
					c122.7,98.2,223.1,208.1,357.6,442.9c5.3,8.5,6.4,16,6.4,24.5c-1.1,7.5-6.4,13.9-16,16L674.7,468z"/>
				
					<linearGradient id="SVGID_16_" gradientUnits="userSpaceOnUse" x1="1359.7919" y1="763.0063" x2="1486.0571" y2="892.1746" gradientTransform="matrix(1 0 0 1 0 -519.8898)">
					<stop  offset="0" style="stop-color:#000000"/>
					<stop  offset="4.349559e-02" style="stop-color:#020302"/>
					<stop  offset="6.841232e-02" style="stop-color:#0B0B0B"/>
					<stop  offset="8.864626e-02" style="stop-color:#191919"/>
					<stop  offset="0.1064" style="stop-color:#2C2D2C"/>
					<stop  offset="0.1224" style="stop-color:#464646"/>
					<stop  offset="0.1373" style="stop-color:#666666"/>
					<stop  offset="0.1513" style="stop-color:#8C8C8C"/>
					<stop  offset="0.1646" style="stop-color:#B7B7B7"/>
					<stop  offset="0.1768" style="stop-color:#E7E7E7"/>
					<stop  offset="0.1793" style="stop-color:#F2F2F2"/>
					<stop  offset="0.1929" style="stop-color:#E4E4E4"/>
					<stop  offset="0.2458" style="stop-color:#B2B2B2"/>
					<stop  offset="0.2999" style="stop-color:#878787"/>
					<stop  offset="0.3543" style="stop-color:#646464"/>
					<stop  offset="0.4091" style="stop-color:#494949"/>
					<stop  offset="0.4645" style="stop-color:#363636"/>
					<stop  offset="0.5207" style="stop-color:#2A2A2A"/>
					<stop  offset="0.5793" style="stop-color:#262626"/>
					<stop  offset="0.7135" style="stop-color:#1F1F1F"/>
					<stop  offset="0.911" style="stop-color:#0B0B0B"/>
					<stop  offset="1" style="stop-color:#000000"/>
				</linearGradient>
				<path class="st16" d="M1474.1,358.1L1474.1,358.1L1474.1,358.1c-5.3,0-8.5-2.1-10.7-4.3c-19.2-13.9-73.6-56.6-81.1-91.8
					c-5.3-17.1,1.1-8.5-16-18.1c-5.3-2.1-9.6-4.3-13.9-5.3c2.1,1.1,3.2,2.1,4.3,2.1c2.1,1.1,5.3,3.2,7.5,5.3
					c6.4,5.3,7.5,11.7,8.5,13.9c3.2,16,11.7,36.3,32,59.8c17.1,20.3,53.4,50.2,60.8,54.4c4.3,3.2,9.6,6.4,13.9,10.7
					c2.1-11.7,5.3-25.6,11.7-38.4c-1.1,1.1-2.1,3.2-3.2,5.3C1482.7,354.9,1478.4,358.1,1474.1,358.1z"/>
				
					<linearGradient id="SVGID_17_" gradientUnits="userSpaceOnUse" x1="1373.8606" y1="1301.6604" x2="1517.5486" y2="1207.3198" gradientTransform="matrix(1 0 0 1 0 -519.8898)">
					<stop  offset="0" style="stop-color:#000000"/>
					<stop  offset="4.349559e-02" style="stop-color:#020302"/>
					<stop  offset="6.841232e-02" style="stop-color:#0B0B0B"/>
					<stop  offset="8.864626e-02" style="stop-color:#191919"/>
					<stop  offset="0.1064" style="stop-color:#2C2D2C"/>
					<stop  offset="0.1224" style="stop-color:#464646"/>
					<stop  offset="0.1373" style="stop-color:#666666"/>
					<stop  offset="0.1513" style="stop-color:#8C8C8C"/>
					<stop  offset="0.1646" style="stop-color:#B7B7B7"/>
					<stop  offset="0.1768" style="stop-color:#E7E7E7"/>
					<stop  offset="0.1793" style="stop-color:#F2F2F2"/>
					<stop  offset="0.1929" style="stop-color:#E4E4E4"/>
					<stop  offset="0.2458" style="stop-color:#B2B2B2"/>
					<stop  offset="0.2999" style="stop-color:#878787"/>
					<stop  offset="0.3543" style="stop-color:#646464"/>
					<stop  offset="0.4091" style="stop-color:#494949"/>
					<stop  offset="0.4645" style="stop-color:#363636"/>
					<stop  offset="0.5207" style="stop-color:#2A2A2A"/>
					<stop  offset="0.5793" style="stop-color:#262626"/>
					<stop  offset="0.7135" style="stop-color:#1F1F1F"/>
					<stop  offset="0.911" style="stop-color:#0B0B0B"/>
					<stop  offset="1" style="stop-color:#000000"/>
				</linearGradient>
				<path class="st17" d="M1355.7,660.2c-18.1,6.4-20.3,11.7-20.3,21.3l0,0c0,8.5,4.3,21.3,11.7,32c9.6,13.9,54.4,65.1,105.7,129.1
					c5.3,7.5,8.5,9.6,12.8,14.9c-2.1-2.1-73.6-92.9-95-118.5c-6.4-7.5-13.9-17.1-13.9-29.9c0-12.8,9.6-31,29.9-38.4
					c26.7-9.6,76.8-25.6,87.5-32c10.7-6.4,13.9-8.5,16-17.1c-5.3,4.3-12.8,7.5-22.4,10.7C1443.2,638.8,1379.1,651.6,1355.7,660.2z"
					/>
				<g>
					
						<linearGradient id="SVGID_18_" gradientUnits="userSpaceOnUse" x1="1488.8088" y1="843.2825" x2="1677.4877" y2="843.2825" gradientTransform="matrix(1 0 0 1 0 -519.8898)">
						<stop  offset="0" style="stop-color:#4C4D4D"/>
						<stop  offset="0.2857" style="stop-color:#CCCCCC"/>
						<stop  offset="0.2991" style="stop-color:#C0C0C0"/>
						<stop  offset="0.3504" style="stop-color:#979797"/>
						<stop  offset="0.4006" style="stop-color:#767676"/>
						<stop  offset="0.4488" style="stop-color:#5F5F5F"/>
						<stop  offset="0.4939" style="stop-color:#515151"/>
						<stop  offset="0.533" style="stop-color:#4C4D4D"/>
						<stop  offset="0.7582" style="stop-color:#191A1A"/>
						<stop  offset="1" style="stop-color:#000000"/>
					</linearGradient>
					<path class="st18" d="M1489.1,363.4c9.6-34.2,41.6-74.7,90.7-74.7c63,0,89.7,23.5,98.2,59.8c-11.7-50.2-55.5-66.2-98.2-65.1
						C1530.7,283.4,1498.7,324,1489.1,363.4z"/>
				</g>
				
					<linearGradient id="SVGID_19_" gradientUnits="userSpaceOnUse" x1="718.474" y1="1823.6418" x2="1153.9412" y2="1823.6418" gradientTransform="matrix(1 0 0 1 0 -519.8898)">
					<stop  offset="0" style="stop-color:#000000"/>
					<stop  offset="5.118979e-02" style="stop-color:#020302"/>
					<stop  offset="8.051176e-02" style="stop-color:#0B0B0B"/>
					<stop  offset="0.1043" style="stop-color:#191919"/>
					<stop  offset="0.1252" style="stop-color:#2C2D2C"/>
					<stop  offset="0.144" style="stop-color:#464646"/>
					<stop  offset="0.1615" style="stop-color:#666666"/>
					<stop  offset="0.1777" style="stop-color:#8B8B8B"/>
					<stop  offset="0.1793" style="stop-color:#8F8F8F"/>
					<stop  offset="0.1944" style="stop-color:#878787"/>
					<stop  offset="0.2688" style="stop-color:#646464"/>
					<stop  offset="0.3444" style="stop-color:#494949"/>
					<stop  offset="0.4208" style="stop-color:#363636"/>
					<stop  offset="0.4984" style="stop-color:#2A2A2A"/>
					<stop  offset="0.5793" style="stop-color:#262626"/>
					<stop  offset="0.7135" style="stop-color:#1F1F1F"/>
					<stop  offset="0.911" style="stop-color:#0B0B0B"/>
					<stop  offset="1" style="stop-color:#000000"/>
				</linearGradient>
				<path class="st19" d="M1078.2,1277.1c8.5-8.5,41.6-44.8,75.8-84.3c-11.7,11.7-21.3,22.4-29.9,29.9
					c-49.1,50.2-70.4,66.2-70.4,97.1c1.1,18.1,2.1,63,2.1,70.4c0,4.3,1.1,8.5-7.5,12.8c-4.3,2.1-10.7,2.1-13.9,2.1
					c-13.9,0-142-11.7-186.8-11.7s-84.3,5.3-106.7,10.7c-4.3,1.1-13.9,0-17.1-5.3c-2.1-3.2-2.1-5.3-3.2-8.5
					c-1.1,8.5-2.1,19.2-2.1,23.5c8.5-1.1,26.7-4.3,52.3-5.3c32-2.1,67.2-2.1,91.8-2.1s201.7,8.5,201.7,8.5
					c-1.1-13.9-3.2-45.9-3.2-66.2c0-5.3,0-5.3-1.1-19.2C1060,1312.3,1063.2,1293.1,1078.2,1277.1z"/>
				
					<linearGradient id="SVGID_20_" gradientUnits="userSpaceOnUse" x1="1272.4136" y1="1657.1396" x2="1467.1655" y2="1657.1396" gradientTransform="matrix(1 0 0 1 0 -519.8898)">
					<stop  offset="0" style="stop-color:#000000"/>
					<stop  offset="5.118979e-02" style="stop-color:#020302"/>
					<stop  offset="8.051176e-02" style="stop-color:#0B0B0B"/>
					<stop  offset="0.1043" style="stop-color:#191919"/>
					<stop  offset="0.1252" style="stop-color:#2C2D2C"/>
					<stop  offset="0.144" style="stop-color:#464646"/>
					<stop  offset="0.1615" style="stop-color:#666666"/>
					<stop  offset="0.1777" style="stop-color:#8B8B8B"/>
					<stop  offset="0.1793" style="stop-color:#8F8F8F"/>
					<stop  offset="0.1944" style="stop-color:#878787"/>
					<stop  offset="0.2688" style="stop-color:#646464"/>
					<stop  offset="0.3444" style="stop-color:#494949"/>
					<stop  offset="0.4208" style="stop-color:#363636"/>
					<stop  offset="0.4984" style="stop-color:#2A2A2A"/>
					<stop  offset="0.5793" style="stop-color:#262626"/>
					<stop  offset="0.7135" style="stop-color:#1F1F1F"/>
					<stop  offset="0.911" style="stop-color:#0B0B0B"/>
					<stop  offset="1" style="stop-color:#000000"/>
				</linearGradient>
				<path class="st20" d="M1437.8,1194.9c10.7,7.5,19.2,11.7,28.8,16c-8.5-5.3-20.3-14.9-35.2-26.7c-22.4-17.1-52.3-40.6-81.1-64
					c-24.5-20.3-50.2-39.5-70.4-56.6c-1.1,7.5-5.3,11.7-7.5,12.8c5.3,1.1,8.5,4.3,13.9,7.5
					C1294.8,1091.4,1413.3,1177.8,1437.8,1194.9z"/>
				
					<linearGradient id="SVGID_21_" gradientUnits="userSpaceOnUse" x1="1402.5947" y1="1682.755" x2="1760.0023" y2="1682.755" gradientTransform="matrix(1 0 0 1 0 -519.8898)">
					<stop  offset="0" style="stop-color:#000000"/>
					<stop  offset="5.118979e-02" style="stop-color:#020302"/>
					<stop  offset="8.051176e-02" style="stop-color:#0B0B0B"/>
					<stop  offset="0.1043" style="stop-color:#191919"/>
					<stop  offset="0.1252" style="stop-color:#2C2D2C"/>
					<stop  offset="0.144" style="stop-color:#464646"/>
					<stop  offset="0.1615" style="stop-color:#666666"/>
					<stop  offset="0.1777" style="stop-color:#8B8B8B"/>
					<stop  offset="0.1793" style="stop-color:#8F8F8F"/>
					<stop  offset="0.1944" style="stop-color:#878787"/>
					<stop  offset="0.2688" style="stop-color:#646464"/>
					<stop  offset="0.3444" style="stop-color:#494949"/>
					<stop  offset="0.4208" style="stop-color:#363636"/>
					<stop  offset="0.4984" style="stop-color:#2A2A2A"/>
					<stop  offset="0.5793" style="stop-color:#262626"/>
					<stop  offset="0.7135" style="stop-color:#1F1F1F"/>
					<stop  offset="0.911" style="stop-color:#0B0B0B"/>
					<stop  offset="1" style="stop-color:#000000"/>
				</linearGradient>
				<path class="st21" d="M1753.8,1347.5c4.3-3.2,5.3-3.2,5.3-6.4c0-2.1-1.1-6.4-3.2-11.7c-23.5-69.4-116.3-239.1-187.8-334.1
					c-6.4-8.5-11.7-21.3-11.7-29.9c0-10.7,5.3-19.2,11.7-23.5c5.3-4.3,17.1-13.9,33.1-29.9c-24.5,19.2-41.6,33.1-43.8,39.5
					c-1.1,3.2-2.1,7.5-2.1,13.9c0,7.5,2.1,17.1,11.7,32c5.3,8.5,10.7,16,17.1,23.5c83.3,121.7,140.9,240.1,162.2,295.6
					c4.3,13.9,4.3,20.3-1.1,25.6c0,0-42.7,44.8-48,52.3c-2.1,3.2-4.3,6.4-7.5,8.5c-2.1,2.1-10.7,4.3-18.1,4.3
					c-64-5.3-132.3-8.5-167.6-8.5c-44.8,0-71.5,4.3-86.5,4.3c-8.5,0-13.9-2.1-14.9-3.2c0,0,0-1.1-1.1-1.1
					c-1.1,6.4-1.1,10.7-1.1,12.8c26.7-5.3,64-7.5,104.6-7.5c12.8,0,26.7,0,39.5,1.1c67.2,2.1,146.2,8.5,146.2,8.5
					C1694,1413.7,1731.4,1366.7,1753.8,1347.5z"/>
				
					<linearGradient id="SVGID_22_" gradientUnits="userSpaceOnUse" x1="699.6486" y1="1333.7892" x2="1072.1436" y2="1333.7892" gradientTransform="matrix(1 0 0 1 0 -519.8898)">
					<stop  offset="0" style="stop-color:#666666"/>
					<stop  offset="5.677871e-02" style="stop-color:#686968"/>
					<stop  offset="8.929450e-02" style="stop-color:#717171"/>
					<stop  offset="0.1157" style="stop-color:#7F7F7F"/>
					<stop  offset="0.1388" style="stop-color:#929292"/>
					<stop  offset="0.1596" style="stop-color:#ACACAC"/>
					<stop  offset="0.1787" style="stop-color:#CBCBCB"/>
					<stop  offset="0.1793" style="stop-color:#CCCCCC"/>
					<stop  offset="0.2072" style="stop-color:#BEBEBE"/>
					<stop  offset="0.3158" style="stop-color:#8C8C8C"/>
					<stop  offset="0.4268" style="stop-color:#616161"/>
					<stop  offset="0.5384" style="stop-color:#3E3E3E"/>
					<stop  offset="0.6508" style="stop-color:#232323"/>
					<stop  offset="0.7644" style="stop-color:#0F100F"/>
					<stop  offset="0.8798" style="stop-color:#040404"/>
					<stop  offset="1" style="stop-color:#000000"/>
				</linearGradient>
				<path class="st22" d="M1071.8,848c-20.3-13.9-41.6-28.8-60.8-40.6c-25.6-16-50.2-26.7-57.6-26.7c-77.9-1.1-77.9-1.1-123.8-1.1
					c-35.2,0-69.4,1.1-83.3,2.1c-26.7,2.1-40.6,5.3-42.7,5.3c-2.1,1.1-4.3,1.1-4.3,1.1c1.1,1.1,2.1,3.2,2.1,4.3
					c1.1,0,2.1-1.1,4.3-1.1c16-4.3,53.4-7.5,98.2-7.5c42.7,0,90.7,0,115.3,1.1c22.4,1.1,53.4,4.3,77.9,17.1
					C1019.5,816,1069.6,850.1,1071.8,848z"/>
				
					<linearGradient id="SVGID_23_" gradientUnits="userSpaceOnUse" x1="707.8008" y1="1107.806" x2="840.252" y2="1107.806" gradientTransform="matrix(1 0 0 1 0 -519.8898)">
					<stop  offset="0" style="stop-color:#262626"/>
					<stop  offset="4.889393e-02" style="stop-color:#292929"/>
					<stop  offset="7.689209e-02" style="stop-color:#313131"/>
					<stop  offset="9.961995e-02" style="stop-color:#3F3F3F"/>
					<stop  offset="0.1195" style="stop-color:#535353"/>
					<stop  offset="0.1376" style="stop-color:#6C6C6C"/>
					<stop  offset="0.1543" style="stop-color:#8C8C8C"/>
					<stop  offset="0.1697" style="stop-color:#B1B1B1"/>
					<stop  offset="0.1793" style="stop-color:#CCCCCC"/>
					<stop  offset="0.2072" style="stop-color:#BEBEBE"/>
					<stop  offset="0.3158" style="stop-color:#8C8C8C"/>
					<stop  offset="0.4268" style="stop-color:#616161"/>
					<stop  offset="0.5384" style="stop-color:#3E3E3E"/>
					<stop  offset="0.6508" style="stop-color:#232323"/>
					<stop  offset="0.7644" style="stop-color:#0F100F"/>
					<stop  offset="0.8798" style="stop-color:#040404"/>
					<stop  offset="1" style="stop-color:#000000"/>
				</linearGradient>
				<path class="st23" d="M836.9,622.8c-29.9-27.8-73.6-59.8-95-63c-7.5-2.1-18.1-2.1-26.7-3.2c-6.4-1.1-5.3-7.5-7.5-8.5
					c0,1.1,1.1,12.8,4.3,12.8c5.3,1.1,22.4-2.1,36.3,5.3c20.3,9.6,70.4,47,77.9,54.4C835.9,630.3,845.5,629.2,836.9,622.8z"/>
				
					<linearGradient id="SVGID_24_" gradientUnits="userSpaceOnUse" x1="594.6647" y1="1299.6893" x2="681.9257" y2="1299.6893" gradientTransform="matrix(1 0 0 1 0 -519.8898)">
					<stop  offset="0" style="stop-color:#666666"/>
					<stop  offset="6.204499e-02" style="stop-color:#686968"/>
					<stop  offset="9.757584e-02" style="stop-color:#717171"/>
					<stop  offset="0.1264" style="stop-color:#7F7F7F"/>
					<stop  offset="0.1516" style="stop-color:#929292"/>
					<stop  offset="0.1743" style="stop-color:#ACACAC"/>
					<stop  offset="0.1793" style="stop-color:#B2B3B2"/>
					<stop  offset="0.182" style="stop-color:#B2B2B2"/>
					<stop  offset="0.3133" style="stop-color:#878787"/>
					<stop  offset="0.4469" style="stop-color:#646464"/>
					<stop  offset="0.5816" style="stop-color:#494949"/>
					<stop  offset="0.7176" style="stop-color:#363636"/>
					<stop  offset="0.856" style="stop-color:#2A2A2A"/>
					<stop  offset="1" style="stop-color:#262626"/>
				</linearGradient>
				<path class="st24" d="M669.4,771.2c6.4,0,7.5,0,12.8,2.1c-3.2-5.3-6.4-7.5-16-7.5c-13.9,1.1-49.1,18.1-54.4,21.3
					c-8.5,4.3-11.7,4.3-17.1-1.1c2.1,5.3,6.4,8.5,9.6,7.5C608.5,793.6,650.2,771.2,669.4,771.2z"/>
				
					<linearGradient id="SVGID_25_" gradientUnits="userSpaceOnUse" x1="1054.2125" y1="759.0854" x2="1063.7938" y2="780.165" gradientTransform="matrix(1 0 0 1 0 -519.8898)">
					<stop  offset="0" style="stop-color:#FFFFFF"/>
					<stop  offset="0.1154" style="stop-color:#EBEBEB"/>
					<stop  offset="0.9066" style="stop-color:#404040"/>
				</linearGradient>
				<path class="st25" d="M1079.2,234.3c6.4-1.1,11.7-2.1,12.8,2.1c0,2.1,0,5.3-1.1,8.5c-1.1,1.1-2.1,3.2-4.3,4.3
					c-6.4,2.1-44.8,16-51.2,19.2c-4.3,2.1-7.5,0-8.5-3.2s0-10.7,2.1-13.9c2.1-3.2,4.3-4.3,7.5-5.3
					C1038.7,245,1069.6,236.4,1079.2,234.3z"/>
				<path d="M1078.2,237.5c4.3-1.1,6.4-1.1,6.4,2.1c0,2.1,0,4.3,0,4.3c0,1.1-1.1,2.1-2.1,2.1c-4.3,1.1-32,11.7-38.4,13.9
					c-5.3,2.1-8.5,1.1-9.6-1.1c-1.1-2.1,1.1-6.4,1.1-8.5c1.1-2.1,2.1-3.2,5.3-4.3C1044,246,1069.6,239.6,1078.2,237.5z"/>
				
					<linearGradient id="SVGID_26_" gradientUnits="userSpaceOnUse" x1="933.3503" y1="977.5657" x2="1286.0956" y2="977.5657" gradientTransform="matrix(1 0 0 1 0 -519.8898)">
					<stop  offset="0.6868" style="stop-color:#FFFFFF"/>
					<stop  offset="0.7158" style="stop-color:#FAFAFA"/>
					<stop  offset="0.7521" style="stop-color:#EAEAEA"/>
					<stop  offset="0.7922" style="stop-color:#D1D1D1"/>
					<stop  offset="0.8351" style="stop-color:#ADADAD"/>
					<stop  offset="0.8803" style="stop-color:#7F7F7F"/>
					<stop  offset="0.9273" style="stop-color:#474847"/>
					<stop  offset="0.9751" style="stop-color:#070707"/>
					<stop  offset="0.9797" style="stop-color:#000000"/>
				</linearGradient>
				<path class="st26" d="M1232.9,601.5c4.3-8.5,35.2-73.6,42.7-91.8c4.3-11.7,10.7-23.5,10.7-38.4c0-9.6-2.1-25.6-9.6-38.4
					c-17.1-35.2-70.4-103.5-91.8-129.1c-18.1-21.3-34.2-24.5-65.1-23.5c-79,2.1-147.3,35.2-185.7,51.2
					c27.8-9.6,93.9-36.3,168.6-41.6c40.6-2.1,57.6,1.1,72.6,18.1c22.4,23.5,72.6,91.8,90.7,125.9c7.5,13.9,10.7,25.6,8.5,36.3
					c-1.1,16-7.5,27.8-11.7,38.4c-7.5,18.1-36.3,76.8-41.6,85.4c-21.3,36.3-41.6,35.2-63,29.9c1.1,1.1,10.7,5.3,20.3,8.5
					C1203,642,1219,627.1,1232.9,601.5z"/>
				
					<linearGradient id="SVGID_27_" gradientUnits="userSpaceOnUse" x1="910.8671" y1="1849.2832" x2="1041.5521" y2="1387.1022" gradientTransform="matrix(1 0 0 1 0 -519.8898)">
					<stop  offset="0" style="stop-color:#E5E6E5"/>
					<stop  offset="6.593400e-02" style="stop-color:#404040"/>
					<stop  offset="7.501830e-02" style="stop-color:#424242"/>
					<stop  offset="0.2588" style="stop-color:#6E6E6E"/>
					<stop  offset="0.3517" style="stop-color:#808080"/>
					<stop  offset="0.4902" style="stop-color:#9A9A9A"/>
					<stop  offset="0.6044" style="stop-color:#ABABAB"/>
					<stop  offset="0.7298" style="stop-color:#898989"/>
					<stop  offset="0.8783" style="stop-color:#666666"/>
					<stop  offset="0.9586" style="stop-color:#595959"/>
					<stop  offset="1" style="stop-color:#A6A6A6"/>
				</linearGradient>
				<path class="st27" d="M1137.9,885.4c-1.1-1.1-4.3-3.2-9.6-7.5c-11.7,13.9-65.1,80-101.4,138.8c-27.8,44.8-68.3,111-74.7,124.9
					c-5.3,13.9-7.5,25.6-7.5,41.6c0,0,2.1,71.5,2.1,72.6c0,8.5-1.1,16-5.3,22.4c-5.3,5.3-11.7,8.5-22.4,9.6
					c-17.1,2.1-95,13.9-116.3,19.2c-20.3,4.3-29.9,13.9-34.2,27.8c-3.2,9.6-7.5,26.7-7.5,34.2v4.3c-1.1,7.5,2.1,7.5,2.1,7.5
					s90.7-7.5,144.1-4.3c54.4,3.2,128.1,10.7,128.1,10.7s-77.9-14.9-131.3-18.1c-53.4-3.2-123.8,2.1-124.9-1.1
					c-1.1-2.1-2.1-5.3-1.1-11.7c1.1-4.3,2.1-8.5,3.2-13.9c3.2-13.9,9.6-25.6,29.9-29.9c20.3-5.3,95-17.1,109.9-21.3
					c13.9-4.3,23.5-8.5,25.6-20.3c1.1-4.3,1.1-11.7,1.1-19.2c0-16-2.1-56.6-2.1-57.6c1.1-25.6,1.1-38.4,18.1-65.1
					c25.6-41.6,120.6-186.8,167.6-236.9c3.2-3.2,4.3-5.3,9.6-5.3C1140.1,886.4,1139,886.4,1137.9,885.4z"/>
			</g>
		</g>
		<g>
			<path class="st28" d="M1.2,1713.6v211.3h57.6v-65.1h52.3c112.1,0,168.6-36.3,168.6-75.8c0-42.7-60.8-70.4-163.3-70.4L1.2,1713.6
				L1.2,1713.6z M58.9,1837.4v-100.3h45.9c47,0,109.9,7.5,109.9,47c0,26.7-20.3,53.4-117.4,53.4H58.9z"/>
			<path class="st28" d="M610.7,1924.9v-26.7h-143c-31,0-39.5-13.9-39.5-37.4v-31h168.6v-26.7H428.2v-63h176.1v-26.7H369.5V1862
				c0,39.5,16,63,69.4,63H610.7L610.7,1924.9z"/>
			<path class="st28" d="M983.2,1713.6h-57.6v178.2c-16,5.3-37.4,10.7-68.3,10.7c-44.8,0-88.6-11.7-88.6-50.2v-137.7H711v143
				c0,57.6,57.6,75.8,121.7,75.8c60.8,0,111-12.8,151.6-29.9L983.2,1713.6L983.2,1713.6z"/>
			<path class="st28" d="M1144.3,1819.3c0-58.7,50.2-85.4,109.9-85.4c50.2,0,88.6,13.9,124.9,26.7v-35.2
				c-38.4-11.7-74.7-17.1-124.9-17.1c-97.1,0-177.2,44.8-177.2,112.1c0,71.5,79,112.1,177.2,112.1c48,0,99.3-10.7,131.3-18.1v-84.3
				h-57.6v63c-21.3,7.5-36.3,12.8-69.4,12.8C1192.4,1904.7,1144.3,1871.6,1144.3,1819.3"/>
			<path class="st28" d="M1732.4,1924.9v-26.7h-143c-31,0-39.5-13.9-39.5-37.4v-31h168.6v-26.7h-168.6v-63h175v-26.7h-233.7V1862
				c0,39.5,16,63,69.4,63H1732.4L1732.4,1924.9z"/>
			<path class="st28" d="M1984.3,1707.2c-97.1,0-177.2,45.9-177.2,113.1c0,71.5,79,109.9,177.2,109.9c98.2,0,177.2-39.5,177.2-109.9
				C2161.5,1753.1,2081.4,1707.2,1984.3,1707.2 M1984.3,1907.9c-66.2,0-111-34.2-111-87.5c0-57.6,50.2-87.5,111-87.5
				s109.9,28.8,109.9,87.5C2094.3,1873.7,2050.5,1907.9,1984.3,1907.9"/>
			<polygon class="st28" points="2208.5,1744.6 2324.8,1744.6 2324.8,1924.9 2383.5,1924.9 2383.5,1744.6 2498.8,1744.6 
				2498.8,1713.6 2208.5,1713.6 			"/>
		</g>
	</g>
</g>
</svg>
