<?xml version="1.0" encoding="utf-8"?>
<!-- Generator: Adobe Illustrator 24.2.1, SVG Export Plug-In . SVG Version: 6.00 Build 0)  -->
<svg version="1.1" id="Layer_1" xmlns="http://www.w3.org/2000/svg" xmlns:xlink="http://www.w3.org/1999/xlink" x="0px" y="0px"
	 viewBox="0 0 2500 2141" style="enable-background:new 0 0 2500 2141;" xml:space="preserve">
<style type="text/css">
	.st0{fill-rule:evenodd;clip-rule:evenodd;fill:url(#SVGID_1_);}
	.st1{fill-rule:evenodd;clip-rule:evenodd;fill:url(#SVGID_2_);}
	.st2{fill-rule:evenodd;clip-rule:evenodd;fill:url(#SVGID_3_);}
	.st3{fill:#231F20;}
	.st4{fill:#FFFFFF;}
	.st5{fill:url(#SVGID_4_);}
	.st6{fill:url(#SVGID_5_);}
	.st7{fill:url(#SVGID_6_);}
	.st8{fill-rule:evenodd;clip-rule:evenodd;fill:#231F20;}
	.st9{fill-rule:evenodd;clip-rule:evenodd;fill:#FFFFFF;}
	.st10{fill-rule:evenodd;clip-rule:evenodd;fill:url(#SVGID_7_);}
</style>
<g>
	<g>
		<g>
			<g>
				
					<linearGradient id="SVGID_1_" gradientUnits="userSpaceOnUse" x1="693.4841" y1="804.0143" x2="1441.3579" y2="1538.412" gradientTransform="matrix(1 0 0 1 0 -519.8898)">
					<stop  offset="0" style="stop-color:#FFDDAD"/>
					<stop  offset="1" style="stop-color:#FAA819"/>
				</linearGradient>
				<path class="st0" d="M402.8,366.4c0-1.2,34.7-50.3,110.2-87.4c1.2-1.2,105.4-50.3,234.7-101.8c1.2-1.2,142.5-53.9,262.2-87.4
					c1.2,0,103-29.9,176-40.7c1.2,0,50.3-8.4,82.6-8.4h3.6c32.3,0,82.6,7.2,83.8,8.4c73,10.8,174.8,39.5,176,40.7
					c120.9,34.7,259.8,87.4,262.2,87.4c130.5,50.3,234.7,100.6,235.9,101.8c75.4,37.1,109,86.2,109,87.4l1.2,1.2l1.2,1.2
					c1.2,1.2,55.1,65.9,51.5,170c0,1.2-3.6,58.7-22.7,129.3c0,0-67.1,233.5-68.2,240.7c0,1.2-73,203.6-73,203.6
					c0,1.2-45.5,120.9-89.8,208.3c-1.2,1.2-28.7,61.1-105.4,186.8L1702,1713.4c0,1.2-58.7,86.2-130.5,172.4
					c-1.2,1.2-80.2,97-132.9,135.3l-1.2,1.2l-1.2,1.2c-1.2,1.2-94.6,82.6-166.4,80.2h1.2h-1.2c-1.2,0-65.9,6-166.4-80.2l0,0h-1.2
					c-51.5-39.5-130.5-135.3-131.7-135.3c-73-86.2-130.5-171.2-130.5-172.4l-131.7-205.9C631.5,1385.4,604,1324.3,604,1324.3v-1.2
					c-44.3-87.4-89.8-207.1-89.8-208.3c0,0-70.6-197.6-71.8-203.6c0-1.2-69.4-240.7-69.4-240.7c-19.2-69.4-22.7-128.1-22.7-129.3
					c0-3.6,0-6,0-8.4c0-99.4,51.5-160.4,51.5-161.6L402.8,366.4z"/>
				
					<linearGradient id="SVGID_2_" gradientUnits="userSpaceOnUse" x1="694.2961" y1="803.2217" x2="1442.1569" y2="1537.6073" gradientTransform="matrix(1 0 0 1 0 -519.8898)">
					<stop  offset="0" style="stop-color:#FFDDAD"/>
					<stop  offset="1" style="stop-color:#FAA819"/>
				</linearGradient>
				<path class="st1" d="M1268.5,1.2c-34.7,0-86.2,8.4-88.6,8.4c-75.4,10.8-176,39.5-180.8,41.9c-120.9,34.7-264.6,88.6-265.8,89.8
					C600.4,192.8,496.2,243.1,495,243.1c-82.6,40.7-120.9,94.6-125.7,99.4c-6,7.2-61.1,75.4-61.1,185.6v10.8
					c0,2.4,3.6,64.7,22.7,138.9l69.4,241.9l73,204.7c1.2,1.2,46.7,123.3,92.2,211.9c2.4,6,29.9,65.9,106.6,190.4
					c0,0,82.6,129.3,132.9,207.1c1.2,1.2,61.1,88.6,134.1,176c3.6,3.6,82.6,99.4,137.7,141.3c106.6,91,180.8,89.8,195.2,89.8
					c85,3.6,182-80.2,192.8-89.8c55.1-41.9,135.3-136.5,137.7-141.3c73-87.4,131.7-174.8,132.9-176c0,0,71.8-112.6,132.9-207.1
					c77.8-128.1,106.6-188,107.8-190.4c43.1-85,86.2-198.8,91-211.9l73-204.7c0-1.2,68.2-241.9,68.2-241.9
					c20.4-75.4,22.7-135.3,23.9-137.7v-13.2c0-109-55.1-177.2-61.1-184.4c-3.6-6-41.9-58.7-123.3-99.4c-4.8-2.4-109-52.7-239.5-103
					c-6-2.4-146.1-55.1-264.6-89.8c-3.6-1.2-105.4-29.9-180.8-41.9c-2.4,0-53.9-8.4-89.8-8.4L1268.5,1.2L1268.5,1.2z"/>
			</g>
		</g>
	</g>
	
		<radialGradient id="SVGID_3_" cx="496.1644" cy="846.1921" r="1436.549" gradientTransform="matrix(1 0 0 1 0 -519.8898)" gradientUnits="userSpaceOnUse">
		<stop  offset="4.958700e-02" style="stop-color:#527093"/>
		<stop  offset="0.123" style="stop-color:#527093"/>
		<stop  offset="0.1256" style="stop-color:#527093"/>
		<stop  offset="0.3203" style="stop-color:#4F6D8F"/>
		<stop  offset="0.5027" style="stop-color:#446484"/>
		<stop  offset="0.6801" style="stop-color:#335471"/>
		<stop  offset="0.8534" style="stop-color:#1A3E57"/>
		<stop  offset="1" style="stop-color:#00273A"/>
	</radialGradient>
	<path class="st2" d="M402.8,366.4c0-1.2,34.7-50.3,110.2-87.4c1.2-1.2,105.4-50.3,234.7-101.8c1.2-1.2,142.5-53.9,262.2-87.4
		c1.2,0,103-29.9,176-40.7c1.2,0,50.3-8.4,82.6-8.4h3.6c32.3,0,82.6,7.2,83.8,8.4c73,10.8,174.8,39.5,176,40.7
		c120.9,34.7,259.8,87.4,262.2,87.4c130.5,50.3,234.7,100.6,235.9,101.8c75.4,37.1,109,86.2,109,87.4l1.2,1.2l1.2,1.2
		c1.2,1.2,55.1,65.9,51.5,170c0,1.2-3.6,58.7-22.7,129.3c0,0-67.1,233.5-68.2,240.7c0,1.2-73,203.6-73,203.6
		c0,1.2-45.5,120.9-89.8,208.3c-1.2,1.2-28.7,61.1-105.4,186.8L1702,1713.4c0,1.2-58.7,86.2-130.5,172.4
		c-1.2,1.2-80.2,97-132.9,135.3l-1.2,1.2l-1.2,1.2c-1.2,1.2-94.6,82.6-166.4,80.2h1.2h-1.2c-1.2,0-65.9,6-166.4-80.2l0,0h-1.2
		c-51.5-39.5-130.5-135.3-131.7-135.3c-73-86.2-130.5-171.2-130.5-172.4l-131.7-205.9C631.5,1385.4,604,1324.3,604,1324.3v-1.2
		c-44.3-87.4-89.8-207.1-89.8-208.3c0,0-70.6-197.6-71.8-203.6c0-1.2-69.4-240.7-69.4-240.7c-19.2-69.4-22.7-128.1-22.7-129.3
		c0-3.6,0-6,0-8.4c0-99.4,51.5-160.4,51.5-161.6L402.8,366.4z"/>
	<path class="st3" d="M2045.6,440.6c0,0-31.1,94.6-37.1,111.4c-10.8-16.8-112.6-160.4-112.6-160.4l-41.9-13.2l-1.2,6l-45.5,138.9
		l33.5,10.8c0,0,31.1-94.6,37.1-111.4c10.8,16.8,112.6,160.4,112.6,160.4l41.9,13.2l46.7-144.9L2045.6,440.6z M675.8,404.7
		c-13.2-6-28.7-3.6-47.9,3.6l-146.1,51.5l49.1,143.7l33.5-12c0,0-15.6-44.3-18-51.5c9.6-3.6,106.6-37.1,106.6-37.1
		c37.1-13.2,46.7-25.1,46.7-41.9c0-8.4-2.4-18-6-27.5C691.4,417.9,684.2,409.5,675.8,404.7z M666.3,463.4
		c-2.4,4.8-8.4,8.4-19.2,13.2c0,0-85,29.9-107.8,37.1c-2.4-7.2-10.8-32.3-14.4-40.7c9.6-3.6,106.6-37.1,106.6-37.1
		c21.6-7.2,27.5-3.6,29.9,6l4.8,13.2c1.2,1.2,1.2,3.6,1.2,4.8C666.3,459.8,666.3,462.2,666.3,463.4z M1290.1,308.9l-1.2,20.4
		c0,0,80.2,3.6,91,4.8c-1.2,10.8-6,124.5-6,124.5l34.7,1.2c0,0,6-114.9,6-124.5c9.6,1.2,91,4.8,91,4.8l1.2-26.3l-215.5-9.6
		L1290.1,308.9z M1250.6,359.2c-3.6-40.7-25.1-56.3-73-52.7l-103,8.4c-49.1,3.6-68.2,22.7-65.9,63.5l3.6,38.3
		c1.2,19.2,7.2,32.3,16.8,40.7c12,10.8,29.9,14.4,56.3,12l103-8.4c49.1-3.6,68.2-22.7,65.9-63.5L1250.6,359.2z M1213.4,425.1
		c-4.8,6-14.4,9.6-29.9,10.8l-98.2,7.2c-25.1,1.2-37.1-3.6-38.3-21.6l-3.6-52.7c-1.2-7.2,1.2-13.2,3.6-16.8
		c4.8-6,14.4-9.6,29.9-10.8l98.2-7.2c25.1-1.2,37.1,3.6,38.3,21.6l3.6,52.7C1218.2,415.5,1217,421.5,1213.4,425.1z M1723.5,348.4
		l-101.8-18c-47.9-8.4-71.8,4.8-79,44.3l-7.2,37.1c-7.2,39.5,10.8,61.1,58.7,69.4l101.8,18c47.9,8.4,71.8-4.8,79-44.3l7.2-37.1
		C1789.4,378.4,1771.4,356.8,1723.5,348.4z M1747.5,404.7l-9.6,51.5c-3.6,16.8-14.4,22.7-39.5,18l-97-18
		c-15.6-2.4-25.1-7.2-29.9-13.2c-3.6-3.6-3.6-9.6-2.4-16.8l9.6-51.5c1.2-7.2,3.6-12,8.4-15.6c6-4.8,16.8-6,32.3-2.4l97,18
		C1741.5,378.4,1751.1,387.9,1747.5,404.7z M944,416.7c7.2-4.8,12-12,12-22.7c0-2.4,0-6-1.2-8.4l-2.4-10.8
		c-2.4-10.8-6-22.7-15.6-28.7c-10.8-7.2-28.7-8.4-57.5-1.2L733.3,376l32.3,148.5l34.7-7.2c0,0-9.6-45.5-10.8-53.9
		c8.4-1.2,68.2-14.4,97-20.4l61.1,41.9l41.9-8.4l-67.1-45.5C934.5,423.9,944,416.7,944,416.7z M891.4,413.1c0,0-99.4,20.4-109,22.7
		c-1.2-8.4-7.2-34.7-8.4-41.9c9.6-2.4,103-21.6,103-21.6c38.3-8.4,39.5-1.2,41.9,6l2.4,13.2c0,1.2,1.2,2.4,1.2,3.6
		C920.1,402.3,915.3,408.3,891.4,413.1z"/>
	<path class="st4" d="M2045.6,428.7c0,0-31.1,94.6-37.1,111.4c-10.8-16.8-112.6-160.4-112.6-160.4l-41.9-13.2l-1.2,6l-45.5,138.9
		l33.5,10.8c0,0,31.1-94.6,37.1-111.4c10.8,16.8,112.6,160.4,112.6,160.4l41.9,13.2l46.7-144.9L2045.6,428.7z M675.8,392.7
		c-13.2-6-28.7-3.6-47.9,3.6l-146.1,51.5l49.1,143.7l33.5-12c0,0-15.6-44.3-18-51.5c9.6-3.6,106.6-37.1,106.6-37.1
		c37.1-13.2,46.7-25.1,46.7-41.9c0-8.4-2.4-18-6-27.5C691.4,407.1,684.2,397.5,675.8,392.7z M666.3,452.6
		c-2.4,4.8-8.4,8.4-19.2,13.2c0,0-85,29.9-107.8,37.1c-2.4-7.2-10.8-32.3-14.4-40.7c9.6-3.6,106.6-37.1,106.6-37.1
		c21.6-7.2,27.5-3.6,29.9,6l4.8,13.2c1.2,1.2,1.2,3.6,1.2,4.8C666.3,449,666.3,450.2,666.3,452.6z M1290.1,298.1l-1.2,20.4
		c0,0,80.2,3.6,91,4.8c-1.2,10.8-6,124.5-6,124.5l34.7,1.2c0,0,6-114.9,6-124.5c9.6,1.2,91,4.8,91,4.8l1.2-26.3l-215.5-10.8
		L1290.1,298.1z M1250.6,348.4c-3.6-40.7-25.1-56.3-73-52.7l-103,8.4c-49.1,3.6-68.2,22.7-65.9,63.5l3.6,38.3
		c1.2,19.2,7.2,32.3,16.8,40.7c12,10.8,29.9,14.4,56.3,12l103-8.4c49.1-3.6,68.2-22.7,65.9-63.5L1250.6,348.4z M1213.4,413.1
		c-4.8,6-14.4,9.6-29.9,10.8l-98.2,7.2c-25.1,1.2-37.1-3.6-38.3-21.6l-3.6-52.7c-1.2-7.2,1.2-13.2,3.6-16.8
		c4.8-6,14.4-9.6,29.9-10.8l98.2-7.2c25.1-1.2,37.1,3.6,38.3,21.6l3.6,52.7C1218.2,404.7,1217,409.5,1213.4,413.1z M1723.5,337.7
		l-101.8-18c-47.9-8.4-71.8,4.8-79,44.3l-7.2,37.1c-7.2,39.5,10.8,61.1,58.7,69.4l101.8,18c47.9,8.4,71.8-4.8,79-44.3l7.2-37.1
		C1789.4,366.4,1771.4,346,1723.5,337.7z M1747.5,392.7l-8.4,51.5c-3.6,16.8-14.4,22.7-39.5,18l-97-18c-15.6-2.4-25.1-7.2-29.9-13.2
		c-3.6-3.6-3.6-9.6-2.4-16.8l9.6-51.5c1.2-7.2,3.6-12,8.4-15.6c6-4.8,16.8-6,32.3-2.4l97,18C1741.5,367.6,1751.1,376,1747.5,392.7z
		 M944,405.9c7.2-4.8,12-12,12-22.7c0-2.4,0-6-1.2-8.4l-2.4-10.8c-2.4-10.8-6-22.7-15.6-28.7c-10.8-7.2-28.7-8.4-57.5-1.2
		l-146.1,31.1l32.3,148.5l34.7-7.2c0,0-9.6-45.5-10.8-53.9c8.4-1.2,68.2-14.4,97-20.4l61.1,41.9l41.9-8.4l-67.1-45.5
		C934.5,413.1,944,405.9,944,405.9z M891.4,402.3c0,0-99.4,20.4-109,22.7c-1.2-8.4-7.2-34.7-8.4-41.9c9.6-2.4,103-21.6,103-21.6
		c38.3-8.4,39.5-1.2,41.9,6l2.4,13.2c0,1.2,1.2,2.4,1.2,3.6C920.1,390.3,915.3,397.5,891.4,402.3z"/>
	
		<radialGradient id="SVGID_4_" cx="652.2372" cy="762.2831" r="1036.5621" gradientTransform="matrix(1 0 0 1 0 -519.8898)" gradientUnits="userSpaceOnUse">
		<stop  offset="0.1141" style="stop-color:#FFE4BE"/>
		<stop  offset="0.3485" style="stop-color:#FFE3BB"/>
		<stop  offset="0.4872" style="stop-color:#FFE0B3"/>
		<stop  offset="0.601" style="stop-color:#FEDBA5"/>
		<stop  offset="0.7013" style="stop-color:#FED491"/>
		<stop  offset="0.7927" style="stop-color:#FDCA77"/>
		<stop  offset="0.8777" style="stop-color:#FCBE57"/>
		<stop  offset="0.9562" style="stop-color:#FBB131"/>
		<stop  offset="1" style="stop-color:#FAA819"/>
	</radialGradient>
	<path class="st5" d="M2045.6,434.6c0,0-31.1,94.6-37.1,111.4c-10.8-16.8-112.6-160.4-112.6-160.4l-41.9-13.2l-1.2,6l-45.5,138.9
		l33.5,10.8c0,0,31.1-94.6,37.1-111.4c10.8,16.8,112.6,160.4,112.6,160.4l41.9,13.2l46.7-144.9L2045.6,434.6z M675.8,398.7
		c-13.2-6-28.7-3.6-47.9,3.6l-144.9,50.3l49.1,143.7l33.5-12c0,0-15.6-44.3-18-51.5c9.6-3.6,106.6-37.1,106.6-37.1
		c37.1-13.2,46.7-25.1,46.7-41.9c0-8.4-2.4-18-6-27.5C691.4,411.9,684.2,403.5,675.8,398.7z M666.3,457.4
		c-2.4,4.8-8.4,8.4-19.2,13.2c0,0-85,29.9-107.8,37.1c-2.4-7.2-10.8-32.3-14.4-40.7c9.6-3.6,106.6-37.1,106.6-37.1
		c21.6-7.2,27.5-3.6,29.9,6l4.8,13.2c1.2,1.2,1.2,3.6,1.2,4.8C666.3,455,666.3,456.2,666.3,457.4z M1290.1,304.1l-1.2,20.4
		c0,0,80.2,3.6,91,4.8c-1.2,10.8-6,124.5-6,124.5l34.7,1.2c0,0,6-114.9,6-124.5c9.6,1.2,91,4.8,91,4.8l1.2-26.3l-216.7-10.8V304.1z
		 M1250.6,354.4c-3.6-40.7-25.1-56.3-73-52.7l-103,8.4c-49.1,3.6-68.2,22.7-65.9,63.5l3.6,38.3c1.2,19.2,7.2,32.3,16.8,40.7
		c12,10.8,29.9,14.4,56.3,12l103-8.4c49.1-3.6,68.2-22.7,65.9-63.5L1250.6,354.4z M1213.4,419.1c-4.8,6-14.4,9.6-29.9,10.8
		l-98.2,7.2c-25.1,1.2-37.1-3.6-38.3-21.6l-3.6-52.7c-1.2-7.2,1.2-13.2,3.6-16.8c4.8-6,14.4-9.6,29.9-10.8l98.2-7.2
		c25.1-1.2,37.1,3.6,38.3,21.6l3.6,52.7C1218.2,409.5,1217,414.3,1213.4,419.1z M1723.5,342.4l-101.8-18c-47.9-8.4-71.8,4.8-79,44.3
		l-7.2,37.1c-7.2,39.5,10.8,61.1,58.7,69.4l101.8,18c47.9,8.4,71.8-4.8,79-44.3l7.2-37.1C1789.4,372.4,1771.4,352,1723.5,342.4z
		 M1747.5,398.7l-9.6,51.5c-3.6,16.8-14.4,22.7-39.5,18l-97-18c-15.6-2.4-25.1-7.2-29.9-13.2c-3.6-3.6-3.6-9.6-2.4-16.8l9.6-51.5
		c1.2-7.2,3.6-12,8.4-15.6c6-4.8,16.8-6,32.3-2.4l97,18C1741.5,373.6,1751.1,382,1747.5,398.7z M944,411.9c7.2-4.8,12-12,12-22.7
		c0-2.4,0-6-1.2-8.4l-2.4-10.8c-2.4-10.8-6-22.7-15.6-28.7c-10.8-7.2-28.7-8.4-57.5-1.2l-146.1,31.1l32.3,148.5l34.7-7.2
		c0,0-9.6-45.5-10.8-53.9c8.4-1.2,68.2-14.4,97-20.4l61.1,41.9l41.9-8.4l-67.1-45.5C934.5,419.1,944,411.9,944,411.9z M891.4,407.1
		c0,0-99.4,20.4-109,22.7c-1.2-8.4-7.2-34.7-8.4-41.9c9.6-2.4,103-21.6,103-21.6c38.3-8.4,39.5-1.2,41.9,6l2.4,13.2
		c0,1.2,1.2,2.4,1.2,3.6C920.1,396.3,915.3,402.3,891.4,407.1z"/>
	
		<radialGradient id="SVGID_5_" cx="913.5274" cy="1293.1478" r="913.121" gradientTransform="matrix(1 0 0 1 0 -519.8898)" gradientUnits="userSpaceOnUse">
		<stop  offset="3.471100e-02" style="stop-color:#4A8C58"/>
		<stop  offset="9.050861e-02" style="stop-color:#448754"/>
		<stop  offset="0.4827" style="stop-color:#1F683C"/>
		<stop  offset="0.7997" style="stop-color:#08552D"/>
		<stop  offset="1" style="stop-color:#004E28"/>
	</radialGradient>
	<path class="st6" d="M752.5,1108.8c0-289.8,235.9-525.6,525.6-525.6s525.6,235.9,525.6,525.6s-235.9,525.6-525.6,525.6
		S752.5,1398.5,752.5,1108.8z"/>
	<g>
		<path class="st3" d="M746.5,1110c0,293.4,238.3,531.6,531.6,531.6s531.6-238.3,531.6-531.6s-238.3-531.6-531.6-531.6
			C984.8,578.3,746.5,816.6,746.5,1110z M757.3,1110c0-286.2,233.5-520.9,520.9-520.9c286.2,0,520.9,233.5,520.9,520.9
			c0,286.2-233.5,520.9-520.9,520.9C991.9,1630.8,757.3,1396.1,757.3,1110z"/>
	</g>
	
		<radialGradient id="SVGID_6_" cx="950.344" cy="1231.2155" r="845.1957" gradientTransform="matrix(1 0 0 1 0 -519.8898)" gradientUnits="userSpaceOnUse">
		<stop  offset="0.1141" style="stop-color:#FFD07F"/>
		<stop  offset="0.3871" style="stop-color:#FFCF7D"/>
		<stop  offset="0.5487" style="stop-color:#FECC74"/>
		<stop  offset="0.6813" style="stop-color:#FEC666"/>
		<stop  offset="0.798" style="stop-color:#FDBE52"/>
		<stop  offset="0.9034" style="stop-color:#FCB438"/>
		<stop  offset="1" style="stop-color:#FAA819"/>
	</radialGradient>
	<path class="st7" d="M723.7,1108.8c0,305.3,247.9,554.4,554.4,554.4s554.4-247.9,554.4-554.4s-247.9-554.4-554.4-554.4
		C972.8,554.4,723.7,802.2,723.7,1108.8z M1801.4,1108.8c0,288.6-234.7,523.2-523.2,523.2s-523.2-234.7-523.2-523.2
		s234.7-523.2,523.2-523.2S1801.4,819,1801.4,1108.8z"/>
	<path class="st8" d="M1293.7,621.4c-88.6,19.2-160.4,128.1-160.4,128.1c80.2-35.9,235.9-22.7,235.9-22.7
		c209.5,85,370,271.8,370,271.8c-55.1-8.4-128.1-8.4-128.1-8.4c99.4,51.5,132.9,107.8,132.9,107.8
		c-51.5,124.5-146.1,156.9-146.1,156.9c10.8-20.4,25.1-69.4,25.1-69.4l-65.9-29.9c-41.9-13.2-68.2,3.6-68.2,3.6
		c-58.7,22.7-120.9,51.5-120.9,51.5c-74.2,35.9-38.3,107.8-38.3,107.8c50.3,46.7,63.5,86.2,82.6,104.2c19.2,16.8,33.5,6,33.5,6
		l51.5-29.9c-52.7,188-226.3,192.8-226.3,192.8c-98.2-312.5-490.9-461-490.9-461c190.4-22.7,319.7,27.5,319.7,27.5
		c-64.7-110.2-296.9-209.5-296.9-209.5c198.8-15.6,336.5,63.5,336.5,63.5C1065,865.7,900.9,790.3,900.9,790.3
		C1075.7,596.3,1293.7,621.4,1293.7,621.4z M1190.7,1080c0,0,51.5,46.7,56.3,245.5c0,0,27.5-111.4,15.6-204.7h171.2
		C1432.6,1119.5,1344,1077.6,1190.7,1080z M1276.9,857.3c0,0,140.1,33.5,185.6,68.2c0,0-6-22.7-49.1-44.3l126.9-3.6
		C1540.3,876.5,1407.4,813,1276.9,857.3z"/>
	<path class="st9" d="M1298.5,616.6c-88.6,19.2-160.4,128.1-160.4,128.1c80.2-35.9,235.9-22.7,235.9-22.7
		c209.5,85,370,271.8,370,271.8c-55.1-8.4-128.1-8.4-128.1-8.4c99.4,51.5,132.9,107.8,132.9,107.8
		c-51.5,124.5-146.1,156.9-146.1,156.9c10.8-20.4,25.1-69.4,25.1-69.4l-65.9-29.9c-41.9-13.2-68.2,3.6-68.2,3.6
		c-58.7,22.7-120.9,51.5-120.9,51.5c-74.2,35.9-38.3,107.8-38.3,107.8c50.3,46.7,63.5,86.2,82.6,104.2c19.2,16.8,33.5,6,33.5,6
		l51.5-29.9c-52.7,188-226.3,192.8-226.3,192.8c-99.4-312.5-492.1-461-492.1-461c190.4-22.7,319.7,27.5,319.7,27.5
		c-64.7-110.2-296.9-209.5-296.9-209.5c198.8-15.6,336.5,63.5,336.5,63.5c-74.2-146.1-238.3-221.5-238.3-221.5
		C1080.5,591.5,1298.5,616.6,1298.5,616.6z M1195.5,1075.2c0,0,51.5,46.7,56.3,245.5c0,0,27.5-111.4,15.6-204.7h171.2
		C1437.4,1115.9,1348.7,1072.8,1195.5,1075.2z M1281.7,853.7c0,0,140.1,33.5,185.6,68.2c0,0-6-22.7-49.1-44.3l126.9-3.6
		C1545.1,872.9,1412.2,809.4,1281.7,853.7z"/>
	
		<radialGradient id="SVGID_7_" cx="1064.9772" cy="1405.3326" r="793.4277" gradientTransform="matrix(1 0 0 1 0 -519.8898)" gradientUnits="userSpaceOnUse">
		<stop  offset="0" style="stop-color:#FFFFFF"/>
		<stop  offset="3.920370e-02" style="stop-color:#FFF9F2"/>
		<stop  offset="0.2396" style="stop-color:#FDDEB1"/>
		<stop  offset="0.4308" style="stop-color:#FBC77C"/>
		<stop  offset="0.6076" style="stop-color:#FAB552"/>
		<stop  offset="0.7668" style="stop-color:#F9A934"/>
		<stop  offset="0.9029" style="stop-color:#F8A122"/>
		<stop  offset="1" style="stop-color:#F89E1B"/>
	</radialGradient>
	<path class="st10" d="M1296.1,619c-88.6,19.2-160.4,128.1-160.4,128.1c80.2-35.9,235.9-22.7,235.9-22.7
		c209.5,85,370,271.8,370,271.8c-55.1-8.4-128.1-8.4-128.1-8.4c99.4,51.5,132.9,107.8,132.9,107.8
		c-51.5,124.5-146.1,156.9-146.1,156.9c10.8-20.4,25.1-69.4,25.1-69.4l-65.9-29.9c-41.9-13.2-68.2,3.6-68.2,3.6
		c-58.7,22.7-120.9,51.5-120.9,51.5c-74.2,35.9-38.3,107.8-38.3,107.8c50.3,46.7,63.5,86.2,82.6,104.2c19.2,16.8,33.5,6,33.5,6
		l51.5-29.9c-52.7,188-226.3,192.8-226.3,192.8c-99.4-312.5-492.1-461-492.1-461c190.4-22.7,319.7,27.5,319.7,27.5
		c-64.7-110.2-296.9-209.5-296.9-209.5c198.8-15.6,336.5,63.5,336.5,63.5c-74.2-146.1-238.3-221.5-238.3-221.5
		C1078.1,593.9,1296.1,619,1296.1,619z M1193.1,1077.6c0,0,51.5,46.7,56.3,245.5c0,0,27.5-111.4,15.6-204.7h171.2
		C1435,1117.1,1346.4,1075.2,1193.1,1077.6z M1279.3,854.9c0,0,140.1,33.5,185.6,68.2c0,0-6-22.7-49.1-44.3l126.9-3.6
		C1542.7,874.1,1409.8,810.6,1279.3,854.9z"/>
</g>
</svg>
