<?xml version="1.0" encoding="utf-8"?>
<!-- Generator: Adobe Illustrator 24.2.1, SVG Export Plug-In . SVG Version: 6.00 Build 0)  -->
<svg version="1.1" id="Layer_1" xmlns="http://www.w3.org/2000/svg" xmlns:xlink="http://www.w3.org/1999/xlink" x="0px" y="0px"
	 viewBox="0 0 2500 2141" style="enable-background:new 0 0 2500 2141;" xml:space="preserve">
<style type="text/css">
	.st0{clip-path:url(#SVGID_2_);fill:url(#SVGID_3_);}
	.st1{clip-path:url(#SVGID_5_);}
	.st2{clip-path:url(#SVGID_7_);fill:url(#SVGID_8_);}
	.st3{clip-path:url(#SVGID_10_);fill:url(#SVGID_11_);}
	.st4{clip-path:url(#SVGID_13_);fill:url(#SVGID_14_);}
	.st5{clip-path:url(#SVGID_16_);fill:url(#SVGID_17_);}
	.st6{clip-path:url(#SVGID_19_);fill:url(#SVGID_20_);}
	.st7{clip-path:url(#SVGID_22_);fill:url(#SVGID_23_);}
	.st8{clip-path:url(#SVGID_25_);fill:url(#SVGID_26_);}
	.st9{clip-path:url(#SVGID_28_);fill:url(#SVGID_29_);}
	.st10{clip-path:url(#SVGID_31_);fill:url(#SVGID_32_);}
	.st11{clip-path:url(#SVGID_34_);fill:url(#SVGID_35_);}
	.st12{clip-path:url(#SVGID_37_);fill:url(#SVGID_38_);}
	.st13{clip-path:url(#SVGID_40_);fill:url(#SVGID_41_);}
	.st14{clip-path:url(#SVGID_43_);fill:url(#SVGID_44_);}
	.st15{clip-path:url(#SVGID_46_);fill:url(#SVGID_47_);}
	.st16{clip-path:url(#SVGID_49_);}
	.st17{clip-path:url(#SVGID_51_);}
</style>
<g>
	<g>
		<g>
			<g>
				<g>
					<defs>
						<path id="SVGID_1_" d="M1203.2,1040c-56.6-108.6-93.9-183.3-148.2-303.3c-4.5-10.2-7.9-18.1-7.9-27.2c0-9.1,3.4-17,7.9-27.2
							c54.3-119.9,91.7-194.6,148.2-303.3c3.4-6.8,5.7-10.2,9.1-10.2l0,0c3.4,0,6.8,3.4,9.1,10.2c56.6,108.6,93.9,183.3,148.2,303.3
							c4.5,10.2,7.9,18.1,7.9,27.2c0,9.1-3.4,17-7.9,27.2c-54.3,119.9-91.7,194.6-148.2,303.3c-3.4,6.8-5.7,10.2-9.1,10.2
							C1208.8,1050.2,1206.6,1046.8,1203.2,1040 M1059.5,38.6c-4.5,1.1-6.8,1.1-9.1,2.3c-2.3,1.1-4.5,2.3-9.1,9.1
							c-12.4,18.1-138.1,224.1-217.3,370c-56.6,103-112,212.7-136.9,262.5c-6.8,13.6-6.8,22.6-6.8,26c0,6.8,2.3,15.8,6.8,26
							C710.9,785.4,766.4,894,824.1,997c79.2,146,204.8,351.9,218.4,370c2.3,2.3,3.4,4.5,5.7,6.8c3.4,3.4,5.7,4.5,9.1,5.7
							c3.4,1.1,9.1,1.1,14.7,0c2.3,0,6.8,0,9.1,0c32.8,1.1,81.5,2.3,133.5,2.3c65.6,0,141.4-2.3,152.8-3.4h2.3
							c4.5-1.1,6.8-1.1,7.9-2.3c2.3-1.1,4.5-3.4,10.2-10.2c12.4-18.1,136.9-224.1,217.3-368.9c56.6-103,112-212.7,136.9-262.5
							c6.8-13.6,6.8-23.8,6.8-28.3c0-6.8-2.3-14.7-6.8-24.9c-23.8-50.9-79.2-159.6-136.9-262.5c-79.2-146-204.8-351.9-218.4-370
							c-3.4-4.5-6.8-7.9-9.1-10.2c-2.3-1.1-3.4-2.3-4.5-2.3c-3.4-1.1-10.2-1.1-15.8,0c-2.3,0-6.8,0-9.1,0
							c-26-1.1-80.3-2.3-133.5-2.3C1147.7,36.3,1069.7,37.4,1059.5,38.6"/>
					</defs>
					<clipPath id="SVGID_2_">
						<use xlink:href="#SVGID_1_"  style="overflow:visible;"/>
					</clipPath>
					
						<linearGradient id="SVGID_3_" gradientUnits="userSpaceOnUse" x1="769.4843" y1="1663.5369" x2="800.626" y2="1663.5369" gradientTransform="matrix(0 -43.2775 -43.2775 0 73206.5234 34685.3828)">
						<stop  offset="0" style="stop-color:#E5E5E8"/>
						<stop  offset="0.6866" style="stop-color:#FFFFFF"/>
						<stop  offset="0.9896" style="stop-color:#A5A9AF"/>
						<stop  offset="1" style="stop-color:#A2A5AC"/>
					</linearGradient>
					<rect x="679.3" y="36.3" class="st0" width="1067.1" height="1347.7"/>
				</g>
			</g>
		</g>
		<g>
			<g>
				<g>
					<g>
						<defs>
							<rect id="SVGID_4_" x="679.3" y="36.3" width="1067.1" height="1347.7"/>
						</defs>
						<clipPath id="SVGID_5_">
							<use xlink:href="#SVGID_4_"  style="overflow:visible;"/>
						</clipPath>
						<g class="st1">
							<g>
								<g>
									<defs>
										<path id="SVGID_6_" d="M1213.4,369c3.4,0,6.8,3.4,9.1,10.2c56.6,108.6,93.9,183.3,148.2,303.3c4.5,10.2,7.9,18.1,7.9,27.2
											c0,9.1-3.4,17-7.9,27.2c-54.3,119.9-91.7,194.6-148.2,303.3c-3.4,6.8-5.7,10.2-9.1,10.2c-3.4,0-6.8-4.5-9.1-10.2
											c-56.6-108.6-93.9-183.3-148.2-303.3c-4.5-10.2-7.9-18.1-7.9-27.2c0-9.1,3.4-17,7.9-27.2
											c54.3-119.9,91.7-194.6,148.2-303.3C1206.6,373.5,1208.8,369,1213.4,369L1213.4,369z M1059.5,38.6
											c-4.5,1.1-6.8,1.1-9.1,2.3c-2.3,1.1-4.5,2.3-9.1,9.1c-12.4,18.1-138.1,224.1-217.3,370c-56.6,103-112,212.7-136.9,262.5
											c-6.8,13.6-6.8,22.6-6.8,26c0,6.8,2.3,15.8,6.8,26C710.9,785.4,766.4,894,824.1,997c79.2,146,204.8,351.9,218.4,370
											c2.3,2.3,3.4,4.5,5.7,6.8c3.4,3.4,5.7,4.5,9.1,5.7c3.4,1.1,9.1,1.1,14.7,0c2.3,0,6.8,0,9.1,0c31.7,1.1,80.3,2.3,132.4,2.3
											h2.3c65.6,0,141.4-2.3,152.8-3.4h2.3c4.5-1.1,6.8-1.1,7.9-2.3c2.3-1.1,4.5-3.4,10.2-10.2
											c12.4-18.1,136.9-224.1,217.3-368.9c56.6-103,112-212.7,136.9-262.5c6.8-13.6,6.8-23.8,6.8-28.3c0-6.8-2.3-14.7-6.8-24.9
											c-23.8-50.9-79.2-159.6-136.9-262.5c-79.2-146-204.8-351.9-218.4-370c-3.4-4.5-6.8-7.9-9.1-10.2c-2.3-1.1-3.4-2.3-4.5-2.3
											c-3.4-1.1-10.2-1.1-15.8,0c-2.3,0-6.8,0-9.1,0c-26-1.1-80.3-2.3-133.5-2.3C1147.7,36.3,1069.7,37.4,1059.5,38.6"/>
									</defs>
									<clipPath id="SVGID_7_">
										<use xlink:href="#SVGID_6_"  style="overflow:visible;"/>
									</clipPath>
									
										<radialGradient id="SVGID_8_" cx="776.5615" cy="1669.61" r="31.1348" gradientTransform="matrix(21.5788 0 0 -21.659 -15614.1162 36545.4297)" gradientUnits="userSpaceOnUse">
										<stop  offset="0" style="stop-color:#FFFFFF"/>
										<stop  offset="0.401" style="stop-color:#FFFFFF"/>
										<stop  offset="0.98" style="stop-color:#A5A9AF"/>
										<stop  offset="1" style="stop-color:#A2A5AC"/>
									</radialGradient>
									<rect x="679.3" y="36.3" class="st2" width="1067.1" height="1347.7"/>
								</g>
							</g>
						</g>
					</g>
				</g>
			</g>
		</g>
		<g>
			<g>
				<g>
					<defs>
						<path id="SVGID_9_" d="M993.8,709.6c-4.5,4.5-12.4,9.1-32.8,9.1c-18.1,0-167.5,0-237.6,0c-10.2,0-24.9-1.1-24.9,15.8
							c0,9.1,7.9,29.4,26,63.4c93.9,184.5,199.2,368.9,312.3,548.8c0,0,17,28.3,19.2,29.4c2.3,2.3,3.4,3.4,7.9,3.4
							c0,0,71.3-130.1,129-272.7c-63.4-118.8-123.3-235.4-178.8-351.9c0,0-15.8-29.4-17-40.7c0-1.1,0-2.3,0-3.4c0-1.1,0-2.3-1.1-2.3
							C997.2,707.3,996.1,708.5,993.8,709.6"/>
					</defs>
					<clipPath id="SVGID_10_">
						<use xlink:href="#SVGID_9_"  style="overflow:visible;"/>
					</clipPath>
					
						<linearGradient id="SVGID_11_" gradientUnits="userSpaceOnUse" x1="751.7768" y1="1679.3917" x2="782.9116" y2="1679.3917" gradientTransform="matrix(0 -21.3189 -21.3189 0 36749.0977 17403.7422)">
						<stop  offset="0" style="stop-color:#E5E5E8"/>
						<stop  offset="1.042330e-02" style="stop-color:#E5E5E8"/>
						<stop  offset="0.3385" style="stop-color:#B1B5BB"/>
						<stop  offset="0.5386" style="stop-color:#7F8388"/>
						<stop  offset="0.6941" style="stop-color:#55585E"/>
						<stop  offset="0.8452" style="stop-color:#3C3E42"/>
						<stop  offset="0.8983" style="stop-color:#323337"/>
						<stop  offset="0.948" style="stop-color:#242529"/>
						<stop  offset="0.9592" style="stop-color:#28292C"/>
						<stop  offset="0.9695" style="stop-color:#323437"/>
						<stop  offset="0.9795" style="stop-color:#44464A"/>
						<stop  offset="0.9893" style="stop-color:#5D6065"/>
						<stop  offset="0.9989" style="stop-color:#7D8186"/>
						<stop  offset="1" style="stop-color:#81858B"/>
					</linearGradient>
					<rect x="699.6" y="707.3" class="st3" width="493.4" height="671"/>
				</g>
			</g>
		</g>
		<g>
			<g>
				<g>
					<defs>
						<path id="SVGID_12_" d="M1733.9,711.9c-2.3,2.3-9.1,6.8-26,6.8h-195.8c-89.4,0-81.5-2.3-104.1,45.3
							c-10.2,20.4-20.4,46.4-32.8,66.8c-78.1,164.1-270.5,494.5-296.5,535.2c-9.1,14.7-11.3,17-3.4,17c0,0,65.6,2.3,136.9,2.3
							c113.2,0,152.8-3.4,152.8-3.4c65.6-101.8,221.8-361,333.8-583.9c26-52.1,38.5-73.6,37.3-84.9c0-1.1-1.1-1.1-1.1-1.1
							C1735,709.6,1733.9,710.7,1733.9,711.9"/>
					</defs>
					<clipPath id="SVGID_13_">
						<use xlink:href="#SVGID_12_"  style="overflow:visible;"/>
					</clipPath>
					
						<linearGradient id="SVGID_14_" gradientUnits="userSpaceOnUse" x1="751.8097" y1="1658.6385" x2="782.9456" y2="1658.6385" gradientTransform="matrix(0 -21.3376 -21.3376 0 36794.8477 17418.4707)">
						<stop  offset="0" style="stop-color:#E5E5E8"/>
						<stop  offset="1.042330e-02" style="stop-color:#E5E5E8"/>
						<stop  offset="0.3385" style="stop-color:#B1B5BB"/>
						<stop  offset="0.5386" style="stop-color:#7F8388"/>
						<stop  offset="0.6941" style="stop-color:#55585E"/>
						<stop  offset="0.8452" style="stop-color:#3C3E42"/>
						<stop  offset="0.9013" style="stop-color:#323337"/>
						<stop  offset="0.9538" style="stop-color:#242529"/>
						<stop  offset="0.9637" style="stop-color:#28292C"/>
						<stop  offset="0.9729" style="stop-color:#323437"/>
						<stop  offset="0.9818" style="stop-color:#44464A"/>
						<stop  offset="0.9905" style="stop-color:#5D6065"/>
						<stop  offset="0.999" style="stop-color:#7D8186"/>
						<stop  offset="1" style="stop-color:#81858B"/>
					</linearGradient>
					<rect x="1068.5" y="709.6" class="st4" width="669.9" height="673.3"/>
				</g>
			</g>
		</g>
		<g>
			<g>
				<g>
					<defs>
						<path id="SVGID_15_" d="M1360.5,40.8c-4.5,0-7.9,3.4-14.7,13.6c-55.4,86-246.7,447-324.8,614.5c-9.1,20.4-14.7,30.6-14.7,40.7
							h40.7l0,0c0-9.1,3.4-17,7.9-27.2c54.3-119.9,91.7-194.6,148.2-303.3c3.4-6.8,5.7-10.2,9.1-10.2l15.8-46.4
							C1283.5,185.7,1361.6,40.8,1360.5,40.8C1361.6,40.8,1360.5,40.8,1360.5,40.8"/>
					</defs>
					<clipPath id="SVGID_16_">
						<use xlink:href="#SVGID_15_"  style="overflow:visible;"/>
					</clipPath>
					
						<linearGradient id="SVGID_17_" gradientUnits="userSpaceOnUse" x1="782.2999" y1="1668.5123" x2="813.439" y2="1668.5123" gradientTransform="matrix(0 -21.477 -21.477 0 37019.1562 17506.5996)">
						<stop  offset="0" style="stop-color:#55585E"/>
						<stop  offset="1.020755e-02" style="stop-color:#494C51"/>
						<stop  offset="2.432316e-02" style="stop-color:#3F4146"/>
						<stop  offset="4.003730e-02" style="stop-color:#3C3E42"/>
						<stop  offset="0.1106" style="stop-color:#393B3F"/>
						<stop  offset="0.1561" style="stop-color:#323337"/>
						<stop  offset="0.1945" style="stop-color:#242528"/>
						<stop  offset="0.2287" style="stop-color:#111213"/>
						<stop  offset="0.2521" style="stop-color:#000000"/>
						<stop  offset="1" style="stop-color:#000000"/>
					</linearGradient>
					<rect x="1007.4" y="40.8" class="st5" width="354.2" height="668.8"/>
				</g>
			</g>
		</g>
		<g>
			<g>
				<g>
					<defs>
						<path id="SVGID_18_" d="M1212.2,369L1212.2,369c3.4,0,6.8,3.4,9.1,10.2c56.6,108.6,93.9,183.3,148.2,303.3
							c4.5,10.2,7.9,18.1,7.9,27.2l0,0l0,0h40.7c0-10.2-4.5-19.2-14.7-39.6c-54.3-114.3-110.9-226.3-175.4-347.4L1212.2,369z"/>
					</defs>
					<clipPath id="SVGID_19_">
						<use xlink:href="#SVGID_18_"  style="overflow:visible;"/>
					</clipPath>
					
						<linearGradient id="SVGID_20_" gradientUnits="userSpaceOnUse" x1="778.5358" y1="1664.6135" x2="809.6637" y2="1664.6135" gradientTransform="matrix(0 -12.4328 -12.4328 0 22011.0234 10388.9717)">
						<stop  offset="0" style="stop-color:#8B8E94"/>
						<stop  offset="0.1599" style="stop-color:#86898F"/>
						<stop  offset="0.3468" style="stop-color:#797B81"/>
						<stop  offset="0.5472" style="stop-color:#62646A"/>
						<stop  offset="0.7559" style="stop-color:#434449"/>
						<stop  offset="0.7954" style="stop-color:#3C3E42"/>
						<stop  offset="0.8256" style="stop-color:#383A3E"/>
						<stop  offset="0.8569" style="stop-color:#2D2E31"/>
						<stop  offset="0.8888" style="stop-color:#1A1B1D"/>
						<stop  offset="0.9207" style="stop-color:#000000"/>
						<stop  offset="1" style="stop-color:#000000"/>
					</linearGradient>
					<rect x="1212.2" y="322.6" class="st6" width="206" height="387"/>
				</g>
			</g>
		</g>
		<g>
			<g>
				<g>
					<defs>
						<path id="SVGID_21_" d="M1021,750.3c54.3,114.3,109.8,226.3,175.4,346.3l17-46.4c-3.4,0-6.8-4.5-9.1-10.2
							c-56.6-108.6-93.9-183.3-148.2-303.3c-4.5-10.2-7.9-18.1-7.9-27.2h-40.7C1007.4,719.8,1011.9,730,1021,750.3"/>
					</defs>
					<clipPath id="SVGID_22_">
						<use xlink:href="#SVGID_21_"  style="overflow:visible;"/>
					</clipPath>
					
						<linearGradient id="SVGID_23_" gradientUnits="userSpaceOnUse" x1="748.3732" y1="1680.5452" x2="779.4853" y2="1680.5452" gradientTransform="matrix(0 -12.4391 -12.4391 0 22014.8652 10406.375)">
						<stop  offset="0" style="stop-color:#C6C8CC"/>
						<stop  offset="0.3571" style="stop-color:#C6C8CC"/>
						<stop  offset="0.4936" style="stop-color:#C1C3C8"/>
						<stop  offset="0.6484" style="stop-color:#B4B6BB"/>
						<stop  offset="0.8114" style="stop-color:#9DA0A5"/>
						<stop  offset="0.9631" style="stop-color:#81858B"/>
						<stop  offset="1" style="stop-color:#55585E"/>
					</linearGradient>
					<rect x="1007.4" y="709.6" class="st7" width="206" height="387"/>
				</g>
			</g>
		</g>
		<g>
			<g>
				<g>
					<defs>
						<path id="SVGID_24_" d="M1021,750.3c54.3,114.3,109.8,226.3,175.4,346.3l17-46.4c-3.4,0-6.8-4.5-9.1-10.2
							c-56.6-108.6-93.9-183.3-148.2-303.3c-4.5-10.2-7.9-18.1-7.9-27.2l0,0h-40.7C1007.4,719.8,1011.9,730,1021,750.3"/>
					</defs>
					<clipPath id="SVGID_25_">
						<use xlink:href="#SVGID_24_"  style="overflow:visible;"/>
					</clipPath>
					
						<linearGradient id="SVGID_26_" gradientUnits="userSpaceOnUse" x1="783.4184" y1="1689.8737" x2="814.5543" y2="1689.8737" gradientTransform="matrix(-11.3151 -5.1039 -5.1039 11.3151 18749.2734 -14152.3076)">
						<stop  offset="0" style="stop-color:#F1F2F1"/>
						<stop  offset="1.320000e-02" style="stop-color:#F1F2F1"/>
						<stop  offset="0.1096" style="stop-color:#EEEDEE"/>
						<stop  offset="1" style="stop-color:#EEEDEE"/>
					</linearGradient>
					<polygon class="st8" points="1177.2,1173.5 861.4,1031 1041.4,632.6 1358.2,774.1 					"/>
				</g>
			</g>
		</g>
		<g>
			<g>
				<g>
					<defs>
						<path id="SVGID_27_" d="M1378.6,709.6c0,9.1-3.4,17-7.9,27.2c-54.3,119.9-91.7,194.6-148.2,303.3c-3.4,6.8-5.7,10.2-9.1,10.2
							l-17,46.4c-57.7,146-132.4,281.8-132.4,281.8c4.5,0,10.2-4.5,15.8-14.7c2.3-2.3,3.4-6.8,6.8-10.2
							c41.9-71.3,243.3-442.5,318-603.1c9.1-20.4,14.7-30.6,14.7-40.7L1378.6,709.6L1378.6,709.6L1378.6,709.6"/>
					</defs>
					<clipPath id="SVGID_28_">
						<use xlink:href="#SVGID_27_"  style="overflow:visible;"/>
					</clipPath>
					
						<linearGradient id="SVGID_29_" gradientUnits="userSpaceOnUse" x1="752.1514" y1="1665.9368" x2="783.2846" y2="1665.9368" gradientTransform="matrix(0 -21.4811 -21.4811 0 37027.8164 17531.3242)">
						<stop  offset="0" style="stop-color:#FFFFFF"/>
						<stop  offset="0.2333" style="stop-color:#F9F9FA"/>
						<stop  offset="0.5475" style="stop-color:#E8E9EA"/>
						<stop  offset="0.9061" style="stop-color:#CCCDD2"/>
						<stop  offset="0.9693" style="stop-color:#C6C8CC"/>
						<stop  offset="0.9913" style="stop-color:#8B8E94"/>
						<stop  offset="1" style="stop-color:#8B8E94"/>
					</linearGradient>
					<rect x="1064" y="709.6" class="st9" width="355.3" height="668.8"/>
				</g>
			</g>
		</g>
		<g>
			<g>
				<g>
					<defs>
						<path id="SVGID_30_" d="M653.2,709.6c0,9.1,2.3,20.4,10.2,37.3c18.1,40.7,71.3,142.6,136.9,264.8
							c72.4,132.4,204.8,353.1,219.5,373.4c6.8,7.9,11.3,13.6,17,17l11.3-24.9c-2.3-2.3-3.4-3.4-5.7-6.8
							c-12.4-18.1-138.1-224.1-218.4-370c-56.6-103-112-212.7-136.9-262.5c-4.5-10.2-6.8-19.2-6.8-26L653.2,709.6z"/>
					</defs>
					<clipPath id="SVGID_31_">
						<use xlink:href="#SVGID_30_"  style="overflow:visible;"/>
					</clipPath>
					
						<linearGradient id="SVGID_32_" gradientUnits="userSpaceOnUse" x1="752.1131" y1="1682.8115" x2="783.2589" y2="1682.8115" gradientTransform="matrix(0 -22.199 -22.199 0 38206.8594 18097.1562)">
						<stop  offset="0" style="stop-color:#81858B"/>
						<stop  offset="0.1103" style="stop-color:#7D8186"/>
						<stop  offset="0.5565" style="stop-color:#707479"/>
						<stop  offset="0.9698" style="stop-color:#6C6F75"/>
						<stop  offset="0.9884" style="stop-color:#8E9297"/>
						<stop  offset="1" style="stop-color:#9EA2A8"/>
					</linearGradient>
					<rect x="653.2" y="709.6" class="st10" width="393.8" height="691.4"/>
				</g>
			</g>
		</g>
		<g>
			<g>
				<g>
					<defs>
						<path id="SVGID_33_" d="M1035.7,1401c6.8,4.5,13.6,4.5,21.5,5.7c19.2,2.3,105.2,3.4,155,3.4s142.6-2.3,155-3.4
							c6.8-1.1,11.3-1.1,17-3.4l-10.2-24.9c-1.1,1.1-3.4,1.1-7.9,2.3h-2.3c-11.3,1.1-87.1,3.4-152.8,3.4
							c-52.1,0-101.8-1.1-133.5-2.3c-2.3,0-6.8,0-9.1,0c-4.5,1.1-11.3,1.1-14.7,0c-3.4-1.1-5.7-2.3-9.1-5.7L1035.7,1401z"/>
					</defs>
					<clipPath id="SVGID_34_">
						<use xlink:href="#SVGID_33_"  style="overflow:visible;"/>
					</clipPath>
					
						<linearGradient id="SVGID_35_" gradientUnits="userSpaceOnUse" x1="796.962" y1="1584.5675" x2="828.0967" y2="1584.5675" gradientTransform="matrix(8.5488 4.9357 4.9357 -8.5488 -13554.0605 10930.0137)">
						<stop  offset="0" style="stop-color:#81858B"/>
						<stop  offset="1.931200e-02" style="stop-color:#81858B"/>
						<stop  offset="3.574017e-02" style="stop-color:#6F7277"/>
						<stop  offset="6.042275e-02" style="stop-color:#5A5C61"/>
						<stop  offset="8.396768e-02" style="stop-color:#4D4F54"/>
						<stop  offset="0.105" style="stop-color:#484A4F"/>
						<stop  offset="1" style="stop-color:#484A4F"/>
					</linearGradient>
					<polygon class="st11" points="1122.8,1224.5 1400.1,1384 1298.2,1561.7 1021,1401 					"/>
				</g>
			</g>
		</g>
		<g>
			<g>
				<g>
					<defs>
						<path id="SVGID_36_" d="M1375.2,40.8c3.4,2.3,5.7,4.5,9.1,10.2c12.4,18.1,138.1,224.1,218.4,370
							c56.6,103,112,212.7,136.9,262.5c4.5,10.2,6.8,17,6.8,24.9l26,2.3l0,0c0-7.9-2.3-20.4-10.2-37.3
							c-20.4-41.9-83.7-167.5-136.9-264.8c-72.4-130.1-204.8-351.9-219.5-373.4c-7.9-11.3-13.6-15.8-20.4-18.1L1375.2,40.8z"/>
					</defs>
					<clipPath id="SVGID_37_">
						<use xlink:href="#SVGID_36_"  style="overflow:visible;"/>
					</clipPath>
					
						<linearGradient id="SVGID_38_" gradientUnits="userSpaceOnUse" x1="774.8032" y1="1673.5093" x2="805.938" y2="1673.5093" gradientTransform="matrix(18.9488 10.3742 10.3742 -18.9488 -30759.8789 23876.5996)">
						<stop  offset="0" style="stop-color:#787A80"/>
						<stop  offset="1" style="stop-color:#8B8E94"/>
					</linearGradient>
					<polygon class="st12" points="1466.9,-151.6 2065.5,176.6 1680.7,877.1 1083.2,548.9 					"/>
				</g>
			</g>
		</g>
		<g>
			<g>
				<g>
					<defs>
						<path id="SVGID_39_" d="M1056.1,12.5c-6.8,1.1-12.4,2.3-17,3.4l10.2,24.9c2.3-1.1,3.4-2.3,9.1-2.3
							c10.2-1.1,88.3-3.4,153.9-3.4c53.2,0,106.4,1.1,133.5,2.3c2.3,0,6.8,0,9.1,0c4.5-1.1,12.4-1.1,15.8,0c2.3,1.1,3.4,1.1,4.5,2.3
							l10.2-23.8c-5.7-2.3-11.3-3.4-18.1-3.4c-20.4-2.3-108.6-3.4-155-3.4C1171.5,9.1,1077.6,10.3,1056.1,12.5"/>
					</defs>
					<clipPath id="SVGID_40_">
						<use xlink:href="#SVGID_39_"  style="overflow:visible;"/>
					</clipPath>
					
						<linearGradient id="SVGID_41_" gradientUnits="userSpaceOnUse" x1="800.7379" y1="1613.7891" x2="831.8738" y2="1613.7891" gradientTransform="matrix(-10.2641 -2.9432 -2.9432 10.2641 14338.7402 -14137.2598)">
						<stop  offset="0" style="stop-color:#787A80"/>
						<stop  offset="9.552040e-03" style="stop-color:#787A80"/>
						<stop  offset="1.931428e-02" style="stop-color:#86888E"/>
						<stop  offset="3.979475e-02" style="stop-color:#9EA1A7"/>
						<stop  offset="5.852593e-02" style="stop-color:#ACB0B6"/>
						<stop  offset="7.376030e-02" style="stop-color:#B1B5BB"/>
						<stop  offset="0.5011" style="stop-color:#C4C8CB"/>
						<stop  offset="1" style="stop-color:#C6C8CC"/>
					</linearGradient>
					<polygon class="st13" points="1359.3,132.5 1031.2,38.6 1066.3,-82.5 1394.4,11.4 					"/>
				</g>
			</g>
		</g>
		<g>
			<g>
				<g>
					<defs>
						<path id="SVGID_42_" d="M1018.7,36.3C1004,55.5,871.6,279.6,800.3,408.6c-49.8,90.5-130.1,247.8-136.9,264.8
							c-7.9,17-9.1,28.3-9.1,38.5h26c0-4.5,1.1-12.4,6.8-26c23.8-50.9,79.2-159.6,136.9-262.5c79.2-146,206-351.9,217.3-370
							c4.5-6.8,6.8-7.9,9.1-9.1l-10.2-24.9C1031.2,20.4,1026.7,26.1,1018.7,36.3"/>
					</defs>
					<clipPath id="SVGID_43_">
						<use xlink:href="#SVGID_42_"  style="overflow:visible;"/>
					</clipPath>
					
						<linearGradient id="SVGID_44_" gradientUnits="userSpaceOnUse" x1="751.7642" y1="1680.0966" x2="782.9001" y2="1680.0966" gradientTransform="matrix(18.3038 -7.0262 -7.0262 -18.3038 -1392.8541 36508.5469)">
						<stop  offset="0" style="stop-color:#9EA2A8"/>
						<stop  offset="0.9868" style="stop-color:#8B8E94"/>
						<stop  offset="1" style="stop-color:#C6C8CC"/>
					</linearGradient>
					<polygon class="st14" points="421.3,105.3 999.5,-116.5 1282.4,621.3 704.2,843.1 					"/>
				</g>
			</g>
		</g>
		<g>
			<g>
				<g>
					<defs>
						<path id="SVGID_45_" d="M1375.2,1378.4L1375.2,1378.4L1375.2,1378.4 M1739.6,735.6c-23.8,50.9-79.2,159.6-136.9,262.5
							c-79.2,146-204.8,350.8-217.3,368.9c-4.5,7.9-7.9,9.1-10.2,10.2l10.2,24.9c6.8-2.3,12.4-7.9,20.4-18.1
							c14.7-19.2,157.3-256.9,219.5-373.4c63.4-115.4,130.1-247.8,136.9-264.8c9.1-20.4,10.2-30.6,10.2-37.3l-26-2.3
							C1746.4,711.9,1745.2,723.2,1739.6,735.6"/>
					</defs>
					<clipPath id="SVGID_46_">
						<use xlink:href="#SVGID_45_"  style="overflow:visible;"/>
					</clipPath>
					
						<linearGradient id="SVGID_47_" gradientUnits="userSpaceOnUse" x1="752.2057" y1="1651.2828" x2="783.3332" y2="1651.2828" gradientTransform="matrix(0 -22.3212 -22.3212 0 38432.9648 18193.3945)">
						<stop  offset="0" style="stop-color:#484A4F"/>
						<stop  offset="1.902380e-02" style="stop-color:#484A4F"/>
						<stop  offset="0.2319" style="stop-color:#525559"/>
						<stop  offset="0.5993" style="stop-color:#5E6165"/>
						<stop  offset="0.9698" style="stop-color:#616569"/>
						<stop  offset="0.986" style="stop-color:#7A7D83"/>
						<stop  offset="1" style="stop-color:#8B8E94"/>
					</linearGradient>
					<rect x="1375.2" y="708.5" class="st15" width="398.3" height="694.8"/>
				</g>
			</g>
		</g>
		<g>
			<g>
				<g>
					<defs>
						<path id="SVGID_48_" d="M1216.8,383.7c4.5,9.1,44.1,84.9,80.3,158.4c33.9,69,63.4,135.8,66.8,142.6c4.5,10.2,6.8,17,6.8,24.9
							s-2.3,13.6-6.8,23.8v1.1c0,1.1-30.6,70.2-66.8,143.7c-32.8,65.6-66.8,132.4-80.3,158.4l-1.1,1.1c-1.1,2.3-2.3,4.5-3.4,4.5
							c-1.1,0-2.3-2.3-3.4-4.5c0-1.1-1.1-2.3-2.3-3.4c-38.5-72.4-63.4-124.5-79.2-155c-33.9-70.2-64.5-138.1-66.8-143.7v-1.1
							c-3.4-9.1-6.8-17-6.8-23.8c0-7.9,3.4-15.8,6.8-23.8c0-1.1,1.1-2.3,2.3-3.4c21.5-48.7,44.1-95.1,64.5-139.2
							c30.6-62.2,65.6-130.1,76.9-152.8c-106.4,69-176.5,189-176.5,324.8c0,213.9,173.1,385.9,384.7,385.9
							c67.9,0,132.4-18.1,189-49.8c7.9-14.7,17-28.3,22.6-40.7c61.1-112,130.1-246.7,136.9-264.8c9.1-19.2,10.2-29.4,10.2-38.5
							c0-6.8-1.1-19.2-10.2-38.5c-20.4-41.9-83.7-167.5-136.9-264.8c-4.5-7.9-7.9-14.7-13.6-23.8c-57.7-35.1-125.6-55.4-198-55.4
							C1342.4,328.2,1274.5,348.6,1216.8,383.7"/>
					</defs>
					<clipPath id="SVGID_49_">
						<use xlink:href="#SVGID_48_"  style="overflow:visible;"/>
					</clipPath>
					<g class="st16">
						<g>
							<g>
								<g>
									<defs>
										<rect id="SVGID_50_" x="1030.1" y="328.2" width="772.9" height="772.9"/>
									</defs>
									<clipPath id="SVGID_51_">
										<use xlink:href="#SVGID_50_"  style="overflow:visible;"/>
									</clipPath>
									<g class="st17">
										<g>
											<g>
												<defs>
													<path id="SVGID_52_" d="M1030.1,715.2c0,213.9,173.1,385.9,385.9,385.9c213.9,0,385.9-173.1,385.9-385.9
														c0-213.9-173.1-385.9-385.9-385.9C1203.2,328.2,1030.1,502.5,1030.1,715.2"/>
												</defs>
												<clipPath id="SVGID_53_">
													<use xlink:href="#SVGID_52_"  style="overflow:visible;"/>
												</clipPath>
											</g>
										</g>
									</g>
								</g>
							</g>
						</g>
					</g>
				</g>
			</g>
		</g>
		<path d="M1370.7,682.4c-2.3-4.5-32.8-72.4-66.8-142.6c-37.3-76.9-79.2-157.3-81.5-159.6c-3.4-6.8-5.7-10.2-9.1-10.2
			c-3.4,0-6.8,3.4-9.1,10.2c-2.3,3.4-45.3,84.9-81.5,159.6c-36.2,73.6-64.5,139.2-66.8,142.6c-3.4,7.9-7.9,18.1-7.9,27.2
			c0,9.1,3.4,18.1,7.9,27.2c2.3,4.5,32.8,73.6,66.8,143.7c37.3,76.9,79.2,156.2,81.5,159.6c3.4,6.8,5.7,10.2,9.1,10.2
			c3.4,0,6.8-3.4,9.1-10.2c2.3-3.4,44.1-82.6,81.5-159.6c33.9-70.2,64.5-138.1,66.8-143.7c4.5-11.3,7.9-18.1,7.9-27.2
			C1378.6,700.5,1375.2,692.6,1370.7,682.4 M1363.9,733.4L1363.9,733.4c-1.1,1.1-31.7,71.3-66.8,143.7
			c-32.8,65.6-66.8,132.4-80.3,158.4l-1.1,1.1c-1.1,2.3-2.3,4.5-3.4,4.5c-1.1,0-2.3-2.3-3.4-4.5c0-1.1-1.1-2.3-2.3-3.4
			c-38.5-72.4-63.4-124.5-79.2-155c-33.9-70.2-64.5-138.1-66.8-143.7v-1.1c-3.4-9.1-6.8-17-6.8-23.8c0-7.9,3.4-15.8,6.8-23.8
			c0-1.1,1.1-2.3,2.3-3.4c21.5-48.7,44.1-95.1,64.5-139.2c37.3-76.9,81.5-158.4,81.5-159.6c1.1-2.3,2.3-4.5,3.4-4.5
			c1.1,0,2.3,2.3,3.4,4.5c1.1,1.1,41.9,81.5,81.5,159.6c33.9,69,63.4,135.8,66.8,142.6c4.5,10.2,6.8,17,6.8,24.9
			C1370.7,717.5,1368.4,723.2,1363.9,733.4"/>
		<path d="M1763.3,672.2c-20.4-41.9-83.7-167.5-136.9-264.8C1552.9,273.9,1421.6,54.4,1406.9,34c-14.7-19.2-22.6-20.4-36.2-22.6
			h-3.4C1348,9.1,1263.2,8,1212.2,8c-44.1,0-135.8,1.1-157.3,3.4c-20.4,2.3-26,7.9-37.3,23.8C1002.9,56.7,869.4,283,799.2,407.5
			C748.3,498,669.1,655.3,662.3,672.2c-6.8,14.7-9.1,27.2-9.1,38.5s3.4,23.8,10.2,38.5c17,36.2,66.8,136.9,136.9,264.8
			c73.6,133.5,206,353.1,219.5,373.4c14.7,20.4,24.9,20.4,38.5,22.6c20.4,2.3,108.6,3.4,155,3.4c50.9,0,142.6-2.3,155-3.4
			s23.8-2.3,38.5-22.6c13.6-18.1,155-255.7,219.5-373.4c61.1-112,130.1-246.7,136.9-264.8c9.1-19.2,10.2-29.4,10.2-38.5
			C1772.4,702.8,1771.3,690.4,1763.3,672.2 M1756.5,744.7c-7.9,18.1-75.8,151.6-136.9,263.7c-63.4,116.6-206,353.1-219.5,372.3
			c-12.4,17-20.4,18.1-32.8,19.2c-12.4,1.1-104.1,3.4-155,3.4c-46.4,0-134.7-1.1-155-3.4c-12.4-1.1-19.2-2.3-32.8-19.2
			c-13.6-19.2-146-238.8-219.5-372.3c-70.2-127.9-119.9-227.5-136.9-263.7c-6.8-13.6-9.1-24.9-9.1-35.1c0-9.1,3.4-20.4,9.1-35.1
			c7.9-17,87.1-173.1,136.9-263.7c69-125.6,202.6-350.8,218.4-370c10.2-14.7,14.7-18.1,31.7-20.4c21.5-2.3,113.2-3.4,156.2-3.4
			c50.9,0,133.5,1.1,153.9,3.4h2.3c12.4,1.1,18.1,2.3,30.6,19.2c14.7,19.2,146,238.8,219.5,372.3c54.3,97.3,116.6,221.8,136.9,263.7
			c7.9,17,9.1,28.3,9.1,33.9C1765.6,717.5,1764.5,725.4,1756.5,744.7"/>
	</g>
	<polygon points="2500,1797.1 2500,1853.6 2381.2,1853.6 2381.2,2104.9 2302,2104.9 2302,1853.6 2182,1853.6 2182,1797.1 	"/>
	<polygon points="2217.1,2048.3 2217.1,2104.9 1962.5,2104.9 1962.5,1797.1 2041.7,1797.1 2041.7,2048.3 	"/>
	<polygon points="674.7,2048.3 674.7,2104.9 407.7,2104.9 407.7,1797.1 670.2,1797.1 670.2,1853.6 488,1853.6 488,1921.5 
		654.4,1921.5 654.4,1977 488,1977 488,2048.3 	"/>
	<path d="M264,1990.6c33.9-18.1,55.4-55.4,55.4-93.9c0-32.8-9.1-56.6-29.4-73.6c-22.6-19.2-54.3-26-106.4-26H0.3l-3.4,18.1
		c0,0,3.4,5.7,6.8,12.4c5.7,9.1,4.5,12.4,4.5,19.2v258h80.3v-98.4h99.6l53.2,98.4h88.3L264,1990.6z M223.2,1940.8
		c-6.8,6.8-13.6,9.1-24.9,9.1H88.6v-93.9h86c26,0,39.6,3.4,48.7,10.2c9.1,6.8,13.6,18.1,13.6,35.1
		C237.9,1918.1,233.4,1930.6,223.2,1940.8z"/>
	<path d="M1009.7,1797.1v204.8c-19.2-23.8-38.5-46.4-71.3-82.6c-27.2-29.4-83.7-90.5-112-121.1h-76.9l-3.4,18.1
		c0,0,3.4,5.7,6.8,12.4c4.5,7.9,4.5,10.2,4.5,14.7v261.4h72.4V1900c14.7,19.2,39.6,48.7,56.6,66.8c33.9,36.2,84.9,93.9,125.6,136.9
		h69v-307.8L1009.7,1797.1z"/>
	<path d="M1793.9,1797.1v189c0,20.4-4.5,33.9-14.7,43c-13.6,12.4-33.9,18.1-65.6,18.1c-31.7,0-53.2-5.7-66.8-18.1
		c-10.2-9.1-14.7-22.6-14.7-43v-189h-89.4l-3.4,18.1c0,0,3.4,5.7,6.8,12.4s4.5,11.3,4.5,14.7v146c0,80.3,54.3,121.1,159.6,121.1h2.3
		c105.2,0,157.3-39.6,157.3-121.1v-191.2L1793.9,1797.1L1793.9,1797.1z"/>
	<path d="M1375.2,1797.1h-99.6c-30.6,62.2-83.7,178.8-132.4,307.8h80.3c6.8-18.1,13.6-35.1,20.4-53.2H1408
		c6.8,18.1,13.6,36.2,20.4,53.2h80.3C1458.9,1975.9,1405.7,1859.3,1375.2,1797.1z M1266.6,1994c20.4-52.1,41.9-101.8,60-140.3
		c17,38.5,38.5,88.3,60,140.3H1266.6z"/>
</g>
</svg>
