<svg id="Layer_1" data-name="Layer 1" xmlns="http://www.w3.org/2000/svg" xmlns:xlink="http://www.w3.org/1999/xlink" viewBox="0 0 2500 2141"><defs><style>.cls-1{fill:none;}.cls-2{clip-path:url(#clip-path);}.cls-3{fill:#ec008c;}.cls-13,.cls-14,.cls-15,.cls-16,.cls-17,.cls-18,.cls-19,.cls-20,.cls-21,.cls-22,.cls-23,.cls-24,.cls-25,.cls-26,.cls-27,.cls-28,.cls-29,.cls-3,.cls-30,.cls-31,.cls-32,.cls-33,.cls-34,.cls-35,.cls-36,.cls-37,.cls-38,.cls-39,.cls-40,.cls-41,.cls-42,.cls-43,.cls-44,.cls-45,.cls-46,.cls-47,.cls-48,.cls-49,.cls-50,.cls-51,.cls-52,.cls-53,.cls-54,.cls-55,.cls-56,.cls-57,.cls-58,.cls-59,.cls-60,.cls-61,.cls-62,.cls-63,.cls-64,.cls-65,.cls-66,.cls-67,.cls-68,.cls-74,.cls-75{fill-rule:evenodd;}.cls-4{clip-path:url(#clip-path-2);}.cls-5{fill:url(#linear-gradient);}.cls-6{clip-path:url(#clip-path-3);}.cls-7{fill:url(#linear-gradient-2);}.cls-8{clip-path:url(#clip-path-4);}.cls-9{fill:url(#linear-gradient-3);}.cls-10{clip-path:url(#clip-path-5);}.cls-11{fill:url(#linear-gradient-4);}.cls-12{clip-path:url(#clip-path-6);}.cls-13{fill:#5c5d60;}.cls-14{fill:#5d5e60;}.cls-15{fill:#5e5f61;}.cls-16{fill:#5f6062;}.cls-17{fill:#606163;}.cls-18{fill:#616264;}.cls-19{fill:#616365;}.cls-20{fill:#626366;}.cls-21{fill:#636467;}.cls-22{fill:#646567;}.cls-23{fill:#656668;}.cls-24{fill:#666769;}.cls-25{fill:#66686a;}.cls-26{fill:#67686b;}.cls-27{fill:#68696c;}.cls-28{fill:#696a6c;}.cls-29{fill:#6a6b6d;}.cls-30{fill:#6a6c6e;}.cls-31{fill:#6c6d70;}.cls-32{fill:#6d6e70;}.cls-33{fill:#6d6f71;}.cls-34{fill:#6e7072;}.cls-35{fill:#6f7073;}.cls-36{fill:#707174;}.cls-37{fill:#717275;}.cls-38{fill:#717375;}.cls-39{fill:#727476;}.cls-40{fill:#737477;}.cls-41{fill:#747578;}.cls-42{fill:#747678;}.cls-43{fill:#757779;}.cls-44{fill:#76777a;}.cls-45{fill:#77787b;}.cls-46{fill:#77797c;}.cls-47{fill:#787a7c;}.cls-48{fill:#797b7d;}.cls-49{fill:#7a7b7e;}.cls-50{fill:#7a7c7f;}.cls-51{fill:#7b7d7f;}.cls-52{fill:#7c7e80;}.cls-53{fill:#7d7e80;}.cls-54{fill:#7d7f81;}.cls-55{fill:#7e8081;}.cls-56{fill:#7f8082;}.cls-57{fill:#808083;}.cls-58{fill:#808184;}.cls-59{fill:#6b6c6f;}.cls-60{fill:#5c5c5f;}.cls-61{fill:#5b5c5e;}.cls-62{fill:#595a5c;}.cls-63{fill:#58595b;}.cls-64{fill:#57585a;}.cls-65{fill:#565759;}.cls-66{fill:#555658;}.cls-67{fill:#555557;}.cls-68{fill:#545456;}.cls-69{clip-path:url(#clip-path-161);}.cls-70{fill:url(#linear-gradient-5);}.cls-71{clip-path:url(#clip-path-162);}.cls-72{fill:url(#linear-gradient-6);}.cls-73{clip-path:url(#clip-path-163);}.cls-74{fill:#302d2f;}.cls-75{fill:#eeefef;}.cls-76{clip-path:url(#clip-path-165);}.cls-77{fill:url(#linear-gradient-7);}</style><clipPath id="clip-path"><rect class="cls-1" x="669.42" y="-2.73" width="1240.1" height="2141"/></clipPath><clipPath id="clip-path-2"><path class="cls-1" d="M801.39-1.64C737,1.64,685.78,54,685.78,119.43V2011.75c0,56.72,40.36,105.8,93.8,117.8h1034c49.08-10.91,87.26-53.45,93.8-103.62V105.25C1900.8,47.44,1851.72.55,1791.73-1.64Z"/></clipPath><linearGradient id="linear-gradient" x1="797.59" y1="1627.82" x2="836.83" y2="1627.82" gradientTransform="matrix(31.1, 47.64, 47.64, -31.1, -101666.45, 12753.87)" gradientUnits="userSpaceOnUse"><stop offset="0" stop-color="#a6a8ab"/><stop offset="0.17" stop-color="#a6a8ab"/><stop offset="0.91" stop-color="#454547"/><stop offset="1" stop-color="#454547"/></linearGradient><clipPath id="clip-path-3"><path class="cls-1" d="M691.24,110.7c0,3.28-1.09,6.55-1.09,9.82V2009.57c0,28.36,12,58.9,33.81,81.8V110.7Z"/></clipPath><linearGradient id="linear-gradient-2" x1="797.1" y1="1617.4" x2="836.34" y2="1617.4" gradientTransform="matrix(0, 51.01, 51.01, 0, -81791.96, -40547.34)" gradientUnits="userSpaceOnUse"><stop offset="0" stop-color="#e6e7e8"/><stop offset="0.01" stop-color="#e6e7e8"/><stop offset="0.17" stop-color="#dfe0e1"/><stop offset="0.4" stop-color="#cccdce"/><stop offset="0.67" stop-color="#acadb0"/><stop offset="0.91" stop-color="#8a8c8f"/><stop offset="1" stop-color="#8a8c8f"/></linearGradient><clipPath id="clip-path-4"><path class="cls-1" d="M726.14,2093.56c20.72,20.72,49.08,34.9,82.89,34.9h977.25c32.72,0,62.16-12,84-34.9Z"/></clipPath><linearGradient id="linear-gradient-3" x1="800.68" y1="1592.57" x2="839.92" y2="1592.57" gradientTransform="matrix(31.09, 0, 0, -31.09, -24200.65, 51628.03)" gradientUnits="userSpaceOnUse"><stop offset="0" stop-color="#6f7073"/><stop offset="0.01" stop-color="#6f7073"/><stop offset="0.47" stop-color="#68696c"/><stop offset="0.91" stop-color="#5c5d60"/><stop offset="1" stop-color="#5c5d60"/></linearGradient><clipPath id="clip-path-5"><path class="cls-1" d="M1867,70.35v2024.3c22.9-20.73,37.08-51.27,37.08-87.26V120.52c0-18.54-4.36-34.9-9.82-50.17Z"/></clipPath><linearGradient id="linear-gradient-4" x1="796.95" y1="1639.45" x2="836.19" y2="1639.45" gradientTransform="matrix(0, 52.77, 52.77, 0, -84620.46, -41981.28)" gradientUnits="userSpaceOnUse"><stop offset="0" stop-color="#d0d2d3"/><stop offset="0.01" stop-color="#d0d2d3"/><stop offset="0.04" stop-color="#c9cbcc"/><stop offset="0.08" stop-color="#b6b8ba"/><stop offset="0.1" stop-color="#a4a7a9"/><stop offset="0.25" stop-color="#aeb0b3"/><stop offset="0.4" stop-color="#aeb0b3"/><stop offset="0.91" stop-color="#545456"/><stop offset="1" stop-color="#545456"/></linearGradient><clipPath id="clip-path-6"><path class="cls-1" d="M807.94,1.64c-54.54,0-117.79,43.62-117.79,117.79V2008.48c0,55.63,45.8,117.8,117.79,117.8h977.25c63.25,0,118.88-49.08,118.88-118.89V120.52c0-74.17-58.9-117.79-118.88-117.79C1785.19,1.64,807.94,1.64,807.94,1.64Z"/></clipPath><clipPath id="clip-path-161"><path class="cls-1" d="M807.94,1.64c-39.27,0-84,22.9-105.8,64.35H1891c-20.72-41.45-63.26-64.35-105.79-64.35Z"/></clipPath><linearGradient id="linear-gradient-5" x1="800.16" y1="1656.25" x2="839.4" y2="1656.25" gradientTransform="matrix(32.52, 0, 0, -32.52, -25366.84, 53898.95)" gradientUnits="userSpaceOnUse"><stop offset="0" stop-color="#f1f1f2"/><stop offset="0.21" stop-color="#eaeaeb"/><stop offset="0.52" stop-color="#d7d7d9"/><stop offset="0.86" stop-color="#b9bbbd"/><stop offset="1" stop-color="#b9bbbd"/></linearGradient><clipPath id="clip-path-162"><path class="cls-1" d="M804.67,55.08a59.82,59.82,0,0,0-60,60V2015a59.81,59.81,0,0,0,60,60h984.88a59.81,59.81,0,0,0,60-60V116.16a59.82,59.82,0,0,0-60-60C1789.55,55.08,804.67,55.08,804.67,55.08Z"/></clipPath><linearGradient id="linear-gradient-6" x1="798.37" y1="1627.1" x2="837.6" y2="1627.1" gradientTransform="matrix(43.62, 28.83, 28.83, -43.62, -81296.08, 48452.47)" gradientUnits="userSpaceOnUse"><stop offset="0" stop-color="#454547"/><stop offset="0.12" stop-color="#404041"/><stop offset="0.25" stop-color="#58595b"/><stop offset="0.47" stop-color="#404041"/><stop offset="0.75" stop-color="#302d2f"/><stop offset="1" stop-color="#302d2f"/></linearGradient><clipPath id="clip-path-163"><rect class="cls-1" x="685.78" y="-1.64" width="1221.56" height="2131.18"/></clipPath><clipPath id="clip-path-165"><path class="cls-1" d="M874.47,1792.53v64.35h17.45c32.72,0,42.54-17.45,41.45-34.9,0-19.64-12-29.45-41.45-29.45ZM1032.62,1870c0,46.9,32.72,81.8,80.71,81.8s82.89-34.9,82.89-81.8-36-78.53-82.89-78.53c-48,0-80.71,31.63-80.71,78.53m601-105.8h121.07v3.27h3.27v27.27h-93.8v62.17h87.25v2.18h3.28v27.27h-89.44v64.35h92.71v2.18h3.27v27.26H1635.76v-2.18h-3.27V1764.17Zm-792.92,0H894.1c42.54,0,73.08,22.91,73.08,60,0,25.08-17.45,50.17-38.18,52.35,19.64,13.09,31.63,32.72,48,58.9,8.73,14.18,17.45,25.08,31.63,44.71h-36l-1.09-3.27h-2.18L941,1933.23c-28.36-43.63-41.44-46.9-56.71-46.9h-9.82V1979H843.93v-3.27h-3.27V1764.17Zm531.16,0h39.26l-79.62,100.34v115.61h-30.54v-3.27h-3.27V1864.51L1218,1764.17h37.09l56.71,73.08ZM997.72,1870c0-58.9,44.71-110.16,114.52-110.16,70.89,0,117.79,50.17,117.79,110.16,0,57.8-45.81,112.34-117.79,112.34-69.81,1.09-114.52-53.45-114.52-112.34m403.55,4.36c0-65.44,49.08-112.34,116.7-112.34,21.81,0,46.9,6.54,75.26,18.54v37.08c-26.18-15.27-51.27-25.08-76.35-25.08-49.08,0-82.89,32.72-82.89,79.62,0,48,32.72,80.71,84,80.71,24,0,53.44-8.73,77.44-24v36c-20.73,10.9-46.9,19.63-80.71,19.63-78.53-1.09-113.43-66.53-113.43-110.16M781.76,1707.46v297.75s-3.27,34.9,29.45,34.9h969.61c33.81,0,33.81-34.9,33.81-34.9V1707.46Zm342.48-1010s3.27-48-24-64.35v-6.55h248.67c10.91,13.09,20.73,32.72,27.27,55.63h-156V996.33c-18.54,8.73-39.26,17.45-62.16,22.91a290.71,290.71,0,0,1-36,8.72l2.19-330.47ZM1023.89,573.15v484.26c19.63-1.09,91.62-6.54,139.61-20.72,159.24-46.9,234.49-158.15,235.59-287.94,1.09-75.26-26.18-122.16-55.63-147.24-18.54-15.27-43.63-22.91-61.08-25.09-9.81-2.18-32.72-2.18-40.35-2.18l-20.72-1.09ZM1097,1608.2c24-13.08,27.27-52.35,27.27-58.89V1125c32.72-4.36,67.62-9.81,97.07-17.45v51.26c14.17-1.09,61.07-4.36,103.61-12,9.82,21.81,17.45,41.44,24,57.8l1.1,2.18c-17.46,3.28-36,5.46-55.63,7.64-28.36,3.27-55.62,5.45-70.89,6.54v330.48c0,7.63,2.18,49.08,29.44,62.17v6.54H1099.15v-8.72H1097Zm323.93-494.07c113.43-54.54,166.87-149.43,168-258.49,1.09-74.17-25.08-120-54.53-144-2.18-1.09-3.27-3.28-5.45-4.37a239.15,239.15,0,0,0-7.64-26.17c-5.45-17.45-13.09-33.81-20.72-48,5.45,1.09,9.81,2.18,14.18,3.27,81.8,17.45,147.24,65.44,178.87,159.24,25.08,76.35,13.09,170.14-41.45,246.49-13.09,18.54-46.9,55.63-86.16,84-6.54,5.46-10.91,7.64-18.54,12,49.08,79.62,73.07,124.34,104.7,210.5,27.27,75.26,48,175.6,51.26,198.51,6.55,55.62,24,63.26,29.45,64.35V1618H1533.24v-8.73c6.54-3.27,58.9-25.08,58.9-108,0-61.08-14.18-128.7-41.45-204-12-33.81-36-88.34-58.9-129.79l-1.09-1.09a277.89,277.89,0,0,1-40.35,14.18c-7.64-24-17.45-44.72-29.45-66.53M897.37,1517.68c25.09-13.09,27.27-53.45,27.27-61.08V586.24s3.27-49.08-24-65.44v-6.55h335.92c28.36,0,65.45,3.28,87.26,7.64,84,17.45,150.51,66.53,182.14,162.51,26.18,77.44,13.09,174.51-42.53,250.86-13.09,18.54-48,56.71-88.35,86.16-7.63,5.45-12,7.63-19.63,13.09,50.17,80.71,75.26,126.52,106.89,214.86,28.35,76.35,49.08,178.87,52.35,202.87,6.54,56.71,24,65.44,30.54,66.53v6.54h-204v-8.72c6.54-3.28,60-26.18,60-112.34,0-62.17-14.18-130.88-42.54-208.32-12-34.9-37.08-89.44-60-132l-1.09-1.1c-26.17,12-82.89,28.36-118.88,36-26.18,5.45-52.35,8.72-85.07,12-28.36,3.28-55.63,5.46-73.08,6.55v338.11c0,7.63,4.36,50.17,30.54,64.35v6.54H894.1l3.27-8.72ZM778.49,1672.55H1814.63V455.36H778.49ZM1053.34,260.13c0,45.8,32.72,80.71,79.62,80.71,48,0,82.89-34.9,82.89-80.71,0-46.9-34.9-77.44-82.89-77.44s-79.62,30.54-79.62,77.44M871.2,180.51V247h19.63c32.72,0,42.54-16.36,41.45-34.9,0-19.64-12-31.63-41.45-31.63Zm-30.54-26.18H894.1c42.54,0,69.81,22.9,69.81,58.9,0,24-13.09,42.53-36,51.26,19.64,12,31.63,32.72,48,57.81,8.73,14.17,14.18,21.81,28.36,41.44H967.18L938.82,321.2c-28.36-42.53-40.36-48-56.72-48H869v90.53H839.57V154.33Zm455.9,0h30.54V337.56H1422l-4.36,27.27H1296.56Zm175.6,0h30.54V337.56h88.35l-4.37,27.27H1472.16V154.33ZM1723,313.57c0-43.63-97.07-49.08-97.07-105.8,0-34.9,27.26-55.62,67.62-55.62,17.45,0,33.81,4.36,54.53,17.45l-5.45,31.63c-19.63-17.45-37.08-21.81-52.35-21.81-20.73,0-36,9.81-36,25.08,0,40.36,97.07,39.27,97.07,106.89,0,32.72-26.17,56.71-63.25,56.71-24,0-42.54-5.45-67.63-22.9l5.46-34.9c16.36,19.63,37.08,30.54,58.89,30.54,27.27,0,38.18-15.27,38.18-27.27m-704.58-53.44c0-57.81,44.72-108,114.52-108s114.52,49.08,114.52,108c0,56.71-42.53,108-115.61,108-68.71,0-113.43-51.26-113.43-108m-207.23-168c-28.36,0-29.45,29.45-29.45,29.45V423.73h1034V120.52s1.1-28.36-33.81-28.36ZM749,2005.21V121.61c0-32.72,29.45-61.08,62.17-61.08h969.61c39.27,0,66.53,28.36,66.53,61.08v1883.6c0,41.45-28.35,67.62-66.53,67.62H810.12c-34.9,0-61.08-33.81-61.08-67.62M814.48,30c-49.08,0-94.89,39.27-94.89,91.62V2006.3c0,54.54,41.45,94.89,94.89,94.89h967.43c57.81,0,93.8-40.35,93.8-94.89V121.61c0-58.9-41.44-91.62-93.8-91.62Z"/></clipPath><linearGradient id="linear-gradient-7" x1="799.62" y1="1627.06" x2="838.86" y2="1627.06" gradientTransform="matrix(48.98, 36.9, 36.9, -48.98, -98780.7, 50587.13)" gradientUnits="userSpaceOnUse"><stop offset="0" stop-color="#c0c1c3"/><stop offset="0.12" stop-color="#e3e4e5"/><stop offset="0.25" stop-color="#f5f5f6"/><stop offset="0.34" stop-color="#eeeeef"/><stop offset="0.47" stop-color="#dbdcdd"/><stop offset="0.47" stop-color="#dbdcdd"/><stop offset="0.75" stop-color="#b2b4b7"/><stop offset="0.87" stop-color="#c5c7c9"/><stop offset="1" stop-color="#c5c7c9"/></linearGradient></defs><g class="cls-2"><path class="cls-3" d="M821,9.27c-70.9,0-122.16,51.26-122.16,122.16V2000.85c0,70.89,51.26,122.15,122.16,122.15h952.16c70.89,0,122.15-51.26,122.15-122.15V131.43c0-70.9-52.35-122.16-123.24-122.16Z"/></g><g class="cls-4"><polygon class="cls-5" points="1541.96 -561.15 2882.41 1492.59 1051.16 2687.97 -289.28 634.23 1541.96 -561.15"/></g><g class="cls-6"><rect class="cls-7" x="690.15" y="110.7" width="33.81" height="1980.67"/></g><g class="cls-8"><rect class="cls-9" x="726.14" y="2093.56" width="1144.12" height="34.9"/></g><g class="cls-10"><rect class="cls-11" x="1866.99" y="70.35" width="37.08" height="2024.3"/></g><g class="cls-12"><polygon class="cls-13" points="1828.81 2125.18 1789.55 2129.55 1785.19 2094.65 1824.45 2089.19 1828.81 2125.18"/></g><g class="cls-12"><polygon class="cls-14" points="1828.81 2125.18 1790.64 2129.55 1786.28 2094.65 1824.45 2089.19 1828.81 2125.18"/></g><g class="cls-12"><polygon class="cls-15" points="1828.81 2125.18 1790.64 2129.55 1786.28 2094.65 1824.45 2089.19 1828.81 2125.18"/></g><g class="cls-12"><polygon class="cls-16" points="1828.81 2125.18 1791.73 2129.55 1787.37 2094.65 1824.45 2089.19 1828.81 2125.18"/></g><g class="cls-12"><polygon class="cls-17" points="1828.81 2125.18 1791.73 2129.55 1787.37 2094.65 1824.45 2089.19 1828.81 2125.18"/></g><g class="cls-12"><polygon class="cls-18" points="1828.81 2125.18 1792.82 2129.55 1788.46 2094.65 1824.45 2089.19 1828.81 2125.18"/></g><g class="cls-12"><polygon class="cls-19" points="1828.81 2125.18 1792.82 2129.55 1788.46 2093.55 1824.45 2089.19 1828.81 2125.18"/></g><g class="cls-12"><polygon class="cls-20" points="1828.81 2125.18 1793.91 2129.55 1789.55 2093.55 1824.45 2089.19 1828.81 2125.18"/></g><g class="cls-12"><polygon class="cls-21" points="1828.81 2125.18 1793.91 2129.55 1789.55 2093.55 1824.45 2089.19 1828.81 2125.18"/></g><g class="cls-12"><polygon class="cls-22" points="1828.81 2125.18 1793.91 2129.55 1790.64 2093.55 1824.45 2089.19 1828.81 2125.18"/></g><g class="cls-12"><polygon class="cls-23" points="1828.81 2125.18 1795 2129.55 1790.64 2093.55 1824.45 2089.19 1828.81 2125.18"/></g><g class="cls-12"><polygon class="cls-24" points="1828.81 2125.18 1795 2129.55 1791.73 2093.55 1824.45 2089.19 1828.81 2125.18"/></g><g class="cls-12"><polygon class="cls-25" points="1828.81 2125.18 1796.09 2129.55 1791.73 2093.55 1824.45 2089.19 1828.81 2125.18"/></g><g class="cls-12"><polygon class="cls-26" points="1828.81 2125.18 1796.09 2128.46 1791.73 2093.55 1824.45 2089.19 1828.81 2125.18"/></g><g class="cls-12"><polygon class="cls-27" points="1828.81 2125.18 1797.18 2128.46 1792.82 2093.55 1824.45 2089.19 1828.81 2125.18"/></g><g class="cls-12"><polygon class="cls-27" points="1828.81 2125.18 1797.18 2128.46 1792.82 2093.55 1824.45 2089.19 1828.81 2125.18"/></g><g class="cls-12"><polygon class="cls-28" points="1828.81 2125.18 1798.27 2128.46 1793.91 2093.55 1824.45 2089.19 1828.81 2125.18"/></g><g class="cls-12"><polygon class="cls-29" points="1828.81 2125.18 1798.27 2128.46 1793.91 2093.55 1824.45 2089.19 1828.81 2125.18"/></g><g class="cls-12"><polygon class="cls-30" points="1828.81 2125.18 1799.36 2128.46 1795 2093.55 1824.45 2089.19 1828.81 2125.18"/></g><g class="cls-12"><polygon class="cls-31" points="1828.81 2125.18 1800.45 2128.46 1795 2093.55 1824.45 2089.19 1828.81 2125.18"/></g><g class="cls-12"><polygon class="cls-32" points="1828.81 2125.18 1800.45 2128.46 1796.09 2093.55 1824.45 2089.19 1828.81 2125.18"/></g><g class="cls-12"><polygon class="cls-32" points="1828.81 2125.18 1800.45 2128.46 1796.09 2093.55 1824.45 2089.19 1828.81 2125.18"/></g><g class="cls-12"><polygon class="cls-33" points="1828.81 2125.18 1801.55 2128.46 1797.18 2092.47 1824.45 2089.19 1828.81 2125.18"/></g><g class="cls-12"><polygon class="cls-34" points="1828.81 2125.18 1801.55 2128.46 1797.18 2092.47 1824.45 2089.19 1828.81 2125.18"/></g><g class="cls-12"><polygon class="cls-35" points="1828.81 2125.18 1802.64 2128.46 1797.18 2092.47 1824.45 2089.19 1828.81 2125.18"/></g><g class="cls-12"><polygon class="cls-36" points="1828.81 2125.18 1802.64 2128.46 1798.27 2092.47 1824.45 2089.19 1828.81 2125.18"/></g><g class="cls-12"><polygon class="cls-37" points="1828.81 2125.18 1803.73 2128.46 1798.27 2092.47 1824.45 2089.19 1828.81 2125.18"/></g><g class="cls-12"><polygon class="cls-38" points="1828.81 2125.18 1803.73 2128.46 1799.36 2092.47 1824.45 2089.19 1828.81 2125.18"/></g><g class="cls-12"><polygon class="cls-39" points="1828.81 2125.18 1804.82 2128.46 1800.45 2092.47 1824.45 2089.19 1828.81 2125.18"/></g><g class="cls-12"><polygon class="cls-40" points="1828.81 2125.18 1804.82 2127.37 1800.45 2092.47 1824.45 2089.19 1828.81 2125.18"/></g><g class="cls-12"><polygon class="cls-41" points="1828.81 2125.18 1805.91 2127.37 1801.55 2092.47 1824.45 2089.19 1828.81 2125.18"/></g><g class="cls-12"><polygon class="cls-42" points="1828.81 2125.18 1805.91 2127.37 1801.55 2092.47 1824.45 2089.19 1828.81 2125.18"/></g><g class="cls-12"><polygon class="cls-43" points="1828.81 2125.18 1805.91 2127.37 1802.64 2092.47 1824.45 2089.19 1828.81 2125.18"/></g><g class="cls-12"><polygon class="cls-44" points="1828.81 2125.18 1807 2127.37 1802.64 2092.47 1824.45 2089.19 1828.81 2125.18"/></g><g class="cls-12"><polygon class="cls-45" points="1828.81 2125.18 1807 2127.37 1803.73 2092.47 1824.45 2089.19 1828.81 2125.18"/></g><g class="cls-12"><polygon class="cls-46" points="1828.81 2125.18 1808.09 2127.37 1803.73 2092.47 1824.45 2089.19 1828.81 2125.18"/></g><g class="cls-12"><polygon class="cls-47" points="1828.81 2125.18 1808.09 2127.37 1803.73 2092.47 1824.45 2089.19 1828.81 2125.18"/></g><g class="cls-12"><polygon class="cls-48" points="1828.81 2125.18 1809.18 2127.37 1804.82 2092.47 1824.45 2089.19 1828.81 2125.18"/></g><g class="cls-12"><polygon class="cls-49" points="1828.81 2125.18 1809.18 2127.37 1804.82 2092.47 1824.45 2089.19 1828.81 2125.18"/></g><g class="cls-12"><polygon class="cls-50" points="1828.81 2125.18 1810.27 2127.37 1805.91 2091.37 1824.45 2089.19 1828.81 2125.18"/></g><g class="cls-12"><polygon class="cls-51" points="1828.81 2125.18 1810.27 2127.37 1805.91 2091.37 1824.45 2089.19 1828.81 2125.18"/></g><g class="cls-12"><polygon class="cls-52" points="1828.81 2125.18 1811.36 2127.37 1807 2091.37 1824.45 2089.19 1828.81 2125.18"/></g><g class="cls-12"><polygon class="cls-53" points="1828.81 2125.18 1811.36 2127.37 1807 2091.37 1824.45 2089.19 1828.81 2125.18"/></g><g class="cls-12"><polygon class="cls-54" points="1828.81 2125.18 1811.36 2127.37 1808.09 2091.37 1824.45 2089.19 1828.81 2125.18"/></g><g class="cls-12"><polygon class="cls-55" points="1828.81 2125.18 1812.45 2127.37 1808.09 2091.37 1824.45 2089.19 1828.81 2125.18"/></g><g class="cls-12"><polygon class="cls-56" points="1828.81 2125.18 1812.45 2127.37 1809.18 2091.37 1824.45 2089.19 1828.81 2125.18"/></g><g class="cls-12"><polygon class="cls-57" points="1828.81 2125.18 1813.54 2126.28 1809.18 2091.37 1824.45 2089.19 1828.81 2125.18"/></g><g class="cls-12"><polygon class="cls-58" points="1828.81 2125.18 1813.54 2126.28 1809.18 2091.37 1824.45 2089.19 1828.81 2125.18"/></g><g class="cls-12"><polygon class="cls-58" points="1851.72 2113.19 1817.91 2128.46 1807 2093.55 1837.54 2080.47 1851.72 2113.19"/></g><g class="cls-12"><polygon class="cls-57" points="1851.72 2113.19 1819 2127.37 1807 2093.55 1837.54 2080.47 1851.72 2113.19"/></g><g class="cls-12"><polygon class="cls-56" points="1851.72 2113.19 1819 2127.37 1808.09 2093.55 1837.54 2080.47 1851.72 2113.19"/></g><g class="cls-12"><polygon class="cls-55" points="1851.72 2113.19 1820.09 2127.37 1808.09 2093.55 1837.54 2080.47 1851.72 2113.19"/></g><g class="cls-12"><polygon class="cls-54" points="1851.72 2113.19 1820.09 2127.37 1809.18 2093.55 1837.54 2080.47 1851.72 2113.19"/></g><g class="cls-12"><polygon class="cls-53" points="1851.72 2113.19 1821.18 2126.28 1809.18 2092.47 1837.54 2080.47 1851.72 2113.19"/></g><g class="cls-12"><polygon class="cls-52" points="1851.72 2113.19 1822.27 2126.28 1810.27 2092.47 1837.54 2080.47 1851.72 2113.19"/></g><g class="cls-12"><polygon class="cls-51" points="1851.72 2113.19 1822.27 2126.28 1810.27 2092.47 1837.54 2080.47 1851.72 2113.19"/></g><g class="cls-12"><polygon class="cls-50" points="1851.72 2113.19 1823.36 2126.28 1811.36 2092.47 1837.54 2080.47 1851.72 2113.19"/></g><g class="cls-12"><polygon class="cls-49" points="1851.72 2113.19 1823.36 2125.18 1811.36 2092.47 1837.54 2080.47 1851.72 2113.19"/></g><g class="cls-12"><polygon class="cls-48" points="1851.72 2113.19 1824.45 2125.18 1812.45 2091.37 1837.54 2080.47 1851.72 2113.19"/></g><g class="cls-12"><polygon class="cls-47" points="1851.72 2113.19 1824.45 2125.18 1812.45 2091.37 1837.54 2080.47 1851.72 2113.19"/></g><g class="cls-12"><polygon class="cls-46" points="1851.72 2113.19 1825.54 2125.18 1813.54 2091.37 1837.54 2080.47 1851.72 2113.19"/></g><g class="cls-12"><polygon class="cls-45" points="1851.72 2113.19 1826.63 2124.09 1813.54 2091.37 1837.54 2080.47 1851.72 2113.19"/></g><g class="cls-12"><polygon class="cls-44" points="1851.72 2113.19 1826.63 2124.09 1814.63 2090.28 1837.54 2080.47 1851.72 2113.19"/></g><g class="cls-12"><polygon class="cls-43" points="1851.72 2113.19 1827.72 2124.09 1814.63 2090.28 1837.54 2080.47 1851.72 2113.19"/></g><g class="cls-12"><polygon class="cls-42" points="1851.72 2113.19 1827.72 2124.09 1815.72 2090.28 1837.54 2080.47 1851.72 2113.19"/></g><g class="cls-12"><polygon class="cls-41" points="1851.72 2113.19 1828.81 2123 1815.72 2090.28 1837.54 2080.47 1851.72 2113.19"/></g><g class="cls-12"><polygon class="cls-40" points="1851.72 2113.19 1828.81 2123 1816.82 2090.28 1837.54 2080.47 1851.72 2113.19"/></g><g class="cls-12"><polygon class="cls-39" points="1851.72 2113.19 1829.9 2123 1816.82 2089.19 1837.54 2080.47 1851.72 2113.19"/></g><g class="cls-12"><polygon class="cls-38" points="1851.72 2113.19 1830.99 2123 1817.91 2089.19 1837.54 2080.47 1851.72 2113.19"/></g><g class="cls-12"><polygon class="cls-37" points="1851.72 2113.19 1832.09 2121.91 1817.91 2088.1 1837.54 2080.47 1851.72 2113.19"/></g><g class="cls-12"><polygon class="cls-36" points="1851.72 2113.19 1832.09 2121.91 1819 2088.1 1837.54 2080.47 1851.72 2113.19"/></g><g class="cls-12"><polygon class="cls-35" points="1851.72 2113.19 1833.17 2121.91 1819 2088.1 1837.54 2080.47 1851.72 2113.19"/></g><g class="cls-12"><polygon class="cls-34" points="1851.72 2113.19 1833.17 2121.91 1820.09 2088.1 1837.54 2080.47 1851.72 2113.19"/></g><g class="cls-12"><polygon class="cls-33" points="1851.72 2113.19 1834.27 2120.82 1820.09 2088.1 1837.54 2080.47 1851.72 2113.19"/></g><g class="cls-12"><polygon class="cls-32" points="1851.72 2113.19 1834.27 2120.82 1821.18 2087.01 1837.54 2080.47 1851.72 2113.19"/></g><g class="cls-12"><polygon class="cls-31" points="1851.72 2113.19 1835.36 2120.82 1821.18 2087.01 1837.54 2080.47 1851.72 2113.19"/></g><g class="cls-12"><polygon class="cls-59" points="1851.72 2113.19 1835.36 2120.82 1822.27 2087.01 1837.54 2080.47 1851.72 2113.19"/></g><g class="cls-12"><polygon class="cls-30" points="1851.72 2113.19 1836.45 2119.73 1822.27 2087.01 1837.54 2080.47 1851.72 2113.19"/></g><g class="cls-12"><polygon class="cls-29" points="1851.72 2113.19 1837.54 2119.73 1823.36 2087.01 1837.54 2080.47 1851.72 2113.19"/></g><g class="cls-12"><polygon class="cls-28" points="1851.72 2113.19 1837.54 2118.64 1823.36 2085.92 1837.54 2080.47 1851.72 2113.19"/></g><g class="cls-12"><polygon class="cls-28" points="1882.26 2088.1 1851.72 2113.19 1828.81 2085.92 1859.35 2060.84 1882.26 2088.1"/></g><g class="cls-12"><polygon class="cls-27" points="1882.26 2088.1 1852.81 2113.19 1828.81 2084.83 1859.35 2060.84 1882.26 2088.1"/></g><g class="cls-12"><polygon class="cls-26" points="1882.26 2087.01 1852.81 2112.1 1830.99 2084.83 1858.26 2059.74 1882.26 2087.01"/></g><g class="cls-12"><polygon class="cls-25" points="1882.26 2087.01 1853.9 2112.1 1830.99 2083.74 1858.26 2059.74 1882.26 2087.01"/></g><g class="cls-12"><polygon class="cls-24" points="1882.26 2087.01 1853.9 2111.01 1832.09 2083.74 1858.26 2059.74 1882.26 2087.01"/></g><g class="cls-12"><polygon class="cls-23" points="1882.26 2087.01 1854.99 2111.01 1832.09 2082.65 1858.26 2058.65 1882.26 2087.01"/></g><g class="cls-12"><polygon class="cls-22" points="1882.26 2085.92 1856.08 2109.92 1833.17 2082.65 1858.26 2058.65 1882.26 2085.92"/></g><g class="cls-12"><polygon class="cls-21" points="1883.35 2085.92 1856.08 2109.92 1834.27 2081.56 1858.26 2057.56 1883.35 2085.92"/></g><g class="cls-12"><polygon class="cls-20" points="1883.35 2085.92 1857.17 2108.82 1834.27 2081.56 1858.26 2057.56 1883.35 2085.92"/></g><g class="cls-12"><polygon class="cls-19" points="1883.35 2085.92 1858.26 2107.73 1835.36 2080.47 1858.26 2057.56 1883.35 2085.92"/></g><g class="cls-12"><polygon class="cls-18" points="1883.35 2084.83 1858.26 2107.73 1836.45 2080.47 1858.26 2056.47 1883.35 2084.83"/></g><g class="cls-12"><polygon class="cls-17" points="1883.35 2084.83 1859.35 2106.64 1836.45 2079.38 1858.26 2056.47 1883.35 2084.83"/></g><g class="cls-12"><polygon class="cls-16" points="1883.35 2084.83 1860.44 2106.64 1837.54 2078.29 1858.26 2056.47 1883.35 2084.83"/></g><g class="cls-12"><polygon class="cls-15" points="1883.35 2084.83 1860.44 2105.55 1838.63 2078.29 1858.26 2056.47 1883.35 2084.83"/></g><g class="cls-12"><polygon class="cls-14" points="1883.35 2084.83 1861.53 2105.55 1838.63 2077.2 1858.26 2055.38 1883.35 2084.83"/></g><g class="cls-12"><polygon class="cls-13" points="1884.44 2083.74 1862.62 2104.46 1839.72 2077.2 1857.17 2055.38 1884.44 2083.74"/></g><g class="cls-12"><polygon class="cls-60" points="1884.44 2083.74 1863.71 2103.37 1839.72 2076.1 1857.17 2055.38 1884.44 2083.74"/></g><g class="cls-12"><polygon class="cls-60" points="1884.44 2083.74 1863.71 2103.37 1840.81 2076.1 1857.17 2054.29 1884.44 2083.74"/></g><g class="cls-12"><polygon class="cls-61" points="1884.44 2083.74 1864.81 2102.28 1841.9 2075.01 1857.17 2054.29 1884.44 2083.74"/></g><g class="cls-12"><polygon class="cls-62" points="1884.44 2082.65 1864.81 2102.28 1841.9 2075.01 1857.17 2054.29 1884.44 2082.65"/></g><g class="cls-12"><polygon class="cls-63" points="1884.44 2082.65 1865.9 2101.19 1842.99 2073.92 1857.17 2053.2 1884.44 2082.65"/></g><g class="cls-12"><polygon class="cls-64" points="1884.44 2082.65 1866.99 2100.1 1844.08 2072.83 1857.17 2053.2 1884.44 2082.65"/></g><g class="cls-12"><polygon class="cls-65" points="1884.44 2082.65 1866.99 2100.1 1844.08 2072.83 1857.17 2053.2 1884.44 2082.65"/></g><g class="cls-12"><polygon class="cls-65" points="1885.53 2081.56 1868.08 2099.01 1845.17 2071.74 1857.17 2053.2 1885.53 2081.56"/></g><g class="cls-12"><polygon class="cls-66" points="1885.53 2081.56 1869.17 2099.01 1846.26 2070.65 1857.17 2052.11 1885.53 2081.56"/></g><g class="cls-12"><polygon class="cls-67" points="1885.53 2081.56 1869.17 2097.92 1847.35 2070.65 1857.17 2052.11 1885.53 2081.56"/></g><g class="cls-12"><polygon class="cls-68" points="1885.53 2081.56 1870.26 2097.92 1847.35 2069.56 1857.17 2052.11 1885.53 2081.56"/></g><g class="cls-12"><polygon class="cls-68" points="1901.89 2049.93 1878.98 2081.56 1850.63 2060.84 1873.53 2029.2 1901.89 2049.93"/></g><g class="cls-12"><polygon class="cls-67" points="1901.89 2049.93 1880.07 2081.56 1850.63 2060.84 1873.53 2029.2 1901.89 2049.93"/></g><g class="cls-12"><polygon class="cls-66" points="1901.89 2049.93 1880.07 2081.56 1850.63 2060.84 1873.53 2029.2 1901.89 2049.93"/></g><g class="cls-12"><polygon class="cls-66" points="1901.89 2049.93 1880.07 2080.47 1851.72 2059.74 1873.53 2029.2 1901.89 2049.93"/></g><g class="cls-12"><polygon class="cls-65" points="1901.89 2049.93 1880.07 2080.47 1851.72 2059.74 1873.53 2029.2 1901.89 2049.93"/></g><g class="cls-12"><polygon class="cls-64" points="1901.89 2049.93 1881.16 2080.47 1851.72 2059.74 1873.53 2029.2 1901.89 2049.93"/></g><g class="cls-12"><polygon class="cls-63" points="1901.89 2049.93 1881.16 2079.38 1852.81 2058.65 1873.53 2029.2 1901.89 2049.93"/></g><g class="cls-12"><polygon class="cls-62" points="1901.89 2049.93 1881.16 2079.38 1852.81 2058.65 1873.53 2029.2 1901.89 2049.93"/></g><g class="cls-12"><polygon class="cls-61" points="1901.89 2049.93 1882.26 2078.29 1852.81 2057.56 1873.53 2029.2 1901.89 2049.93"/></g><g class="cls-12"><polygon class="cls-61" points="1901.89 2049.93 1882.26 2078.29 1852.81 2057.56 1873.53 2029.2 1901.89 2049.93"/></g><g class="cls-12"><polygon class="cls-60" points="1901.89 2049.93 1882.26 2078.29 1853.9 2057.56 1872.44 2029.2 1901.89 2049.93"/></g><g class="cls-12"><polygon class="cls-13" points="1901.89 2049.93 1882.26 2077.2 1853.9 2056.47 1872.44 2029.2 1901.89 2049.93"/></g><g class="cls-12"><polygon class="cls-14" points="1901.89 2049.93 1883.35 2077.2 1853.9 2056.47 1872.44 2029.2 1901.89 2049.93"/></g><g class="cls-12"><polygon class="cls-15" points="1901.89 2049.93 1883.35 2077.2 1854.99 2056.47 1872.44 2029.2 1901.89 2049.93"/></g><g class="cls-12"><polygon class="cls-16" points="1901.89 2049.93 1883.35 2076.1 1854.99 2056.47 1872.44 2029.2 1901.89 2049.93"/></g><g class="cls-12"><polygon class="cls-17" points="1901.89 2049.93 1883.35 2076.1 1854.99 2055.38 1872.44 2029.2 1901.89 2049.93"/></g><g class="cls-12"><polygon class="cls-18" points="1901.89 2049.93 1884.44 2075.01 1854.99 2055.38 1872.44 2029.2 1901.89 2049.93"/></g><g class="cls-12"><polygon class="cls-19" points="1901.89 2049.93 1884.44 2075.01 1856.08 2055.38 1872.44 2029.2 1901.89 2049.93"/></g><g class="cls-12"><polygon class="cls-20" points="1901.89 2049.93 1884.44 2075.01 1856.08 2054.29 1872.44 2029.2 1901.89 2049.93"/></g><g class="cls-12"><polygon class="cls-21" points="1901.89 2049.93 1885.53 2073.92 1856.08 2054.29 1872.44 2029.2 1901.89 2049.93"/></g><g class="cls-12"><polygon class="cls-22" points="1901.89 2049.93 1885.53 2072.83 1856.08 2054.29 1872.44 2029.2 1901.89 2049.93"/></g><g class="cls-12"><polygon class="cls-23" points="1901.89 2049.93 1885.53 2072.83 1857.17 2053.2 1872.44 2029.2 1901.89 2049.93"/></g><g class="cls-12"><polygon class="cls-24" points="1901.89 2049.93 1885.53 2072.83 1857.17 2053.2 1872.44 2029.2 1901.89 2049.93"/></g><g class="cls-12"><polygon class="cls-25" points="1902.98 2049.93 1886.62 2071.74 1857.17 2053.2 1872.44 2029.2 1902.98 2049.93"/></g><g class="cls-12"><polygon class="cls-26" points="1902.98 2049.93 1886.62 2071.74 1858.26 2053.2 1872.44 2029.2 1902.98 2049.93"/></g><g class="cls-12"><polygon class="cls-27" points="1902.98 2049.93 1886.62 2071.74 1858.26 2052.11 1872.44 2029.2 1902.98 2049.93"/></g><g class="cls-12"><polygon class="cls-28" points="1902.98 2049.93 1886.62 2070.65 1858.26 2052.11 1872.44 2029.2 1902.98 2049.93"/></g><g class="cls-12"><polygon class="cls-29" points="1902.98 2049.93 1887.71 2070.65 1858.26 2052.11 1872.44 2029.2 1902.98 2049.93"/></g><g class="cls-12"><polygon class="cls-30" points="1902.98 2049.93 1887.71 2069.56 1859.35 2051.02 1872.44 2029.2 1902.98 2049.93"/></g><g class="cls-12"><polygon class="cls-59" points="1902.98 2049.93 1887.71 2069.56 1859.35 2051.02 1872.44 2029.2 1902.98 2049.93"/></g><g class="cls-12"><polygon class="cls-31" points="1902.98 2049.93 1887.71 2069.56 1859.35 2051.02 1872.44 2028.12 1902.98 2049.93"/></g><g class="cls-12"><polygon class="cls-32" points="1902.98 2049.93 1888.8 2068.47 1860.44 2049.93 1871.35 2028.12 1902.98 2049.93"/></g><g class="cls-12"><polygon class="cls-33" points="1902.98 2049.93 1888.8 2068.47 1860.44 2049.93 1871.35 2028.12 1902.98 2049.93"/></g><g class="cls-12"><polygon class="cls-34" points="1902.98 2049.93 1888.8 2068.47 1860.44 2049.93 1871.35 2028.12 1902.98 2049.93"/></g><g class="cls-12"><polygon class="cls-35" points="1902.98 2049.93 1889.89 2067.38 1860.44 2049.93 1871.35 2028.12 1902.98 2049.93"/></g><g class="cls-12"><polygon class="cls-36" points="1902.98 2049.93 1889.89 2067.38 1861.53 2048.84 1871.35 2028.12 1902.98 2049.93"/></g><g class="cls-12"><polygon class="cls-37" points="1902.98 2049.93 1889.89 2066.29 1861.53 2048.84 1871.35 2028.12 1902.98 2049.93"/></g><g class="cls-12"><polygon class="cls-38" points="1902.98 2049.93 1889.89 2066.29 1862.62 2048.84 1871.35 2028.12 1902.98 2049.93"/></g><g class="cls-12"><polygon class="cls-39" points="1902.98 2049.93 1890.98 2066.29 1862.62 2047.75 1871.35 2028.12 1902.98 2049.93"/></g><g class="cls-12"><polygon class="cls-40" points="1902.98 2049.93 1890.98 2065.2 1862.62 2047.75 1871.35 2028.12 1902.98 2049.93"/></g><g class="cls-12"><polygon class="cls-41" points="1902.98 2049.93 1890.98 2065.2 1863.71 2047.75 1871.35 2028.12 1902.98 2049.93"/></g><g class="cls-12"><polygon class="cls-42" points="1902.98 2049.93 1890.98 2065.2 1863.71 2046.66 1871.35 2028.12 1902.98 2049.93"/></g><g class="cls-12"><polygon class="cls-43" points="1902.98 2049.93 1892.07 2064.11 1863.71 2046.66 1871.35 2028.12 1902.98 2049.93"/></g><g class="cls-12"><polygon class="cls-44" points="1902.98 2049.93 1892.07 2064.11 1863.71 2046.66 1871.35 2028.12 1902.98 2049.93"/></g><g class="cls-12"><polygon class="cls-45" points="1902.98 2049.93 1893.16 2063.02 1864.81 2046.66 1871.35 2028.12 1902.98 2049.93"/></g><g class="cls-12"><polygon class="cls-46" points="1902.98 2049.93 1893.16 2063.02 1864.81 2045.57 1871.35 2028.12 1902.98 2049.93"/></g><g class="cls-12"><polygon class="cls-47" points="1902.98 2049.93 1893.16 2063.02 1864.81 2045.57 1871.35 2028.12 1902.98 2049.93"/></g><g class="cls-12"><polygon class="cls-48" points="1902.98 2049.93 1894.25 2061.93 1865.9 2045.57 1871.35 2028.12 1902.98 2049.93"/></g><g class="cls-69"><rect class="cls-70" x="702.14" y="1.64" width="1188.84" height="64.35"/></g><g class="cls-71"><polygon class="cls-72" points="1080.61 -454.27 2779.88 669.13 1513.61 2585.45 -185.67 1462.05 1080.61 -454.27"/></g><g class="cls-73"><path class="cls-74" d="M1784.09,2087H816.66c-53.44,0-94.88-24-94.88-78.53V124.88c0-51.26,46.89-91.61,94.88-91.61h967.43c52.36,0,80.71,33.81,80.71,91.61v1883.6c0,53.45-22.9,78.53-80.71,78.53M781.76,2007.39s0,34.9,32.72,34.9h969.61c33.82,0,33.82-34.9,33.82-34.9V1707.46H781.76v299.93ZM1817.91,123.79V427H781.76V124.88s0-32.72,32.72-32.72h969.61c34.91,0,33.82,31.63,33.82,31.63m0,1552H781.76V458.63H1817.91ZM1135.14,155.42c69.81,0,114.52,49.08,114.52,108,0,56.71-42.53,108-115.61,108-69.8,0-113.43-51.27-113.43-108,1.09-58.9,45.81-108,114.52-108m0,187.6c48,0,82.89-34.9,82.89-80.71,0-46.9-34.9-80.71-82.89-80.71s-82.89,33.81-82.89,80.71,36,80.71,82.89,80.71M897.37,157.6c42.54,0,69.81,22.91,69.81,58.9,0,24-13.09,42.54-36,51.26,19.64,12,31.63,32.72,48,57.81,8.73,14.18,14.18,21.81,28.36,41.44H970.45l-28.36-42.53c-28.36-42.54-40.35-48-56.71-48H872.29V367H841.75V157.6Zm-22.9,91.62H894.1c32.72,0,42.54-16.36,41.45-34.9-1.09-19.63-12-31.63-41.45-31.63H874.47ZM1506,340.84h88.35L1590,368.1H1474.34V157.6h30.54V340.84Zm-175.6,0h94.89l-4.36,27.26H1299.83V157.6h30.54ZM1747,204.5c-19.63-17.45-37.08-21.81-52.35-21.81-20.72,0-36,9.81-36,25.08,0,40.36,97.07,39.27,97.07,106.89,0,32.72-26.18,56.72-63.26,56.72-24,0-42.54-5.46-67.62-22.91l5.45-34.9c16.36,19.63,37.08,30.54,58.9,30.54,25.08,0,36-14.18,36-26.18,0-43.62-97.07-49.08-97.07-105.79,0-33.81,27.26-55.63,67.62-55.63,17.45,0,33.81,4.37,54.53,17.45Zm9.82,1590.21H1666.3v64.35h87.26v27.27H1666.3v66.53h93.8v27.26H1635.76V1767.44h121.07Zm-163.6,20.72c-26.18-15.27-49.08-21.81-73.08-21.81-49.08,0-85.07,34.9-85.07,81.8,0,48,34.9,80.71,86.16,80.71,24,0,50.17-8.73,74.17-24V1966c-20.73,10.9-43.63,18.54-77.44,18.54-80.71,0-115.61-62.17-115.61-105.8,0-65.44,49.08-112.34,116.7-112.34,21.81,0,43.63,5.46,73.08,17.45v31.63Zm-218.14-48h37.08l-79.62,100.35v112.33H1302V1866.69l-79.62-100.34h37.08l56.71,73.08Zm-259.58-3.27c70.89,0,114.52,50.17,114.52,110.16,0,57.81-42.54,110.16-115.61,110.16-69.8,0-113.43-51.26-113.43-110.16s45.81-110.16,114.52-110.16m0,190.87c48,0,82.89-34.9,82.89-81.8s-36-81.8-82.89-81.8c-48,0-82.89,34.9-82.89,81.8,0,48,36,81.8,82.89,81.8m-218.14-187.6c42.54,0,69.81,22.91,69.81,60,0,25.09-13.09,42.54-36,52.35,19.64,13.09,31.63,32.72,48,58.9,8.73,14.18,14.18,21.81,28.36,42.54H970.45l-28.36-43.63c-28.36-43.63-41.44-49.08-56.71-49.08H872.29v92.71H841.75V1768.53h54.53v-1.09Zm-22.9,92.71H894.1c32.72,0,42.54-17.45,41.45-34.9,0-19.63-12-32.72-41.45-32.72H874.47ZM927.91,1461V590.6s3.28-49.08-24-65.44v-6.54h335.93c28.35,0,65.44,3.27,87.25,7.63,84,17.45,150.51,66.53,182.14,162.51,26.18,77.44,13.09,174.51-42.53,250.86-13.09,18.54-48,56.71-88.35,86.16-7.63,5.46-12,7.64-19.63,13.09,50.17,80.71,75.26,126.52,106.89,214.86,28.35,76.35,49.08,178.87,52.35,202.87,6.54,56.71,24,63.26,27.27,64.35v6.54H1344.55V1522c6.55-3.27,60-26.18,60-112.34,0-62.17-14.18-130.88-42.54-208.32-12-34.9-37.08-89.43-60-132l-1.1-1.09c-26.17,12-82.89,28.36-118.88,36-26.18,5.45-52.35,8.73-85.07,12-28.36,3.27-55.63,5.45-73.08,6.54V1461c0,7.64,2.18,46.9,27.27,61.08v6.54H896.28v-5.45c29.45-14.18,31.63-55.62,31.63-62.17m316.3-884.54-20.72-1.09H1027.16v484.26c19.64-1.09,91.62-6.54,139.61-20.72C1326,992,1401.27,880.72,1402.36,750.93c1.09-75.26-26.18-122.15-55.63-147.24-18.54-15.27-43.62-22.9-61.07-25.09-10.91-2.18-33.82-2.18-41.45-2.18m-20.72,534.43v51.27c14.18-1.09,61.07-4.37,103.61-12,9.82,21.81,17.45,41.44,24,57.81l1.09,2.18c-17.45,3.27-36,5.45-55.63,7.63-28.36,3.27-55.62,5.45-70.89,6.55v330.47c0,7.64,2.18,46.9,27.26,60v6.54H1102.42v-7.63c24-13.09,27.27-52.36,27.27-60V1129.4c29.45-5.46,64.35-12,93.8-18.55m199.59,6.55C1536.51,1062.87,1590,968,1591,858.91c1.1-74.17-25.08-120-54.53-144-2.18-2.18-3.27-3.27-5.45-4.36q-3.27-13.1-6.55-26.18a275.79,275.79,0,0,0-20.72-48c5.45,1.09,9.82,2.18,14.18,3.27,81.8,17.45,147.24,65.44,178.87,159.24,25.09,76.35,13.09,170.15-41.45,246.49-13.08,18.55-46.89,55.63-86.16,84a177.64,177.64,0,0,1-18.54,12c49.08,79.62,73.08,124.34,104.7,210.5,27.27,75.26,48,175.6,51.27,198.51,6.54,55.62,24,60,27.26,62.17v6.54H1537.6v-6.54c6.55-3.28,58.9-25.09,58.9-108,0-61.08-14.18-128.7-41.45-204-12-33.81-36-88.34-57.8-129.79l-1.09-1.09a278.51,278.51,0,0,1-40.36,14.18c-9.82-24-20.72-44.72-32.72-66.53m-43.63-430.82h-156V1000.7c-18.54,8.72-39.27,17.45-62.17,22.9a292.73,292.73,0,0,1-36,8.73V699.67s3.27-48-24-64.35v-6.54H1350c13.08,16.36,22.9,34.9,29.44,57.8m467.9,1321.9V124.88c0-32.72-22.9-61.08-63.26-61.08H814.48c-32.72,0-62.17,28.36-62.17,61.08v1883.6c0,33.81,26.18,65.44,62.17,65.44h969.61c33.82-1.09,63.26-24,63.26-65.44"/></g><g class="cls-73"><path class="cls-75" d="M1780.82,2100.1H813.39c-53.44,0-94.89-39.26-94.89-94.89V120.52c0-51.26,46.9-91.62,94.89-91.62h967.43c52.36,0,93.8,33.81,93.8,91.62v1883.6c0,55.62-34.9,96-93.8,96M778.49,2005.21s0,34.9,32.72,34.9h969.61c33.81,0,33.81-34.9,33.81-34.9V1705.27H778.49ZM1815.72,121.61V424.82H779.58V122.7S779.58,90,812.3,90h969.61c34.91,0,33.81,31.63,33.81,31.63m0,1550.94H779.58V455.36H1815.72ZM1133,152.15c69.8,0,114.52,49.08,114.52,108,0,56.71-42.53,108-115.61,108-69.8,0-113.43-51.26-113.43-108,0-57.81,45.81-108,114.52-108m0,187.6c48,0,82.89-34.91,82.89-80.71,0-46.9-34.9-80.71-82.89-80.71s-82.89,33.81-82.89,80.71,34.9,80.71,82.89,80.71M895.19,155.42c42.54,0,69.81,22.91,69.81,58.9,0,24-13.09,42.53-36,51.26,19.64,12,31.63,32.72,48,57.81,8.73,14.17,14.18,21.81,28.36,41.44H968.27L939.91,322.3c-28.36-42.54-40.35-48-56.71-48H870.11v90.52H840.66V155.42ZM871.2,247h19.63c32.72,0,42.54-16.36,41.45-34.9-1.1-19.64-12-31.63-41.45-31.63H871.2Zm631.5,91.62h88.35l-4.37,27.26H1472.16V155.42h30.54Zm-175.6,0H1422l-4.36,27.26H1296.56V155.42h30.54Zm416.64-137.43c-19.63-17.45-37.08-21.81-52.35-21.81-20.73,0-36,9.81-36,25.08,0,40.36,97.08,39.27,97.08,106.89,0,32.72-26.18,56.71-63.26,56.71-24,0-42.54-5.45-67.63-22.9l5.46-34.9c16.36,19.63,37.08,30.54,58.89,30.54,25.09,0,36-14.18,36-26.18,0-43.63-97.07-49.08-97.07-105.8,0-34.9,27.26-55.62,67.62-55.62,17.45,0,33.81,4.36,54.53,17.45Zm10.91,1590.21h-90.53v64.35h87.25v27.26h-87.25v66.54h93.8v27.26H1633.58V1764.17h121.07v27.27ZM1591,1812.16c-26.17-15.27-49.08-21.81-73.07-21.81-49.08,0-85.07,34.9-85.07,81.8,0,48,34.9,80.71,86.16,80.71,24,0,50.17-8.73,74.17-24v33.81c-20.73,10.91-43.63,18.55-77.44,18.55-80.71,0-115.61-62.17-115.61-105.8,0-65.44,49.08-112.34,116.7-112.34,21.81,0,43.63,5.45,73.07,17.45v31.63Zm-219.22-48h37.08l-79.62,100.34v112.34h-30.54V1864.51l-79.62-100.34h37.09l56.71,73.08ZM1113.33,1762c70.89,0,114.52,50.17,114.52,110.16,0,57.8-42.54,110.16-115.61,110.16-69.81,0-113.43-51.27-113.43-110.16-1.09-60,44.71-110.16,114.52-110.16m0,190.87c48,0,82.89-34.9,82.89-81.8s-36-81.8-82.89-81.8c-48,0-82.89,34.9-82.89,81.8s34.9,81.8,82.89,81.8M895.19,1764.17c42.54,0,69.81,22.91,69.81,60,0,25.08-13.09,42.53-36,52.35,19.64,13.09,31.63,32.72,48,58.9,8.73,14.18,14.18,21.81,28.36,42.53H968.27l-28.36-43.62c-28.36-43.63-41.45-49.08-56.71-49.08H870.11v92.7H840.66V1763.08h54.53Zm-24,92.71h19.63c32.72,0,42.54-17.45,41.45-34.9,0-19.64-12-32.72-41.45-32.72H871.2Zm53.44-399.19V587.33s3.27-49.08-24-65.44v-6.55h335.92c28.36,0,65.45,3.28,87.26,7.64,84,17.45,150.51,66.53,182.14,162.51,26.18,77.44,13.09,174.51-42.53,250.86-13.09,18.54-48,56.71-88.35,86.16-7.63,5.45-12,7.63-19.63,13.09,50.17,80.71,75.26,126.52,106.89,214.86,28.35,76.35,49.08,178.87,52.35,202.87,6.54,56.71,24,63.26,27.26,64.35v6.54H1341.28v-6.54c6.54-3.27,60-26.18,60-112.34,0-62.17-14.18-130.88-42.54-208.32-12-34.9-37.08-89.44-60-132l-1.09-1.09c-26.17,12-82.89,28.35-118.88,36-26.18,5.45-52.35,8.72-85.07,12-28.36,3.27-55.63,5.45-73.08,6.54V1456.6c0,7.63,2.18,46.9,27.27,61.08v6.54H893v-6.54c29.45-12,31.63-52.35,31.63-60M1242,574.24l-20.72-1.09H1025v484.26c19.64-1.09,91.62-6.54,139.61-20.72,159.24-46.9,234.5-158.15,235.59-287.94,1.09-75.26-26.18-122.16-55.63-147.24-18.54-15.27-43.63-22.91-61.08-25.09-12-2.18-33.81-2.18-41.44-2.18m-20.72,533.34v51.26c14.17-1.09,61.07-4.36,103.61-12,9.82,21.81,17.45,41.44,24,57.8l1.1,2.18c-17.46,3.28-36,5.46-55.63,7.64-28.36,3.27-55.62,5.45-70.89,6.54V1550.4c0,7.63,2.18,46.9,27.26,58.89v6.55H1100.24v-6.55c24-13.08,27.27-52.35,27.27-58.89V1126.12c28.35-4.36,63.26-10.9,93.8-18.54m199.59,6.55c113.43-54.54,166.87-149.43,168-258.49,1.09-74.17-25.08-120-54.53-144-2.18-2.18-3.27-3.28-5.45-4.37q-3.29-13.08-6.55-26.17c-5.45-17.45-13.09-33.81-20.72-48,5.45,1.09,9.82,2.18,14.18,3.27,81.8,17.45,147.24,65.44,178.87,159.24,25.08,76.35,13.09,170.14-41.45,246.49-13.08,18.54-46.9,55.63-86.16,84a176.16,176.16,0,0,1-18.54,12c49.08,79.62,73.07,124.34,104.7,210.5,27.27,75.26,48,175.6,51.27,198.51,6.54,55.62,24,60,27.26,62.16v6.55H1535.42v-6.55c6.54-3.27,58.9-25.08,58.9-108,0-61.08-14.18-128.7-41.45-204-12-33.81-36-88.34-57.8-129.79l-1.1-1.09a277.89,277.89,0,0,1-40.35,14.18c-10.91-22.91-20.72-44.72-32.72-66.53M1376.18,684.4h-156V998.52c-18.54,8.72-39.26,17.45-62.16,22.9a290.71,290.71,0,0,1-36,8.72V697.49s3.28-48-24-64.35v-5.46h248.67c13.09,14.18,24,32.73,29.45,56.72m467.9,1320.81V122.7c0-32.72-22.9-61.08-63.26-61.08H811.21C778.49,61.62,749,90,749,122.7V2006.3c0,33.81,26.18,65.44,62.17,65.44h969.61c33.81-1.09,63.26-24,63.26-66.53"/></g><g class="cls-76"><polygon class="cls-77" points="1138.41 -525.16 2869.32 779.29 1455.8 2655.25 -275.1 1350.8 1138.41 -525.16"/></g></svg>