<?xml version="1.0" encoding="utf-8"?>
<!-- Generator: Adobe Illustrator 24.2.1, SVG Export Plug-In . SVG Version: 6.00 Build 0)  -->
<svg version="1.1" id="Layer_1" xmlns="http://www.w3.org/2000/svg" xmlns:xlink="http://www.w3.org/1999/xlink" x="0px" y="0px"
	 viewBox="0 0 2500 2141" style="enable-background:new 0 0 2500 2141;" xml:space="preserve">
<style type="text/css">
	.st0{fill-rule:evenodd;clip-rule:evenodd;fill:#002D65;}
	.st1{fill-rule:evenodd;clip-rule:evenodd;fill:#DBDCDD;}
	.st2{fill-rule:evenodd;clip-rule:evenodd;fill:#E6B239;}
	.st3{fill-rule:evenodd;clip-rule:evenodd;fill:#CD1141;}
</style>
<g>
	<path class="st0" d="M2321.1,1070.5C2321.1,479.9,1841.2,0,1250.6,0S180.1,478.8,180.1,1070.5S660,2141,1250.6,2141
		S2321.1,1662.2,2321.1,1070.5L2321.1,1070.5z"/>
	<path class="st1" d="M1249.4,76.9c546.3,0,993.6,445,993.6,993.6c0,546.3-447.3,993.6-993.6,993.6
		c-547.5,0-993.6-447.3-993.6-993.6C257,521.9,701.9,76.9,1249.4,76.9L1249.4,76.9z"/>
	<path class="st0" d="M2206.9,1070.5c0-530-428.7-956.3-956.3-956.3s-957.5,427.5-957.5,956.3c0,527.7,428.7,956.3,956.3,956.3
		S2206.9,1597,2206.9,1070.5L2206.9,1070.5z"/>
	<path class="st1" d="M735.7,673.3c19.8,18.6,52.4,52.4,100.2,52.4c50.1,0,86.2-18.6,121.1-18.6c24.5,0,68.7,14,89.7,57.1
		c-11.6-9.3-33.8-19.8-73.4-19.8c-28,0-75.7,28-116.5,28C792.8,771.1,756.7,718.7,735.7,673.3L735.7,673.3z"/>
	<path class="st2" d="M1082.8,492.7L968.7,227.1c47.8,0,95.5,19.8,95.5,59.4c0,11.6-4.7,24.5-14,38.4c0,2.3,0,2.3,2.3,2.3l0,0
		c9.3-9.3,19.8-16.3,33.8-16.3c24.5,0,43.1,19.8,43.1,45.4c0,23.3-18.6,43.1-43.1,43.1c-2.3,0-7,0-9.3,0c2.3,9.3,33.8,28,71.1,28
		c28,0,59.4-11.6,76.9-47.8c-7,7-18.6,9.3-28,9.3c-24.5,0-45.4-18.6-45.4-43.1c0-24.5,19.8-45.4,45.4-45.4c9.3,0,18.6,2.3,24.5,7
		c-9.3-7-16.3-18.6-16.3-32.6c0-23.3,19.8-43.1,45.4-43.1c24.5,0,45.4,19.8,45.4,43.1c0,11.6-4.7,23.3-14,29.1
		c7-2.3,14-4.7,19.8-4.7c24.5,0,45.4,19.8,45.4,45.4c0,24.5-19.8,43.1-45.4,43.1c-11.6,0-19.8-4.7-29.1-9.3
		c7,18.6,40.8,50.1,81.5,50.1c23.3,0,47.8-9.3,71.1-29.1c-2.3,0-4.7,0-7,0c-28,0-47.8-19.8-47.8-43.1c0-24.5,19.8-45.4,47.8-45.4
		c11.6,0,23.3,7,32.6,16.3c0,0,0,0,2.3,0c0,0,2.3,0,2.3-2.3c-11.6-14-16.3-28-16.3-38.4c0-38.4,47.8-59.4,94.4-59.4l-109.5,262.1
		h-327.3C1092.2,490.4,1087.5,490.4,1082.8,492.7L1082.8,492.7z"/>
	<path class="st1" d="M1049.1,549.8c4.7-28,24.5-59.4,47.8-59.4h330.8c7,7,14,16.3,19.8,24.5c23.3-9.3,45.4-11.6,64.1-11.6
		c16.3,0,28,2.3,29.1,2.3c0,0,14,2.3,16.3,7c-16.3,37.3-28,57.1-40.8,75.7c57.1,59.4,80.4,132.8,68.7,226
		c-16.3-9.3-47.8-23.3-66.4-28c29.1,45.4,38.4,86.2,38.4,132.8c0,32.6-7,66.4-19.8,97.8l-9.3,24.5c-18.6-24.5-32.6-43.1-52.4-59.4
		c4.7,16.3,11.6,50.1,11.6,73.4c0,61.7-24.5,116.5-81.5,152.6c-11.6-29.1-33.8-73.4-57.1-100.2c2.3,57.1,0,123.5-23.3,166.6
		c-43.1,57.1-102.5,90.9-195.7,114.2c16.3-38.4,29.1-142.1,23.3-265.6c-18.6,28-38.4,80.4-45.4,146.8
		c-23.3-18.6-90.9-68.7-90.9-157.3c0-37.3,14-73.4,37.3-109.5c-32.6,14-54.7,33.8-76.9,80.4c-7-64.1,4.7-132.8,37.3-182.9
		c-81.5-2.3-104.8-50.1-100.2-123.5c23.3,19.8,47.8,33.8,81.5,33.8s76.9-14,121.1-71.1c-19.8-11.6-38.4-18.6-52.4-23.3
		c-16.3-4.7-40.8-9.3-66.4-40.8c-9.3-11.6-24.5-14-43.1-14c-23.3,0-57.1,4.7-109.5,32.6c7-132.8,71.1-173.6,121.1-173.6
		C987.3,521.9,1016.4,531.2,1049.1,549.8L1049.1,549.8z"/>
	<path class="st1" d="M775.3,1438.6c85,0,161.9,14,161.9,85H823.1c0-29.1-19.8-33.8-47.8-33.8c-24.5,0-43.1,7-43.1,24.5
		c0,17.5,16.3,28,57.1,28c102.5,0,147.9,18.6,157.3,66.4l66.4-164.2h147.9l71.1,175.9l73.4-175.9h146.8l81.5,194.5v-194.5h235.3
		c59.4,0,73.4,40.8,73.4,66.4c0,23.3-9.3,54.7-54.7,61.7c52.4,4.7,64.1,43.1,64.1,66.4c0,28-19.8,71.1-71.1,71.1h-319.2l-16.3-40.8
		h-130.5L1296,1710h-124.6l-18.6-40.8h-130.5l-18.6,40.8H903.5l9.3-23.3c-16.3,14-43.1,29.1-134,29.1c-86.2,0-164.2-18.6-166.6-89.7
		h116.5c0,16.3,11.6,33.8,47.8,33.8c45.4,0,50.1-14,50.1-24.5c0-16.3-11.6-29.1-66.4-29.1c-80.4,0-137.5-14-137.5-76.9
		C621.6,1453.7,706.6,1438.6,775.3,1438.6L775.3,1438.6z M1339.1,1605.2h80.4l-40.8-97.8L1339.1,1605.2L1339.1,1605.2z
		 M1046.7,1605.2h80.4l-41.9-99L1046.7,1605.2L1046.7,1605.2z M1713,1544.6c9.3,0,18.6-9.3,18.6-19.8c0-9.3-9.3-18.6-18.6-18.6
		h-83.9v38.4H1713L1713,1544.6z M1629.2,1638.9h89.7c11.6,0,19.8-9.3,19.8-18.6c0-11.6-9.3-18.6-19.8-18.6h-89.7V1638.9
		L1629.2,1638.9z"/>
	<path class="st3" d="M1146.9,590.6c0,9.3-11.6,23.3-32.6,23.3c-18.6,0-28-11.6-29.1-19.8c-4.7,0-9.3,0-14-2.3
		c0,32.6,23.3,40.8,45.4,40.8c16.3,0,40.8-4.7,47.8-40.8C1160.9,590.6,1153.9,590.6,1146.9,590.6L1146.9,590.6z"/>
	<path class="st3" d="M1046.7,582.4c-32.6-18.6-61.7-29.1-85-29.1c-54.7,0-76.9,61.7-86.2,95.5c29.1-9.3,54.7-14,75.7-14
		c29.1,0,50.1,7,66.4,24.5c16.3,23.3,37.3,28,43.1,28c29.1,9.3,81.5,28,81.5,52.4c0,4.7,0,11.6-7,18.6c-52.4,66.4-100.2,85-142.1,85
		c-19.8,0-37.3-4.7-50.1-9.3c11.6,32.6,43.1,38.4,68.7,38.4c19.8,0,38.4-2.3,76.9-11.6c-40.8,32.6-75.7,73.4-85,137.5
		c37.3-28,75.7-33.8,116.5-33.8c-47.8,50.1-75.7,100.2-75.7,151.4c0,52.4,23.3,81.5,38.4,100.2c18.6-85,61.7-137.5,89.7-164.2
		c16.3,118.8,7,246.9-2.3,297c50.1-18.6,94.4-40.8,128.1-86.2c19.8-33.8,23.3-134,16.3-216.7c43.1,28,81.5,76.9,100.2,118.8
		c24.5-24.5,38.4-59.4,38.4-104.8c0-50.1-16.3-95.5-32.6-130.5c37.3,11.6,68.7,28,94.4,57.1c7-23.3,11.6-43.1,11.6-66.4
		c0-80.4-43.1-137.5-73.4-166.6c47.8,0,75.7,9.3,102.5,18.6c2.3-50.1-11.6-109.5-57.1-157.3c-40.8,47.8-80.4,75.7-157.3,102.5
		c68.7,52.4,47.8,132.8-16.3,212c-7-33.8-16.3-64.1-38.4-89.7c4.7,43.1-7,123.5-95.5,166.6c2.3-33.8-2.3-64.1-9.3-94.4
		c-7,7-18.6,16.3-29.1,24.5c-2.3-9.3-4.7-24.5-2.3-37.3c16.3-14,29.1-32.6,45.4-50.1c14,33.8,19.8,80.4,23.3,100.2
		c32.6-29.1,57.1-85,24.5-182.9c47.8,24.5,73.4,50.1,90.9,90.9c50.1-85-2.3-128.1-80.4-157.3c90.9-11.6,203.8-52.4,260.9-166.6
		c-38.4-2.3-97.8,11.6-154.9,85c-7-4.7-16.3-11.6-18.6-18.6c23.3-32.6,50.1-57.1,80.4-73.4c-2.3-4.7-4.7-9.3-7-9.3h-318
		c-11.6,0-23.3,19.8-28,43.1c7,2.3,18.6,2.3,29.1,2.3c11.6,0,23.3,0,37.3,0c23.3,0,57.1,2.3,76.9,16.3c-2.3,9.3-7,16.3-11.6,19.8
		c-4.7-2.3-9.3-2.3-14-4.7c-11.6,52.4-47.8,64.1-73.4,64.1C1053.7,659.3,1042.1,609.2,1046.7,582.4L1046.7,582.4z"/>
</g>
</svg>
