<?xml version="1.0" encoding="utf-8"?>
<!-- Generator: Adobe Illustrator 24.2.1, SVG Export Plug-In . SVG Version: 6.00 Build 0)  -->
<svg version="1.1" id="Layer_1" xmlns="http://www.w3.org/2000/svg" xmlns:xlink="http://www.w3.org/1999/xlink" x="0px" y="0px"
	 viewBox="0 0 2500 2141" style="enable-background:new 0 0 2500 2141;" xml:space="preserve">
<style type="text/css">
	.st0{fill:#ED1C24;}
	.st1{fill:#FFFFFF;}
	.st2{fill:#231F20;}
	.st3{fill:url(#SVGID_1_);}
	.st4{fill:url(#SVGID_2_);}
	.st5{fill:url(#SVGID_3_);}
	.st6{fill:url(#SVGID_4_);}
	.st7{fill:url(#SVGID_5_);}
	.st8{fill:url(#SVGID_6_);}
	.st9{fill:url(#SVGID_7_);}
	.st10{fill:#A6A8AB;}
	.st11{fill:url(#SVGID_8_);}
	.st12{fill:#929497;}
	.st13{fill:url(#SVGID_9_);}
	.st14{fill:url(#SVGID_10_);}
	.st15{fill:url(#SVGID_11_);}
	.st16{fill:url(#SVGID_12_);}
	.st17{fill:url(#SVGID_13_);}
	.st18{fill:url(#SVGID_14_);}
	.st19{fill:url(#SVGID_15_);}
	.st20{fill:url(#SVGID_16_);}
	.st21{fill:url(#SVGID_17_);}
	.st22{opacity:0.1;fill:url(#SVGID_18_);enable-background:new    ;}
	.st23{fill:#808184;}
	.st24{fill:#404041;}
</style>
<g>
	<g>
		<g>
			<g>
				<g>
					<path class="st0" d="M1777.5,1786.1v108.5H1433v-29.8c0-47.7,8.3-78.7,63.2-78.7H1777.5z M1474.7,1719.4
						c-90.6,0-132.3,47.7-132.3,125.2v217h90.6v-100.1h344.5v100.1h90.6v-342.2H1474.7L1474.7,1719.4z M1980.2,1719.4v66.8h213.4
						v275.4h90.6v-275.4h213.4v-66.8H1980.2z M761.8,1930.4c0,47.7,9.5,65.6,63.2,65.6h377.9v66.8H803.5
						c-90.6,0-132.3-40.5-132.3-118v-225.3h531.7v66.8H761.8v68H1185v65.6H761.8V1930.4L761.8,1930.4z M114.4,1838.6
						c-27.4-2.4-33.4-11.9-33.4-28.6c0-15.5,8.3-23.8,29.8-23.8h417.3v-65.6h-428c-60.8,0-102.5,23.8-102.5,91.8s31,91.8,100.1,97.8
						l338.6,28.6c26.2,2.4,33.4,10.7,33.4,29.8c0,17.9-8.3,28.6-31,28.6H14.3v66.8h432.8c75.1,0,107.3-29.8,107.3-100.1
						c0-64.4-29.8-89.4-102.5-95.4L114.4,1838.6z"/>
				</g>
			</g>
		</g>
		<g>
			<g>
				<g>
					<path class="st1" d="M1975.4,828.8L518.6,570.1c0,0,3.6-163.3,7.2-250.4s21.5-139.5,56-170.5c50.1-44.1,107.3-53.6,243.2-60.8
						c317.1-17.9,640.2-15.5,1045.5,13.1c42.9,3.6,58.4,10.7,65.6,16.7c17.9,13.1,20.3,26.2,25,97.8c3.6,58.4,13.1,252.7,13.1,252.7
						s-478.1-17.9-712.9-17.9c-65.6,0-119.2,1.2-162.1,1.2c-28.6,1.2-42.9,3.6-53.6,8.3L1975.4,619L1975.4,828.8L1975.4,828.8z"/>
				</g>
				<g>
					<path class="st1" d="M517.4,626.1L1974.2,886c0,0-3.6,163.3-7.2,250.4c-3.6,87-21.5,139.5-56,170.5
						c-50.1,44.1-107.3,53.6-243.2,60.8c-317.1,17.9-640.2,15.5-1045.5-13.1c-42.9-3.6-58.4-10.7-65.6-16.7
						c-17.9-13.1-20.3-26.2-25-97.8c-3.6-58.4-13.1-252.7-13.1-252.7s478.1,17.9,712.9,17.9c65.6,0,119.2-1.2,162.1-1.2
						c28.6-1.2,42.9-3.6,53.6-8.3L517.4,837.2L517.4,626.1L517.4,626.1z"/>
				</g>
			</g>
			<g id="did_2_">
				<g>
					<path class="st2" d="M1975.4,828.8L518.6,570.1c0,0,3.6-163.3,7.2-250.4s21.5-139.5,56-170.5c50.1-44.1,107.3-53.6,243.2-60.8
						c317.1-17.9,640.2-15.5,1045.5,13.1c42.9,3.6,58.4,10.7,65.6,16.7c17.9,13.1,20.3,26.2,25,97.8c3.6,58.4,13.1,252.7,13.1,252.7
						s-478.1-17.9-712.9-17.9c-65.6,0-119.2,1.2-162.1,1.2c-28.6,1.2-42.9,3.6-53.6,8.3L1975.4,619L1975.4,828.8L1975.4,828.8z
						 M517.4,626.1L1974.2,886c0,0-3.6,163.3-7.2,250.4c-3.6,87-21.5,139.5-56,170.5c-50.1,44.1-107.3,53.6-243.2,60.8
						c-317.1,17.9-640.2,15.5-1045.5-13.1c-42.9-3.6-58.4-10.7-65.6-16.7c-17.9-13.1-20.3-26.2-25-97.8
						c-3.6-58.4-13.1-252.7-13.1-252.7s478.1,17.9,712.9,17.9c65.6,0,119.2-1.2,162.1-1.2c28.6-1.2,42.9-3.6,53.6-8.3L517.4,837.2
						L517.4,626.1L517.4,626.1z M534.1,644v178.8l947.8,160.9c0,0-13.1,17.9-26.2,23.8c-13.1,6-31,9.5-60.8,10.7
						c-44.1,1.2-97.8,1.2-163.3,1.2c-208.6,0-610.4-14.3-697.4-16.7c2.4,47.7,9.5,188.4,13.1,234.9c4.8,71.5,7.2,78.7,17.9,87
						c3.6,2.4,15.5,10.7,58.4,14.3c233.7,16.7,443.5,23.8,643.8,23.8c134.7,0,265.9-3.6,400.6-10.7c132.3-7.2,188.4-17.9,233.7-57.2
						c32.2-28.6,48.9-79.9,52.5-159.8c2.4-70.3,6-195.5,6-236.1L534.1,644z M1961.1,810.9V632.1l-947.8-160.9
						c0,0,13.1-17.9,26.2-23.8c13.1-6,31-9.5,60.8-10.7c44.1-1.2,97.8-1.2,163.3-1.2c208.6,0,610.4,14.3,697.4,16.7
						c-2.4-47.7-9.5-188.4-13.1-234.9c-4.8-71.5-7.2-78.7-17.9-87c-3.6-2.4-15.5-10.7-58.4-14.3C1638.1,99.2,1428.2,92,1227.9,92
						c-134.7,0-265.9,3.6-400.6,10.7C695,109.9,639,120.7,593.7,160c-32.2,28.6-48.9,79.9-52.5,159.8c-2.4,70.3-6,195.5-6,236.1
						L1961.1,810.9z"/>
					<path class="st1" d="M1285.2,1080.4c-8.3,0-51.3,0-59.6,0c-193.1,0-400.6-1.2-654.5-15.5l-37-63.2h9.5l41.7,48.9
						c218.2,11.9,419.6,15.5,639,15.5c9.5,0,50.1,0,59.6,0c31,0,68,0,100.1-1.2c110.9-3.6,144.3-15.5,220.6-91.8l27.4-2.4
						l-10.7,11.9c-82.3,84.6-115.6,93-236.1,97.8C1353.1,1080.4,1316.2,1080.4,1285.2,1080.4L1285.2,1080.4z"/>
					<polygon class="st1" points="1959.9,898 534.1,644 534.1,653.6 557.9,665.5 559.1,783.5 534.1,810.9 534.1,822.8 572.2,789.5 
						572.2,659.5 1938.5,902.7 					"/>
					
						<radialGradient id="SVGID_1_" cx="1310.5522" cy="2033.2954" r="737.9471" gradientTransform="matrix(0.9637 0.2671 -0.1683 0.6071 278.1162 -274.1887)" gradientUnits="userSpaceOnUse">
						<stop  offset="0.3301" style="stop-color:#7A7C7F"/>
						<stop  offset="0.5694" style="stop-color:#939598"/>
						<stop  offset="0.7979" style="stop-color:#A6A8AB"/>
						<stop  offset="1" style="stop-color:#D0D2D3"/>
					</radialGradient>
					<path class="st3" d="M1924.2,900.3c-1.2,23.8-1.2,53.6-3.6,81.1c-1.2,23.8-1.2,42.9-2.4,62c-1.2,25-2.4,51.3-3.6,85.8
						c-3.6,88.2-23.8,116.8-62,140.7c-37,21.5-79.9,25-211,32.2c-132.3,6-274.2,10.7-420.8,11.9c-10.7,0-22.7,0-33.4,0
						c-171.7,0-329-9.5-526.9-25c-33.4-2.4-54.8-6-64.4-11.9c-10.7-7.2-13.1-8.3-15.5-51.3c-1.2-6-1.2-11.9-1.2-17.9
						c-1.2-16.7-2.4-31-3.6-52.5c-1.2-21.5-2.4-42.9-6-90.6l-13.1-21.5c3.6,50.1,4.8,93,6,116.8c1.2,20.3,1.2,33.4,2.4,50.1v1.2
						c0,4.8,1.2,10.7,1.2,15.5c2.4,42.9,6,51.3,21.5,62c13.1,8.3,34.6,10.7,71.5,14.3c197.9,15.5,355.3,25,526.9,25
						c10.7,0,21.5,0,33.4,0c146.6-1.2,289.7-4.8,422-11.9c133.5-6,177.6-10.7,217-33.4c42.9-26.2,65.6-56,69.1-151.4
						c1.2-33.4,2.4-59.6,3.6-84.6v-1.2c1.2-40.5,3.6-82.3,6-141.9L1924.2,900.3z"/>
					<g>
						
							<linearGradient id="SVGID_2_" gradientUnits="userSpaceOnUse" x1="1019.0239" y1="948.0109" x2="1922.548" y2="948.0109" gradientTransform="matrix(1 0 0 1 0 -519.8898)">
							<stop  offset="0" style="stop-color:#4D4D4F"/>
							<stop  offset="0.3305" style="stop-color:#545557"/>
							<stop  offset="0.454" style="stop-color:#58595B"/>
							<stop  offset="0.4825" style="stop-color:#545557"/>
							<stop  offset="0.7616" style="stop-color:#312E2F"/>
							<stop  offset="0.9069" style="stop-color:#231F20"/>
						</linearGradient>
						<path class="st4" d="M1925.4,409.2L1925.4,409.2h-6c-208.6-10.7-420.8-8.3-660.5-8.3c-15.5,0-33.4,0-54.8,0
							c-63.2,1.2-112.1,1.2-140.7,6c-63.2,10.7-59.6,44.1-35.8,48.9c3.6-3.6,8.3-7.2,13.1-8.3c13.1-6,31-9.5,60.8-10.7
							c44.1-1.2,97.8-1.2,163.3-1.2c202.7,0,590.1,13.1,690.3,16.7C1945.6,441.3,1927.8,415.1,1925.4,409.2z"/>
					</g>
					<path class="st1" d="M1896.8,194.6l8.3-11.9l-2.4-1.2c-10.7-7.2-32.2-11.9-68-14.3c-186-13.1-393.4-21.5-538.9-21.5
						c-10.7,0-19.1,0-28.6,0c-31,0-59.6,0-88.2,1.2c-140.7,1.2-250.4,2.4-331.4,7.2c-7.2,0-13.1,1.2-20.3,1.2
						c-115.6,6-174.1,9.5-218.2,50.1c-31,27.4-42.9,64.4-46.5,135.9l-1.2,34.6c-2.4,53.6-3.6,88.2-6,162.1
						c-3.6,1.2-15.5,7.2-17.9,8.3v11.9l33.4-13.1l1.2-16.7c2.4-63.2,3.6-102.5,6-151.4l1.2-34.6c2.4-68,14.3-101.3,40.5-125.2
						c41.7-37,97.8-40.5,209.8-45.3c6,0,13.1-1.2,20.3-1.2c81.1-4.8,190.7-6,331.4-7.2c27.4,0,57.2,0,88.2-1.2c9.5,0,19.1,0,28.6,0
						c146.6,0,351.7,8.3,538.9,21.5c33.4,2.4,53.6,6,60.8,11.9L1896.8,194.6L1896.8,194.6z"/>
					
						<linearGradient id="SVGID_3_" gradientUnits="userSpaceOnUse" x1="649.3137" y1="1039.9813" x2="569.4687" y2="683.174" gradientTransform="matrix(1 0 0 1 0 -519.8898)">
						<stop  offset="0" style="stop-color:#929497"/>
						<stop  offset="0.4807" style="stop-color:#9EA0A3"/>
						<stop  offset="1" style="stop-color:#A6A8AB"/>
					</linearGradient>
					<path class="st5" d="M559.1,374.6l1.2-34.6c3.6-72.7,15.5-109.7,46.5-135.9c7.2-6,13.1-10.7,21.5-15.5
						c-6-13.1-8.3-26.2-3.6-35.8c3.6-8.3,19.1-21.5,54.8-33.4c-37,8.3-62,21.5-85.8,41.7c-32.2,28.6-48.9,79.9-52.5,159.8
						c-2.4,65.6-4.8,175.3-6,225.3c2.4-1.2,13.1-6,17.9-8.3C555.6,464,556.7,429.4,559.1,374.6z"/>
					
						<linearGradient id="SVGID_4_" gradientUnits="userSpaceOnUse" x1="627.4334" y1="669.7498" x2="1947.4395" y2="669.7498" gradientTransform="matrix(1 0 0 1 0 -519.8898)">
						<stop  offset="5.670860e-02" style="stop-color:#BFBFBF"/>
						<stop  offset="0.2789" style="stop-color:#BCBCBC"/>
						<stop  offset="0.442" style="stop-color:#B3B3B3"/>
						<stop  offset="0.5862" style="stop-color:#A3A3A3"/>
						<stop  offset="0.7194" style="stop-color:#8C8C8C"/>
						<stop  offset="0.8452" style="stop-color:#6F6F6F"/>
						<stop  offset="0.9637" style="stop-color:#4C4C4C"/>
						<stop  offset="1" style="stop-color:#404040"/>
					</linearGradient>
					<path class="st6" d="M1911.1,188.6c9.5-14.3,23.8-15.5,35.8,17.9c-3.6-60.8-7.2-68-17.9-75.1c-3.6-2.4-15.5-10.7-58.4-14.3
						c-233.7-16.7-443.5-23.8-643.8-23.8c-134.7,0-265.9,3.6-400.6,10.7c-65.6,3.6-113.3,8.3-149,16.7
						c-34.6,13.1-51.3,26.2-54.8,33.4c-4.8,9.5-2.4,21.5,3.6,35.8c42.9-26.2,99-28.6,197.9-33.4c6,0,13.1-1.2,20.3-1.2
						c81.1-4.8,190.7-6,331.4-7.2c27.4,0,57.2,0,88.2-1.2c9.5,0,19.1,0,28.6,0c146.6,0,352.9,8.3,538.9,21.5
						c35.8,2.4,58.4,7.2,68,14.3l2.4,1.2C1906.3,186.2,1908.7,187.4,1911.1,188.6z"/>
					
						<linearGradient id="SVGID_5_" gradientUnits="userSpaceOnUse" x1="1928.3502" y1="711.1376" x2="1928.3502" y2="966.5107" gradientTransform="matrix(1 0 0 1 0 -519.8898)">
						<stop  offset="6.134970e-03" style="stop-color:#FFFFFF"/>
						<stop  offset="0.1166" style="stop-color:#CCCCCC"/>
						<stop  offset="0.495" style="stop-color:#CACACA"/>
						<stop  offset="0.6313" style="stop-color:#C3C3C3"/>
						<stop  offset="0.7284" style="stop-color:#B8B8B8"/>
						<stop  offset="0.807" style="stop-color:#A7A7A7"/>
						<stop  offset="0.8742" style="stop-color:#919191"/>
						<stop  offset="0.9338" style="stop-color:#757575"/>
						<stop  offset="0.9863" style="stop-color:#565656"/>
						<stop  offset="1" style="stop-color:#4D4D4D"/>
					</linearGradient>
					<path class="st7" d="M1959.9,443.7l-28.6-47.7c-1.2-38.1-3.6-119.2-7.2-151.4c-3.6-31-4.8-45.3-13.1-54.8c-1.2-2.4-3.6-3.6-6-6
						l-8.3,11.9c8.3,7.2,10.7,13.1,14.3,50.1c3.6,34.6,8.3,121.6,8.3,156.2l33.4,51.3h7.2V443.7z"/>
					<path class="st2" d="M1946.8,206.5c-13.1-32.2-26.2-31-35.8-17.9c9.5,10.7,10.7,23.8,13.1,54.8c3.6,33.4,6,113.3,7.2,151.4
						l28.6,47.7c-2.4-54.8-8.3-181.2-11.9-226.5"/>
					
						<radialGradient id="SVGID_6_" cx="1909.1801" cy="1832.8423" r="1760.3744" gradientTransform="matrix(1 0 0 1 0 -519.8898)" gradientUnits="userSpaceOnUse">
						<stop  offset="0.1417" style="stop-color:#808184"/>
						<stop  offset="0.2456" style="stop-color:#919295"/>
						<stop  offset="0.4659" style="stop-color:#AFB1B3"/>
						<stop  offset="0.5888" style="stop-color:#BBBDBF"/>
						<stop  offset="0.6356" style="stop-color:#C6C8CA"/>
						<stop  offset="0.7344" style="stop-color:#D8D9DB"/>
						<stop  offset="0.8395" style="stop-color:#E3E4E5"/>
						<stop  offset="0.9612" style="stop-color:#E6E7E8"/>
					</radialGradient>
					<path class="st8" d="M1919.4,402c-194.3-9.5-404.1-15.5-660.5-15.5c-51.3,0-151.4,1.2-196.7,2.4c-77.5,1.2-90.6,50.1-90.6,68
						l956.1,221.7v119.2l34.6,13.1L535.3,557l33.4-13.1l1.2-16.7c0,0,3.6-102.5,6-151.4l1.2-34.6c2.4-68,14.3-101.3,40.5-125.2
						c41.7-37,97.8-40.5,209.8-45.3c6,0,13.1-1.2,20.3-1.2c81.1-4.8,190.7-6,331.4-7.2c27.4,0,57.2,0,88.2-1.2c9.5,0,19.1,0,28.6,0
						c146.6,0,351.7,8.3,538.9,21.5c33.4,2.4,53.6,6,60.8,11.9l2.4,1.2l0,0c0,0,0,0,1.2,1.2l0,0c0,0,1.2,0,1.2,1.2l0,0
						c0,0,1.2,0,1.2,1.2l0,0l1.2,1.2l0,0c0,0,0,1.2,1.2,1.2l0,0c6,6,7.2,14.3,9.5,40.5c0,2.4,1.2,3.6,1.2,6
						C1913.4,280.4,1918.2,367.4,1919.4,402"/>
					
						<radialGradient id="SVGID_7_" cx="2558.0547" cy="2120.3186" r="1836.7621" gradientTransform="matrix(1 0 0 1 0 -519.8898)" gradientUnits="userSpaceOnUse">
						<stop  offset="0.1417" style="stop-color:#808184"/>
						<stop  offset="0.2456" style="stop-color:#919295"/>
						<stop  offset="0.4659" style="stop-color:#AFB1B3"/>
						<stop  offset="0.5888" style="stop-color:#BBBDBF"/>
						<stop  offset="0.6163" style="stop-color:#C6C8CA"/>
						<stop  offset="0.69" style="stop-color:#DFE0E1"/>
						<stop  offset="0.767" style="stop-color:#F1F1F2"/>
						<stop  offset="0.8488" style="stop-color:#FCFCFC"/>
						<stop  offset="0.9435" style="stop-color:#FFFFFF"/>
					</radialGradient>
					<path class="st9" d="M1919.4,402c-194.3-9.5-404.1-15.5-660.5-15.5c-51.3,0-151.4,1.2-196.7,2.4c-77.5,1.2-90.6,50.1-90.6,68
						l956.1,221.7v119.2l34.6,13.1L535.3,557l33.4-13.1l1.2-16.7c0,0,3.6-102.5,6-151.4l1.2-34.6c2.4-68,14.3-101.3,40.5-125.2
						c41.7-37,97.8-40.5,209.8-45.3c6,0,13.1-1.2,20.3-1.2c81.1-4.8,190.7-6,331.4-7.2c27.4,0,57.2,0,88.2-1.2c9.5,0,19.1,0,28.6,0
						c146.6,0,351.7,8.3,538.9,21.5c33.4,2.4,53.6,6,60.8,11.9l2.4,1.2l0,0c0,0,0,0,1.2,1.2l0,0c0,0,1.2,0,1.2,1.2l0,0
						c0,0,1.2,0,1.2,1.2l0,0l1.2,1.2l0,0c0,0,0,1.2,1.2,1.2l0,0c6,6,7.2,14.3,9.5,40.5c0,2.4,1.2,3.6,1.2,6
						C1913.4,280.4,1918.2,367.4,1919.4,402"/>
					<polygon class="st10" points="534.1,653.6 557.9,665.5 559.1,783.5 534.1,810.9 					"/>
					
						<linearGradient id="SVGID_8_" gradientUnits="userSpaceOnUse" x1="549.5948" y1="1838.6818" x2="1834.9989" y2="1838.6818" gradientTransform="matrix(1 0 0 1 0 -519.8898)">
						<stop  offset="0" style="stop-color:#6D6E70;stop-opacity:0.91"/>
						<stop  offset="0.528" style="stop-color:#444244;stop-opacity:0.9575"/>
						<stop  offset="1" style="stop-color:#231F20"/>
					</linearGradient>
					<path class="st11" d="M1815.7,1334.3c10.7-6,15.5-13.1,17.9-16.7c3.6-7.2,0-14.3-6-21.5c-35.8,10.7-84.6,14.3-183.6,19.1
						c-132.3,6-275.4,10.7-422,11.9c-10.7,0-22.7,0-33.4,0c-172.9,0-330.2-9.5-526.9-25c-37-3.6-58.4-6-71.5-14.3
						c-3.6-2.4-7.2-6-10.7-8.3c-1.2,1.2-3.6,3.6-6,4.8c-13.1,10.7-19.1,9.5-23.8-8.3c3.6,35.8,6,40.5,15.5,47.7
						c3.6,2.4,15.5,10.7,58.4,14.3c233.7,16.7,443.5,23.8,643.8,23.8c134.7,0,265.9-3.6,400.6-10.7
						C1733.4,1347.4,1779.9,1343.8,1815.7,1334.3L1815.7,1334.3z"/>
					<path class="st12" d="M566.3,1210.3v-1.2c-1.2-15.5-1.2-28.6-2.4-50.1c-1.2-21.5-2.4-65.6-6-116.8l-23.8-40.5
						c2.4,47.7,9.5,188.4,13.1,234.9l3.6,39.3c4.8,17.9,11.9,19.1,23.8,8.3c2.4-2.4,3.6-3.6,6-4.8c-8.3-8.3-10.7-21.5-13.1-53.6
						C566.3,1221,566.3,1215.1,566.3,1210.3z"/>
					
						<linearGradient id="SVGID_9_" gradientUnits="userSpaceOnUse" x1="1874.2378" y1="1810.6268" x2="1974.016" y2="1450.064" gradientTransform="matrix(1 0 0 1 0 -519.8898)">
						<stop  offset="0.2699" style="stop-color:#58595B"/>
						<stop  offset="0.3924" style="stop-color:#49494B"/>
						<stop  offset="0.6154" style="stop-color:#343233"/>
						<stop  offset="0.8233" style="stop-color:#272425"/>
						<stop  offset="1" style="stop-color:#231F20"/>
					</linearGradient>
					<path class="st13" d="M1938.5,902.7c-2.4,58.4-3.6,101.3-6,141.9v1.2c-1.2,25-2.4,50.1-3.6,84.6
						c-3.6,95.4-26.2,125.2-69.1,151.4c-10.7,6-21.5,10.7-33.4,15.5c6,8.3,9.5,14.3,6,21.5c-1.2,3.6-7.2,10.7-17.9,16.7
						c37-8.3,63.2-21.5,85.8-41.7c32.2-28.6,48.9-79.9,52.5-159.8c2.4-70.3,6-195.5,6-236.1L1938.5,902.7z"/>
					
						<radialGradient id="SVGID_10_" cx="2521.5547" cy="5428.0713" r="5692.6016" gradientTransform="matrix(1 0 0 1 0 -519.8898)" gradientUnits="userSpaceOnUse">
						<stop  offset="0" style="stop-color:#77787B"/>
						<stop  offset="0.247" style="stop-color:#A5A7A9"/>
						<stop  offset="0.4475" style="stop-color:#C4C6C7"/>
						<stop  offset="0.5589" style="stop-color:#D0D2D3"/>
						<stop  offset="0.6288" style="stop-color:#D9DBDC"/>
						<stop  offset="0.863" style="stop-color:#F5F5F5"/>
						<stop  offset="1" style="stop-color:#FFFFFF"/>
					</radialGradient>
					<path class="st14" d="M1919.4,1043.4c-1.2,25-2.4,51.3-3.6,85.8c-3.6,88.2-23.8,116.8-62,140.7c-37,21.5-79.9,25-211,32.2
						c-132.3,6-274.2,10.7-420.8,11.9c-10.7,0-22.7,0-33.4,0c-171.7,0-329-9.5-526.9-25c-33.4-2.4-54.8-6-64.4-11.9
						c-10.7-7.2-13.1-8.3-15.5-51.3c-1.2-6-1.2-11.9-1.2-17.9c-1.2-16.7-2.4-31-3.6-52.5c-1.2-21.5-2.4-42.9-6-90.6
						c252.7,14.3,460.2,15.5,654.5,15.5c9.5,0,52.5,0,59.6,0c31,0,68,0,100.1-1.2c121.6-3.6,155-13.1,236.1-97.8l10.7-11.9
						l-1061-180V659.5L1923,900.3l0,0l0,0c-1.2,23.8-1.2,53.6-3.6,81.1C1920.6,1004.1,1920.6,1024.3,1919.4,1043.4z"/>
					
						<linearGradient id="SVGID_11_" gradientUnits="userSpaceOnUse" x1="1526.8359" y1="1463.1987" x2="1496.849" y2="1583.4718" gradientTransform="matrix(1 0 0 1 0 -519.8898)">
						<stop  offset="6.134970e-02" style="stop-color:#6D6E70"/>
						<stop  offset="8.283891e-02" style="stop-color:#757678"/>
						<stop  offset="0.1881" style="stop-color:#959698"/>
						<stop  offset="0.3021" style="stop-color:#AFB1B2"/>
						<stop  offset="0.4263" style="stop-color:#C4C5C7"/>
						<stop  offset="0.5656" style="stop-color:#D2D4D5"/>
						<stop  offset="0.7325" style="stop-color:#DADCDD"/>
						<stop  offset="1" style="stop-color:#DDDFE0"/>
					</linearGradient>
					<path class="st15" d="M1480.7,1043.4c0,4.8-7.2,11.9-31,17.9c63.2-8.3,97.8-28.6,156.2-88.2l-124,10.7c0,0-13.1,17.9-26.2,23.8
						c-8.3,3.6-19.1,7.2-33.4,8.3c26.2,6,35.8,9.5,45.3,13.1C1474.7,1032.7,1480.7,1038.6,1480.7,1043.4z"/>
					
						<linearGradient id="SVGID_12_" gradientUnits="userSpaceOnUse" x1="543.6341" y1="1553.751" x2="1479.4948" y2="1553.751" gradientTransform="matrix(1 0 0 1 0 -519.8898)">
						<stop  offset="0" style="stop-color:#9C9C9C"/>
						<stop  offset="0.1964" style="stop-color:#949494"/>
						<stop  offset="0.5007" style="stop-color:#7E7E7F"/>
						<stop  offset="0.873" style="stop-color:#5B5B5C"/>
						<stop  offset="1" style="stop-color:#4D4D4F"/>
					</linearGradient>
					<path class="st16" d="M1448.5,1060.1c23.8-6,31-13.1,31-17.9c0-3.6-6-10.7-14.3-13.1c-10.7-3.6-19.1-7.2-45.3-13.1
						c0,0-15.5,1.2-26.2,1.2c-44.1,1.2-97.8,1.2-163.3,1.2c-201.5,0-584.2-13.1-686.7-16.7l0,0l41.7,48.9
						c218.2,11.9,419.6,15.5,639,15.5c9.5,0,50.1,0,59.6,0c31,0,68,0,100.1-1.2C1409.2,1063.7,1430.6,1062.5,1448.5,1060.1z"/>
					<g>
						
							<linearGradient id="SVGID_13_" gradientUnits="userSpaceOnUse" x1="1094.4208" y1="1094.1658" x2="1946.829" y2="1094.1658" gradientTransform="matrix(1 0 0 1 0 -519.8898)">
							<stop  offset="0" style="stop-color:#A6A8AB"/>
							<stop  offset="0.2795" style="stop-color:#AEB0B2"/>
							<stop  offset="0.7113" style="stop-color:#C4C4C6"/>
							<stop  offset="1" style="stop-color:#D6D6D6"/>
						</linearGradient>
						<path class="st17" d="M1923,663.1l23.8-32.2l-852.4-145.4c88.2,28.6,325.5,83.5,506.7,124
							C1591.6,608.3,1894.4,657.1,1923,663.1z"/>
					</g>
					<g>
						
							<linearGradient id="SVGID_14_" gradientUnits="userSpaceOnUse" x1="556.9968" y1="1330.5543" x2="1463.3536" y2="1487.9077" gradientTransform="matrix(1 0 0 1 0 -519.8898)">
							<stop  offset="0" style="stop-color:#808184"/>
							<stop  offset="0.8957" style="stop-color:#231F20"/>
						</linearGradient>
						<path class="st18" d="M1385.3,942.1c-23.8-4.8-41.7-8.3-60.8-11.9c-8.3-1.2-462.6-78.7-764.2-131.1l-26.2,21.5l947.8,160.9
							C1467.6,968.3,1419.9,949.2,1385.3,942.1z"/>
					</g>
					
						<linearGradient id="SVGID_15_" gradientUnits="userSpaceOnUse" x1="567.2919" y1="1329.771" x2="1614.2233" y2="1501.8119" gradientTransform="matrix(1 0 0 1 0 -519.8898)">
						<stop  offset="0" style="stop-color:#626366"/>
						<stop  offset="1" style="stop-color:#4D4D4F"/>
					</linearGradient>
					<path class="st19" d="M1385.3,942.1c-23.8-4.8-41.7-8.3-60.8-11.9c-8.3-1.2-462.6-78.7-764.2-131.1l11.9-10.7l1061,180
						l-151.4,14.3C1472.3,971.9,1428.2,951.6,1385.3,942.1z"/>
					<path class="st2" d="M1919.4,402c-194.3-9.5-404.1-15.5-660.5-15.5c-51.3,0-151.4,1.2-196.7,2.4
						c-96.6,1.2-151.4,47.7-196.7,97.8l-8.3,8.3l158.6-27.4c0,0,3.6-3.6,10.7-10.7c-23.8-4.8-26.2-37,35.8-48.9
						c28.6-6,77.5-6,140.7-6c20.3,0,40.5,0,54.8,0c239.6,0,451.8-1.2,660.5,8.3h6L1919.4,402z"/>
					
						<linearGradient id="SVGID_16_" gradientUnits="userSpaceOnUse" x1="883.4051" y1="1058.4003" x2="1599.9049" y2="1058.4003" gradientTransform="matrix(1 0 0 1 0 -519.8898)">
						<stop  offset="0.2242" style="stop-color:#58595B"/>
						<stop  offset="0.4052" style="stop-color:#5E5F61"/>
						<stop  offset="0.6431" style="stop-color:#6E6F71"/>
						<stop  offset="0.9115" style="stop-color:#888A8C"/>
						<stop  offset="1" style="stop-color:#929497"/>
					</linearGradient>
					<path class="st20" d="M883.4,490.2C949,501,1318.6,563,1599.9,609.4c-181.2-40.5-417.3-95.4-506.7-124l-77.5-17.9L883.4,490.2z
						"/>
					
						<radialGradient id="SVGID_17_" cx="1923.0964" cy="1820.5487" r="1767.3462" gradientTransform="matrix(1 0 0 1 0 -519.8898)" gradientUnits="userSpaceOnUse">
						<stop  offset="0" style="stop-color:#808184"/>
						<stop  offset="0.1192" style="stop-color:#919295"/>
						<stop  offset="0.3719" style="stop-color:#AFB1B3"/>
						<stop  offset="0.513" style="stop-color:#BBBDBF"/>
						<stop  offset="0.5507" style="stop-color:#C6C8CA"/>
						<stop  offset="0.6519" style="stop-color:#DFE0E1"/>
						<stop  offset="0.7577" style="stop-color:#F1F1F2"/>
						<stop  offset="0.87" style="stop-color:#FCFCFC"/>
						<stop  offset="1" style="stop-color:#FFFFFF"/>
					</radialGradient>
					<path class="st21" d="M1919.4,1043.4c-1.2,25-2.4,51.3-3.6,85.8c-3.6,88.2-23.8,116.8-62,140.7c-37,21.5-79.9,25-211,32.2
						c-132.3,6-274.2,10.7-420.8,11.9c-10.7,0-22.7,0-33.4,0c-171.7,0-329-9.5-526.9-25c-33.4-2.4-54.8-6-64.4-11.9
						c-10.7-7.2-13.1-8.3-15.5-51.3c-1.2-6-1.2-11.9-1.2-17.9c-1.2-16.7-2.4-31-3.6-52.5c-1.2-21.5-2.4-42.9-6-90.6
						c252.7,14.3,460.2,15.5,654.5,15.5c9.5,0,52.5,0,59.6,0c31,0,68,0,100.1-1.2c121.6-3.6,155-13.1,236.1-97.8l10.7-11.9
						l-1061-180V659.5L1923,900.3l0,0l0,0c-1.2,23.8-1.2,53.6-3.6,81.1C1920.6,1004.1,1920.6,1024.3,1919.4,1043.4z"/>
					<path class="st1" d="M858.4,495l25-4.8C985.9,508.1,1847.9,650,1923,661.9l23.8-32.2l14.3,2.4l-34.6,46.5L858.4,495z"/>
					
						<radialGradient id="SVGID_18_" cx="1885.7345" cy="1845.1063" r="610.6771" gradientTransform="matrix(1 0 0 1 0 -519.8898)" gradientUnits="userSpaceOnUse">
						<stop  offset="0" style="stop-color:#231F20"/>
						<stop  offset="0.2148" style="stop-color:#545152"/>
						<stop  offset="0.6259" style="stop-color:#ADADAE"/>
						<stop  offset="0.8118" style="stop-color:#D0D2D3"/>
						<stop  offset="0.8416" style="stop-color:#D9DBDC"/>
						<stop  offset="0.9415" style="stop-color:#F5F5F5"/>
						<stop  offset="1" style="stop-color:#FFFFFF"/>
					</radialGradient>
					<path class="st22" d="M1853.8,1269.9c38.1-23.8,58.4-52.5,62-140.7c1.2-34.6,2.4-60.8,3.6-85.8c1.2-19.1,1.2-38.1,2.4-62
						c1.2-27.4,1.2-57.2,3.6-81.1l0,0l-383.9-68c-66.8,22.7-126.4,53.6-176.4,93l268.2,45.3l-10.7,11.9
						c-82.3,84.6-115.6,93-236.1,97.8c-32.2,1.2-68,1.2-100.1,1.2c-6,0-32.2,0-47.7,0c-17.9,38.1-26.2,79.9-26.2,122.8
						c0,38.1,7.2,75.1,21.5,109.7c143.1-1.2,281.4-4.8,411.3-10.7C1772.8,1294.9,1816.9,1291.4,1853.8,1269.9z"/>
				</g>
				<polygon class="st12" points="1926.6,796.6 1940.9,793 1940.9,660.7 1926.6,678.6 				"/>
				<polygon class="st23" points="1926.6,796.6 1940.9,793 1961.1,803.8 1961.1,810.9 				"/>
				<polygon class="st24" points="1961.1,632.1 1940.9,660.7 1940.9,793 1961.1,803.8 				"/>
			</g>
		</g>
	</g>
</g>
</svg>
