<?xml version="1.0" encoding="utf-8"?>
<!-- Generator: Adobe Illustrator 24.2.1, SVG Export Plug-In . SVG Version: 6.00 Build 0)  -->
<svg version="1.1" id="Layer_1" xmlns="http://www.w3.org/2000/svg" xmlns:xlink="http://www.w3.org/1999/xlink" x="0px" y="0px"
	 viewBox="0 0 2500 2141" style="enable-background:new 0 0 2500 2141;" xml:space="preserve">
<style type="text/css">
	.st0{fill-rule:evenodd;clip-rule:evenodd;fill:#231F20;stroke:#231F20;stroke-width:1.4798;stroke-miterlimit:2.4142;}
	.st1{fill-rule:evenodd;clip-rule:evenodd;fill:#FFFFFF;stroke:#231F20;stroke-width:1.4798;stroke-miterlimit:2.4142;}
	.st2{fill-rule:evenodd;clip-rule:evenodd;fill:#FFFFFF;stroke:#FFFFFF;stroke-width:1.4798;stroke-miterlimit:2.4142;}
	.st3{fill-rule:evenodd;clip-rule:evenodd;fill:#FFFFFF;stroke:#FFFFFF;stroke-width:1.484;stroke-miterlimit:2.4142;}
	.st4{fill-rule:evenodd;clip-rule:evenodd;fill:#00A651;}
	.st5{fill-rule:evenodd;clip-rule:evenodd;fill:#FFFFFF;stroke:#D1D3D4;stroke-width:1.4798;stroke-miterlimit:2.4142;}
</style>
<g>
	<ellipse class="st0" cx="1250" cy="1070.5" rx="1070.5" ry="1070.5"/>
	<ellipse class="st1" cx="1250" cy="1070.5" rx="1040.7" ry="1041.8"/>
	<ellipse class="st0" cx="1250" cy="1070.5" rx="1005.7" ry="1004.6"/>
	<path class="st2" d="M1265.9,429.5c361.4,0,653.8,289.2,653.8,645.3S1627.4,1720,1265.9,1720s-653.8-289.2-653.8-645.3
		C611.1,717.6,904.5,429.5,1265.9,429.5z"/>
	<path class="st0" d="M321.9,1268.2l29.8-76.5C424,728.2,521.8,549.6,917.3,237.1l56.3-61.7c-221.1,52.1-385.9,205.2-503.9,375.3
		C336.8,764.3,293.2,975.9,321.9,1268.2L321.9,1268.2z"/>
	<g>
		<path class="st3" d="M491,518.8l-53.2,65.9c-24.5,50-14.9,75.5,10.6,99.9c22.3,18.1,51,22.3,90.4,1.1l36.1-26.6
			c14.9-8.5,27.6-10.6,36.1-5.3c6.4,4.3,10.6,22.3,5.3,36.1c-4.3,14.9-29.8,40.4-53.2,52.1c12.8,9.6,25.5,20.2,38.3,29.8
			c20.2-18.1,38.3-36.1,52.1-56.3c20.2-27.6,27.6-77.6-1.1-102.1c-20.2-20.2-50-36.1-86.1-18.1c-17,10.6-29.8,22.3-44.6,35.1
			c-10.6,8.5-25.5,6.4-31.9,1.1c-6.4-7.4-6.4-21.3,1.1-34c5.3-11.7,20.2-31.9,43.6-44.6L491,518.8L491,518.8z"/>
		<polygon class="st3" points="390,585.7 430.4,579.4 450.6,558.1 447.4,511.3 432.5,528.3 434.6,561.3 403.8,569.8 		"/>
	</g>
	<polygon class="st2" points="677,340.2 811,531.5 859.9,499.6 799.3,412.5 811,410.3 925.8,456.1 989.6,415.7 837.5,365.7 
		851.4,224.3 788.6,264.7 786.5,384.8 730.2,305.1 	"/>
	<path class="st2" d="M1220.2,139.3c-78.7,1.1-119.1,43.6-121.2,121.2c3.2,97.8,76.5,127.6,120.1,123.3
		c44.6,1.1,116.9-23.4,114.8-118C1337.2,177.5,1284,140.3,1220.2,139.3L1220.2,139.3z"/>
	<path class="st0" d="M1217,183.9c29.8,0,55.3,34,55.3,76.5S1247.9,337,1217,337s-55.3-34-55.3-76.5
		C1162.8,217.9,1187.3,183.9,1217,183.9z"/>
	<g>
		<path class="st2" d="M1501.9,410.3l108.4-205.2l95.7,48.9c88.2,45.7,67,123.3,51,151c-41.5,73.4-101,78.7-160.5,53.2L1501.9,410.3
			L1501.9,410.3z"/>
		<path class="st0" d="M1579.5,397.6l64.8-123.3l30.8,18.1c45.7,27.6,36.1,59.5,22.3,90.4c-20.2,36.1-54.2,45.7-90.4,28.7
			L1579.5,397.6L1579.5,397.6z"/>
	</g>
	<g>
		<polygon class="st2" points="1800.7,593.2 2048.4,548.5 2086.6,611.3 1931.4,801.5 1900.6,749.5 1934.6,711.2 1886.8,633.6 
			1832.6,641 		"/>
		<polygon class="st0" points="1933.5,623 2022.8,604.9 1964.4,672.9 		"/>
	</g>
	<path class="st4" d="M1533.8,1309.7c76.5-245.6,98.9-562.4-142.4-765.4c-59.5-41.5-92.5-54.2-181.8-42.5l-86.1,17
		c-17,6.4-48.9,12.8-25.5,36.1l143.5,140.3c6.4,8.5-7.4,21.3-19.1,14.9l-154.1-139.3c-31.9-25.5-61.7-11.7-89.3,3.2
		c-57.4,29.8-108.4,77.6-151,136.1c-8.5,8.5-19.1,21.3-9.6,28.7l190.3,92.5c8.5,8.5,1.1,23.4-8.5,21.3l-163.7-71.2
		c-30.8-12.8-59.5-12.8-94.6,31.9c-27.6,39.3-53.2,85-58.5,158.4c-1.1,17-12.8,48.9,24.5,45.7c7.4,1.1,14.9,0,22.3,1.1
		c225.4,20.2,311.5,103.1,347.6,280.6c3.2,12.8,5.3,23.4-3.2,26.6c-8.5,3.2-18.1-2.1-28.7-2.1c-97.8-75.5-183.9-94.6-315.7-82.9
		c-15.9,1.1-20.2,12.8-8.5,20.2c88.2,45.7,151,74.4,143.5,196.7c0,12.8,3.2,24.5,17,20.2c45.7,2.1,69.1-8.5,94.6-25.5
		c27.6-14.9,44.6-47.8,81.9-47.8l527.3-1.1l5.3,44.6c10.6,19.1,14.9,18.1,34,14.9c51-8.5,155.2-53.2,156.3-99.9
		c5.3-52.1-104.2-89.3-162.6-114.8c-17-6.4-24.5-3.2-26.6,10.6l-6.4,51L1533.8,1309.7L1533.8,1309.7z"/>
	<ellipse class="st5" cx="1412.6" cy="1165.1" rx="80.8" ry="72.3"/>
	<g>
		<polygon class="st2" points="708.9,1782.7 859.9,1676.4 907.7,1705.1 868.4,1885.9 828,1862.5 834.3,1822.1 780.1,1783.8 
			742.9,1806.1 		"/>
		<polygon class="st0" points="809.9,1763.6 856.7,1725.3 842.8,1787 		"/>
		<path class="st2" d="M1053.3,1773.2l-17,111.6c-6.4,51,37.2,75.5,70.2,76.5c40.4,2.1,74.4-10.6,80.8-43.6l18.1-121.2l-42.5-6.4
			l-18.1,118c-5.3,11.7-19.1,21.3-33,18.1c-14.9,0-29.8-10.6-29.8-25.5l17-121.2L1053.3,1773.2L1053.3,1773.2z"/>
		<polygon class="st2" points="1331.9,1793.4 1459.4,1775.3 1465.8,1804 1425.4,1810.4 1444.5,1952.8 1404.1,1956 1382.9,1817.8 
			1337.2,1824.2 		"/>
		<path class="st2" d="M1631.6,1691.3c-29.8,24.5-60.6,74.4-8.5,130.8c36.1,40.4,78.7,41.5,113.7,20.2c48.9-34,51-72.3,27.6-118
			C1749.6,1686,1698.6,1652,1631.6,1691.3L1631.6,1691.3z"/>
		<path class="st0" d="M1657.2,1716.8c19.1-11.7,47.8,0,64.8,25.5c17,26.6,14.9,56.3-3.2,68c-19.1,11.7-47.8,0-64.8-25.5
			C1637,1759.4,1639.1,1728.5,1657.2,1716.8z"/>
	</g>
</g>
</svg>
