<?xml version="1.0" encoding="utf-8"?>
<!-- Generator: Adobe Illustrator 24.2.1, SVG Export Plug-In . SVG Version: 6.00 Build 0)  -->
<svg version="1.1" id="Layer_1" xmlns="http://www.w3.org/2000/svg" xmlns:xlink="http://www.w3.org/1999/xlink" x="0px" y="0px"
	 viewBox="0 0 2500 2141" style="enable-background:new 0 0 2500 2141;" xml:space="preserve">
<style type="text/css">
	.st0{fill-rule:evenodd;clip-rule:evenodd;fill:#003876;}
</style>
<g>
	<path class="st0" d="M269.4,1684.1c-5.6-51.4-144-113.9-144-113.9c-36.8-22.3-20.1-50.2-20.1-50.2c22.3-49.1,138.5-2.2,138.5-2.2
		l22.3-52.5c-61.4-46.9-140.7-36.8-140.7-36.8c-97.1,11.2-111.7,77-111.7,77c-22.3,100.5,55.8,123.9,55.8,123.9
		c70.3,32.4,91.6,46.9,91.6,46.9c58.1,36.8,6.7,61.4,6.7,61.4c-63.6,29-141.8-11.2-141.8-11.2l-24.6,58.1
		c64.8,43.5,166.4,25.7,166.4,25.7C295.1,1791.3,269.4,1684.1,269.4,1684.1L269.4,1684.1z"/>
	<path class="st0" d="M476,1704.2c-4.5-41.3-116.1-91.6-116.1-91.6c-29-17.9-16.7-40.2-16.7-40.2c17.9-39.1,112.8-2.2,112.8-2.2
		l17.9-42.4c-50.2-38-113.9-29-113.9-29c-78.2,8.9-89.3,61.4-89.3,61.4c-17.9,81.5,44.7,100.5,44.7,100.5c56.9,26.8,73.7,38,73.7,38
		c46.9,30.1,5.6,50.2,5.6,50.2c-50.2,24.6-115-8.9-115-8.9l-20.1,46.9c52.5,35.7,135.1,20.1,135.1,20.1
		C497.2,1791.3,476,1704.2,476,1704.2L476,1704.2z"/>
	<path class="st0" d="M569.7,1505.5l-111.7,298.1l63.6,1.1l29-64.8h134l29,59.2h61.4l-115-293.7H569.7L569.7,1505.5z M573.1,1685.3
		l41.3-103.8l45.8,103.8H573.1L573.1,1685.3z"/>
	<polygon class="st0" points="981.8,1700.9 857.8,1506.6 775.2,1506.6 775.2,1796.9 835.5,1799.2 835.5,1608.2 968.4,1807 
		1044.3,1807 1044.3,1508.8 981.8,1508.8 	"/>
	<path class="st0" d="M1314.5,1638.4H1214v45.8h68.1v70.3c-46.9,17.9-96-1.1-96-1.1c-97.1-64.8-44.7-145.2-44.7-145.2
		c60.3-93.8,203.2-36.8,203.2-36.8v-54.7c-175.3-56.9-250.1,38-250.1,38c-98.3,136.2,24.6,225.5,24.6,225.5
		c120.6,74.8,235.6,10,235.6,10V1683C1352.5,1633.9,1314.5,1638.4,1314.5,1638.4L1314.5,1638.4z"/>
	<path class="st0" d="M2460.1,1638.4h-100.5v45.8h68.1v70.3c-46.9,17.9-96-1.1-96-1.1c-97.1-64.8-44.7-145.2-44.7-145.2
		c60.3-93.8,203.2-36.8,203.2-36.8v-54.7c-175.3-56.9-249,38-249,38c-98.3,136.2,24.6,225.5,24.6,225.5
		c120.6,74.8,235.6,10,235.6,10V1683C2499.2,1633.9,2460.1,1638.4,2460.1,1638.4L2460.1,1638.4z"/>
	<polygon class="st0" points="1584.7,1440.7 1492,1594.8 1400.5,1445.2 1319,1445.2 1457.4,1669.6 1380.4,1814.8 1454.1,1814.8 
		1667.3,1440.7 	"/>
	<path class="st0" d="M1742.1,1501c-87.1,0-158.6,70.3-158.6,158.6c0,87.1,70.3,158.6,158.6,158.6c87.1,0,158.6-70.3,158.6-158.6
		C1899.6,1571.4,1829.2,1501,1742.1,1501L1742.1,1501z M1742.1,1755.6c-53.6,0-96-43.5-96-96c0-53.6,43.5-96,96-96
		c53.6,0,96,43.5,96,96C1838.2,1712.1,1794.6,1755.6,1742.1,1755.6L1742.1,1755.6z"/>
	<polygon class="st0" points="2129.6,1697.5 2005.7,1505.5 1920.8,1505.5 1920.8,1803.6 1985.6,1802.5 1985.6,1610.5 2117.3,1805.9 
		2193.2,1805.9 2193.2,1505.5 2129.6,1505.5 	"/>
	<path class="st0" d="M2057,521.8c-45.8-169.7-266.9-255.7-266.9-255.7c-59.2-21.2-34.6,12.3-34.6,12.3S2009,394.5,2009,557.5
		c0,201-276.9,261.3-276.9,261.3c251.2-80.4,251.2-250.1,251.2-250.1c-4.5-170.8-228.9-290.3-228.9-290.3
		c-86-49.1-134-61.4-134-61.4c-112.8-38-75.9,6.7-75.9,6.7s341.7,107.2,341.7,345c0,242.3-475.7,320.5-475.7,320.5
		c447.7-82.6,447.7-318.2,447.7-318.2c0-212.1-312.6-347.3-312.6-347.3c-48-26.8-127.3-46.9-127.3-46.9
		c-73.7-15.6-32.4,16.7-32.4,16.7C1686.3,367.7,1686.3,562,1686.3,562c0,215.5-197.6,269.1-197.6,269.1
		c-58.1,22.3-168.6,40.2-168.6,40.2c-17.9,5.6-31.3,17.9-31.3,32.4c0,6.7,1.1,11.2,5.6,16.7c11.2,11.2,46.9,38,46.9,38
		c13.4,12.3,20.1,27.9,20.1,43.5c0,40.2-46.9,73.7-103.8,73.7h-4.5c-58.1-1.1-103.8-33.5-103.8-73.7c0-16.7,7.8-31.3,20.1-43.5
		c0,0,36.8-27.9,46.9-38c4.5-4.5,5.6-10,5.6-16.7c0-14.5-12.3-26.8-31.3-32.4c0,0-111.7-17.9-168.6-40.2c0,0-197.6-53.6-197.6-269.1
		c0,0,0-193.2,299.2-369.6c0,0,41.3-32.4-32.4-16.7c0,0-79.3,20.1-127.3,45.8c0,0-312.6,135.1-312.6,347.3c0,0,0,235.6,447.7,318.2
		c0,0-475.7-78.2-475.7-320.5c0-237.8,341.7-345,341.7-345s36.8-43.5-75.9-6.7c0,0-46.9,12.3-134,61.4c0,0-225.5,119.5-228.9,290.3
		c0,0,1.1,170.8,251.2,250.1c0,0-276.9-60.3-276.9-261.3c0-163,253.5-279.1,253.5-279.1s23.4-33.5-34.6-12.3c0,0-220,86-266.9,255.7
		c0,0-13.4,64.8,6.7,111.7c24.6,58.1,89.3,151.9,253.5,205.4c0,0,74.8,31.3,374.1,90.4l17.9,4.5c0,0,13.4,5.6,3.3,15.6l-41.3,35.7
		c0,0-60.3,46.9,25.7,86c0,0,52.5,17.9,89.3,58.1c0,0,24.6,22.3,64.8,24.6l0,0h2.2l0,0l0,0h2.2l0,0l0,0h2.2l0,0
		c41.3-1.1,64.8-24.6,64.8-24.6c36.8-40.2,89.3-58.1,89.3-58.1c86-39.1,25.7-86,25.7-86l-41.3-35.7c-8.9-10,3.3-15.6,3.3-15.6
		l17.9-4.5c299.2-59.2,374.1-90.4,374.1-90.4c164.1-53.6,228.9-148.5,254.6-205.4C2070.4,585.4,2057,521.8,2057,521.8L2057,521.8z"
		/>
</g>
</svg>
