<?xml version="1.0" encoding="utf-8"?>
<!-- Generator: Adobe Illustrator 24.2.1, SVG Export Plug-In . SVG Version: 6.00 Build 0)  -->
<svg version="1.1" id="Layer_1" xmlns="http://www.w3.org/2000/svg" xmlns:xlink="http://www.w3.org/1999/xlink" x="0px" y="0px"
	 viewBox="0 0 2500 2141" style="enable-background:new 0 0 2500 2141;" xml:space="preserve">
<style type="text/css">
	.st0{fill:#004489;}
	.st1{fill:#004589;}
	.st2{fill:#00468A;}
	.st3{fill:#00478B;}
	.st4{fill:#00488C;}
	.st5{fill:#00498C;}
	.st6{fill:#00498D;}
	.st7{fill:#004A8D;}
	.st8{fill:#004B8E;}
	.st9{fill:#004C8E;}
	.st10{fill:#004D8F;}
	.st11{fill:#004D90;}
	.st12{fill:#004E90;}
	.st13{fill:#014F90;}
	.st14{fill:#044F91;}
	.st15{fill:#085091;}
	.st16{fill:#0B5092;}
	.st17{fill:#0E5192;}
	.st18{fill:#145292;}
	.st19{fill:#165293;}
	.st20{fill:#185394;}
	.st21{fill:#1B5394;}
	.st22{fill:#1C5494;}
	.st23{fill:#1E5495;}
	.st24{fill:#1F5595;}
	.st25{fill:#225595;}
	.st26{fill:#235696;}
	.st27{fill:#255796;}
	.st28{fill:#285897;}
	.st29{fill:#295897;}
	.st30{fill:#2A5998;}
	.st31{fill:#2C5998;}
	.st32{fill:#2D5A99;}
	.st33{fill:#2E5B99;}
	.st34{fill:#2F5B99;}
	.st35{fill:#315C9A;}
	.st36{fill:#325C9A;}
	.st37{fill:#335D9B;}
	.st38{fill:#355D9B;}
	.st39{fill:#375F9C;}
	.st40{fill:#38609D;}
	.st41{fill:#3A609D;}
	.st42{fill:#3B609D;}
	.st43{fill:#3C619D;}
	.st44{fill:#3D619D;}
	.st45{fill:#3E629E;}
	.st46{fill:#3F639F;}
	.st47{fill:#40649F;}
	.st48{fill:#41649F;}
	.st49{fill:#4365A0;}
	.st50{fill:#4566A1;}
	.st51{fill:#4666A1;}
	.st52{fill:#4767A2;}
	.st53{fill:#4868A2;}
	.st54{fill:#4968A2;}
	.st55{fill:#4A69A3;}
	.st56{fill:#4B6AA4;}
	.st57{fill:#4C6BA4;}
	.st58{fill:#4D6BA4;}
	.st59{fill:#4F6CA5;}
	.st60{fill:#506DA6;}
	.st61{fill:#516EA6;}
	.st62{fill:#526EA7;}
	.st63{fill:#536FA7;}
	.st64{fill:#546FA7;}
	.st65{fill:#5570A8;}
	.st66{fill:#5671A9;}
	.st67{fill:#5771A9;}
	.st68{fill:#5872A9;}
	.st69{fill:#5A74AA;}
	.st70{fill:#5B74AB;}
	.st71{fill:#5C75AB;}
	.st72{fill:#5D76AC;}
	.st73{fill:#5E76AC;}
	.st74{fill:#5F77AC;}
	.st75{fill:#6078AD;}
	.st76{fill:#6179AE;}
	.st77{fill:#6279AE;}
	.st78{fill:#637AAE;}
	.st79{fill:#647BAF;}
	.st80{fill:#667CB0;}
	.st81{fill:#677DB0;}
	.st82{fill:#687EB1;}
	.st83{fill:#697EB1;}
	.st84{fill:#6A7FB1;}
	.st85{fill:#6B80B2;}
	.st86{fill:#6C81B3;}
	.st87{fill:#6D81B3;}
	.st88{fill:#6E82B4;}
	.st89{fill:#6F83B4;}
	.st90{fill:#7184B5;}
	.st91{fill:#7285B6;}
	.st92{fill:#7386B6;}
	.st93{fill:#7486B6;}
	.st94{fill:#7587B7;}
	.st95{fill:#7688B7;}
	.st96{fill:#7788B8;}
	.st97{fill:#7889B8;}
	.st98{fill:#798AB9;}
	.st99{fill:#7A8BB9;}
	.st100{fill:#7C8CBA;}
	.st101{fill:#7D8DBB;}
	.st102{fill:#7E8EBB;}
	.st103{fill:#7F8EBC;}
	.st104{fill:#808FBC;}
	.st105{fill:#8090BD;}
	.st106{fill:#8291BD;}
	.st107{fill:#8392BE;}
	.st108{fill:#8492BE;}
	.st109{fill:#8493BF;}
	.st110{fill:#8795C0;}
	.st111{fill:#8896C0;}
	.st112{fill:#8896C1;}
	.st113{fill:#8997C1;}
	.st114{fill:#8A98C2;}
	.st115{fill:#8B99C2;}
	.st116{fill:#8C99C3;}
	.st117{fill:#8D9AC3;}
	.st118{fill:#8E9BC4;}
	.st119{fill:#8F9BC4;}
	.st120{fill:#919DC5;}
	.st121{fill:#929EC6;}
	.st122{fill:#939FC6;}
	.st123{fill:#94A0C7;}
	.st124{fill:#95A0C7;}
	.st125{fill:#96A1C8;}
	.st126{fill:#97A2C8;}
	.st127{fill:#98A3C9;}
	.st128{fill:#99A4C9;}
	.st129{fill:#9AA4C9;}
	.st130{fill:#9AA5CA;}
	.st131{fill:#9DA7CC;}
	.st132{fill:#9EA8CC;}
	.st133{fill:#9FA9CD;}
	.st134{fill:#A0AACD;}
	.st135{fill:#A2ABCE;}
	.st136{fill:#A2ACCE;}
	.st137{fill:#A3ADCF;}
	.st138{fill:#A4ADCF;}
	.st139{fill:#A5AECF;}
	.st140{fill:#A7B0D1;}
	.st141{fill:#A8B1D1;}
	.st142{fill:#A9B1D2;}
	.st143{fill:url(#SVGID_1_);}
	.st144{fill:none;stroke:#000000;stroke-width:10.9828;}
	.st145{fill:none;stroke:#000000;stroke-width:5.4903;}
	.st146{fill:none;}
	.st147{fill:url(#SVGID_2_);}
	.st148{fill:url(#SVGID_3_);}
	.st149{fill:url(#SVGID_4_);}
	.st150{fill:url(#SVGID_5_);}
	.st151{fill:url(#SVGID_6_);}
	.st152{fill:url(#SVGID_7_);}
	.st153{fill:url(#SVGID_8_);}
	.st154{fill:url(#SVGID_9_);}
	.st155{fill:url(#SVGID_10_);}
	.st156{fill:url(#SVGID_11_);}
	.st157{fill:url(#SVGID_12_);}
	.st158{fill:url(#SVGID_13_);}
	.st159{fill:url(#SVGID_14_);}
	.st160{fill:url(#SVGID_15_);}
	.st161{fill:url(#SVGID_16_);}
	.st162{fill:url(#SVGID_17_);}
	.st163{fill:url(#SVGID_18_);}
	.st164{fill:url(#SVGID_19_);}
	.st165{fill:url(#SVGID_20_);}
	.st166{fill:url(#SVGID_21_);}
	.st167{fill:url(#SVGID_22_);}
	.st168{fill:url(#SVGID_23_);}
	.st169{fill:url(#SVGID_24_);}
	.st170{fill:url(#SVGID_25_);}
	.st171{fill:url(#SVGID_26_);}
	.st172{fill:url(#SVGID_27_);}
	.st173{fill:url(#SVGID_28_);}
	.st174{fill:url(#SVGID_29_);}
	.st175{fill:url(#SVGID_30_);}
	.st176{fill:url(#SVGID_31_);}
	.st177{fill:url(#SVGID_32_);}
	.st178{fill:url(#SVGID_33_);}
	.st179{fill:url(#SVGID_34_);}
	.st180{fill:url(#SVGID_35_);}
	.st181{fill:url(#SVGID_36_);}
	.st182{fill:url(#SVGID_37_);}
	.st183{fill:url(#SVGID_38_);}
	.st184{fill:url(#SVGID_39_);}
	.st185{fill:url(#SVGID_40_);}
	.st186{fill:url(#SVGID_41_);}
	.st187{fill:url(#SVGID_42_);}
	.st188{fill:url(#SVGID_43_);}
	.st189{fill:url(#SVGID_44_);}
	.st190{fill:url(#SVGID_45_);}
	.st191{fill:url(#SVGID_46_);}
	.st192{fill:url(#SVGID_47_);}
	.st193{fill:url(#SVGID_48_);}
	.st194{fill:url(#SVGID_49_);}
	.st195{fill:url(#SVGID_50_);}
	.st196{fill:url(#SVGID_51_);}
	.st197{fill:url(#SVGID_52_);}
	.st198{fill:url(#SVGID_53_);}
	.st199{fill:url(#SVGID_54_);}
	.st200{fill:url(#SVGID_55_);}
	.st201{fill:url(#SVGID_56_);}
	.st202{fill:url(#SVGID_57_);}
	.st203{fill:url(#SVGID_58_);}
	.st204{fill:url(#SVGID_59_);}
	.st205{fill:url(#SVGID_60_);}
	.st206{fill:url(#SVGID_61_);}
	.st207{fill:url(#SVGID_62_);}
	.st208{fill:url(#SVGID_63_);}
	.st209{fill:url(#SVGID_64_);}
</style>
<g>
	<path d="M293.6,1479.6c26.1,3.1,52.1,7.3,67.7,32.3c12.5,18.8,12.5,42.7,13.5,66.7h-81.3c0-9.4,0-17.7-4.2-25
		c-17.7-12.5-41.7-7.3-64.6-9.4c-45.8,0-87.5-1-130.3,3.1c-5.2,2.1-11.5,7.3-12.5,12.5c-2.1,7.3-2.1,16.7,5.2,22.9l9.4,6.3
		c70.9,6.3,140.7,7.3,212.6,12.5c24,3.1,47.9,12.5,62.5,36.5c19.8,35.4,16.7,91.7-9.4,124c-19.8,22.9-45.8,27.1-74,27.1
		c-67.7,3.1-140.7,4.2-208.4-1c-22.9-2.1-45.8-9.4-61.5-30.2c-13.5-21.9-15.6-50-16.7-78.2l81.3,1c-1,13.5-1,28.1,12.5,35.4
		c62.5,4.2,133.4,5.2,194.9-1c6.3-2.1,10.4-9.4,12.5-14.6c2.1-11.5-1-21.9-9.4-27.1l-13.5-3.1l-204.2-12.5
		c-28.1-4.2-59.4-18.8-69.8-49c-8.3-30.2-9.4-66.7,9.4-90.7c34.4-47.9,95.9-35.4,149-40.6L293.6,1479.6z"/>
	<path d="M495.8,1694.3c3.1,7.3,9.4,15.6,16.7,19.8c55.2,5.2,119.8,8.3,174-2.1c9.4-5.2,14.6-14.6,13.5-25v-206.3h83.4l-1,237.6
		c-4.2,22.9-12.5,47.9-40.6,66.7c-17.7,11.5-39.6,11.5-61.5,12.5l-191.7-1c-27.1-2.1-52.1-22.9-65.6-47.9l-8.3-25l-1-242.8h81.3
		L495.8,1694.3z"/>
	<path d="M2123.4,1694.3c3.1,7.3,9.4,15.6,16.7,19.8c52.1,6.3,112.5,5.2,165.7,1c7.3-2.1,14.6-8.3,19.8-14.6l2.1-11.5v-208.4h82.3
		v238.6c-4.2,22.9-16.7,46.9-39.6,59.4c-17.7,11.5-40.6,13.5-61.5,14.6l-191.7-1c-27.1-2.1-53.1-21.9-66.7-45.8
		c-5.2-12.5-9.4-28.1-9.4-43.8v-223h82.3L2123.4,1694.3L2123.4,1694.3z"/>
	<g>
		<g>
			<path d="M1971.3,1644.2l11.5-7.3c31.3-36.5,22.9-84.4,6.3-118.8c-22.9-35.4-52.1-35.4-65.6-36.5h-282.4l-1,311.6h82.3v-110.5v-1
				H1890c32.3,3.1,33.3,24,34.4,52.1c0,19.8,0,41.7,0,59.4h81.3C2005.6,1737,2016.1,1672.4,1971.3,1644.2z M1905.6,1606.7h-5.2
				l-179.2,1v-58.4l179.2,1c7.3,2.1,14.6,7.3,16.7,14.6C1920.2,1575.5,1926.5,1596.3,1905.6,1606.7z"/>
		</g>
	</g>
	<g>
		<g>
			<path d="M1451.3,1480.7h-93.8l-170.9,313.6h94.8c9.4-17.7,17.7-35.4,30.2-55.2H1493c11.5,19.8,19.8,34.4,30.2,54.2l97.9,1
				L1451.3,1480.7z M1344,1672.4c16.7-37.5,38.6-72.9,56.3-110.5c21.9,34.4,37.5,72.9,57.3,109.4L1344,1672.4z"/>
		</g>
	</g>
	<g>
		<g>
			<path d="M1157.5,1624.4c30.2-18.8,28.1-59.4,22.9-90.7c-6.3-28.1-37.5-51.1-64.6-54.2l-288.6-1v313.6h2.1h254.2
				c22.9,0,46.9-2.1,66.7-11.5c22.9-11.5,35.4-35.4,39.6-59.4C1195,1687,1191.8,1643.2,1157.5,1624.4z M907.4,1548.4l177.1,1
				c6.3,2.1,13.5,7.3,16.7,13.5c2.1,9.4,2.1,19.8-5.2,26.1c-5.2,6.3-12.5,7.3-19.8,9.4H908.4L907.4,1548.4L907.4,1548.4z
				 M1100.1,1713c-12.5,9.4-31.3,9.4-49,9.4c-46.9-1-94.8,1-141.7-1V1664l175.1,1c7.3,2.1,16.7,6.3,19.8,14.6
				C1107.4,1689.1,1107.4,1704.7,1100.1,1713z"/>
		</g>
	</g>
	<g>
		<path d="M2471.4,1763c14.6,0,27.1,12.5,27.1,28.1s-12.5,28.1-27.1,28.1c-14.6,0-27.1-12.5-27.1-28.1
			C2443.3,1775.5,2455.8,1763,2471.4,1763L2471.4,1763z M2471.4,1768.2c-12.5,0-21.9,10.4-21.9,22.9c0,12.5,9.4,22.9,21.9,22.9
			s21.9-10.4,21.9-22.9C2493.3,1778.7,2482.9,1768.2,2471.4,1768.2L2471.4,1768.2z M2466.2,1806.8h-5.2v-31.3c2.1-1,5.2-1,8.3-1
			c4.2,0,7.3,1,9.4,2.1c2.1,1,2.1,3.1,2.1,6.3c0,4.2-2.1,6.3-6.3,7.3l0,0c2.1,1,4.2,3.1,5.2,7.3s1,6.3,2.1,7.3h-5.2
			c-1-1-1-4.2-2.1-7.3c-1-4.2-2.1-5.2-6.3-5.2h-3.1v14.6H2466.2z M2466.2,1790.1h3.1c4.2,0,7.3-1,7.3-5.2c0-2.1-2.1-5.2-7.3-5.2
			c-1,0-2.1,0-3.1,0V1790.1z"/>
	</g>
	<g>
		<path class="st0" d="M2021.3,839.8c0,229.2-359.5,414.7-802.3,414.7s-802.3-185.5-802.3-414.7s359.5-414.7,802.3-414.7
			S2021.3,611.6,2021.3,839.8z"/>
	</g>
	<g>
		<path class="st0" d="M1639.9,720c2.1,99-251.1,337.6-626.2,337.6s-617.9-70.9-617.9-279.3S700,416.8,1074.1,402.2
			C1538.8,385.5,1633.7,511.6,1639.9,720z"/>
		<path class="st0" d="M1635.7,718.9c2.1,99-250.1,336.6-622.1,336.6s-614.8-70.9-614.8-277.2s302.2-359.5,675.2-374.1
			C1534.7,386.5,1629.5,511.6,1635.7,718.9z"/>
		<path class="st1" d="M1630.5,718.9c2.1,97.9-248,334.5-619,334.5s-611.7-70.9-611.7-276.1S700,419.9,1071,405.3
			C1530.5,387.6,1625.3,512.6,1630.5,718.9z"/>
		<path class="st2" d="M1627.4,718.9c2.1,96.9-247,332.4-615.8,332.4s-607.5-70.9-607.5-274S703.1,422,1071,408.4
			C1526.3,389.7,1621.1,513.7,1627.4,718.9z"/>
		<path class="st2" d="M1622.2,718.9c2.1,96.9-245.9,330.3-611.7,330.3c-366.8,0-604.4-69.8-604.4-273s297-353.2,662.7-366.8
			C1522.2,390.7,1617,514.7,1622.2,718.9z"/>
		<path class="st2" d="M1618,717.9c2.1,96.9-244.9,328.2-608.5,328.2s-601.2-69.8-601.2-272S703.1,423,1067.8,408.4
			C1518,392.8,1611.8,514.7,1618,717.9z"/>
		<path class="st3" d="M1613.9,717.9c2.1,95.9-242.8,326.1-605.4,326.1s-597.1-69.8-597.1-269.9s293.8-349.1,655.4-363.7
			C1513.8,394.9,1608.6,516.8,1613.9,717.9z"/>
		<path class="st4" d="M1608.6,717.9c2.1,95.9-241.7,324.1-601.2,324.1s-593.9-69.8-593.9-268.8s291.8-347,652.3-360.5
			C1510.7,395.9,1603.4,516.8,1608.6,717.9z"/>
		<path class="st4" d="M1604.5,717.9c2.1,95.9-239.7,322-598.1,322s-590.8-68.8-590.8-267.8c0-198,290.7-344.9,648.1-358.5
			C1506.5,397,1599.3,517.8,1604.5,717.9z"/>
		<path class="st5" d="M1600.3,716.9c2.1,94.8-238.6,320.9-595,320.9c-355.3,0-587.7-68.8-587.7-265.7s288.6-342.8,644-356.4
			C1501.3,399,1594.1,518.9,1600.3,716.9z"/>
		<path class="st5" d="M1596.1,716.9c2.1,93.8-237.6,318.9-590.8,318.9S421.8,968,421.8,772.1s286.6-341.8,640.8-355.3
			C1498.2,400.1,1589.9,519.9,1596.1,716.9z"/>
		<path class="st6" d="M1590.9,715.8c2.1,93.8-236.5,316.8-587.7,316.8S422.8,964.9,422.8,771s285.5-339.7,636.7-352.2
			C1494,401.1,1585.7,519.9,1590.9,715.8z"/>
		<path class="st7" d="M1586.8,715.8c2.1,93.8-234.5,315.7-583.5,315.7C653.1,1031.5,426,963.8,426,770s283.4-336.6,632.5-350.1
			C1489.9,403.2,1581.6,522,1586.8,715.8z"/>
		<path class="st7" d="M1582.6,715.8c2.1,92.7-233.4,313.6-580.4,313.6S429.1,961.7,429.1,770s281.3-334.5,628.3-348
			C1485.7,405.3,1577.4,522,1582.6,715.8z"/>
		<path class="st8" d="M1578.4,715.8c2.1,92.7-232.4,311.6-577.3,311.6s-570-66.7-570-258.4S711.5,436.6,1056.4,423
			C1481.5,406.3,1572.2,523,1578.4,715.8z"/>
		<path class="st8" d="M1574.3,714.8c2.1,91.7-231.3,309.5-573.1,309.5c-342.8,0-566.9-66.7-566.9-257.4s278.2-331.4,621-343.9
			C1477.3,408.4,1569,524.1,1574.3,714.8z"/>
		<path class="st9" d="M1569,714.8c2.1,91.7-229.2,307.4-570,307.4c-341.8,0-563.7-66.7-563.7-255.3s276.1-329.3,617.9-341.8
			C1474.2,409.5,1563.8,525.1,1569,714.8z"/>
		<path class="st10" d="M1564.9,714.8c2.1,91.7-228.2,306.4-566.9,306.4s-559.6-66.7-559.6-253.2s275.1-327.2,613.7-339.7
			C1469,411.6,1559.7,525.1,1564.9,714.8z"/>
		<path class="st11" d="M1559.7,714.8c2.1,90.7-226.1,304.3-562.7,304.3s-556.4-66.7-556.4-252.2s273-325.1,609.6-337.6
			C1465.9,412.6,1554.5,527.2,1559.7,714.8z"/>
		<path class="st12" d="M1555.5,713.7c2.1,90.7-225.1,302.2-559.6,302.2s-553.3-65.6-553.3-251.1s270.9-323,606.4-335.5
			C1461.7,413.6,1551.3,527.2,1555.5,713.7z"/>
		<path class="st12" d="M1551.3,713.7c2.1,89.6-224,300.1-556.4,300.1s-549.1-65.6-549.1-249c0-184.4,269.9-320.9,602.3-333.4
			C1457.6,415.7,1546.1,528.3,1551.3,713.7z"/>
		<path class="st13" d="M1547.2,712.7c2.1,89.6-223,298-552.3,298s-546-64.6-546-248S716.7,443.9,1047,431.4
			C1453.4,416.8,1542,529.3,1547.2,712.7z"/>
		<path class="st14" d="M1543,712.7c2.1,88.6-220.9,297-549.1,297S451,945.1,451,762.7s265.7-316.8,593.9-329.3
			C1449.2,418.8,1537.8,530.3,1543,712.7z"/>
		<path class="st15" d="M1537.8,712.7c2.1,88.6-219.9,294.9-546,294.9S453.1,943,453.1,762.7S717.7,448,1043.9,435.5
			C1445,419.9,1532.6,530.3,1537.8,712.7z"/>
		<path class="st16" d="M1533.6,712.7c2.1,88.6-218.8,292.8-542.9,292.8s-535.6-64.6-535.6-242.8c0-179.2,262.6-312.6,586.7-325.1
			C1441.9,422,1529.4,532.4,1533.6,712.7z"/>
		<path class="st17" d="M1529.4,711.7c2.1,87.5-217.8,290.7-538.7,290.7s-532.5-63.6-532.5-241.7s261.5-310.5,582.5-322
			C1436.7,423,1524.2,532.4,1529.4,711.7z"/>
		<path class="st18" d="M1525.3,711.7c2.1,86.5-215.7,289.7-535.6,289.7s-529.3-63.6-529.3-240.7s259.5-308.4,579.4-320.9
			C1432.5,425.1,1520.1,533.5,1525.3,711.7z"/>
		<path class="st19" d="M1520.1,710.6c2.1,86.5-213.6,287.6-532.5,287.6s-525.2-62.5-525.2-238.6s257.4-307.4,575.2-318.9
			C1429.4,426.1,1515.9,534.5,1520.1,710.6z"/>
		<path class="st20" d="M1515.9,710.6c2.1,86.5-212.6,285.5-528.3,285.5s-522-62.5-522-237.6s256.3-304.3,572.1-316.8
			C1425.2,428.2,1511.7,535.6,1515.9,710.6z"/>
		<path class="st21" d="M1511.7,710.6c2.1,85.4-211.5,283.4-525.2,283.4s-518.9-62.5-518.9-236.5s254.2-302.2,567.9-313.6
			C1421.1,429.3,1506.5,535.6,1511.7,710.6z"/>
		<path class="st22" d="M1506.5,710.6c2.1,85.4-210.5,281.3-522,281.3s-514.8-62.5-514.8-234.5s252.2-300.1,563.7-311.6
			C1416.9,430.3,1502.4,537.6,1506.5,710.6z"/>
		<path class="st23" d="M1503.4,709.6c2.1,85.4-208.4,279.3-517.9,279.3s-511.6-61.5-511.6-233.4s251.1-298,559.6-310.5
			C1412.7,432.4,1498.2,537.6,1503.4,709.6z"/>
		<path class="st24" d="M1498.2,709.6c2.1,84.4-207.4,277.2-514.8,277.2s-508.5-61.5-508.5-231.3S725,459.5,1031.4,448
			C1408.6,434.5,1494,538.7,1498.2,709.6z"/>
		<path class="st25" d="M1494,709.6c2.1,83.4-206.3,276.1-511.6,276.1S477,924.2,477,755.4s247-294.9,552.3-305.3
			C1404.4,435.5,1489.9,539.7,1494,709.6z"/>
		<path class="st26" d="M1489.9,709.6c2.1,83.4-205.3,274-507.5,274c-303.2,0-501.2-61.5-501.2-228.2s245.9-292.8,548.1-303.2
			C1400.2,437.6,1484.6,540.8,1489.9,709.6z"/>
		<path class="st27" d="M1484.6,708.5c2.1,83.4-204.2,273-504.3,273c-301.1,0-498.1-60.4-498.1-227.2s243.8-290.7,543.9-302.2
			C1397.1,438.6,1480.5,540.8,1484.6,708.5z"/>
		<path class="st28" d="M1480.5,708.5c2.1,82.3-202.1,270.9-501.2,270.9c-298,0-495-60.4-495-226.1s241.7-288.6,540.8-300.1
			C1392.9,439.7,1476.3,542.8,1480.5,708.5z"/>
		<path class="st29" d="M1476.3,707.5c2.1,82.3-200.1,268.8-497,268.8s-490.8-59.4-490.8-224s240.7-286.6,537.7-297
			C1387.7,441.8,1472.1,542.8,1476.3,707.5z"/>
		<path class="st30" d="M1472.1,707.5c2.1,81.3-199,266.8-493.9,266.8s-487.7-59.4-487.7-223s238.6-284.5,533.5-294.9
			C1384.6,442.8,1466.9,543.9,1472.1,707.5z"/>
		<path class="st31" d="M1466.9,707.5c2.1,81.3-198,264.7-490.8,264.7s-484.5-59.4-484.5-220.9S729.2,468.9,1021,458.4
			C1380.4,443.9,1462.8,544.9,1466.9,707.5z"/>
		<path class="st32" d="M1462.8,707.5c2.1,81.3-196.9,262.6-486.6,262.6s-481.4-59.4-481.4-219.9s235.5-280.3,525.2-290.7
			C1376.3,445.9,1458.6,546,1462.8,707.5z"/>
		<path class="st33" d="M1458.6,707.5c2.1,80.2-194.9,260.5-483.5,260.5s-477.2-59.4-477.2-217.8c0-159.4,233.4-278.2,522-288.6
			C1372.1,448,1454.4,546,1458.6,707.5z"/>
		<path class="st34" d="M1453.4,706.4c2.1,80.2-193.8,259.5-479.3,259.5c-286.6,0-474.1-58.4-474.1-216.7S732.3,473,1017.8,462.6
			C1367.9,449.1,1450.3,547,1453.4,706.4z"/>
		<path class="st35" d="M1450.3,706.4c2.1,79.2-192.8,257.4-476.2,257.4s-471-58.4-471-215.7s230.3-274,513.7-284.5
			C1363.8,451.1,1445,548.1,1450.3,706.4z"/>
		<path class="st36" d="M1445,705.4c2.1,79.2-191.7,255.3-473.1,255.3s-466.8-57.3-466.8-213.6c0-155.3,228.2-273,509.5-282.4
			C1360.6,452.2,1440.9,549.1,1445,705.4z"/>
		<path class="st37" d="M1440.9,705.4c2.1,78.2-189.6,253.2-468.9,253.2S508.3,901.3,508.3,746c0-154.2,227.2-269.9,506.4-280.3
			C1355.4,454.3,1436.7,549.1,1440.9,705.4z"/>
		<path class="st38" d="M1436.7,705.4c2.1,78.2-188.6,252.2-465.8,252.2s-460.6-57.3-460.6-210.5s225.1-267.8,502.2-278.2
			C1352.3,455.3,1432.5,551.2,1436.7,705.4z"/>
		<path class="st39" d="M1431.5,705.4c2.1,78.2-186.5,250.1-462.7,250.1c-275.1,0-457.4-57.3-457.4-209.4s223-265.7,499.1-276.1
			C1348.1,456.4,1427.3,551.2,1431.5,705.4z"/>
		<path class="st40" d="M1427.3,704.4c2.1,77.1-185.5,248-458.5,248S515.6,896.1,515.6,745s221.9-263.6,495-274
			C1344,458.4,1423.2,552.2,1427.3,704.4z"/>
		<path class="st41" d="M1423.2,704.4c2.1,76.1-184.4,245.9-455.4,245.9S517.7,894,517.7,744s219.9-262.6,490.8-272
			C1339.8,459.5,1419,553.3,1423.2,704.4z"/>
		<path class="st42" d="M1419,704.4c2.1,76.1-183.4,243.8-452.2,243.8s-447-56.3-447-205.3S737.5,482.4,1007.4,473
			C1335.6,461.6,1414.8,554.3,1419,704.4z"/>
		<path class="st43" d="M1413.8,704.4c2.1,76.1-181.3,242.8-448.1,242.8s-442.9-56.3-442.9-204.2s216.7-258.4,483.5-267.8
			C1331.5,463.7,1410.7,554.3,1413.8,704.4z"/>
		<path class="st44" d="M1409.6,703.3c2.1,75-180.3,240.7-444.9,240.7S525,888.8,525,741.9s214.7-256.3,479.3-265.7
			C1328.3,464.7,1405.5,556.4,1409.6,703.3z"/>
		<path class="st45" d="M1405.5,703.3c2.1,75-179.2,238.6-440.8,238.6c-262.6,0-436.6-55.2-436.6-200.1s212.6-253.2,475.2-263.6
			C1323.1,465.7,1402.3,556.4,1405.5,703.3z"/>
		<path class="st46" d="M1401.3,702.3c2.1,75-178.2,236.5-437.6,236.5c-260.5,0-433.5-54.2-433.5-199s211.5-252.2,472-261.5
			C1319,467.8,1397.1,557.4,1401.3,702.3z"/>
		<path class="st47" d="M1397.1,702.3c2.1,74-176.1,234.5-434.5,234.5s-429.3-54.2-429.3-198s209.4-250.1,467.9-258.4
			C1315.8,468.9,1392.9,558.5,1397.1,702.3z"/>
		<path class="st48" d="M1391.9,702.3c2.1,72.9-174,233.4-430.3,233.4s-426.2-54.2-426.2-195.9s208.4-248,463.7-257.4
			C1311.7,470.9,1387.7,559.5,1391.9,702.3z"/>
		<path class="st49" d="M1387.7,702.3c2.1,72.9-173,231.3-427.2,231.3s-423.1-54.2-423.1-194.9S743.8,492.8,998,483.5
			C1307.5,472,1383.6,559.5,1387.7,702.3z"/>
		<path class="st50" d="M1382.5,701.2c2.1,72.9-171.9,229.2-424.1,229.2s-418.9-54.2-418.9-193.8s204.2-243.8,456.4-253.2
			C1303.3,474.1,1379.4,561.6,1382.5,701.2z"/>
		<path class="st51" d="M1378.4,701.2c2.1,71.9-170.9,228.2-419.9,228.2s-415.8-53.1-415.8-191.7S745.9,496,995.9,487.6
			C1299.2,475.1,1375.2,561.6,1378.4,701.2z"/>
		<path class="st52" d="M1374.2,700.2c2.1,71.9-169.8,226.1-416.8,226.1s-412.6-53.1-412.6-189.6s201.1-239.7,449.1-248
			C1295,477.2,1371.1,562.6,1374.2,700.2z"/>
		<path class="st53" d="M1370,700.2c2.1,70.9-167.8,224-413.7,224s-409.5-52.1-409.5-188.6s199-237.6,444.9-247
			C1290.8,478.2,1365.9,563.7,1370,700.2z"/>
		<path class="st54" d="M1365.9,700.2c1,70.9-166.7,221.9-410.6,221.9S550,870,550,734.6s198-235.5,440.8-244.9
			C1286.7,480.3,1362.7,564.7,1365.9,700.2z"/>
		<path class="st55" d="M1360.6,700.2c1,70.9-165.7,219.9-406.4,219.9S552,868,552,734.6s195.9-233.4,437.6-241.7
			C1283.5,481.4,1357.5,564.7,1360.6,700.2z"/>
		<path class="st56" d="M1356.5,699.1c1,69.8-163.6,217.8-403.3,217.8s-399.1-52.1-399.1-184.4s193.8-231.3,433.5-239.7
			C1279.4,482.4,1353.4,566.8,1356.5,699.1z"/>
		<path class="st57" d="M1352.3,699.1c1,69.8-162.6,215.7-400.1,215.7s-394.9-51.1-394.9-183.4S750,502.2,986.6,492.8
			C1275.2,484.5,1348.1,566.8,1352.3,699.1z"/>
		<path class="st58" d="M1348.1,699.1c1,68.8-160.5,213.6-396,213.6s-391.8-51.1-391.8-181.3S751.1,503.2,985.5,496
			C1271,485.5,1345,567.9,1348.1,699.1z"/>
		<path class="st59" d="M1344,699.1c1,68.8-159.4,212.6-392.8,212.6s-388.7-51.1-388.7-179.2s188.6-226.1,422-233.4
			C1266.9,487.6,1339.8,568.9,1344,699.1z"/>
		<path class="st60" d="M1338.8,698.1c1,67.7-158.4,210.5-389.7,210.5s-385.5-51.1-385.5-178.2s187.6-224,418.9-231.3
			C1262.7,488.7,1335.6,569.9,1338.8,698.1z"/>
		<path class="st61" d="M1334.6,698.1c1,67.7-157.3,208.4-385.5,208.4s-381.4-50-381.4-177.1s185.5-221.9,414.7-229.2
			C1258.5,490.7,1331.5,569.9,1334.6,698.1z"/>
		<path class="st62" d="M1329.4,697.1c1,67.7-155.3,207.4-382.4,207.4s-378.2-50-378.2-175.1c0-126.1,184.4-218.8,410.6-227.2
			C1254.4,492.8,1327.3,572,1329.4,697.1z"/>
		<path class="st63" d="M1326.3,697.1c1,66.7-154.2,205.3-379.3,205.3s-375.1-49-375.1-174s182.4-217.8,406.4-225.1
			C1250.2,493.9,1323.1,572,1326.3,697.1z"/>
		<path class="st64" d="M1321,697.1c1,66.7-153.2,203.2-376.2,203.2s-371-49-371-173s180.3-215.7,403.3-223
			C1247.1,494.9,1317.9,573.1,1321,697.1z"/>
		<path class="st65" d="M1316.9,697.1c1,66.7-152.1,201.1-372,201.1c-220.9,0-367.8-49-367.8-170.9s179.2-213.6,399.1-220.9
			C1242.9,497,1313.8,574.1,1316.9,697.1z"/>
		<path class="st66" d="M1312.7,696c1,65.6-150,199-368.9,199c-217.8,0-364.7-49-364.7-169.8s177.1-211.5,394.9-218.8
			C1238.7,498,1309.6,575.1,1312.7,696z"/>
		<path class="st67" d="M1307.5,696c1,64.6-149,196.9-364.7,196.9S581.2,845,581.2,725.2S756.3,515.8,972,508.5
			C1234.6,499.1,1305.4,575.1,1307.5,696z"/>
		<path class="st68" d="M1303.3,695c1,64.6-146.9,195.9-361.6,195.9s-357.4-47.9-357.4-166.7s174-207.4,387.6-214.7
			C1230.4,501.2,1300.2,577.2,1303.3,695z"/>
		<path class="st69" d="M1299.2,695c1,64.6-145.9,193.8-358.5,193.8s-354.3-46.9-354.3-164.6s171.9-205.3,383.5-212.6
			C1226.2,503.2,1296,577.2,1299.2,695z"/>
		<path class="st70" d="M1295,695c1,63.6-144.8,191.7-354.3,191.7s-351.2-46.9-351.2-163.6s169.8-203.2,380.3-210.5
			C1222.1,504.3,1291.9,578.3,1295,695z"/>
		<path class="st71" d="M1289.8,695c1,62.5-143.8,189.6-351.2,189.6s-347-46.9-347-162.6S760.4,521,967.8,513.7
			C1217.9,506.4,1287.7,578.3,1289.8,695z"/>
		<path class="st72" d="M1285.6,693.9c1,62.5-141.7,188.6-348,188.6s-343.9-46.9-343.9-160.5s166.7-199,372-206.3
			C1214.8,507.4,1283.5,580.4,1285.6,693.9z"/>
		<path class="st73" d="M1281.5,693.9c1,62.5-140.7,186.5-343.9,186.5c-204.2,0-340.7-46.9-340.7-159.4s164.6-196.9,368.9-204.2
			C1210.6,508.5,1278.3,580.4,1281.5,693.9z"/>
		<path class="st74" d="M1276.2,693.9c1,61.5-139.6,184.4-340.7,184.4S597.9,832.5,597.9,721s163.6-194.9,364.7-202.1
			C1206.4,510.5,1274.2,581.4,1276.2,693.9z"/>
		<path class="st75" d="M1273.1,693.9c1,61.5-137.5,182.4-337.6,182.4c-199,0-333.4-45.8-333.4-156.3s161.5-193.8,360.5-200.1
			C1202.3,511.6,1270,582.4,1273.1,693.9z"/>
		<path class="st76" d="M1267.9,692.9c1,61.5-136.5,181.3-333.4,181.3S604.1,828.4,604.1,720s159.4-191.7,356.4-198
			C1198.1,513.7,1265.8,583.5,1267.9,692.9z"/>
		<path class="st77" d="M1263.7,692.9c1,60.4-135.5,179.2-330.3,179.2s-327.2-45.8-327.2-153.2s158.4-189.6,353.2-194.9
			C1193.9,514.7,1260.6,583.5,1263.7,692.9z"/>
		<path class="st78" d="M1259.6,691.9c1,60.4-133.4,177.1-326.1,177.1s-323-44.8-323-152.1S766.7,530.3,959.5,523
			C1189.8,516.8,1256.4,585.6,1259.6,691.9z"/>
		<path class="st79" d="M1254.4,691.9c1,59.4-132.3,175.1-323,175.1s-319.9-44.8-319.9-150s155.3-184.4,344.9-191.7
			C1185.6,517.8,1252.3,585.6,1254.4,691.9z"/>
		<path class="st80" d="M1250.2,691.9c1,59.4-131.3,173-319.9,173s-316.8-43.8-316.8-149c0-104.2,153.2-183.4,341.8-189.6
			C1181.4,519.9,1248.1,586.6,1250.2,691.9z"/>
		<path class="st81" d="M1246,691.9c1,58.4-130.3,170.9-315.7,170.9c-186.5,0-313.6-43.8-313.6-146.9s151.1-181.3,337.6-186.5
			C1178.3,521,1243.9,587.7,1246,691.9z"/>
		<path class="st82" d="M1241.9,690.8c1,58.4-128.2,169.8-312.6,169.8s-309.5-43.8-309.5-145.9s150-179.2,334.5-184.4
			C1173.1,523,1238.7,588.7,1241.9,690.8z"/>
		<path class="st83" d="M1236.6,690.8c1,57.3-127.1,167.8-309.5,167.8s-306.4-43.8-306.4-143.8s148-177.1,330.3-183.4
			C1170,524.1,1234.6,588.7,1236.6,690.8z"/>
		<path class="st84" d="M1232.5,689.8c1,57.3-126.1,165.7-305.3,165.7c-180.3,0-303.2-42.7-303.2-142.8s145.9-175.1,326.1-180.3
			C1165.8,525.1,1230.4,590.8,1232.5,689.8z"/>
		<path class="st85" d="M1228.3,689.8c1,57.3-124,164.6-302.2,164.6s-299.1-42.7-299.1-141.7s144.8-173,322-178.2
			C1161.6,527.2,1226.2,590.8,1228.3,689.8z"/>
		<path class="st86" d="M1224.1,689.8c1,56.3-123,162.6-299.1,162.6s-295.9-41.7-295.9-139.6S771.9,541.8,948,536.6
			C1157.5,528.3,1221,591.8,1224.1,689.8z"/>
		<path class="st87" d="M1220,689.8c1,56.3-120.9,160.5-294.9,160.5s-292.8-41.7-292.8-138.6S773,542.8,947,537.6
			C1153.3,530.3,1217.9,592.9,1220,689.8z"/>
		<path class="st88" d="M1214.8,688.7c1,56.3-119.8,158.4-291.8,158.4s-288.6-41.7-288.6-136.5S774,543.9,944.9,538.7
			C1149.1,532.4,1212.7,593.9,1214.8,688.7z"/>
		<path class="st89" d="M1210.6,688.7C1211.6,744,1091.8,845,923,845s-285.5-41.7-285.5-135.5S775,544.9,944.9,539.7
			C1146,533.5,1208.5,593.9,1210.6,688.7z"/>
		<path class="st90" d="M1206.4,688.7c1,54.2-117.7,154.2-284.5,154.2c-167.8,0-282.4-40.6-282.4-133.4S775,547,942.8,541.8
			C1140.8,535.6,1204.3,596,1206.4,688.7z"/>
		<path class="st91" d="M1201.2,688.7c1,54.2-115.7,152.1-281.3,152.1s-279.3-40.6-279.3-132.3S775,548.1,940.7,542.8
			C1137.7,536.6,1200.2,596,1201.2,688.7z"/>
		<path class="st92" d="M1197,687.7c1,54.2-114.6,150-277.2,150c-163.6,0-275.1-40.6-275.1-131.3S777.1,547,940.7,542.8
			C1133.5,537.6,1196,597,1197,687.7z"/>
		<path class="st93" d="M1192.9,687.7c1,53.1-113.6,149-274,149s-272-40.6-272-130.3s131.3-157.3,291.8-161.5
			C1129.3,539.7,1190.8,598.1,1192.9,687.7z"/>
		<path class="st94" d="M1188.7,686.6c1,52.1-111.5,146.9-270.9,146.9S649,792.9,649,705.4c0-88.6,129.2-155.3,287.6-159.4
			C1125.2,540.8,1186.6,599.1,1188.7,686.6z"/>
		<path class="st95" d="M1183.5,686.6c1,52.1-110.5,144.8-267.8,144.8s-263.6-38.6-263.6-126.1s127.1-152.1,284.5-157.3
			C1121,542.8,1182.5,599.1,1183.5,686.6z"/>
		<path class="st96" d="M1179.3,686.6c1,52.1-109.4,143.8-263.6,143.8c-155.3,0-261.5-39.6-261.5-125s126.1-150,280.3-155.3
			C1116.8,543.9,1178.3,601.2,1179.3,686.6z"/>
		<path class="st97" d="M1175.2,686.6c1,51.1-107.3,141.7-260.5,141.7c-152.1,0-258.4-38.6-258.4-123s124-149,276.1-153.2
			C1112.6,546,1173.1,601.2,1175.2,686.6z"/>
		<path class="st98" d="M1171,685.6c1,51.1-106.3,139.6-257.4,139.6c-150,0-255.3-38.6-255.3-121.9s121.9-146.9,273-151.1
			C1108.5,547,1168.9,602.2,1171,685.6z"/>
		<path class="st99" d="M1166.8,685.6c1,51.1-105.2,137.5-253.2,137.5s-251.1-38.6-251.1-120.9s120.9-144.8,268.8-149
			C1104.3,549.1,1164.7,603.3,1166.8,685.6z"/>
		<path class="st100" d="M1161.6,684.6c1,50-104.2,135.5-250.1,135.5c-146.9,0-248-38.6-248-119.8s118.8-142.8,264.7-146.9
			C1101.2,550.1,1160.6,604.3,1161.6,684.6z"/>
		<path class="st101" d="M1157.5,684.6c1,50-102.1,134.4-247,134.4s-244.9-37.5-244.9-117.7s116.7-140.7,261.5-144.8
			C1097,551.2,1156.4,604.3,1157.5,684.6z"/>
		<path class="st102" d="M1152.2,684.6c1,49-101.1,132.3-242.8,132.3s-240.7-37.5-240.7-115.7c0-78.2,115.7-138.6,257.4-142.8
			C1092.8,553.3,1151.2,606.4,1152.2,684.6z"/>
		<path class="st103" d="M1149.1,684.6c1,49-100,130.3-239.7,130.3c-139.6,0-237.6-36.5-237.6-114.6c0-77.1,113.6-136.5,253.2-139.6
			C1088.7,554.3,1147,606.4,1149.1,684.6z"/>
		<path class="st104" d="M1143.9,683.5c1,47.9-97.9,128.2-236.5,128.2s-234.5-36.5-234.5-113.6c0-76.1,111.5-134.4,250.1-138.6
			C1084.5,556.4,1142.9,607.4,1143.9,683.5z"/>
		<path class="st105" d="M1139.7,683.5c1,47.9-96.9,126.1-233.4,126.1c-135.5,0-231.3-36.5-231.3-111.5s110.5-132.3,245.9-136.5
			C1080.3,557.4,1138.7,608.5,1139.7,683.5z"/>
		<path class="st106" d="M1135.6,683.5c1,46.9-95.9,125-229.2,125s-227.2-36.5-227.2-110.5s108.4-130.3,241.7-134.4
			C1076.2,559.5,1133.5,609.5,1135.6,683.5z"/>
		<path class="st107" d="M1130.4,683.5c1,46.9-93.8,123-226.1,123s-224-35.4-224-109.4c0-72.9,106.3-128.2,238.6-131.3
			C1072,561.6,1129.3,609.5,1130.4,683.5z"/>
		<path class="st108" d="M1126.2,682.5c1,46.9-92.7,120.9-221.9,120.9c-130.3,0-220.9-35.4-220.9-107.3s105.2-126.1,234.5-130.3
			C1068.9,562.6,1125.2,610.6,1126.2,682.5z"/>
		<path class="st109" d="M1122,682.5c1,45.8-91.7,119.8-218.8,119.8s-216.7-35.4-216.7-105.2c0-70.9,103.2-125,230.3-128.2
			C1064.7,563.7,1121,611.6,1122,682.5z"/>
		<path class="st110" d="M1117.9,681.4c1,45.8-90.7,117.7-215.7,117.7S688.5,763.8,688.5,695c0-69.8,102.1-123,226.1-125
			C1059.5,565.8,1116.8,612.7,1117.9,681.4z"/>
		<path class="st111" d="M1112.6,681.4c1,45.8-88.6,115.7-211.5,115.7s-210.5-35.4-210.5-103.2s100-119.8,223-123
			C1056.4,566.8,1111.6,612.7,1112.6,681.4z"/>
		<path class="st112" d="M1108.5,681.4c1,44.8-87.5,113.6-208.4,113.6s-207.4-34.4-207.4-101.1s97.9-117.7,218.8-120.9
			C1052.2,567.9,1107.4,614.7,1108.5,681.4z"/>
		<path class="st113" d="M1104.3,681.4c1,43.8-85.4,111.5-205.3,111.5c-118.8,0-203.2-34.4-203.2-100s96.9-115.7,215.7-119.8
			C1048,569.9,1103.3,614.7,1104.3,681.4z"/>
		<path class="st114" d="M1099.1,680.4c1,43.8-84.4,109.4-201.1,109.4s-200.1-33.3-200.1-99s94.8-114.6,211.5-116.7
			C1043.9,572,1099.1,615.8,1099.1,680.4z"/>
		<path class="st115" d="M1096,680.4c1,43.8-83.4,107.3-198,107.3s-196.9-33.3-196.9-96.9s92.7-112.5,207.4-114.6
			C1039.7,573.1,1093.9,616.8,1096,680.4z"/>
		<path class="st116" d="M1090.8,680.4c1,42.7-81.3,105.2-194.9,105.2c-112.5,0-192.8-33.3-192.8-95.9s91.7-110.5,204.2-112.5
			C1035.5,575.1,1089.7,617.9,1090.8,680.4z"/>
		<path class="st117" d="M1086.6,680.4c1,41.7-80.2,104.2-190.7,104.2s-189.6-33.3-189.6-93.8s89.6-108.4,200.1-110.5
			C1032.4,576.2,1085.6,617.9,1086.6,680.4z"/>
		<path class="st118" d="M1082.4,679.3c1,41.7-79.2,102.1-187.6,102.1s-186.5-32.3-186.5-92.7c0-59.4,87.5-106.3,195.9-108.4
			C1027.2,578.3,1081.4,620,1082.4,679.3z"/>
		<path class="st119" d="M1077.2,679.3c1,41.7-78.2,101.1-183.4,101.1c-106.3,0-183.4-32.3-183.4-90.7
			c0-59.4,86.5-104.2,191.7-106.3C1024.1,579.3,1077.2,620,1077.2,679.3z"/>
		<path class="st120" d="M1073.1,678.3c1,40.6-76.1,99-180.3,99S713.6,745,713.6,687.7S798,585.6,902.2,583.5
			C1019.9,580.4,1072,621,1073.1,678.3z"/>
		<path class="st121" d="M1068.9,678.3c1,40.6-75,96.9-177.1,96.9s-176.1-32.3-176.1-88.6s82.3-100,184.4-102.1
			C1015.7,582.4,1068.9,622,1068.9,678.3z"/>
		<path class="st122" d="M1064.7,678.3c1,40.6-74,94.8-173,94.8c-100,0-173-31.3-173-86.5s81.3-97.9,181.3-100
			C1011.6,583.5,1063.7,623.1,1064.7,678.3z"/>
		<path class="st123" d="M1059.5,678.3c1,39.6-71.9,92.7-169.8,92.7s-168.8-31.3-168.8-85.4c0-54.2,79.2-95.9,177.1-97.9
			C1007.4,585.6,1059.5,623.1,1059.5,678.3z"/>
		<path class="st124" d="M1055.3,678.3c1,38.6-70.9,90.7-166.7,90.7s-165.7-30.2-165.7-83.4c0-53.1,78.2-93.8,173-95.9
			C1003.2,586.6,1054.3,625.2,1055.3,678.3z"/>
		<path class="st125" d="M1051.2,677.3c1,38.6-69.8,88.6-162.6,88.6c-93.8,0-162.6-30.2-162.6-82.3c0-52.1,76.1-91.7,169.8-93.8
			C1000.1,588.7,1051.2,625.2,1051.2,677.3z"/>
		<path class="st126" d="M1047,677.3c1,38.6-67.7,87.5-159.4,87.5s-159.4-30.2-159.4-80.2c0-51.1,74-90.7,165.7-91.7
			C994.9,589.7,1046,626.2,1047,677.3z"/>
		<path class="st127" d="M1042.8,676.2c1,37.5-66.7,85.4-156.3,85.4s-155.3-30.2-155.3-79.2c0-49,72.9-88.6,161.5-89.6
			C990.7,591.8,1041.8,627.2,1042.8,676.2z"/>
		<path class="st128" d="M1037.6,676.2c1,37.5-65.6,83.4-152.1,83.4s-152.1-29.2-152.1-78.2c0-47.9,70.9-85.4,157.3-87.5
			C987.6,592.9,1037.6,628.3,1037.6,676.2z"/>
		<path class="st129" d="M1033.5,676.2c1,36.5-64.6,81.3-149,81.3s-149-29.2-149-76.1c0-46.9,68.8-83.4,154.2-85.4
			C983.4,594.9,1032.4,628.3,1033.5,676.2z"/>
		<path class="st130" d="M1029.3,676.2c0,36.5-62.5,80.2-144.8,80.2c-83.4,0-144.8-28.1-144.8-75c0-46.9,67.7-81.3,150-83.4
			C979.3,596,1029.3,630.4,1029.3,676.2z"/>
		<path class="st131" d="M1024.1,675.2c0,36.5-61.5,78.2-141.7,78.2c-81.3,0-141.7-28.1-141.7-72.9c0-44.8,65.6-80.2,146.9-81.3
			C975.1,597,1024.1,630.4,1024.1,675.2z"/>
		<path class="st132" d="M1019.9,675.2c0,35.4-59.4,76.1-138.6,76.1c-78.2,0-138.6-28.1-138.6-71.9c0-43.8,63.6-78.2,142.8-79.2
			C970.9,599.1,1019.9,631.4,1019.9,675.2z"/>
		<path class="st132" d="M1015.7,675.2c0,35.4-58.4,74-135.5,74c-76.1,0-135.5-28.1-135.5-69.8s62.5-76.1,138.6-76.1
			C966.8,601.2,1014.7,632.5,1015.7,675.2z"/>
		<path class="st133" d="M1011.6,675.2c0,35.4-57.3,72.9-131.3,72.9c-75,0-131.3-28.1-131.3-68.8c0-41.7,60.4-74,135.5-75
			C962.6,602.2,1010.5,633.5,1011.6,675.2z"/>
		<path class="st134" d="M1006.4,674.1c0,34.4-56.3,70.9-128.2,70.9c-72.9,0-128.2-27.1-128.2-67.7s58.4-71.9,131.3-72.9
			C958.4,604.3,1006.4,633.5,1006.4,674.1z"/>
		<path class="st135" d="M1002.2,674.1c0,33.3-54.2,68.8-125,68.8c-69.8,0-125-27.1-125-66.7s57.3-69.8,127.1-69.8
			C955.3,605.4,1002.2,635.6,1002.2,674.1z"/>
		<path class="st136" d="M998,673.1c0,33.3-53.1,66.7-120.9,66.7s-120.9-27.1-120.9-64.6c0-37.5,55.2-67.7,123-67.7
			C951.1,606.4,998,635.6,998,673.1z"/>
		<path class="st137" d="M993.9,673.1c0,33.3-52.1,64.6-117.7,64.6s-117.7-27.1-117.7-62.5c0-36.5,53.1-65.6,119.8-66.7
			C945.9,608.5,992.8,636.6,993.9,673.1z"/>
		<path class="st138" d="M989.7,673.1c0,32.3-51.1,62.5-114.6,62.5s-114.6-26.1-114.6-61.5s52.1-63.6,115.7-64.6
			C942.8,609.5,989.7,637.7,989.7,673.1z"/>
		<path class="st139" d="M984.5,673.1c0,32.3-49,61.5-110.5,61.5s-110.5-26.1-110.5-59.4c0-34.4,50-61.5,111.5-61.5
			C938.6,611.6,984.5,638.7,984.5,673.1z"/>
		<path class="st140" d="M980.3,672.1c0,32.3-47.9,59.4-107.3,59.4s-107.3-25-107.3-58.4s49-59.4,107.3-59.4
			C934.5,612.7,980.3,638.7,980.3,672.1z"/>
		<path class="st141" d="M975.1,672.1c0,31.3-45.8,57.3-104.2,57.3s-104.2-25-104.2-57.3s46.9-57.3,104.2-57.3
			C930.3,614.7,975.1,640.8,975.1,672.1z"/>
		<path class="st142" d="M972,671c0,30.2-44.8,56.3-101.1,56.3c-55.2,0-101.1-25-101.1-56.3c0-30.2,44.8-56.3,101.1-56.3
			C926.1,615.8,972,640.8,972,671z"/>
	</g>
	
		<linearGradient id="SVGID_1_" gradientUnits="userSpaceOnUse" x1="1286.5798" y1="929.0051" x2="1122.174" y2="2030.8209" gradientTransform="matrix(1 0 0 -1 0 2220.8899)">
		<stop  offset="5.500000e-03" style="stop-color:#000000"/>
		<stop  offset="6.300000e-03" style="stop-color:#040404"/>
		<stop  offset="5.240000e-02" style="stop-color:#444550"/>
		<stop  offset="9.930000e-02" style="stop-color:#4C536A"/>
		<stop  offset="0.1465" style="stop-color:#455378"/>
		<stop  offset="0.1938" style="stop-color:#344F80"/>
		<stop  offset="0.2411" style="stop-color:#1D4B84"/>
		<stop  offset="0.2886" style="stop-color:#004787"/>
		<stop  offset="0.3363" style="stop-color:#004588"/>
		<stop  offset="0.3846" style="stop-color:#004489"/>
		<stop  offset="1" style="stop-color:#004489"/>
	</linearGradient>
	<path class="st143" d="M1424.2,439.7c121.9,63.6,198,152.1,198,249c0,193.8-300.1,350.1-669,350.1c-214.7,0-405.3-53.1-528.3-135.5
		c59.4,199,391.8,351.2,793,351.2c442.9,0,802.3-185.5,802.3-414.7C2021.3,648.1,1768.1,486.6,1424.2,439.7z"/>
	<g>
		<g>
			<path class="st144" d="M2085.9,839.8c0,258.4-389.7,468.9-869,468.9s-869-209.4-869-468.9s389.7-468.9,869-468.9
				S2085.9,580.4,2085.9,839.8z"/>
			<path class="st145" d="M2015,837.7c0,228.2-356.4,411.6-797.1,411.6s-797.1-184.4-797.1-411.6c0-228.2,356.4-411.6,797.1-411.6
				S2015,610.6,2015,837.7z"/>
			<path class="st146" d="M2085.9,839.8c0,258.4-389.7,468.9-869,468.9s-869-209.4-869-468.9s389.7-468.9,869-468.9
				S2085.9,580.4,2085.9,839.8z"/>
			<path class="st146" d="M2071.3,834.6c0,250.1-382.4,453.3-853.4,453.3s-854.4-203.2-854.4-453.3s382.4-453.3,853.4-453.3
				S2071.3,584.5,2071.3,834.6z"/>
			
				<linearGradient id="SVGID_2_" gradientUnits="userSpaceOnUse" x1="347.8132" y1="1381.0728" x2="2085.8821" y2="1381.0728" gradientTransform="matrix(1 0 0 -1 0 2220.8899)">
				<stop  offset="5.500000e-03" style="stop-color:#808080"/>
				<stop  offset="0.1538" style="stop-color:#FFFFFF"/>
				<stop  offset="0.1942" style="stop-color:#F4F4F4"/>
				<stop  offset="0.3001" style="stop-color:#DDDDDD"/>
				<stop  offset="0.3991" style="stop-color:#CECECE"/>
				<stop  offset="0.4835" style="stop-color:#C9C9C9"/>
				<stop  offset="0.4885" style="stop-color:#C0C0C0"/>
				<stop  offset="0.5136" style="stop-color:#979797"/>
				<stop  offset="0.5394" style="stop-color:#757575"/>
				<stop  offset="0.5654" style="stop-color:#5A5A5A"/>
				<stop  offset="0.5919" style="stop-color:#474747"/>
				<stop  offset="0.6192" style="stop-color:#3C3C3C"/>
				<stop  offset="0.6484" style="stop-color:#383838"/>
				<stop  offset="0.8352" style="stop-color:#383838"/>
				<stop  offset="1" style="stop-color:#7A7A7A"/>
			</linearGradient>
			<path class="st147" d="M1216.8,370.9c-480.4,0-869,209.4-869,468.9s389.7,468.9,869,468.9s869-209.4,869-468.9
				S1697.2,370.9,1216.8,370.9z M1217.9,1287.9c-472,0-853.4-203.2-853.4-453.3s382.4-453.3,853.4-453.3s853.4,203.2,853.4,453.3
				C2071.3,1085.7,1688.9,1287.9,1217.9,1287.9z"/>
			<path class="st146" d="M2015,837.7c0,228.2-356.4,411.6-797.1,411.6s-797.1-184.4-797.1-411.6c0-228.2,356.4-411.6,797.1-411.6
				S2015,610.6,2015,837.7z"/>
			
				<linearGradient id="SVGID_3_" gradientUnits="userSpaceOnUse" x1="347.8132" y1="1381.0728" x2="2085.8821" y2="1381.0728" gradientTransform="matrix(1 0 0 -1 0 2220.8899)">
				<stop  offset="5.500000e-03" style="stop-color:#D1D1D1"/>
				<stop  offset="0.456" style="stop-color:#4D4D4D"/>
				<stop  offset="1" style="stop-color:#A6A6A6"/>
			</linearGradient>
			<path class="st148" d="M1216.8,370.9c-480.4,0-869,209.4-869,468.9s389.7,468.9,869,468.9s869-209.4,869-468.9
				S1697.2,370.9,1216.8,370.9z M1217.9,1249.3c-440.8,0-797.1-184.4-797.1-411.6c0-228.2,356.4-411.6,797.1-411.6
				S2015,610.6,2015,837.7S1657.6,1249.3,1217.9,1249.3z"/>
			
				<linearGradient id="SVGID_4_" gradientUnits="userSpaceOnUse" x1="849.9864" y1="1761.3859" x2="1561.0627" y2="1025.6003" gradientTransform="matrix(1 0 0 -1 0 2220.8899)">
				<stop  offset="5.500000e-03" style="stop-color:#E6E6E6"/>
				<stop  offset="0.456" style="stop-color:#595959"/>
				<stop  offset="0.8352" style="stop-color:#808080"/>
				<stop  offset="1" style="stop-color:#D9D9D9"/>
			</linearGradient>
			<path class="st149" d="M1213.7,389.7c-464.7,0-841.9,200.1-841.9,446s377.2,446,841.9,446s841.9-200.1,841.9-446
				C2055.7,590.8,1678.5,389.7,1213.7,389.7z M1217.9,1249.3c-440.8,0-797.1-184.4-797.1-411.6c0-228.2,356.4-411.6,797.1-411.6
				S2015,610.6,2015,837.7S1657.6,1249.3,1217.9,1249.3z"/>
			
				<linearGradient id="SVGID_5_" gradientUnits="userSpaceOnUse" x1="893.247" y1="1572.3198" x2="1823.0764" y2="1030.5259" gradientTransform="matrix(1 0 0 -1 0 2220.8899)">
				<stop  offset="5.500000e-03" style="stop-color:#F2F2F2"/>
				<stop  offset="0.3462" style="stop-color:#1A1A1A"/>
				<stop  offset="0.5879" style="stop-color:#3D3D3D"/>
				<stop  offset="0.6956" style="stop-color:#484848"/>
				<stop  offset="0.7692" style="stop-color:#525252"/>
				<stop  offset="1" style="stop-color:#BDBDBD"/>
			</linearGradient>
			<path class="st150" d="M1217.9,418.8c-447,0-809.6,187.6-809.6,418.9s362.6,418.9,809.6,418.9s809.6-187.6,809.6-418.9
				S1664.9,418.8,1217.9,418.8z M1217.9,1249.3c-440.8,0-797.1-184.4-797.1-411.6c0-228.2,356.4-411.6,797.1-411.6
				S2015,610.6,2015,837.7S1657.6,1249.3,1217.9,1249.3z"/>
			<path class="st144" d="M1073.1,1059.7c0,0-83.4,6.3-83.4,15.6c1,9.4,68.8,16.7,80.2,17.7c11.5,1,56.3,6.3,69.8,11.5
				c12.5,4.2,21.9,8.3,27.1,22.9c5.2,14.6,17.7,56.3,17.7,56.3s6.3,22.9,11.5,22.9c5.2,0,11.5-25,11.5-25s12.5-52.1,21.9-62.5
				c9.4-9.4,10.4-12.5,51.1-19.8c40.6-7.3,81.3-13.5,111.5-13.5s36.5,1,55.2,2.1c18.8,2.1,59.4,7.3,75,12.5
				c15.6,5.2,21.9,16.7,26.1,27.1c4.2,10.4,12.5,38.6,12.5,38.6s2.1,11.5,7.3,11.5c5.2,0,7.3-11.5,7.3-11.5s14.6-46.9,22.9-54.2
				c8.3-7.3,14.6-14.6,55.2-19.8c40.6-5.2,64.6-10.4,79.2-11.5c14.6-1,24-2.1,24-7.3s-5.2-6.3-25-9.4c-19.8-2.1-80.2-9.4-111.5-16.7
				c-32.3-7.3-33.3-32.3-38.6-43.8c-4.2-12.5-7.3-32.3-14.6-32.3c-7.3,0-9.4,12.5-10.4,17.7c-1,4.2-8.3,30.2-14.6,38.6
				c-5.2,8.3-9.4,17.7-31.3,22.9c-21.9,4.2-61.5,12.5-100,13.5s-59.4-2.1-89.6-5.2c-30.2-4.2-57.3-5.2-78.2-14.6
				c-20.8-9.4-31.3-39.6-36.5-57.3c-5.2-17.7-9.4-27.1-12.5-27.1s-9.4,13.5-12.5,25c-4.2,11.5-12.5,46.9-27.1,56.3
				C1139.7,1049.3,1115.8,1054.5,1073.1,1059.7z"/>
			
				<linearGradient id="SVGID_6_" gradientUnits="userSpaceOnUse" x1="1352.5441" y1="1092.7205" x2="1575.0804" y2="1092.7205" gradientTransform="matrix(1 0 0 -1 0 2220.8899)">
				<stop  offset="8.239999e-02" style="stop-color:#999999"/>
				<stop  offset="0.1746" style="stop-color:#7C7C7C"/>
				<stop  offset="0.3242" style="stop-color:#525252"/>
				<stop  offset="0.6374" style="stop-color:#4A4A4A"/>
				<stop  offset="0.7857" style="stop-color:#B0B0B0"/>
				<stop  offset="0.8901" style="stop-color:#7A7A7A"/>
				<stop  offset="1" style="stop-color:#9E9E9E"/>
			</linearGradient>
			<path class="st151" d="M1574.3,1141c-1,4.2-2.1,11.5-7.3,11.5c-4.2,0-6.3-4.2-7.3-10.4c-2.1-6.3-4.2-21.9-10.4-38.6
				c-7.3-16.7-36.5-17.7-57.3-19.8c-20.8-2.1-106.3-6.3-124-4.2c-2.1,0-6.3,1-12.5,1l-2.1,7.3c13.5-1,26.1-2.1,37.5-2.1
				c30.2,0,36.5,1,55.2,2.1c18.8,2.1,59.4,7.3,75,12.5c15.6,5.2,21.9,16.7,26.1,27.1c4.2,10.4,12.5,38.6,12.5,38.6
				s2.1,11.5,7.3,11.5c5.2,0,7.3-11.5,7.3-11.5L1574.3,1141z"/>
			
				<linearGradient id="SVGID_7_" gradientUnits="userSpaceOnUse" x1="1678.978" y1="1154.4496" x2="1678.978" y2="1143.2375" gradientTransform="matrix(1 0 0 -1 0 2220.8899)">
				<stop  offset="0.1374" style="stop-color:#E6E6E6"/>
				<stop  offset="0.5055" style="stop-color:#CCCCCC"/>
				<stop  offset="0.9121" style="stop-color:#E0E0E0"/>
			</linearGradient>
			<path class="st152" d="M1601.3,1057.6c17.7,7.3,60.4,9.4,67.7,9.4s18.8-1,18.8,5.2s-7.3,6.3-14.6,7.3l59.4,1
				c14.6-1,24-2.1,24-7.3c0-5.2-5.2-6.3-25-9.4c-19.8-2.1-80.2-9.4-111.5-16.7L1601.3,1057.6z"/>
			
				<linearGradient id="SVGID_8_" gradientUnits="userSpaceOnUse" x1="1429.0948" y1="1195.2948" x2="1554.9078" y2="1203.5299" gradientTransform="matrix(1 0 0 -1 0 2220.8899)">
				<stop  offset="8.239999e-02" style="stop-color:#999999"/>
				<stop  offset="0.1282" style="stop-color:#A4A4A4"/>
				<stop  offset="0.3242" style="stop-color:#CFCFCF"/>
				<stop  offset="0.5604" style="stop-color:#D9D9D9"/>
				<stop  offset="0.7582" style="stop-color:#E0E0E0"/>
			</linearGradient>
			<path class="st153" d="M1574.3,1012.8c-1-7.3-4.2-14.6-8.3-14.6c-4.2,0-7.3,8.3-8.3,14.6c-1,6.3-1,28.1-15.6,38.6
				c-14.6,9.4-30.2,13.5-81.3,16.7c-51.1,2.1-93.8,1-109.4,1l-1-6.3c17.7,2.1,35.4,2.1,59.4,2.1c38.6-1,78.2-9.4,100-13.5
				c21.9-4.2,25-13.5,31.3-22.9c5.2-8.3,12.5-35.4,14.6-38.6c1-4.2,3.1-17.7,10.4-17.7c7.3,0,10.4,19.8,14.6,32.3L1574.3,1012.8z"/>
			
				<linearGradient id="SVGID_9_" gradientUnits="userSpaceOnUse" x1="1272.7672" y1="1205.1775" x2="1340.2018" y2="1138.7734" gradientTransform="matrix(1 0 0 -1 0 2220.8899)">
				<stop  offset="8.239999e-02" style="stop-color:#EDEDED"/>
				<stop  offset="0.2054" style="stop-color:#BCBCBC"/>
				<stop  offset="0.3242" style="stop-color:#919191"/>
				<stop  offset="0.5604" style="stop-color:#8C8C8C"/>
				<stop  offset="0.7582" style="stop-color:#999999"/>
			</linearGradient>
			<path class="st154" d="M1236.6,1040.9c2.1,1,4.2,2.1,6.3,4.2c20.8,9.4,47.9,10.4,78.2,14.6s51.1,6.3,89.6,5.2v4.2
				c-27.1,1-49,0-59.4-1c-15.6-1-96.9-2.1-121.9-11.5c-2.1-1-4.2-2.1-7.3-4.2L1236.6,1040.9z"/>
			
				<linearGradient id="SVGID_10_" gradientUnits="userSpaceOnUse" x1="1209.5146" y1="1057.9741" x2="1343.3585" y2="1167.7954" gradientTransform="matrix(1 0 0 -1 0 2220.8899)">
				<stop  offset="8.239999e-02" style="stop-color:#949494"/>
				<stop  offset="0.1639" style="stop-color:#7C7C7C"/>
				<stop  offset="0.3242" style="stop-color:#525252"/>
				<stop  offset="0.5604" style="stop-color:#4A4A4A"/>
				<stop  offset="0.7582" style="stop-color:#999999"/>
			</linearGradient>
			<path class="st155" d="M1367.9,1079.5c-14.6,1-99,7.3-121.9,9.4s-30.2,15.6-33.3,21.9c-3.1,6.3-12.5,51.1-12.5,54.2
				c-1,4.2-2.1,11.5-4.2,11.5v29.2c5.2,0,11.5-25,11.5-25s12.5-52.1,21.9-62.5c9.4-10.4,10.4-12.5,51.1-19.8
				c32.3-5.2,62.5-10.4,89.6-12.5L1367.9,1079.5z"/>
			
				<linearGradient id="SVGID_11_" gradientUnits="userSpaceOnUse" x1="1153.6744" y1="1100.1013" x2="1217.683" y2="989.0754" gradientTransform="matrix(1 0 0 -1 0 2220.8899)">
				<stop  offset="0" style="stop-color:#D9D9D9"/>
				<stop  offset="0.2033" style="stop-color:#6B6B6B"/>
				<stop  offset="0.206" style="stop-color:#6C6C6C"/>
				<stop  offset="0.4451" style="stop-color:#969696"/>
				<stop  offset="0.5604" style="stop-color:#969696"/>
				<stop  offset="0.7582" style="stop-color:#A8A8A8"/>
			</linearGradient>
			<path class="st156" d="M1115.8,1085.7c0,0,27.1,1,38.6,6.3c11.5,5.2,20.8,10.4,22.9,21.9s11.5,51.1,12.5,54.2
				c1,4.2,2.1,8.3,4.2,8.3s4.2-7.3,4.2-11.5l6.3,15.6c0,0-6.3,25-11.5,25c-5.2,0-11.5-22.9-11.5-22.9s-12.5-41.7-17.7-56.3
				s-13.5-17.7-27.1-22.9c-5.2-2.1-14.6-4.2-25-5.2L1115.8,1085.7z"/>
			
				<linearGradient id="SVGID_12_" gradientUnits="userSpaceOnUse" x1="1188.0996" y1="1034.0841" x2="1201.7177" y2="1034.0841" gradientTransform="matrix(1 0 0 -1 0 2220.8899)">
				<stop  offset="0.2143" style="stop-color:#969696"/>
				<stop  offset="0.3626" style="stop-color:#ADADAD"/>
				<stop  offset="0.5055" style="stop-color:#C9C9C9"/>
				<stop  offset="0.7418" style="stop-color:#A3A3A3"/>
				<stop  offset="0.8846" style="stop-color:#9E9E9E"/>
			</linearGradient>
			<path class="st157" d="M1190.8,1168c1,4.2,2.1,8.3,4.2,8.3s3.1-4.2,4.2-7.3l1,30.2c-2.1,3.1-3.1,6.3-5.2,6.3s-3.1-2.1-5.2-6.3
				L1190.8,1168z"/>
			
				<linearGradient id="SVGID_13_" gradientUnits="userSpaceOnUse" x1="1055.9188" y1="1147.8755" x2="1138.2854" y2="1099.8285" gradientTransform="matrix(1 0 0 -1 0 2220.8899)">
				<stop  offset="0" style="stop-color:#A8A8A8"/>
				<stop  offset="8.790000e-02" style="stop-color:#6B6B6B"/>
				<stop  offset="0.3681" style="stop-color:#5E5E5E"/>
				<stop  offset="0.4626" style="stop-color:#626262"/>
				<stop  offset="0.5417" style="stop-color:#6C6C6C"/>
				<stop  offset="0.6149" style="stop-color:#7D7D7D"/>
				<stop  offset="0.6846" style="stop-color:#969696"/>
				<stop  offset="0.6868" style="stop-color:#969696"/>
				<stop  offset="0.8462" style="stop-color:#D9D9D9"/>
			</linearGradient>
			<path class="st158" d="M1139.7,1102.4c-12.5-4.2-57.3-9.4-69.8-11.5c-11.5-1-80.2-8.3-80.2-17.7c-1-9.4,83.4-15.6,83.4-15.6
				l2.1,8.3c-13.5,2.1-25,1-25,6.3c0,4.2,8.3,7.3,26.1,8.3c16.7,1,39.6,3.1,39.6,3.1s27.1,1,38.6,6.3L1139.7,1102.4z"/>
			
				<linearGradient id="SVGID_14_" gradientUnits="userSpaceOnUse" x1="990.1661" y1="1202.8892" x2="1206.5785" y2="1202.8892" gradientTransform="matrix(1 0 0 -1 0 2220.8899)">
				<stop  offset="0" style="stop-color:#A8A8A8"/>
				<stop  offset="1" style="stop-color:#FFFFFF"/>
			</linearGradient>
			<path class="st159" d="M989.7,1075.3c-1-9.4,83.4-15.6,83.4-15.6c42.7-4.2,66.7-9.4,80.2-17.7c14.6-8.3,24-43.8,27.1-56.3
				c4.2-11.5,9.4-25,12.5-25s7.3,8.3,12.5,27.1l-4.2,19.8c-2.1-16.7-4.2-20.8-8.3-20.8c-4.2,0-7.3,12.5-9.4,22.9
				c-2.1,11.5-6.3,41.7-27.1,47.9c-24,7.3-36.5,9.4-81.3,11.5c-13.5,2.1-25,1-25,6.3L989.7,1075.3L989.7,1075.3z"/>
			
				<linearGradient id="SVGID_15_" gradientUnits="userSpaceOnUse" x1="1195.0829" y1="1240.2931" x2="1242.0994" y2="1151.7526" gradientTransform="matrix(1 0 0 -1 0 2220.8899)">
				<stop  offset="0" style="stop-color:#C7C7C7"/>
				<stop  offset="8.239999e-02" style="stop-color:#BDBDBD"/>
				<stop  offset="0.1429" style="stop-color:#8C8C8C"/>
				<stop  offset="0.2151" style="stop-color:#7E7E7E"/>
				<stop  offset="0.3297" style="stop-color:#6B6B6B"/>
				<stop  offset="0.3907" style="stop-color:#595959"/>
				<stop  offset="0.544" style="stop-color:#2E2E2E"/>
				<stop  offset="0.5738" style="stop-color:#323232"/>
				<stop  offset="0.6042" style="stop-color:#3E3E3E"/>
				<stop  offset="0.6351" style="stop-color:#535353"/>
				<stop  offset="0.6661" style="stop-color:#707070"/>
				<stop  offset="0.6973" style="stop-color:#959595"/>
				<stop  offset="0.7283" style="stop-color:#C1C1C1"/>
				<stop  offset="0.7473" style="stop-color:#E0E0E0"/>
				<stop  offset="0.8901" style="stop-color:#FFFFFF"/>
			</linearGradient>
			<path class="st160" d="M1229.4,1056.6c-14.6-6.3-22.9-18.8-27.1-51.1c-2.1-16.7-4.2-20.8-8.3-20.8l1-25c3.1,0,7.3,8.3,12.5,27.1
				c5.2,17.7,16.7,49,36.5,57.3L1229.4,1056.6z"/>
			
				<linearGradient id="SVGID_16_" gradientUnits="userSpaceOnUse" x1="1191.0298" y1="1247.6957" x2="1197.1609" y2="1247.6957" gradientTransform="matrix(1 0 0 -1 0 2220.8899)">
				<stop  offset="0" style="stop-color:#FFFFFF"/>
				<stop  offset="0.4505" style="stop-color:#BFBFBF"/>
				<stop  offset="0.8242" style="stop-color:#C2C2C2"/>
			</linearGradient>
			<path class="st161" d="M1191.8,986.7c1-1,1-1,2.1-1c1,0,2.1,1,3.1,1l1-25c-1-1-2.1-2.1-3.1-2.1c-1,0-2.1,1-3.1,2.1V986.7z"/>
			
				<linearGradient id="SVGID_17_" gradientUnits="userSpaceOnUse" x1="1023.0091" y1="1141.3732" x2="1023.104" y2="1153.3646" gradientTransform="matrix(1 0 0 -1 0 2220.8899)">
				<stop  offset="0" style="stop-color:#A6A6A6"/>
				<stop  offset="0.4505" style="stop-color:#E6E6E6"/>
				<stop  offset="0.8242" style="stop-color:#B8B8B8"/>
			</linearGradient>
			<path class="st162" d="M1055.3,1078.4c-3.1-1-4.2-3.1-4.2-5.2s2.1-2.1,4.2-3.1l-52.1-2.1c-7.3,2.1-12.5,4.2-12.5,6.3
				c0,2.1,4.2,4.2,11.5,6.3L1055.3,1078.4z"/>
			
				<linearGradient id="SVGID_18_" gradientUnits="userSpaceOnUse" x1="1673.762" y1="1149.2634" x2="1629.4224" y2="1005.7446" gradientTransform="matrix(1 0 0 -1 0 2220.8899)">
				<stop  offset="5.500000e-03" style="stop-color:#FFFFFF"/>
				<stop  offset="6.200000e-03" style="stop-color:#FEFEFE"/>
				<stop  offset="3.530000e-02" style="stop-color:#CBCBCB"/>
				<stop  offset="6.400000e-02" style="stop-color:#A1A1A1"/>
				<stop  offset="9.180000e-02" style="stop-color:#818181"/>
				<stop  offset="0.1185" style="stop-color:#6A6A6A"/>
				<stop  offset="0.1434" style="stop-color:#5C5C5C"/>
				<stop  offset="0.1648" style="stop-color:#575757"/>
				<stop  offset="0.2037" style="stop-color:#686868"/>
				<stop  offset="0.2809" style="stop-color:#959595"/>
				<stop  offset="0.3407" style="stop-color:#BDBDBD"/>
				<stop  offset="0.4544" style="stop-color:#A1A1A1"/>
				<stop  offset="0.511" style="stop-color:#919191"/>
				<stop  offset="0.8571" style="stop-color:#B8B8B8"/>
			</linearGradient>
			<path class="st163" d="M1567,1176.4c5.2,0,7.3-11.5,7.3-11.5s14.6-46.9,22.9-54.2c8.3-7.3,14.6-14.6,55.2-19.8
				c40.6-5.2,64.6-10.4,79.2-11.5s24-2.1,24-7.3l-67.7-1c0,6.3-7.3,6.3-14.6,7.3c-8.3,1-45.8,4.2-68.8,8.3
				c-24,4.2-28.1,49-30.2,53.1c-1,4.2-2.1,11.5-7.3,11.5L1567,1176.4L1567,1176.4z"/>
			
				<linearGradient id="SVGID_19_" gradientUnits="userSpaceOnUse" x1="1568.5643" y1="1219.6091" x2="1638.7998" y2="1147.767" gradientTransform="matrix(1 0 0 -1 0 2220.8899)">
				<stop  offset="8.239999e-02" style="stop-color:#DEDEDE"/>
				<stop  offset="0.2443" style="stop-color:#7D7D7D"/>
				<stop  offset="0.3242" style="stop-color:#525252"/>
				<stop  offset="0.5604" style="stop-color:#737373"/>
				<stop  offset="0.6696" style="stop-color:#A0A0A0"/>
				<stop  offset="0.8242" style="stop-color:#E6E6E6"/>
			</linearGradient>
			<path class="st164" d="M1633.7,1063.8c-12.5-1-25-3.1-32.3-6.3c-17.7-7.3-24-18.8-28.1-44.8c-1-7.3-4.2-14.6-8.3-14.6
				c-4.2,0-7.3,8.3-8.3,14.6l-2.1-24c1-4.2,3.1-17.7,10.4-17.7s10.4,19.8,14.6,32.3c4.2,12.5,6.3,37.5,38.6,43.8
				c6.3,1,12.5,2.1,19.8,4.2L1633.7,1063.8z"/>
			
				<linearGradient id="SVGID_20_" gradientUnits="userSpaceOnUse" x1="1561.006" y1="1231.5446" x2="1571.5168" y2="1231.5446" gradientTransform="matrix(1 0 0 -1 0 2220.8899)">
				<stop  offset="0" style="stop-color:#E3E3E3"/>
				<stop  offset="0.4505" style="stop-color:#BABABA"/>
				<stop  offset="0.7637" style="stop-color:#DADADA"/>
				<stop  offset="0.8242" style="stop-color:#E0E0E0"/>
			</linearGradient>
			<path class="st165" d="M1559.7,976.3c1-2.1,3.1-4.2,6.3-4.2c2.1,0,4.2,1,5.2,4.2l1,30.2v-1c-1-4.2-4.2-7.3-6.3-7.3
				s-4.2,4.2-6.3,8.3V976.3z"/>
			
				<linearGradient id="SVGID_21_" gradientUnits="userSpaceOnUse" x1="1719.6163" y1="1151.8102" x2="1719.6163" y2="1145.2957" gradientTransform="matrix(1 0 0 -1 0 2220.8899)">
				<stop  offset="0" style="stop-color:#E6E6E6"/>
				<stop  offset="5.390000e-02" style="stop-color:#DDDDDD"/>
				<stop  offset="0.2029" style="stop-color:#CBCBCB"/>
				<stop  offset="0.3603" style="stop-color:#C0C0C0"/>
				<stop  offset="0.5385" style="stop-color:#BDBDBD"/>
				<stop  offset="0.6449" style="stop-color:#C2C2C2"/>
				<stop  offset="0.7716" style="stop-color:#D0D0D0"/>
				<stop  offset="0.9081" style="stop-color:#E8E8E8"/>
				<stop  offset="1" style="stop-color:#FCFCFC"/>
			</linearGradient>
			<path class="st166" d="M1746.2,1078.4c6.3-1,10.4-3.1,10.4-6.3s-2.1-5.2-9.4-6.3l-64.6,1c3.1,1,6.3,2.1,6.3,5.2
				c0,2.1-1,3.1-1,4.2L1746.2,1078.4z"/>
			
				<linearGradient id="SVGID_22_" gradientUnits="userSpaceOnUse" x1="1559.4076" y1="1061.6974" x2="1577.453" y2="1061.6974" gradientTransform="matrix(1 0 0 -1 0 2220.8899)">
				<stop  offset="1.650000e-02" style="stop-color:#878787"/>
				<stop  offset="6.420000e-02" style="stop-color:#8A8A8A"/>
				<stop  offset="9.340000e-02" style="stop-color:#919191"/>
				<stop  offset="0.4286" style="stop-color:#E0E0E0"/>
				<stop  offset="0.7692" style="stop-color:#9E9E9E"/>
				<stop  offset="1" style="stop-color:#ADADAD"/>
			</linearGradient>
			<path class="st167" d="M1574.3,1141c-1,4.2-2.1,11.5-7.3,11.5c-4.2,0-6.3-4.2-7.3-10.4l-1,24c0,0,2.1,11.5,7.3,11.5
				c7.3,0,10.4-19.8,10.4-19.8L1574.3,1141z"/>
			<path class="st144" d="M1646.2,914.8c-30.2,0-70.9,7.3-111.5,14.6c-40.6,6.3-41.7,10.4-51.1,19.8c-9.4,9.4-21.9,63.6-21.9,63.6
				s-6.3,25-11.5,25s-11.5-24-11.5-24s-12.5-42.7-17.7-57.3c-5.2-14.6-13.5-17.7-27.1-22.9c-12.5-4.2-57.3-9.4-69.8-11.5
				c-11.5-1-80.2-8.3-80.2-17.7c-1-9.4,83.4-15.6,83.4-15.6c42.7-4.2,66.7-9.4,80.2-17.7c14.6-9.4,24-44.8,27.1-57.3
				c4.2-12.5,9.4-26.1,12.5-26.1c3.1,0,7.3,9.4,12.5,27.1c5.2,18.8,16.7,49,36.5,59.4c20.8,9.4,47.9,11.5,78.2,14.6
				c0,0,35.4,7.3,72.9,6.3c37.5-1,61.5-7.3,75-9.4c14.6-2.1,41.7-7.3,51.1-27.1c8.3-19.8,17.7-49,24-50c6.3-1,16.7,32.3,16.7,32.3
				s7.3,32.3,32.3,36.5c25,5.2,63.6,14.6,83.4,17.7c19.8,2.1,27.1,4.2,27.1,10.4c0,5.2-27.1,8.3-27.1,8.3s-72.9,8.3-87.5,17.7
				s-22.9,15.6-34.4,64.6c-4.2,12.5-5.2,18.8-9.4,18.8s-11.5-20.8-19.8-49c-8.3-28.1-14.6-36.5-56.3-41.7
				C1685.8,916.9,1668,915.9,1646.2,914.8z"/>
			
				<linearGradient id="SVGID_23_" gradientUnits="userSpaceOnUse" x1="1511.913" y1="1361.6566" x2="1559.9539" y2="1314.3495" gradientTransform="matrix(1 0 0 -1 0 2220.8899)">
				<stop  offset="8.239999e-02" style="stop-color:#EDEDED"/>
				<stop  offset="0.2054" style="stop-color:#BCBCBC"/>
				<stop  offset="0.3242" style="stop-color:#919191"/>
				<stop  offset="0.5604" style="stop-color:#8C8C8C"/>
				<stop  offset="0.7582" style="stop-color:#999999"/>
			</linearGradient>
			<path class="st168" d="M1608.6,898.2c-15.6-1-96.9-2.1-123-11.5c-2.1-1-4.2-2.1-7.3-4.2L1493,870c2.1,1,4.2,2.1,6.3,4.2
				c20.8,9.4,47.9,10.4,78.2,14.6"/>
			
				<linearGradient id="SVGID_24_" gradientUnits="userSpaceOnUse" x1="1465.1747" y1="1226.433" x2="1600.1824" y2="1337.2089" gradientTransform="matrix(1 0 0 -1 0 2220.8899)">
				<stop  offset="8.239999e-02" style="stop-color:#949494"/>
				<stop  offset="0.1639" style="stop-color:#7C7C7C"/>
				<stop  offset="0.3242" style="stop-color:#525252"/>
				<stop  offset="0.5604" style="stop-color:#4A4A4A"/>
				<stop  offset="0.7582" style="stop-color:#999999"/>
			</linearGradient>
			<path class="st169" d="M1624.3,909.6c-14.6,1-100,7.3-121.9,9.4c-22.9,1-30.2,15.6-33.3,21.9c-3.1,6.3-12.5,52.1-13.5,55.2
				c-1,4.2-2.1,11.5-4.2,11.5v30.2c5.2,0,11.5-25,11.5-25s12.5-53.1,21.9-62.5c9.4-9.4,10.4-13.5,51.1-19.8
				c32.3-5.2,62.5-10.4,90.7-12.5v-8.3H1624.3z"/>
			
				<linearGradient id="SVGID_25_" gradientUnits="userSpaceOnUse" x1="1409.8058" y1="1269.0134" x2="1474.6082" y2="1156.61" gradientTransform="matrix(1 0 0 -1 0 2220.8899)">
				<stop  offset="0" style="stop-color:#D9D9D9"/>
				<stop  offset="0.2033" style="stop-color:#6B6B6B"/>
				<stop  offset="0.206" style="stop-color:#6C6C6C"/>
				<stop  offset="0.4451" style="stop-color:#969696"/>
				<stop  offset="0.5604" style="stop-color:#969696"/>
				<stop  offset="0.7582" style="stop-color:#A8A8A8"/>
			</linearGradient>
			<path class="st170" d="M1371.1,915.9c0,0,27.1,1,38.6,6.3c11.5,5.2,20.8,10.4,22.9,21.9c2.1,11.5,11.5,51.1,12.5,55.2
				c1,4.2,2.1,8.3,4.2,8.3s4.2-7.3,4.2-11.5l6.3,15.6c0,0-6.3,25-11.5,25c-5.2,0-11.5-24-11.5-24s-12.5-42.7-17.7-57.3
				c-5.2-14.6-13.5-17.7-27.1-22.9c-5.2-2.1-14.6-4.2-25-5.2L1371.1,915.9z"/>
			
				<linearGradient id="SVGID_26_" gradientUnits="userSpaceOnUse" x1="1444.0792" y1="1202.3683" x2="1457.7942" y2="1202.3683" gradientTransform="matrix(1 0 0 -1 0 2220.8899)">
				<stop  offset="0.2143" style="stop-color:#969696"/>
				<stop  offset="0.3626" style="stop-color:#ADADAD"/>
				<stop  offset="0.5055" style="stop-color:#C9C9C9"/>
				<stop  offset="0.7418" style="stop-color:#A3A3A3"/>
				<stop  offset="0.8846" style="stop-color:#9E9E9E"/>
			</linearGradient>
			<path class="st171" d="M1446.1,999.2c1,4.2,2.1,8.3,4.2,8.3s3.1-4.2,4.2-7.3l1,31.3c-2.1,4.2-3.1,6.3-5.2,6.3s-3.1-2.1-5.2-6.3
				L1446.1,999.2z"/>
			
				<linearGradient id="SVGID_27_" gradientUnits="userSpaceOnUse" x1="1309.8555" y1="1314.8763" x2="1392.6399" y2="1266.5854" gradientTransform="matrix(1 0 0 -1 0 2220.8899)">
				<stop  offset="0" style="stop-color:#A8A8A8"/>
				<stop  offset="8.790000e-02" style="stop-color:#6B6B6B"/>
				<stop  offset="0.3681" style="stop-color:#5E5E5E"/>
				<stop  offset="0.4626" style="stop-color:#626262"/>
				<stop  offset="0.5417" style="stop-color:#6C6C6C"/>
				<stop  offset="0.6149" style="stop-color:#7D7D7D"/>
				<stop  offset="0.6846" style="stop-color:#969696"/>
				<stop  offset="0.6868" style="stop-color:#969696"/>
				<stop  offset="0.8462" style="stop-color:#D9D9D9"/>
			</linearGradient>
			<path class="st172" d="M1395,934.6c-12.5-4.2-57.3-9.4-69.8-11.5c-11.5-1-80.2-8.3-81.3-17.7s83.4-15.6,83.4-15.6l2.1,9.4
				c-13.5,2.1-25,1-25,6.3c0,4.2,8.3,7.3,26.1,9.4c16.7,1,39.6,3.1,39.6,3.1s27.1,1,38.6,6.3L1395,934.6z"/>
			
				<linearGradient id="SVGID_28_" gradientUnits="userSpaceOnUse" x1="1245.2559" y1="1372.7365" x2="1462.6749" y2="1372.7365" gradientTransform="matrix(1 0 0 -1 0 2220.8899)">
				<stop  offset="0" style="stop-color:#A8A8A8"/>
				<stop  offset="1" style="stop-color:#FFFFFF"/>
			</linearGradient>
			<path class="st173" d="M1245,905.5c-1-9.4,83.4-15.6,83.4-15.6c42.7-4.2,66.7-9.4,81.3-17.7c14.6-9.4,24-44.8,28.1-56.3
				c4.2-12.5,9.4-26.1,12.5-26.1s7.3,9.4,12.5,27.1l-4.2,19.8c-2.1-16.7-4.2-20.8-8.3-20.8c-4.2,0-7.3,12.5-9.4,24
				s-6.3,41.7-28.1,49c-24,7.3-36.5,9.4-81.3,11.5c-13.5,2.1-25,1-25,6.3L1245,905.5z"/>
			
				<linearGradient id="SVGID_29_" gradientUnits="userSpaceOnUse" x1="1450.6401" y1="1411.0786" x2="1498.3098" y2="1321.3075" gradientTransform="matrix(1 0 0 -1 0 2220.8899)">
				<stop  offset="0" style="stop-color:#C7C7C7"/>
				<stop  offset="8.239999e-02" style="stop-color:#BDBDBD"/>
				<stop  offset="0.1429" style="stop-color:#8C8C8C"/>
				<stop  offset="0.2151" style="stop-color:#7E7E7E"/>
				<stop  offset="0.3297" style="stop-color:#6B6B6B"/>
				<stop  offset="0.3907" style="stop-color:#595959"/>
				<stop  offset="0.544" style="stop-color:#2E2E2E"/>
				<stop  offset="0.5738" style="stop-color:#323232"/>
				<stop  offset="0.6042" style="stop-color:#3E3E3E"/>
				<stop  offset="0.6351" style="stop-color:#535353"/>
				<stop  offset="0.6661" style="stop-color:#707070"/>
				<stop  offset="0.6973" style="stop-color:#959595"/>
				<stop  offset="0.7283" style="stop-color:#C1C1C1"/>
				<stop  offset="0.7473" style="stop-color:#E0E0E0"/>
				<stop  offset="0.8901" style="stop-color:#FFFFFF"/>
			</linearGradient>
			<path class="st174" d="M1485.7,886.7c-14.6-6.3-22.9-18.8-28.1-52.1c-2.1-16.7-4.2-20.8-8.3-20.8l1-26.1c3.1,0,7.3,9.4,12.5,27.1
				c5.2,18.8,16.7,49,36.5,58.4L1485.7,886.7z"/>
			<path class="st146" d="M1624.3,909.6c-14.6,1-100,7.3-121.9,9.4c-22.9,1-30.2,15.6-33.3,21.9c-3.1,6.3-12.5,52.1-13.5,55.2
				c-1,4.2-2.1,11.5-4.2,11.5s-4.2-4.2-4.2-8.3c-1-4.2-10.4-43.8-12.5-55.2s-12.5-16.7-22.9-21.9c-11.5-5.2-38.6-6.3-38.6-6.3
				s-22.9-2.1-39.6-3.1c-16.7-1-26.1-4.2-26.1-9.4c0-4.2,11.5-4.2,25-6.3c44.8-1,57.3-4.2,81.3-11.5c21.9-6.3,25-37.5,28.1-49
				c3.1-11.5,5.2-24,9.4-24s5.2,4.2,8.3,20.8c5.2,32.3,12.5,45.8,28.1,52.1c26.1,9.4,107.3,11.5,123,11.5c0,0,49,1,72.9-1
				c25-1,69.8-6.3,80.2-8.3s24-7.3,27.1-24c2.1-16.7,7.3-35.4,11.5-35.4c5.2,0,7.3,14.6,8.3,17.7c0,0,4.2,32.3,21.9,38.6
				c17.7,6.3,45.8,8.3,56.3,9.4c11.5,1,20.8,2.1,20.8,7.3c0,5.2-14.6,8.3-20.8,8.3c-6.3,0-37.5,1-49,6.3c-11.5,5.2-20.8,8.3-25,30.2
				c-4.2,21.9-6.3,28.1-6.3,28.1s-1,9.4-6.3,9.4c-6.3,0-7.3-11.5-7.3-11.5s-7.3-33.3-11.5-41.7c-4.2-7.3-10.4-17.7-54.2-19.8
				C1683.7,911.7,1663.9,908.6,1624.3,909.6z"/>
			
				<linearGradient id="SVGID_30_" gradientUnits="userSpaceOnUse" x1="1900.0079" y1="1295.656" x2="1784.7097" y2="1269.2338" gradientTransform="matrix(1 0 0 -1 0 2220.8899)">
				<stop  offset="0" style="stop-color:#B8B8B8"/>
				<stop  offset="0.1073" style="stop-color:#A0A0A0"/>
				<stop  offset="0.3187" style="stop-color:#757575"/>
				<stop  offset="0.4341" style="stop-color:#767676"/>
				<stop  offset="0.5604" style="stop-color:#737373"/>
				<stop  offset="0.6297" style="stop-color:#787878"/>
				<stop  offset="0.7097" style="stop-color:#868686"/>
				<stop  offset="0.7747" style="stop-color:#969696"/>
			</linearGradient>
			<path class="st175" d="M1813.9,948.2c4.2-21.9,14.6-25,25-30.2c11.5-5.2,42.7-6.3,49-6.3c6.3,0,20.8-3.1,20.8-8.3l51.1,1
				c0,5.2-27.1,8.3-27.1,8.3s-72.9,8.3-87.5,17.7c-11.5,7.3-18.8,12.5-27.1,35.4L1813.9,948.2z"/>
			
				<linearGradient id="SVGID_31_" gradientUnits="userSpaceOnUse" x1="1876.4813" y1="1344.041" x2="1909.3452" y2="1311.1771" gradientTransform="matrix(1 0 0 -1 0 2220.8899)">
				<stop  offset="0" style="stop-color:#E6E6E6"/>
				<stop  offset="0.1017" style="stop-color:#C8C8C8"/>
				<stop  offset="0.2692" style="stop-color:#9C9C9C"/>
				<stop  offset="0.43" style="stop-color:#A6A6A6"/>
				<stop  offset="0.7532" style="stop-color:#B7B7B7"/>
				<stop  offset="1" style="stop-color:#BDBDBD"/>
			</linearGradient>
			<path class="st176" d="M1830.6,886.7c17.7,6.3,45.8,8.3,56.3,9.4c10.4,1,20.8,2.1,20.8,7.3c0,5.2-14.6,8.3-20.8,8.3l43.8,1
				c0,0,27.1-2.1,27.1-8.3c0-5.2-6.3-7.3-27.1-10.4c-19.8-2.1-59.4-11.5-83.4-17.7L1830.6,886.7z"/>
			
				<linearGradient id="SVGID_32_" gradientUnits="userSpaceOnUse" x1="1799.4468" y1="1398.7368" x2="1836.9642" y2="1312.717" gradientTransform="matrix(1 0 0 -1 0 2220.8899)">
				<stop  offset="0.1429" style="stop-color:#DEDEDE"/>
				<stop  offset="0.236" style="stop-color:#A0A0A0"/>
				<stop  offset="0.3077" style="stop-color:#757575"/>
				<stop  offset="0.5769" style="stop-color:#737373"/>
				<stop  offset="0.6174" style="stop-color:#787878"/>
				<stop  offset="0.6642" style="stop-color:#868686"/>
				<stop  offset="0.7143" style="stop-color:#9D9D9D"/>
				<stop  offset="0.7665" style="stop-color:#BDBDBD"/>
				<stop  offset="0.8187" style="stop-color:#E6E6E6"/>
			</linearGradient>
			<path class="st177" d="M1852.5,890.9c-7.3-1-14.6-3.1-21.9-5.2c-17.7-6.3-21.9-38.6-21.9-38.6c-1-4.2-4.2-17.7-8.3-17.7
				c-5.2,0-9.4,18.8-11.5,35.4l-12.5-7.3c8.3-19.8,17.7-49,24-50c6.3-1,16.7,32.3,16.7,32.3s7.3,32.3,32.3,36.5
				c4.2,1,8.3,2.1,13.5,3.1L1852.5,890.9z"/>
			
				<linearGradient id="SVGID_33_" gradientUnits="userSpaceOnUse" x1="1571.8368" y1="1368.4384" x2="1800.6199" y2="1368.4384" gradientTransform="matrix(1 0 0 -1 0 2220.8899)">
				<stop  offset="8.239999e-02" style="stop-color:#999999"/>
				<stop  offset="0.1282" style="stop-color:#A4A4A4"/>
				<stop  offset="0.3242" style="stop-color:#CFCFCF"/>
				<stop  offset="0.5604" style="stop-color:#D9D9D9"/>
				<stop  offset="0.7582" style="stop-color:#E0E0E0"/>
			</linearGradient>
			<path class="st178" d="M1800.4,807.5c-6.3,1-14.6,30.2-24,50c-8.3,19.8-36.5,25-51.1,27.1c-14.6,2.1-38.6,8.3-75,9.4
				c-37.5,1-72.9-6.3-72.9-6.3l-5.2,8.3c16.7,1,31.3,1,36.5,1c0,0,49,1,72.9-1c25-1,69.8-6.3,80.2-8.3c10.4-2.1,24-7.3,27.1-24
				c2.1-16.7,7.3-35.4,11.5-35.4L1800.4,807.5z"/>
			
				<linearGradient id="SVGID_34_" gradientUnits="userSpaceOnUse" x1="1795.5828" y1="1399.3079" x2="1804.9025" y2="1399.3079" gradientTransform="matrix(1 0 0 -1 0 2220.8899)">
				<stop  offset="0" style="stop-color:#E3E3E3"/>
				<stop  offset="0.1097" style="stop-color:#DBDBDB"/>
				<stop  offset="0.2807" style="stop-color:#C5C5C5"/>
				<stop  offset="0.4505" style="stop-color:#A8A8A8"/>
				<stop  offset="0.6708" style="stop-color:#C8C8C8"/>
				<stop  offset="0.8242" style="stop-color:#E0E0E0"/>
			</linearGradient>
			<path class="st179" d="M1796.2,834.6c1-2.1,2.1-4.2,4.2-4.2s3.1,2.1,4.2,4.2v-21.9c-2.1-2.1-3.1-4.2-4.2-4.2s-3.1,2.1-4.2,4.2
				V834.6z"/>
			
				<linearGradient id="SVGID_35_" gradientUnits="userSpaceOnUse" x1="1792.2192" y1="1245.0907" x2="1821.2495" y2="1245.0907" gradientTransform="matrix(1 0 0 -1 0 2220.8899)">
				<stop  offset="0" style="stop-color:#BABABA"/>
				<stop  offset="0.1147" style="stop-color:#A0A0A0"/>
				<stop  offset="0.3187" style="stop-color:#757575"/>
				<stop  offset="0.4341" style="stop-color:#767676"/>
				<stop  offset="0.5604" style="stop-color:#737373"/>
				<stop  offset="0.6627" style="stop-color:#787878"/>
				<stop  offset="0.7747" style="stop-color:#858585"/>
			</linearGradient>
			<path class="st180" d="M1821.2,956.5c-4.2,8.3-7.3,20.8-11.5,38.6c-4.2,12.5-5.2,18.8-9.4,18.8c-2.1,0-5.2-6.3-9.4-15.6l1-22.9
				c0,0,1,11.5,7.3,11.5c6.3,0,6.3-9.4,6.3-9.4s2.1-7.3,6.3-28.1c1-4.2,2.1-8.3,3.1-11.5L1821.2,956.5z"/>
			
				<linearGradient id="SVGID_36_" gradientUnits="userSpaceOnUse" x1="1589.3539" y1="1284.8257" x2="1789.1829" y2="1284.8257" gradientTransform="matrix(1 0 0 -1 0 2220.8899)">
				<stop  offset="8.239999e-02" style="stop-color:#999999"/>
				<stop  offset="0.1746" style="stop-color:#7C7C7C"/>
				<stop  offset="0.3242" style="stop-color:#525252"/>
				<stop  offset="0.5604" style="stop-color:#404040"/>
				<stop  offset="0.7473" style="stop-color:#999999"/>
				<stop  offset="0.8681" style="stop-color:#D1D1D1"/>
			</linearGradient>
			<path class="st181" d="M1788.9,953.4c-2.1-8.3-4.2-17.7-7.3-20.8c-4.2-7.3-10.4-17.7-54.2-19.8c-43.8-2.1-63.6-4.2-103.2-3.1
				c-5.2,0-18.8,1-35.4,2.1l1,7.3c20.8-3.1,39.6-5.2,56.3-5.2c21.9,0,38.6,2.1,80.2,7.3c40.6,6.3,46.9,13.5,56.3,41.7L1788.9,953.4z
				"/>
			
				<linearGradient id="SVGID_37_" gradientUnits="userSpaceOnUse" x1="1808.5059" y1="1229.4761" x2="1765.275" y2="1269.6195" gradientTransform="matrix(1 0 0 -1 0 2220.8899)">
				<stop  offset="0" style="stop-color:#3B3B3B"/>
				<stop  offset="2.580000e-02" style="stop-color:#3D3D3D"/>
				<stop  offset="0.2555" style="stop-color:#4C4C4C"/>
				<stop  offset="0.4396" style="stop-color:#525252"/>
				<stop  offset="0.4973" style="stop-color:#585858"/>
				<stop  offset="0.5737" style="stop-color:#686868"/>
				<stop  offset="0.6264" style="stop-color:#787878"/>
				<stop  offset="0.7473" style="stop-color:#999999"/>
				<stop  offset="0.8681" style="stop-color:#D1D1D1"/>
			</linearGradient>
			<path class="st182" d="M1783.7,937.8c4.2,11.5,9.4,36.5,9.4,36.5s1,11.5,7.3,11.5v28.1c-4.2,0-11.5-20.8-19.8-49
				c-2.1-6.3-3.1-11.5-5.2-15.6L1783.7,937.8z"/>
			
				<linearGradient id="SVGID_38_" gradientUnits="userSpaceOnUse" x1="1278.8472" y1="1321.5585" x2="1278.8472" y2="1309.9849" gradientTransform="matrix(1 0 0 -1 0 2220.8899)">
				<stop  offset="0" style="stop-color:#BDBDBD"/>
				<stop  offset="0.4505" style="stop-color:#D9D9D9"/>
				<stop  offset="0.8242" style="stop-color:#A8A8A8"/>
			</linearGradient>
			<path class="st183" d="M1257.5,911.7c-7.3-2.1-12.5-4.2-12.5-7.3c0-3.1,5.2-4.2,13.5-6.3l54.2,1c-4.2,1-7.3,2.1-7.3,4.2
				s1,3.1,3.1,4.2L1257.5,911.7z"/>
			
				<linearGradient id="SVGID_39_" gradientUnits="userSpaceOnUse" x1="1447.0322" y1="1418.585" x2="1453.1885" y2="1418.585" gradientTransform="matrix(1 0 0 -1 0 2220.8899)">
				<stop  offset="0" style="stop-color:#FFFFFF"/>
				<stop  offset="0.4505" style="stop-color:#BFBFBF"/>
				<stop  offset="0.8242" style="stop-color:#C2C2C2"/>
			</linearGradient>
			<path class="st184" d="M1447.1,815.9c1-1,1-1,2.1-1c1,0,2.1,1,3.1,1v-25c-1-1-2.1-2.1-2.1-2.1c-1,0-2.1,1-3.1,3.1V815.9z"/>
			<path class="st144" d="M607.3,715.8l-100,13.5c0,0-17.7,1-17.7,7.3c0,7.3,14.6,7.3,20.8,7.3c5.2,1,112.5,14.6,112.5,14.6
				s170.9,22.9,187.6,26.1c16.7,2.1,62.5,9.4,82.3,27.1c19.8,17.7,36.5,56.3,49,113.6c12.5,57.3,25,105.2,25,105.2
				s2.1,16.7,9.4,16.7s9.4-17.7,9.4-17.7s33.3-133.4,41.7-157.3c8.3-22.9,19.8-72.9,94.8-84.4c75-11.5,213.6-27.1,213.6-27.1
				s135.5-16.7,182.4-13.5c46.9,2.1,99,9.4,111.5,11.5c12.5,2.1,34.4,4.2,43.8,27.1c9.4,22.9,19.8,66.7,19.8,66.7s3.1,12.5,8.3,12.5
				c5.2,0,8.3-12.5,8.3-12.5s14.6-52.1,20.8-65.6c5.2-12.5,16.7-25,57.3-30.2c40.6-5.2,83.4-14.6,83.4-14.6s20.8-1,20.8-8.3
				s-21.9-8.3-21.9-8.3l-93.8-14.6c0,0-37.5-2.1-46.9-27.1s-19.8-52.1-19.8-52.1s-2.1-11.5-7.3-11.5c-5.2,0-8.3,12.5-8.3,12.5
				s-11.5,38.6-19.8,51.1c-8.3,12.5-19.8,25-65.6,29.2c-45.8,4.2-70.9,9.4-88.6,10.4s-56.3,1-86.5-3.1
				c-30.2-4.2-226.1-27.1-226.1-27.1s-78.2-8.3-103.2-16.7c-25-8.3-61.5-9.4-88.6-96.9c-28.1-87.5-30.2-93.8-30.2-93.8
				s-2.1-16.7-10.4-16.7c-7.3,0-9.4,17.7-9.4,17.7s-31.3,101.1-45.8,131.3c-14.6,30.2-25,58.4-146.9,71.9
				C664.6,706.4,607.3,715.8,607.3,715.8z"/>
			
				<linearGradient id="SVGID_40_" gradientUnits="userSpaceOnUse" x1="585.6484" y1="1474.9744" x2="960.4127" y2="1417.318" gradientTransform="matrix(1 0 0 -1 0 2220.8899)">
				<stop  offset="0" style="stop-color:#A8A8A8"/>
				<stop  offset="8.790000e-02" style="stop-color:#6B6B6B"/>
				<stop  offset="0.3681" style="stop-color:#4D4D4D"/>
				<stop  offset="0.4521" style="stop-color:#505050"/>
				<stop  offset="0.5222" style="stop-color:#5A5A5A"/>
				<stop  offset="0.5875" style="stop-color:#6C6C6C"/>
				<stop  offset="0.6494" style="stop-color:#848484"/>
				<stop  offset="0.6868" style="stop-color:#969696"/>
				<stop  offset="0.8462" style="stop-color:#F0F0F0"/>
			</linearGradient>
			<path class="st185" d="M909.5,787.7c-13.5-9.4-29.2-13.5-42.7-16.7c-32.3-6.3-155.3-18.8-155.3-18.8l-120.9-10.4
				c0,0-22.9-2.1-22.9-7.3s22.9-6.3,22.9-6.3l-82.3,1c0,0-17.7,1-17.7,7.3c0,7.3,14.6,7.3,20.8,7.3c5.2,1,112.5,14.6,112.5,14.6
				s170.9,22.9,187.6,26.1c16.7,2.1,62.5,9.4,82.3,27.1L909.5,787.7z"/>
			
				<linearGradient id="SVGID_41_" gradientUnits="userSpaceOnUse" x1="489.6471" y1="1618.1295" x2="986.6244" y2="1618.1295" gradientTransform="matrix(1 0 0 -1 0 2220.8899)">
				<stop  offset="0" style="stop-color:#A8A8A8"/>
				<stop  offset="0.6099" style="stop-color:#F0F0F0"/>
				<stop  offset="0.7363" style="stop-color:#FFFFFF"/>
				<stop  offset="0.8005" style="stop-color:#FBFBFB"/>
				<stop  offset="0.8712" style="stop-color:#EDEDED"/>
				<stop  offset="0.9447" style="stop-color:#D7D7D7"/>
				<stop  offset="1" style="stop-color:#C2C2C2"/>
			</linearGradient>
			<path class="st186" d="M986.6,486.6c0,0-2.1-16.7-10.4-16.7c-7.3,0-9.4,17.7-9.4,17.7s-31.3,101.1-45.8,131.3
				c-14.6,30.2-25,58.4-146.9,71.9c-108.4,14.6-165.7,22.9-165.7,22.9l-100,14.6c0,0-17.7,1-17.7,7.3l76.1-1
				c0-5.2,22.9-6.3,22.9-6.3l91.7-8.3c0,0,104.2-8.3,154.2-13.5c50-5.2,86.5-33.3,101.1-61.5c13.5-28.1,29.2-115.7,29.2-115.7
				s2.1-28.1,9.4-28.1c7.3,0,9.4,27.1,9.4,27.1L986.6,486.6z"/>
			
				<linearGradient id="SVGID_42_" gradientUnits="userSpaceOnUse" x1="966.3792" y1="1629.5916" x2="1187.739" y2="1629.5916" gradientTransform="matrix(1 0 0 -1 0 2220.8899)">
				<stop  offset="0" style="stop-color:#CFCFCF"/>
				<stop  offset="8.239999e-02" style="stop-color:#D9D9D9"/>
				<stop  offset="0.1429" style="stop-color:#6B6B6B"/>
				<stop  offset="0.1918" style="stop-color:#5F5F5F"/>
				<stop  offset="0.2857" style="stop-color:#4D4D4D"/>
				<stop  offset="0.3002" style="stop-color:#505050"/>
				<stop  offset="0.5165" style="stop-color:#7A7A7A"/>
				<stop  offset="0.5764" style="stop-color:#7F7F7F"/>
				<stop  offset="0.6378" style="stop-color:#8B8B8B"/>
				<stop  offset="0.6997" style="stop-color:#9F9F9F"/>
				<stop  offset="0.7619" style="stop-color:#BCBCBC"/>
				<stop  offset="0.8242" style="stop-color:#E0E0E0"/>
				<stop  offset="0.9725" style="stop-color:#EDEDED"/>
			</linearGradient>
			<path class="st187" d="M1187.7,691.9c-25-3.1-66.7-9.4-83.4-14.6c-25-8.3-61.5-9.4-88.6-96.9c-28.1-87.5-30.2-93.8-30.2-93.8
				s-2.1-16.7-10.4-16.7c-7.3,0-9.4,17.7-9.4,17.7v41.7c0,0,2.1-28.1,9.4-28.1c4.2,0,7.3,11.5,8.3,19.8c1,4.2,1,7.3,1,7.3
				s1,2.1,1,5.2c4.2,16.7,16.7,71.9,21.9,94.8c7.3,27.1,26.1,54.2,56.3,66.7c30.2,12.5,104.2,16.7,116.7,17.7L1187.7,691.9z"/>
			
				<linearGradient id="SVGID_43_" gradientUnits="userSpaceOnUse" x1="970.1512" y1="1730.6663" x2="983.0347" y2="1730.6663" gradientTransform="matrix(1 0 0 -1 0 2220.8899)">
				<stop  offset="0" style="stop-color:#D4D4D4"/>
				<stop  offset="0.5275" style="stop-color:#9E9E9E"/>
				<stop  offset="0.8242" style="stop-color:#D9D9D9"/>
			</linearGradient>
			<path class="st188" d="M969.9,510.5c1-4.2,3.1-8.3,6.3-8.3c2.1,0,4.2,4.2,6.3,8.3l1-35.4c-1-2.1-4.2-5.2-6.3-5.2
				c-2.1,0-4.2,2.1-6.3,5.2L969.9,510.5z"/>
			
				<linearGradient id="SVGID_44_" gradientUnits="userSpaceOnUse" x1="1647.1111" y1="1585.1337" x2="1604.3324" y2="1505.516" gradientTransform="matrix(1 0 0 -1 0 2220.8899)">
				<stop  offset="0" style="stop-color:#D1D1D1"/>
				<stop  offset="0.6209" style="stop-color:#FFFFFF"/>
				<stop  offset="0.7991" style="stop-color:#D6D6D6"/>
				<stop  offset="1" style="stop-color:#ABABAB"/>
			</linearGradient>
			<path class="st189" d="M1709.7,665.8c-2.1-9.4-3.1-17.7-7.3-17.7s-6.3,11.5-7.3,17.7c-1,7.3-6.3,36.5-17.7,45.8
				c-11.5,7.3-35.4,13.5-61.5,15.6c-27.1,1-83.4,4.2-99,4.2l4.2-6.3c17.7-1,42.7-5.2,88.6-10.4c45.8-4.2,56.3-16.7,65.6-29.2
				c8.3-12.5,19.8-51.1,19.8-51.1s2.1-12.5,8.3-12.5c5.2,0,7.3,11.5,7.3,11.5L1709.7,665.8z"/>
			
				<linearGradient id="SVGID_45_" gradientUnits="userSpaceOnUse" x1="1816.8063" y1="1515.9977" x2="1828.2517" y2="1448.9465" gradientTransform="matrix(1 0 0 -1 0 2220.8899)">
				<stop  offset="6.590000e-02" style="stop-color:#FFFFFF"/>
				<stop  offset="0.2637" style="stop-color:#8C8C8C"/>
				<stop  offset="0.3083" style="stop-color:#777777"/>
				<stop  offset="0.4066" style="stop-color:#4D4D4D"/>
				<stop  offset="0.6394" style="stop-color:#494949"/>
				<stop  offset="0.6868" style="stop-color:#474747"/>
				<stop  offset="1" style="stop-color:#EBEBEB"/>
			</linearGradient>
			<path class="st190" d="M1748.3,721c9.4,2.1,19.8,2.1,28.1,3.1c14.6,1,43.8,4.2,43.8,4.2s16.7,1,16.7,6.3c0,4.2-15.6,6.3-15.6,6.3
				l51.1,2.1c0,0,20.8-1,20.8-8.3c0-7.3-21.9-8.3-21.9-8.3l-93.8-14.6c0,0-4.2,0-9.4-2.1L1748.3,721z"/>
			
				<linearGradient id="SVGID_46_" gradientUnits="userSpaceOnUse" x1="1735.8188" y1="1479.322" x2="1694.6356" y2="1320.7701" gradientTransform="matrix(1 0 0 -1 0 2220.8899)">
				<stop  offset="6.040000e-02" style="stop-color:#E0E0E0"/>
				<stop  offset="0.2582" style="stop-color:#EBEBEB"/>
				<stop  offset="0.2667" style="stop-color:#E4E4E4"/>
				<stop  offset="0.4092" style="stop-color:#787878"/>
				<stop  offset="0.4725" style="stop-color:#4D4D4D"/>
				<stop  offset="0.6701" style="stop-color:#4D4D4D"/>
				<stop  offset="0.6868" style="stop-color:#4D4D4D"/>
				<stop  offset="1" style="stop-color:#5E5E5E"/>
			</linearGradient>
			<path class="st191" d="M1726.4,760.6c-10.4,9.4-13.5,37.5-14.6,42.7c-1,5.2-5.2,24-5.2,24s-1,9.4-5.2,9.4l-1,29.2
				c5.2,0,8.3-12.5,8.3-12.5s14.6-52.1,20.8-65.6c2.1-4.2,4.2-8.3,7.3-12.5L1726.4,760.6z"/>
			
				<linearGradient id="SVGID_47_" gradientUnits="userSpaceOnUse" x1="1038.1001" y1="1399.4784" x2="967.4081" y2="1159.947" gradientTransform="matrix(1 0 0 -1 0 2220.8899)">
				<stop  offset="0" style="stop-color:#BDBDBD"/>
				<stop  offset="0.2253" style="stop-color:#828282"/>
				<stop  offset="0.2596" style="stop-color:#777777"/>
				<stop  offset="0.4066" style="stop-color:#4D4D4D"/>
				<stop  offset="0.4804" style="stop-color:#505050"/>
				<stop  offset="0.5421" style="stop-color:#5A5A5A"/>
				<stop  offset="0.5995" style="stop-color:#6C6C6C"/>
				<stop  offset="0.6539" style="stop-color:#848484"/>
				<stop  offset="0.6868" style="stop-color:#969696"/>
				<stop  offset="1" style="stop-color:#9C9C9C"/>
			</linearGradient>
			<path class="st192" d="M976.1,1009.7c8.3,0,9.4-18.8,9.4-18.8s17.7-109.4,20.8-121.9c2.1-12.5,11.5-57.3,31.3-72.9l20.8,21.9
				c-19.8,18.8-25,41.7-30.2,55.2c-8.3,22.9-41.7,157.3-41.7,157.3s-2.1,17.7-9.4,17.7v-38.6H976.1z"/>
			
				<linearGradient id="SVGID_48_" gradientUnits="userSpaceOnUse" x1="914.1932" y1="1375.5137" x2="959.4913" y2="1139.4155" gradientTransform="matrix(1 0 0 -1 0 2220.8899)">
				<stop  offset="0" style="stop-color:#B5B5B5"/>
				<stop  offset="0.2253" style="stop-color:#6B6B6B"/>
				<stop  offset="0.4066" style="stop-color:#4D4D4D"/>
				<stop  offset="0.4804" style="stop-color:#505050"/>
				<stop  offset="0.5421" style="stop-color:#5A5A5A"/>
				<stop  offset="0.5995" style="stop-color:#6C6C6C"/>
				<stop  offset="0.6539" style="stop-color:#848484"/>
				<stop  offset="0.6868" style="stop-color:#969696"/>
				<stop  offset="1" style="stop-color:#C2C2C2"/>
			</linearGradient>
			<path class="st193" d="M985.5,990.9c0,0-1,18.8-9.4,18.8s-8.3-18.8-8.3-18.8S960.5,950.3,948,870c-11.5-81.3-50-91.7-82.3-96.9
				l-4.2,24c12.5,4.2,22.9,9.4,31.3,15.6c19.8,17.7,36.5,56.3,49,113.6c12.5,57.3,25,105.2,25,105.2s2.1,16.7,9.4,16.7
				s9.4-17.7,9.4-17.7L985.5,990.9L985.5,990.9z"/>
			
				<linearGradient id="SVGID_49_" gradientUnits="userSpaceOnUse" x1="970.9421" y1="1196.1163" x2="981.9405" y2="1196.1163" gradientTransform="matrix(1 0 0 -1 0 2220.8899)">
				<stop  offset="0" style="stop-color:#999999"/>
				<stop  offset="0.4505" style="stop-color:#E6E6E6"/>
				<stop  offset="0.8242" style="stop-color:#A3A3A3"/>
			</linearGradient>
			<path class="st194" d="M968.8,1038.8c1,4.2,4.2,8.3,7.3,8.3s5.2-4.2,6.3-7.3v-37.5c-1,4.2-3.1,7.3-7.3,7.3s-6.3-4.2-7.3-7.3
				L968.8,1038.8z"/>
			
				<linearGradient id="SVGID_50_" gradientUnits="userSpaceOnUse" x1="540.5846" y1="1492.6029" x2="540.5846" y2="1476.5811" gradientTransform="matrix(1 0 0 -1 0 2220.8899)">
				<stop  offset="0" style="stop-color:#A8A8A8"/>
				<stop  offset="4.340000e-02" style="stop-color:#B2B2B2"/>
				<stop  offset="0.2581" style="stop-color:#DCDCDC"/>
				<stop  offset="0.4268" style="stop-color:#F5F5F5"/>
				<stop  offset="0.5275" style="stop-color:#FFFFFF"/>
				<stop  offset="0.6462" style="stop-color:#EBEBEB"/>
				<stop  offset="0.8878" style="stop-color:#B8B8B8"/>
				<stop  offset="1" style="stop-color:#9E9E9E"/>
			</linearGradient>
			<path class="st195" d="M590.6,744c0,0-22.9-2.1-22.9-7.3c0-5.2,22.9-6.3,22.9-6.3h-82.3c0,0-17.7,1-17.7,7.3
				c0,7.3,14.6,7.3,20.8,7.3L590.6,744z"/>
			
				<linearGradient id="SVGID_51_" gradientUnits="userSpaceOnUse" x1="1078.9779" y1="1371.0195" x2="1407.1207" y2="1523.4204" gradientTransform="matrix(1 0 0 -1 0 2220.8899)">
				<stop  offset="0" style="stop-color:#BDBDBD"/>
				<stop  offset="0.2637" style="stop-color:#6B6B6B"/>
				<stop  offset="0.4066" style="stop-color:#4D4D4D"/>
				<stop  offset="0.6394" style="stop-color:#494949"/>
				<stop  offset="0.6868" style="stop-color:#474747"/>
				<stop  offset="1" style="stop-color:#545454"/>
			</linearGradient>
			<path class="st196" d="M1055.3,820c13.5-14.6,34.4-26.1,66.7-31.3c75-11.5,213.6-27.1,213.6-27.1s70.9-8.3,128.2-12.5l1-8.3
				c-27.1,0-214.7,16.7-304.3,22.9c-89.6,6.3-104.2,15.6-123,32.3L1055.3,820z"/>
			
				<linearGradient id="SVGID_52_" gradientUnits="userSpaceOnUse" x1="1669.8586" y1="1449.7151" x2="1536.2515" y2="1474.4253" gradientTransform="matrix(1 0 0 -1 0 2220.8899)">
				<stop  offset="0" style="stop-color:#BFBFBF"/>
				<stop  offset="0.2637" style="stop-color:#737373"/>
				<stop  offset="0.4066" style="stop-color:#4D4D4D"/>
				<stop  offset="0.6394" style="stop-color:#494949"/>
				<stop  offset="0.6868" style="stop-color:#474747"/>
				<stop  offset="1" style="stop-color:#545454"/>
			</linearGradient>
			<path class="st197" d="M1667,774.2c-10.4-11.5-26.1-13.5-36.5-15.6c-12.5-2.1-65.6-9.4-111.5-11.5c-15.6-1-41.7,1-69.8,2.1
				l-1-8.3c7.3-1,12.5-1,16.7-1c27.1,0,66.7,0,104.2,2.1c36.5,2.1,80.2,3.1,100,12.5c4.2,2.1,8.3,6.3,11.5,9.4L1667,774.2z"/>
			
				<linearGradient id="SVGID_53_" gradientUnits="userSpaceOnUse" x1="1674.8959" y1="1467.2781" x2="1700.3042" y2="1359.4021" gradientTransform="matrix(1 0 0 -1 0 2220.8899)">
				<stop  offset="0" style="stop-color:#D1D1D1"/>
				<stop  offset="0.2418" style="stop-color:#9C9C9C"/>
				<stop  offset="0.3284" style="stop-color:#777777"/>
				<stop  offset="0.4396" style="stop-color:#4D4D4D"/>
				<stop  offset="0.645" style="stop-color:#494949"/>
				<stop  offset="0.6868" style="stop-color:#474747"/>
				<stop  offset="1" style="stop-color:#4D4D4D"/>
			</linearGradient>
			<path class="st198" d="M1663.9,772.1c4.2,4.2,7.3,8.3,9.4,14.6c9.4,22.9,19.8,66.7,19.8,66.7s3.1,12.5,8.3,12.5
				s8.3-12.5,8.3-12.5l-2.1-26.1c0,0-1,9.4-5.2,9.4c-3.1,0-4.2-4.2-5.2-9.4c-1-4.2-4.2-17.7-5.2-22.9c-1-5.2-4.2-29.2-15.6-41.7
				L1663.9,772.1z"/>
			
				<linearGradient id="SVGID_54_" gradientUnits="userSpaceOnUse" x1="1695.2885" y1="1375.3417" x2="1708.0989" y2="1375.3417" gradientTransform="matrix(1 0 0 -1 0 2220.8899)">
				<stop  offset="0" style="stop-color:#4A4A4A"/>
				<stop  offset="0.1028" style="stop-color:#4D4D4D"/>
				<stop  offset="0.1881" style="stop-color:#575757"/>
				<stop  offset="0.267" style="stop-color:#696969"/>
				<stop  offset="0.3421" style="stop-color:#818181"/>
				<stop  offset="0.4146" style="stop-color:#A0A0A0"/>
				<stop  offset="0.4841" style="stop-color:#C6C6C6"/>
				<stop  offset="0.5055" style="stop-color:#D4D4D4"/>
				<stop  offset="0.5481" style="stop-color:#CACACA"/>
				<stop  offset="0.6198" style="stop-color:#B0B0B0"/>
				<stop  offset="0.711" style="stop-color:#868686"/>
				<stop  offset="0.7527" style="stop-color:#707070"/>
				<stop  offset="0.9396" style="stop-color:#4F4F4F"/>
			</linearGradient>
			<path class="st199" d="M1693,852.3c0,0,3.1,12.5,8.3,12.5s8.3-12.5,8.3-12.5l-2.1-26.1c0,0-1,9.4-5.2,9.4c-3.1,0-4.2-4.2-5.2-9.4
				L1693,852.3z"/>
			
				<linearGradient id="SVGID_55_" gradientUnits="userSpaceOnUse" x1="1735.1516" y1="1454.3383" x2="1844.7291" y2="1480.1852" gradientTransform="matrix(1 0 0 -1 0 2220.8899)">
				<stop  offset="0" style="stop-color:#E6E6E6"/>
				<stop  offset="0.2308" style="stop-color:#737373"/>
				<stop  offset="0.4505" style="stop-color:#4D4D4D"/>
				<stop  offset="0.6319" style="stop-color:#474747"/>
				<stop  offset="0.6923" style="stop-color:#666666"/>
				<stop  offset="0.7893" style="stop-color:#929292"/>
				<stop  offset="0.8763" style="stop-color:#B2B2B2"/>
				<stop  offset="0.9496" style="stop-color:#C5C5C5"/>
				<stop  offset="1" style="stop-color:#CCCCCC"/>
			</linearGradient>
			<path class="st200" d="M1735.8,778.3c1-1,2.1-2.1,2.1-2.1c7.3-7.3,21.9-13.5,49-16.7c40.6-5.2,83.4-14.6,83.4-14.6
				s20.8-1,20.8-8.3h-55.2c0,4.2-15.6,6.3-15.6,6.3s-14.6,4.2-41.7,5.2c-27.1,2.1-41.7,4.2-52.1,12.5c-1,1-1,1-2.1,2.1L1735.8,778.3
				z"/>
			
				<linearGradient id="SVGID_56_" gradientUnits="userSpaceOnUse" x1="1859.8997" y1="1480.5914" x2="1859.7288" y2="1489.9434" gradientTransform="matrix(1 0 0 -1 0 2220.8899)">
				<stop  offset="0" style="stop-color:#C9C9C9"/>
				<stop  offset="0.2457" style="stop-color:#C6C6C6"/>
				<stop  offset="0.4489" style="stop-color:#BCBCBC"/>
				<stop  offset="0.5055" style="stop-color:#B8B8B8"/>
				<stop  offset="0.5541" style="stop-color:#AEAEAE"/>
				<stop  offset="0.6358" style="stop-color:#949494"/>
				<stop  offset="0.7253" style="stop-color:#707070"/>
				<stop  offset="0.9396" style="stop-color:#4F4F4F"/>
			</linearGradient>
			<path class="st201" d="M1828.5,730.4c4.2,1,7.3,2.1,7.3,4.2c0,1-2.1,2.1-4.2,4.2l55.2,1c2.1-1,4.2-2.1,4.2-4.2
				c0-4.2-7.3-6.3-13.5-7.3L1828.5,730.4z"/>
			
				<linearGradient id="SVGID_57_" gradientUnits="userSpaceOnUse" x1="1749.3564" y1="1503.2781" x2="1713.4374" y2="1587.2494" gradientTransform="matrix(1 0 0 -1 0 2220.8899)">
				<stop  offset="0" style="stop-color:#FFFFFF"/>
				<stop  offset="0.1264" style="stop-color:#A6A6A6"/>
				<stop  offset="0.2743" style="stop-color:#777777"/>
				<stop  offset="0.4231" style="stop-color:#4D4D4D"/>
				<stop  offset="0.7308" style="stop-color:#474747"/>
				<stop  offset="0.9916" style="stop-color:#515151"/>
				<stop  offset="1" style="stop-color:#525252"/>
			</linearGradient>
			<path class="st202" d="M1702.4,648.1c4.2,0,6.3,8.3,7.3,17.7c2.1,9.4,4.2,34.4,16.7,44.8c6.3,6.3,16.7,9.4,26.1,11.5l17.7-10.4
				c-11.5-2.1-33.3-8.3-40.6-27.1c-9.4-25-19.8-52.1-19.8-52.1s-2.1-11.5-7.3-11.5L1702.4,648.1L1702.4,648.1z"/>
			
				<linearGradient id="SVGID_58_" gradientUnits="userSpaceOnUse" x1="1695.0571" y1="1583.2222" x2="1707.1946" y2="1583.2222" gradientTransform="matrix(1 0 0 -1 0 2220.8899)">
				<stop  offset="0" style="stop-color:#D4D4D4"/>
				<stop  offset="0.2026" style="stop-color:#D0D0D0"/>
				<stop  offset="0.3703" style="stop-color:#C6C6C6"/>
				<stop  offset="0.5055" style="stop-color:#B8B8B8"/>
				<stop  offset="0.5466" style="stop-color:#AEAEAE"/>
				<stop  offset="0.6157" style="stop-color:#949494"/>
				<stop  offset="0.7036" style="stop-color:#6A6A6A"/>
				<stop  offset="0.7253" style="stop-color:#5E5E5E"/>
				<stop  offset="0.9396" style="stop-color:#4D4D4D"/>
			</linearGradient>
			<path class="st203" d="M1698.3,625.2c1-1,2.1-2.1,4.2-2.1s3.1,1,4.2,2.1v27.1c-1-2.1-2.1-4.2-4.2-4.2s-3.1,1-4.2,4.2V625.2z"/>
			
				<linearGradient id="SVGID_59_" gradientUnits="userSpaceOnUse" x1="1154.0597" y1="1519.3357" x2="1519.92" y2="1493.2521" gradientTransform="matrix(1 0 0 -1 0 2220.8899)">
				<stop  offset="0" style="stop-color:#E8E8E8"/>
				<stop  offset="0.6209" style="stop-color:#FFFFFF"/>
				<stop  offset="0.7991" style="stop-color:#D6D6D6"/>
				<stop  offset="1" style="stop-color:#ABABAB"/>
			</linearGradient>
			<path class="st204" d="M1557.6,721c-16.7,2.1-28.1,4.2-37.5,4.2c-17.7,1-56.3,1-86.5-3.1c-30.2-4.2-226.1-27.1-226.1-27.1
				s-11.5-1-28.1-3.1l-1,22.9c12.5,1,195.9,12.5,225.1,14.6c29.2,1,95.9,2.1,110.5,2.1c7.3,0,25-1,43.8-1V721z"/>
			
				<linearGradient id="SVGID_60_" gradientUnits="userSpaceOnUse" x1="1792.214" y1="1227.3766" x2="1810.1304" y2="1227.3766" gradientTransform="matrix(1 0 0 -1 0 2220.8899)">
				<stop  offset="2.750000e-02" style="stop-color:#4A4A4A"/>
				<stop  offset="8.940001e-02" style="stop-color:#575757"/>
				<stop  offset="0.2055" style="stop-color:#7B7B7B"/>
				<stop  offset="0.3571" style="stop-color:#B2B2B2"/>
				<stop  offset="0.489" style="stop-color:#D4D4D4"/>
				<stop  offset="0.55" style="stop-color:#C7C7C7"/>
				<stop  offset="0.6618" style="stop-color:#A5A5A5"/>
				<stop  offset="0.7198" style="stop-color:#919191"/>
				<stop  offset="0.8736" style="stop-color:#757575"/>
			</linearGradient>
			<path class="st205" d="M1794.1,974.2c0,0,1,11.5,7.3,11.5c6.3,0,6.3-9.4,6.3-9.4l2.1,17.7c-4.2,12.5-5.2,18.8-9.4,18.8
				c-2.1,0-5.2-6.3-9.4-15.6L1794.1,974.2z"/>
			
				<radialGradient id="SVGID_61_" cx="906.0814" cy="1535.6775" r="653.0752" gradientTransform="matrix(1 0 0 -1 0 2220.8899)" gradientUnits="userSpaceOnUse">
				<stop  offset="7.140000e-02" style="stop-color:#FFFFFF"/>
				<stop  offset="7.500000e-02" style="stop-color:#FDFDFD"/>
				<stop  offset="0.144" style="stop-color:#D5D5D5"/>
				<stop  offset="0.2073" style="stop-color:#B8B8B8"/>
				<stop  offset="0.2621" style="stop-color:#A7A7A7"/>
				<stop  offset="0.3022" style="stop-color:#A1A1A1"/>
				<stop  offset="0.3748" style="stop-color:#8F8F8F"/>
				<stop  offset="0.483" style="stop-color:#7D7D7D"/>
				<stop  offset="0.5947" style="stop-color:#717171"/>
				<stop  offset="0.7143" style="stop-color:#6E6E6E"/>
				<stop  offset="1" style="stop-color:#696969"/>
			</radialGradient>
			<path class="st206" d="M681.3,721l-91.7,8.3c0,0-22.9,1-22.9,6.3c0,5.2,22.9,7.3,22.9,7.3l120.9,10.4c0,0,123,12.5,155.3,18.8
				c32.3,6.3,70.9,16.7,82.3,96.9c11.5,81.3,19.8,120.9,19.8,120.9s0,18.8,8.3,18.8c8.3,0,9.4-18.8,9.4-18.8s17.7-109.4,20.8-121.9
				c2.1-12.5,11.5-57.3,31.3-72.9c19.8-16.7,34.4-26.1,123-32.3c89.6-6.3,277.2-22.9,304.3-22.9c27.1,0,66.7,0,104.2,2.1
				c36.5,2.1,80.2,3.1,100,12.5c18.8,8.3,21.9,41.7,22.9,47.9c1,6.3,4.2,19.8,5.2,22.9c1,4.2,2.1,9.4,5.2,9.4c3.1,0,5.2-9.4,5.2-9.4
				s4.2-17.7,5.2-24c1-5.2,4.2-34.4,14.6-42.7c10.4-9.4,25-11.5,52.1-12.5c27.1-2.1,41.7-5.2,41.7-5.2s15.6-2.1,15.6-6.3
				c0-4.2-16.7-6.3-16.7-6.3s-30.2-3.1-43.8-4.2c-14.6-1-37.5-2.1-50-13.5c-12.5-11.5-14.6-35.4-16.7-44.8
				c-2.1-9.4-3.1-17.7-7.3-17.7s-6.3,11.5-7.3,17.7c-1,7.3-6.3,36.5-17.7,45.8c-11.5,7.3-35.4,13.5-61.5,15.6
				c-27.1,1-83.4,4.2-99,4.2c-15.6,0-81.3-1-110.5-2.1c-29.2-1-209.4-14.6-223-14.6c-12.5-1-86.5-4.2-116.7-17.7
				c-30.2-12.5-49-40.6-56.3-66.7c-7.3-26.1-22.9-100-22.9-100s-4.2-27.1-9.4-27.1c-7.3,0-9.4,28.1-9.4,28.1s-15.6,86.5-29.2,115.7
				c-13.5,28.1-51.1,56.3-101.1,61.5C786.5,712.7,681.3,721,681.3,721z"/>
			
				<linearGradient id="SVGID_62_" gradientUnits="userSpaceOnUse" x1="1558.4468" y1="1386.3456" x2="1706.7015" y2="1185.9269" gradientTransform="matrix(1 0 0 -1 0 2220.8899)">
				<stop  offset="0" style="stop-color:#ADADAD"/>
				<stop  offset="9.180000e-02" style="stop-color:#999999"/>
				<stop  offset="0.1538" style="stop-color:#919191"/>
				<stop  offset="0.1679" style="stop-color:#8F8F8F"/>
				<stop  offset="0.3421" style="stop-color:#7D7D7D"/>
				<stop  offset="0.5219" style="stop-color:#717171"/>
				<stop  offset="0.7143" style="stop-color:#6E6E6E"/>
				<stop  offset="1" style="stop-color:#8A8A8A"/>
			</linearGradient>
			<path class="st207" d="M1624.3,909.6c-14.6,1-100,7.3-121.9,9.4c-22.9,1-30.2,15.6-33.3,21.9c-3.1,6.3-12.5,52.1-13.5,55.2
				c-1,4.2-2.1,11.5-4.2,11.5s-4.2-4.2-4.2-8.3c-1-4.2-10.4-43.8-12.5-55.2s-12.5-16.7-22.9-21.9c-11.5-5.2-38.6-6.3-38.6-6.3
				s-22.9-2.1-39.6-3.1c-16.7-1-26.1-4.2-26.1-9.4c0-4.2,11.5-4.2,25-6.3c44.8-1,57.3-4.2,81.3-11.5c21.9-6.3,25-37.5,28.1-49
				c3.1-11.5,5.2-24,9.4-24s5.2,4.2,8.3,20.8c5.2,32.3,12.5,45.8,28.1,52.1c26.1,9.4,107.3,11.5,123,11.5c0,0,49,1,72.9-1
				c25-1,69.8-6.3,80.2-8.3s24-7.3,27.1-24c2.1-16.7,7.3-35.4,11.5-35.4c5.2,0,7.3,14.6,8.3,17.7c0,0,4.2,32.3,21.9,38.6
				c17.7,6.3,45.8,8.3,56.3,9.4c11.5,1,20.8,2.1,20.8,7.3c0,5.2-14.6,8.3-20.8,8.3c-6.3,0-37.5,1-49,6.3c-11.5,5.2-20.8,8.3-25,30.2
				c-4.2,21.9-6.3,28.1-6.3,28.1s-1,9.4-6.3,9.4c-6.3,0-7.3-11.5-7.3-11.5s-7.3-33.3-11.5-41.7c-4.2-7.3-10.4-17.7-54.2-19.8
				C1683.7,911.7,1663.9,908.6,1624.3,909.6z"/>
		</g>
		
			<linearGradient id="SVGID_63_" gradientUnits="userSpaceOnUse" x1="1551.1783" y1="1011.3215" x2="1475.2097" y2="1068.0734" gradientTransform="matrix(1 0 0 -1 0 2220.8899)">
			<stop  offset="0" style="stop-color:#E6E6E6"/>
			<stop  offset="0.2444" style="stop-color:#C6C6C6"/>
			<stop  offset="0.564" style="stop-color:#A4A4A4"/>
			<stop  offset="0.8273" style="stop-color:#8F8F8F"/>
			<stop  offset="1" style="stop-color:#878787"/>
		</linearGradient>
		<path class="st208" d="M1115.8,1085.7c0,0,27.1,1,38.6,6.3c11.5,5.2,20.8,10.4,22.9,21.9s11.5,51.1,12.5,54.2
			c1,4.2,2.1,8.3,4.2,8.3s4.2-7.3,4.2-11.5c0-4.2,10.4-47.9,12.5-54.2c3.1-6.3,11.5-20.8,33.3-21.9c22.9-1,106.3-8.3,121.9-9.4
			c14.6-1,103.2,2.1,124,4.2c20.8,1,51.1,4.2,57.3,19.8c6.3,15.6,8.3,32.3,10.4,38.6c2.1,6.3,3.1,10.4,7.3,10.4s6.3-7.3,7.3-11.5
			c1-4.2,6.3-49,30.2-53.1c24-4.2,61.5-7.3,68.8-8.3c8.3-1,14.6-1,14.6-7.3c0-6.3-10.4-6.3-17.7-6.3c-7.3,0-51.1-2.1-68.8-9.4
			c-17.7-7.3-24-18.8-28.1-44.8c-1-7.3-4.2-14.6-8.3-14.6s-7.3,8.3-8.3,14.6c-1,6.3-1,28.1-15.6,38.6c-14.6,9.4-30.2,12.5-81.3,15.6
			c-51.1,3.1-93.8,2.1-109.4,1c-15.6-1-96.9-2.1-121.9-11.5c-14.6-6.3-22.9-18.8-27.1-51.1c-2.1-16.7-4.2-20.8-8.3-20.8
			c-4.2,0-7.3,12.5-9.4,22.9c-2.1,11.5-6.3,41.7-27.1,47.9c-24,7.3-36.5,9.4-81.3,11.5c-13.5,2.1-25,1-25,6.3
			c0,4.2,8.3,7.3,26.1,8.3C1092.8,1083.6,1115.8,1085.7,1115.8,1085.7z"/>
		
			<linearGradient id="SVGID_64_" gradientUnits="userSpaceOnUse" x1="1930.6227" y1="1322.7203" x2="1930.6227" y2="1311.7313" gradientTransform="matrix(1 0 0 -1 0 2220.8899)">
			<stop  offset="0" style="stop-color:#C2C2C2"/>
			<stop  offset="0.1258" style="stop-color:#BABABA"/>
			<stop  offset="0.3218" style="stop-color:#A4A4A4"/>
			<stop  offset="0.4505" style="stop-color:#919191"/>
			<stop  offset="0.7154" style="stop-color:#B1B1B1"/>
			<stop  offset="0.8242" style="stop-color:#BFBFBF"/>
		</linearGradient>
		<path class="st209" d="M1906.7,900.3c1,1,2.1,2.1,2.1,4.2s-2.1,4.2-6.3,5.2l41.7,2.1c7.3-1,14.6-3.1,14.6-6.3
			c0-4.2-3.1-6.3-12.5-7.3L1906.7,900.3z"/>
	</g>
</g>
</svg>
