<?xml version="1.0" encoding="utf-8"?>
<!-- Generator: Adobe Illustrator 24.2.1, SVG Export Plug-In . SVG Version: 6.00 Build 0)  -->
<svg version="1.1" id="Layer_1" xmlns="http://www.w3.org/2000/svg" xmlns:xlink="http://www.w3.org/1999/xlink" x="0px" y="0px"
	 viewBox="0 0 2500 2141" style="enable-background:new 0 0 2500 2141;" xml:space="preserve">
<style type="text/css">
	.st0{fill:url(#SVGID_1_);stroke:#A6A8AB;stroke-width:18.5585;stroke-miterlimit:3.8637;}
	.st1{fill:url(#SVGID_2_);stroke:#A6A8AB;stroke-width:18.5585;stroke-miterlimit:3.8637;}
	.st2{fill:url(#SVGID_3_);stroke:#FFFFFF;stroke-width:18.5585;stroke-miterlimit:3.8637;}
	.st3{fill:url(#SVGID_4_);stroke:#FFFFFF;stroke-width:18.5585;stroke-miterlimit:3.8637;}
	.st4{fill:#FFFFFF;}
	.st5{fill:#7B7D7F;}
	.st6{fill:none;stroke:#808184;stroke-width:21.0175;stroke-miterlimit:3.8637;}
	.st7{fill-rule:evenodd;clip-rule:evenodd;fill:none;stroke:#808184;stroke-width:21.0175;stroke-miterlimit:3.8637;}
	.st8{fill:none;stroke:#A6A8AB;stroke-width:18.5585;stroke-miterlimit:3.8637;}
	.st9{fill:none;stroke:#58595B;stroke-width:18.5585;stroke-miterlimit:3.8637;}
	.st10{fill-rule:evenodd;clip-rule:evenodd;fill:#7B7D7F;}
	.st11{fill-rule:evenodd;clip-rule:evenodd;fill:none;stroke:#A6A8AB;stroke-width:18.5585;stroke-miterlimit:3.8637;}
	.st12{fill-rule:evenodd;clip-rule:evenodd;fill:#274084;}
	.st13{fill-rule:evenodd;clip-rule:evenodd;fill:#FFFFFF;}
</style>
<g>
	<g>
		<linearGradient id="SVGID_1_" gradientUnits="userSpaceOnUse" x1="191.3643" y1="1070.8313" x2="2298.5049" y2="1070.8313">
			<stop  offset="0" style="stop-color:#E6E7E8"/>
			<stop  offset="1" style="stop-color:#6D6E70"/>
		</linearGradient>
		<circle class="st0" cx="1244.9" cy="1070.8" r="1053.6"/>
	</g>
	<g>
		<linearGradient id="SVGID_2_" gradientUnits="userSpaceOnUse" x1="1389.1685" y1="1888.8429" x2="1100.6934" y2="252.8194">
			<stop  offset="0" style="stop-color:#D0D2D3"/>
			<stop  offset="1" style="stop-color:#58595B"/>
		</linearGradient>
		
			<circle style="fill:url(#SVGID_2_);stroke:#FFFFFF;stroke-width:18.5585;stroke-miterlimit:3.8637;" cx="1244.9" cy="1070.8" r="830.5"/>
	</g>
	<g>
		
			<ellipse transform="matrix(0.7071 -0.7071 0.7071 0.7071 -392.5595 1193.9398)" class="st4" cx="1244.9" cy="1070.8" rx="670.2" ry="670.2"/>
	</g>
	<g>
		<polygon class="st5" points="2105.5,45.6 2323.8,263.9 1984.6,603.2 1766.3,384.9 2105.5,45.6 		"/>
	</g>
	<g>
		<line class="st5" x1="1766.3" y1="384.9" x2="2105.5" y2="45.6"/>
		<line class="st8" x1="1766.3" y1="384.9" x2="2105.5" y2="45.6"/>
	</g>
	<line class="st9" x1="2323.8" y1="263.9" x2="1984.6" y2="603.2"/>
	<g>
		<path class="st10" d="M2340.7,578.6c-124.6-264-284.7-442.6-535.2-562l534.1,0.7L2340.7,578.6z"/>
		<path class="st11" d="M2340.7,578.6c-124.6-264-284.7-442.6-535.2-562l534.1,0.7L2340.7,578.6z"/>
	</g>
	<path class="st12" d="M159.3,1070.8c0-93.1,7.7-166.9,33.9-269.6l2105.1,5c25.1,100.9,32.4,173.3,32.4,264.6
		c0,102.7-9.3,183.9-40.8,296.2l-2090.1-1.8C168.4,1253.6,159.3,1172.9,159.3,1070.8z"/>
	<g>
		<path class="st13" d="M1391.2,1093c0,39.3-31,74.2-70.3,74.2l-44.9-0.1c-4.2,0-7.5-3.4-7.5-7.5l0-13.8v-115.9l0.2-15.6
			c0-4.3,3.5-7.8,7.8-7.8l43.3,0.1v-44.1h-231v44l43.2,0h2.5c5.3,0,9.6,4.3,9.6,9.6l0,145.7c0,3-2.4,5.4-5.4,5.4l-50,0v43.9h346.9
			v-118L1391.2,1093L1391.2,1093z"/>
		<path class="st13" d="M1428.5,1008.3c-1-1.1-2.6-1.7-4.2-1.7h-51.7v-44h248.8v44.1h-43.2l-1.9,0.1c-3,0-5.3,2.3-5.3,5.3
			l74.3,125.6l69.9-127.1c0-2.1-1.6-3.8-3.7-3.8h-40.8v-44.1h174.9v44.1h-46l-4.3,0.1c-1.5,0-2.8,0.4-4,1l-110.3,203.2h-136.4
			L1428.5,1008.3L1428.5,1008.3z"/>
		<path class="st13" d="M340.4,1008.3c-1.1-1.1-2.6-1.7-4.2-1.7h-51.7v-44h248.8v44.1h-43.2l-1.9,0.1c-2.9,0-5.3,2.3-5.3,5.3
			l74.3,125.6l70-127.1c0-2.1-1.7-3.8-3.8-3.8h-40.8v-44.1h174.8v44.1h-45.9l-4.3,0.1c-1.5,0-2.9,0.4-4,1l-110.3,203.2H456.4
			L340.4,1008.3L340.4,1008.3z"/>
		<path class="st13" d="M728,1087.5c0-69,78.4-124.9,175.1-124.9c96.7,0,175,55.9,175,124.9c0,69-78.4,124.9-175,124.9
			C806.4,1212.3,728,1156.4,728,1087.5L728,1087.5z M936.2,1158.6c14.7-15.8,24.9-42.1,24.9-71.2c0-24.9-6.4-48.4-18.4-63.6
			c-8.6-10.8-22.3-18.2-37.2-18.2c-12.3,0-23.8,5-32.3,12.9c-1.8,1.7-3.5,3.4-5,5.3c-12.1,15.2-18.4,38.7-18.4,63.6
			c0,27.1,10.5,53.6,23.6,69.7c6.7,8.2,20.7,12.9,32.1,12.9C916.8,1170,928,1165.4,936.2,1158.6L936.2,1158.6z"/>
		<path class="st13" d="M1817.3,1086.8c0-69,78.4-124.9,175.1-124.9c96.7,0,175.1,55.9,175.1,124.9c0,69-78.4,124.9-175.1,124.9
			C1895.7,1211.7,1817.3,1155.8,1817.3,1086.8L1817.3,1086.8z M2025.5,1158c14.6-15.8,24.8-42.1,24.8-71.2
			c0-24.9-6.3-48.4-18.4-63.6c-8.6-10.9-22.3-18.2-37.2-18.2c-12.4,0-23.8,5-32.3,12.9c-1.8,1.7-3.4,3.5-4.9,5.4
			c-12.1,15.1-18.4,38.7-18.4,63.6c0,27.1,10.5,53.6,23.6,69.6c6.7,8.2,20.7,12.9,32.1,12.9
			C2006.2,1169.4,2017.3,1164.8,2025.5,1158L2025.5,1158z"/>
	</g>
</g>
</svg>
