<?xml version="1.0" encoding="utf-8"?>
<!-- Generator: Adobe Illustrator 24.2.3, SVG Export Plug-In . SVG Version: 6.00 Build 0)  -->
<svg version="1.1" id="Layer_1" xmlns="http://www.w3.org/2000/svg" xmlns:xlink="http://www.w3.org/1999/xlink" x="0px" y="0px"
	 viewBox="0 0 320 320" style="enable-background:new 0 0 320 320;" xml:space="preserve">
<style type="text/css">
	.st0{fill:#100F0D;}
	.st1{fill:#005524;}
	.st2{fill:#FEFEFE;}
	.st3{fill:#CCCBC9;}
	.st4{fill:#C9C8C6;}
	.st5{fill:#C5C4C2;}
	.st6{fill:#FCFCFC;}
	.st7{fill:#F9F9F9;}
	.st8{fill:#4F4F4D;}
	.st9{fill:#767674;}
	.st10{fill:#898887;}
	.st11{fill:#3D3C3A;}
	.st12{fill:#434241;}
	.st13{fill:#3E3D3B;}
	.st14{fill:#2D2C2A;}
	.st15{fill:#F1F1F1;}
	.st16{fill:#403F3D;}
	.st17{fill:#9C9B9B;}
	.st18{fill:#A3A2A0;}
	.st19{fill:#3C3B39;}
	.st20{fill:#818180;}
	.st21{fill:#807F7E;}
	.st22{fill:#797978;}
	.st23{fill:#686765;}
	.st24{fill:#757574;}
	.st25{fill:#727271;}
	.st26{fill:#737371;}
	.st27{fill:#787877;}
	.st28{fill:#6F6E6D;}
	.st29{fill:#777675;}
	.st30{fill:#5C5B59;}
	.st31{fill:#666564;}
	.st32{fill:#696967;}
	.st33{fill:#767574;}
	.st34{fill:#757473;}
	.st35{fill:#60605E;}
	.st36{fill:#747473;}
	.st37{fill:#6A6A68;}
	.st38{fill:#717170;}
	.st39{fill:#737372;}
	.st40{fill:#CDCCCA;}
	.st41{fill:#3C3B3A;}
	.st42{fill:#696867;}
	.st43{fill:#696866;}
	.st44{fill:#403F3E;}
	.st45{fill:#706F6E;}
	.st46{fill:#727170;}
	.st47{fill:#727270;}
	.st48{fill:#676665;}
	.st49{fill:#70706E;}
	.st50{fill:#71716F;}
	.st51{fill:#71706F;}
	.st52{fill:#717070;}
	.st53{fill:#656462;}
	.st54{fill:#676664;}
	.st55{fill:#70706F;}
	.st56{fill:#676765;}
	.st57{fill:#737271;}
	.st58{fill:#747472;}
	.st59{fill:#747372;}
	.st60{fill:#6B6A69;}
	.st61{fill:#6D6C6B;}
	.st62{fill:#6C6B69;}
	.st63{fill:#656463;}
	.st64{fill:#6B6A68;}
	.st65{fill:#5A5957;}
	.st66{fill:#6C6B6A;}
	.st67{fill:#383735;}
	.st68{fill:#363533;}
	.st69{fill:#353432;}
	.st70{fill:#6A6967;}
	.st71{fill:#666563;}
	.st72{fill:#686766;}
	.st73{fill:#CECDCB;}
</style>
<g id="ci9WIr.tif">
	<g>
		<path class="st0" d="M86.5,126.7c0.1-1.8,0.5-3.5,1-5.1c1.5-5.8,4.2-11,7.7-15.8c2.5-3.4,5.4-6.4,8.5-9.2
			c5.4-4.7,11.4-8.5,17.8-11.5c5.7-2.7,11.7-4.7,17.9-6.2c5.2-1.2,10.4-2,15.7-2.4c5.1-0.4,10.2-0.4,15.3-0.1
			c7.2,0.5,14.3,1.7,21.2,3.7c7.4,2.1,14.4,5.1,21,9.1c7.1,4.3,13.3,9.6,18.3,16.2c3.9,5.2,6.8,10.9,8.3,17.2
			c1.3,5.3,1.5,10.7,0.6,16c-1.1,6.7-3.7,12.8-7.5,18.3c-3.6,5.2-8,9.7-13,13.6c-6.2,4.8-13,8.4-20.3,11.2c-6.4,2.5-13,4.2-19.7,5.2
			c-8.1,1.3-16.3,1.6-24.5,0.9c-7-0.6-13.9-1.8-20.6-3.8c-7.6-2.3-14.9-5.4-21.6-9.6c-7.1-4.5-13.2-9.9-18.1-16.7
			c-3.7-5.1-6.3-10.8-7.6-17c-0.8-3.9-1.1-7.9-0.8-11.9c0-0.1,0-0.2,0-0.3c0.2,0,0.3,0,0.5,0c0,0.3,0,0.6,0,0.9
			c-0.1,1.6-0.1,3.2,0,4.8c0,0.1,0,0.1,0,0.2c0,0.5,0.3,0.4,0.6,0.4c3.4,0,6.7,0,10.1,0c0,0,0,0.1,0,0.1c-3.4,0-6.7,0-10.1,0
			c0,0.1,0,0.1,0,0.2c2.6,1.1,5.1,2.2,7.7,3.4c1.1,0.5,2.2,0.8,3.2,1.4c0,0.2-0.1,0.5,0.1,0.7c0.3,0.4,0,0.8,0.1,1.2
			c0.7,4.3,2.4,8.3,4.6,12.1c0.1,0.2,0.5,0.4,0.3,0.8c-0.2,0.3-0.6,0.4-1,0.4c-0.9-0.1-1.7-0.5-2.4-1.1c-0.6-0.5-1.2-0.8-2-0.9
			c-1.6-0.3-2.3,0.5-1.8,2c1.2,4.2,3.5,7.9,6.6,10.9c5.1,5,11,8.8,17.4,12c5.3,2.6,10.9,4.7,16.7,6.2c6,1.6,12,2.6,18.2,3.1
			c5.9,0.5,11.8,0.4,17.7-0.1c4.7-0.4,9.4-1.1,14.1-2.2c5.1-1.2,10-2.7,14.8-4.8c7.7-3.3,14.9-7.5,21.2-13.1
			c7.3-6.5,12.8-14.3,15.5-23.8c0.6-2.2,1.1-4.4,1.3-6.7c0-0.1,0.1-0.5-0.1-0.4c-0.4,0.1-0.6-0.2-1-0.2c-4.1,0-8.1,0-12.2,0
			c-0.3,0-0.5,0.1-0.8,0c-1.1-0.3-2.1-0.7-3.2-1c-0.4-0.1-0.5-0.3-0.5-0.7c0-1.2,0-2.4,0-3.6c0-0.4-0.1-0.5-0.5-0.5
			c-12.5,0-25,0-37.5,0c-0.3,0-0.6,0.1-0.8,0.2c-1.4,0.8-2.9,1.6-4.3,2.4c-4.6,2.7-9.3,5.3-13.9,8c-5,2.9-10,5.7-15.1,8.6
			c-1.1,0.6-2.1,1.5-3.3,1.8c-1.2,0.3-2.5,0.1-3.8,0.1c-0.1,0-0.3,0-0.4,0c-6.6,0-13.2,0-19.8,0c-3.7,0-7.5,0-11.2,0
			c-0.4,0-0.7,0-1.1-0.1c-1.3-0.1-2.6-0.3-3.9-0.4c-2-1.6-4-3.3-6-4.9c-0.1-0.2-0.6-0.1-0.5-0.4c0.1-0.3,0.4-0.2,0.6-0.2
			c0.3-0.1,0.5-0.1,0.8-0.2c0.1,0,0.1,0,0.2,0c0,0.2-0.3,0-0.3,0.2c0.2,0,0.4,0,0.6,0c14.2,0,28.4,0,42.5,0c0.2,0,0.3,0,0.5,0
			c0.1,0,0.2,0,0.3,0c-0.1,0.5,0.1,1,0.2,1.4c0.2,1.3,0.5,2.5,0.8,3.9c1.3-0.7,2.6-1.4,3.8-2.1c4.8-2.8,9.7-5.5,14.5-8.3
			c6-3.5,12.1-7,18.1-10.4c0.4-0.3,0.5-0.5,0.4-0.9c-0.3-1.5-0.6-2.9-1-4.4c0-0.2-0.1-0.3,0.1-0.4c0.2,0,0.3,0,0.5,0
			c14.6,0,29.1,0,43.7,0c0.2,0,0.4,0.1,0.6-0.1c-0.6-0.1-1.2-0.1-1.7-0.2c-0.5-0.2-0.9-0.2-1.4-0.2c-10.1,0-20.3,0-30.4,0
			c-3.6,0-7.2,0-10.8,0c-0.3,0-0.6-0.1-0.7,0.3c0-0.2-0.2-0.1-0.3-0.1c0.3-0.3,0.6-0.2,1-0.2c13.6,0,27.1,0,40.7,0
			c1.5,0,1.5,0,1-1.5c-0.1-0.4-0.2-0.6-0.7-0.6c-13.8,0-27.7,0-41.5,0c-0.3,0-0.5,0.1-0.8,0.2c-4.9,2.8-9.8,5.5-14.7,8.3
			c-6.9,3.9-13.8,7.8-20.7,11.7c-0.9,0.5-1.9,0.8-3,0.8c-13.1,0-26.2,0-39.3,0c-0.2,0-0.3,0-0.5,0c-0.4,0-0.4,0.1-0.3,0.4
			c0.2,0.5,0.4,1.1,0.6,1.6c-0.1,0.2-0.2,0-0.3,0c-0.2-0.1-0.4-0.3-0.7-0.4c-1.5-1.1-2.8-2.5-4-3.9c0.1-0.4,0.4-0.3,0.7-0.2
			c0.2,0.1,0.4,0.2,0.6,0c0.7,0.1,1.3,0.2,2,0.3c0.2,0.2,0.4,0.1,0.6,0.1c13.7,0,27.4,0,41.1,0c0.2,0,0.5,0.1,0.7-0.2
			c0.1,0,0.2,0,0.2-0.1c5.2-3,10.4-5.9,15.6-8.9c5.4-3,10.7-6.1,16.1-9.1c1.6-0.9,3.3-1.8,4.8-2.8c0,0,0.1,0,0.1,0
			c0.3,0,0.5,0,0.8,0c13.1,0,26.3,0,39.4,0c1.5,0,2.9,0,4.3-0.3c0.4-0.1,0.7-0.2,1.1-0.2c0-0.1-0.1-0.2-0.1-0.2
			c-2-1.7-4.1-3.4-6.1-5.1c-0.5-0.2-1.1-0.1-1.6-0.2c-1.1-0.1-2.1-0.3-3.2-0.3c-11.7,0-23.4,0-35,0c-0.2,0-0.4-0.1-0.6,0.1
			c0,0-0.1,0-0.1,0c-0.1-0.1-0.2-0.2,0-0.2c0.2,0,0.3,0,0.5,0c11.8,0,23.6,0,35.3,0c0.3-0.1,0.3-0.2,0.1-0.5
			c-0.8-1.2-1.6-2.4-2.6-3.4c-0.4-0.3-0.6-0.8-1-1l0,0c0-0.2-0.1-0.3-0.2-0.4c-2.9-3.2-6.2-6-9.7-8.5c-6.8-4.8-14.4-8.1-22.4-10.1
			c-6-1.5-12.2-2.3-18.4-2.4c-7.3-0.2-14.5,0.5-21.7,1.8c-2.5,0.5-5.1,0.8-7.5,1.8c-0.2-0.1,0-0.3,0-0.4c0.8-0.3,1.6-0.6,2.4-0.9
			c3.2-1.1,6.4-1.8,9.6-2.5c4.6-1,9.3-1.6,14.1-1.9c7.6-0.4,15.1,0.1,22.5,1.5c3.5,0.7,7,1.6,10.4,2.8c1.8,0.6,3.6,1.3,5.4,1.9
			c2.5,1.1,4.9,2.2,7.3,3.5c0.3,0.2,0.6,0.4,0.9,0.6c-0.3,0.2-0.4-0.2-0.8,0c0.6,0.3,1.1,0.5,1.6,0.8c0.4,0.3,0.7,0.6,1.1,0.8
			c4.9,3.5,9,7.8,12,13c1.4,2.4,2.4,4.9,4.8,6.5c0.2,0.1,0.4,0.3,0.5,0.5c0.4,0.4,0.8,0.7,1.2,1.1c0.4,0.3,0.8,0.7,1.2,1.1
			c0-0.2,0-0.2,0-0.2c-1.7-3.5-3.7-6.7-6.1-9.8c-1.6-2-3.4-3.9-5.2-5.8c0,0,0.1-0.1,0.1-0.1c2,1.8,3.8,3.7,5.4,5.7
			c2.7,3.4,4.9,7,6.4,11.1c-0.1,0-0.2,0.1-0.3,0.1c-0.2,0-0.2,0-0.3,0.2c-0.3,1.3-0.7,2.5-1.7,3.5c1.2,0.2,2.3,0.4,3.4,0.5
			c0.1,0,0.2,0,0.2,0c0.1,0.3,0.3,0.3,0.5,0.4c2,0.9,4,1.9,6.1,2.8c1.5,0.7,2.9,1.3,4.4,2c0.2,0.1,0.4,0.3,0.4-0.2
			c-0.3-3.1-0.9-6.2-1.8-9.1c-1.6-5.3-4.2-10-7.6-14.4c-2.7-3.5-5.8-6.7-9.2-9.5c-2.4-2-4.8-3.8-7.5-5.4c-1.8-1.3-3.8-2.3-5.8-3.4
			c-4.1-2.2-8.5-4-12.9-5.4c-1.6-0.5-3.3-1.1-5-1.4c-2.5-0.7-5.1-1.3-7.6-1.8c-5.9-1.1-11.9-1.7-17.9-1.7
			c-5.8-0.1-11.6,0.4-17.4,1.2c-4.8,0.7-9.5,1.8-14.1,3.3c-6.6,2.1-12.8,4.8-18.7,8.3c-6.1,3.7-11.7,8.2-16.3,13.7
			c-4.9,5.7-8.4,12.2-10.2,19.6c-0.2,0.6-0.3,1.2-0.3,1.8c0.1-0.5,0.3-1,0.4-1.5c2-6.8,8.8-17.3,12.6-19.2c-1.4,1.6-2.6,3.3-3.6,5
			c-1.6,2.7-3.1,5.4-4.4,8.3c-0.4,0.6-0.6,1.2-0.9,1.9c-0.5,1.4,0.1,2.4,1.6,2.7c0.6,0.1,1.2,0.1,1.9,0c-2.1,2.9-4.9,4.8-8.1,6.1
			C86.6,127.5,86.5,127.1,86.5,126.7z M230.7,134.7C230.7,134.7,230.7,134.7,230.7,134.7c2.8,0.1,5.6,0.1,8.4,0.1
			c0.4,0,0.6-0.1,0.6-0.5c0-1.2,0.1-2.4,0-3.6c0-0.4-0.1-0.5-0.5-0.5c-5.6,0-11.2,0-16.9,0c-0.4,0-0.5,0.2-0.5,0.5
			c0,1.2,0,2.3,0,3.5c0,0.5,0.1,0.6,0.6,0.6C225.1,134.6,227.9,134.7,230.7,134.7z"/>
		<path class="st1" d="M139.1,216.9c-0.6,1-1.2,1.9-1.7,2.7c-1,1.7-2.1,3.3-3.1,5c-1.3,2-3.2,2.9-5.4,3.2c-3.8,0.4-7.6,0.4-11.4-0.2
			c-2.2-0.4-4-1.5-5.5-3.1c-1.3-1.4-2.6-2.7-3.8-4.1c-0.4-0.4-0.6-0.3-0.9,0c-1.1,1.2-2.3,2.4-3.4,3.7c-2.2,2.5-5,3.8-8.3,3.9
			c-1.8,0.1-3.5,0.1-5.3,0.1c-10,0-20,0-30,0c-0.4,0-0.8,0-1.2-0.1c-1-0.2-1.4-0.8-1-1.8c0.4-0.9,0.9-1.7,1.6-2.4
			c5.3-5.2,10.6-10.4,15.8-15.6c0.2-0.2,0.5-0.5,0.6-0.8c0.5-0.8,0.3-1.3-0.5-1.7c-0.7-0.3-1.4-0.4-2.2-0.4c-4.2-0.1-8.5,0-12.7,0
			c-0.6,0-1.1-0.1-1.5-0.6c-0.3-0.4-0.7-0.7-1.1-1.1c0,0,0.1,0,0.1,0c8.3,0,16.5,0,24.8,0c0.8,0,1.6,0.1,2.4,0.5
			c1.2,0.7,1.5,1.9,0.5,2.9c-1.1,1.2-2.2,2.2-3.4,3.3c-4.3,4.2-8.6,8.4-12.9,12.6c-0.5,0.5-1.1,1.1-1.4,1.8
			c-0.4,0.8-0.2,1.3,0.6,1.6c0.5,0.2,1,0.3,1.6,0.3c6.3,0,12.5,0,18.8,0c2.6,0,4.9-1,6.8-2.8c2.5-2.4,5-4.8,7.6-7.2
			c0.3-0.3,0.3-0.5,0-0.8c-3.9-3.9-7.7-7.8-11.6-11.7c-0.1-0.1-0.2-0.2-0.3-0.3c0.2-0.2,0.4-0.1,0.6-0.1c2.5,0,4.9,0,7.4,0
			c0.3,0,0.6,0.1,0.8,0.3c2.4,2.5,4.9,4.9,7.4,7.4c0.4,0.4,0.5,0.3,0.9-0.1c2-2.4,4-4.8,6.1-7.3c0.2-0.3,0.5-0.4,0.9-0.4
			c2.4,0,4.8,0,7.4,0c-0.9,1-1.7,1.8-2.5,2.7c-2.9,3.2-5.9,6.3-8.8,9.5c-0.3,0.3-0.2,0.4,0,0.7c3.1,2.9,6.3,5.9,9.4,8.8
			c0.7,0.6,1.4,1.1,2.2,1.7c0.4,0.3,0.6,0.1,0.8-0.1c1.7-2.2,3.5-4.4,5-6.9c0.5-0.9,1.1-1.7,1.6-2.6c0.2-0.3,0.4-0.4,0.7-0.4
			C133.9,216.9,136.4,216.9,139.1,216.9z"/>
		<path class="st1" d="M233.2,203.5c-0.4,0.5-0.8,1-1.1,1.4c-0.2,0.3-0.5,0.2-0.8,0.2c-3.3,0-6.5,0-9.8,0c-0.5,0-0.7,0.1-0.7,0.7
			c0,2.6,0,5.3,0,7.9c0,0.6-0.1,0.8-0.7,0.8c-2.5,0-5,0-7.5,0c-0.5,0-0.7-0.1-0.7-0.7c0-2.7,0-5.4,0-8.1c0-0.5-0.2-0.6-0.7-0.6
			c-3.4,0-6.8,0-10.3,0c-0.5,0-0.7,0.1-0.7,0.7c0,2.7,0,5.3,0,8c0,0.5-0.1,0.7-0.7,0.7c-2.6,0-5.2,0-7.9,0c-0.2,0-0.5,0.1-0.5-0.3
			c0-2-0.1-4.1,0-6.1c0.2-2.9,2.1-4.6,4.9-4.6c7.3,0,14.7,0,22,0c4.7,0,9.3,0,14,0C232.6,203.5,232.9,203.5,233.2,203.5z"/>
		<path class="st1" d="M182.8,228c-3.5,0-7.1,0-10.6,0c-1.7,0-3.5-0.3-5-1.2c-1.3-0.8-2-1.9-2-3.5c0-1.9,0-3.9,0-5.8
			c0-0.4,0.1-0.6,0.5-0.6c2.7,0,5.3,0,8,0c0.4,0,0.5,0.1,0.5,0.6c0,2.6,0,5.1,0,7.7c0,1,0.3,1.2,1.2,1.3c4.9,0,9.8,0,14.7,0
			c1,0,1.3-0.3,1.3-1.4c0-2.5,0-5,0-7.5c0-0.4,0.1-0.6,0.6-0.6c2.6,0,5.3,0,7.9,0c0.5,0,0.6,0.1,0.6,0.6c0,1.8-0.1,3.6,0,5.4
			c0.1,2.7-1.5,4-3.5,4.6c-1.2,0.4-2.5,0.5-3.8,0.5C189.8,228,186.3,228,182.8,228z"/>
		<path class="st1" d="M250.5,228c-3.7,0-7.5,0-11.2,0c-1.5,0-2.9-0.2-4.3-0.8c-1.4-0.7-2.2-1.8-2.4-3.3c-0.2-2.2,0-4.4-0.1-6.6
			c0-0.4,0.2-0.4,0.5-0.4c2.6,0,5.2,0,7.8,0c0.4,0,0.5,0.2,0.5,0.6c0,2.4,0,4.7,0,7.1c0,1.3,0.4,1.7,1.7,1.7c5,0,10,0,15,0
			c1.3,0,1.6-0.3,1.6-1.7c0-2.4,0-4.7,0-7.1c0-0.5,0.1-0.6,0.6-0.6c2.5,0,4.9,0,7.4,0c0.5,0,0.6,0.2,0.6,0.6c0,1.7-0.1,3.4,0,5.1
			c0.1,3.1-1.4,4.6-4.2,5.1c-0.8,0.2-1.6,0.2-2.5,0.2C257.9,228,254.2,228,250.5,228z"/>
		<path class="st1" d="M250.4,203.3c3.8,0,7.7,0,11.5,0c1.4,0,2.7,0.2,3.9,0.8c1.5,0.7,2.4,2,2.4,3.6c0.1,2.1,0,4.2,0,6.2
			c0,0.3-0.1,0.4-0.4,0.4c-2.6,0-5.2,0-7.7,0c-0.5,0-0.4-0.3-0.4-0.6c0-2.3,0-4.7,0-7c0-1.3-0.4-1.7-1.7-1.7c-2.8,0-5.5,0-8.3,0
			c-2,0-4,0-6,0c-0.3,0-0.6,0-1,0c-1,0.1-1.3,0.4-1.3,1.4c0,2.4,0,4.7,0,7.1c0,0.7-0.2,0.8-0.8,0.8c-2.5,0-4.9,0-7.4,0
			c-0.5,0-0.6-0.1-0.6-0.6c0-2,0-4.1,0.1-6.1c0.1-2,1.3-3.2,3.1-3.9c1-0.4,2.1-0.5,3.2-0.5C242.7,203.3,246.6,203.3,250.4,203.3z"/>
		<path class="st1" d="M156.2,214.4c-2.6,0-5.2,0-7.8,0c-0.3,0-0.4-0.2-0.5-0.4c-1-1.7-2-3.4-3-5.1c-0.1-0.2-0.2-0.3-0.4-0.6
			c-0.8,1.2-1.5,2.3-2.2,3.5c-0.5,0.7-1,1.5-1.4,2.2c-0.1,0.2-0.3,0.3-0.6,0.3c-2.5,0-4.9,0-7.4,0c-0.1,0-0.1,0-0.2-0.1
			c1-1.5,1.9-3,2.9-4.4c1.4-2.1,2.7-4.1,4.1-6.2c0.2-0.3,0.4-0.4,0.7-0.4c2.7,0,5.5,0,8.2,0c0.3,0,0.4,0.1,0.6,0.3
			c2.3,3.5,4.7,7,7,10.6C156.1,214.2,156.1,214.3,156.2,214.4z"/>
		<path class="st1" d="M163.2,203.5c1,0,1.9,0,2.8,0c2.6,0,5.2,0,7.8,0c0.4,0,0.6,0.1,0.6,0.5c0,3.3,0,6.6,0,9.9
			c0,0.4-0.2,0.5-0.6,0.5c-2.7,0-5.3,0-8,0c-0.4,0-0.5-0.1-0.5-0.5c0-2.7,0-5.3,0-8c0-0.5-0.1-0.8-0.5-1.1
			C164.3,204.4,163.8,204,163.2,203.5z"/>
		<path class="st1" d="M166.1,228c-2.3,0-4.5,0-6.6-0.2c-2.4-0.2-4.2-1.4-5.4-3.4c-1.4-2.3-2.8-4.7-4.2-7.1
			c-0.3-0.4-0.1-0.5,0.3-0.5c2.5,0,4.9,0,7.4,0c0.3,0,0.5,0.1,0.7,0.4c1.6,2.4,3.2,4.7,4.8,7.1C163.8,225.7,164.9,226.8,166.1,228z"
			/>
		<path class="st1" d="M216.5,216.9c1.3,0,2.6,0,3.9,0c0.4,0,0.5,0.1,0.5,0.6c0,1.4,0,2.9,0,4.3c0,2.7-1.8,5-4.3,5.8
			c-1.3,0.4-2.7,0.5-4,0.5c-0.4,0-0.5-0.2-0.5-0.5c0-3.4,0-6.7,0-10.1c0-0.4,0.1-0.6,0.5-0.5C213.9,216.9,215.2,216.9,216.5,216.9z"
			/>
		<path class="st0" d="M86.7,128.6c-0.2,0-0.3,0-0.5,0c0-0.7,0.1-1.3,0.2-2c0,0.4,0.1,0.9,0.4,1.2c-0.1,0.4,0,0.5,0.4,0.3
			c2.2-0.8,4.4-1.6,6.7-2.5c1.4-0.5,2.8-0.9,4.1-1.6l0.1,0l0.1,0c0.9,1.4,1.9,2.8,2.8,4.2c0.1,0.2,0.3,0.1,0.4,0.1
			c-0.3,0.3-0.7,0-1,0c-4.3,0-8.6,0-13,0c-0.2,0-0.4-0.1-0.6,0.1C86.8,128.6,86.8,128.6,86.7,128.6z"/>
		<path class="st2" d="M122.3,151.3c6.6,0,13.2,0,19.8,0c0.1,0,0.3,0,0.4,0c1.3,0,2.6,0.2,3.8-0.1c1.2-0.3,2.2-1.2,3.3-1.8
			c5-2.9,10.1-5.7,15.1-8.6c4.6-2.7,9.3-5.3,13.9-8c1.4-0.8,2.9-1.6,4.3-2.4c0.3-0.1,0.5-0.2,0.8-0.2c12.5,0,25,0,37.5,0
			c0.4,0,0.5,0.1,0.5,0.5c0,1.2,0,2.4,0,3.6c-0.2,0.2-0.1,0.4-0.1,0.7c-0.1,0.6-0.1,1.1-0.2,1.7c0,0.1-0.1,0.2-0.1,0.3
			c-0.1,1.1-0.5,2.2-0.6,3.3c-0.1,0.8-0.6,1.4-0.7,2.1c-0.3,0.9-0.6,1.8-0.9,2.7c-0.4,0.5-0.5,1.1-0.7,1.6c0.3-0.5,0.7-1,0.8-1.6
			c0.5-0.7,0.6-1.5,0.9-2.2c0.2,0.2,0.1,0.5,0.1,0.7c-0.3,1.8-0.8,3.6-1.4,5.4c-1.7,4.7-4.3,8.7-7.7,12.2c-2.2,2.3-4.7,4.3-7.4,6.1
			c-2.6,1.7-5.3,3.1-8.2,4.3c-2.1,0.9-4.4,1.6-6.6,2.4c0.1,0,0.2,0,0.3,0c1.3-0.3,2.6-0.6,3.9-1c6.7-2,12.9-5,18.5-9.2
			c3.4-2.5,6.4-5.5,8.9-8.8c2.9-3.7,5.2-7.8,6.8-12.3c0.2-0.5,0.2-1,0.6-1.4c-0.2,0.7-0.4,1.4-0.6,2.1c-0.2,0.6-0.5,1.2-0.6,1.8l0,0
			c-0.4,0.6-0.6,1.2-0.8,1.8l0,0c-0.4,0.5-0.6,1.1-0.9,1.7c-1,1.9-2.2,3.8-3.5,5.5c-4,5.4-8.9,9.8-14.6,13.4
			c-7.1,4.5-14.7,7.6-22.8,9.5c-5.3,1.3-10.7,2-16.2,2.3c-6.7,0.3-13.4-0.1-20.1-1.3c-3.6-0.6-7.2-1.5-10.7-2.6
			c-1.9-0.6-3.7-1.2-5.5-2c0.6-0.6,1.4-0.8,2.2-0.8c2.3-0.1,4.5,0.4,6.7,1c1.3,0.3,2.6,0.7,4,1.1c-0.2-0.2-0.5-0.3-0.7-0.4
			c-1.3-0.6-2.5-1.2-3.6-1.9c-0.5-0.3-1-0.6-1.1-1.3c3,0.9,6,1.7,9,2.3c1.8,0.3,3.6,0.7,5.5,0.8c0.1,0,0.3,0.1,0.4,0.1
			c2.7,0.3,5.5,0.5,8.2,0.5c4.1,0,8.1-0.2,12.1-0.8c1.6-0.2,3.2-0.5,4.8-0.9c0.9-0.2,1.8-0.3,2.7-0.7c0.2,0,0.4,0,0.6,0
			c3.1-0.8,6.2-1.8,9.2-3.1c1.8-0.7,3.6-1.5,5.2-2.5c-0.5,0.1-0.9,0.4-1.3,0.6c-1.4,0.6-2.7,1.2-4.1,1.9c-2.1,0.7-4.1,1.5-6.2,2.1
			c-1.1,0.3-2.3,0.5-3.4,1c-1,0-1.9,0.4-2.8,0.6c-1.3,0.2-2.6,0.4-3.9,0.7c-2.7,0.5-5.3,0.7-8,0.8c-2.1,0.1-4.3,0.1-6.4,0
			c-2.3-0.1-4.5-0.3-6.8-0.5c-0.8-0.1-1.5-0.2-2.3-0.3c-3.2-0.5-6.3-1.1-9.4-2c-1-0.3-2-0.7-3.1-0.9l0,0c-0.4-0.3-0.9-0.4-1.3-0.6
			c-0.8-0.4-1.7-0.7-2.6-0.8c-0.3-0.4-0.8-0.4-1.2-0.6c-1-0.5-2.1-1-3.2-1.4c-0.9-0.6-1.9-1-2.9-1.6c-2-1.2-4-2.4-5.9-3.8
			c-1.7-1.2-3.3-2.7-5-4c-0.8-0.8-1.5-1.6-2.3-2.3c-1.3-1.5-2.6-3-3.7-4.7c0.3,0,0.5,0,0.7,0c3.3,0,6.5,0,9.8,0
			C121.8,151.4,122.1,151.4,122.3,151.3z M208.6,159.2c0.5-0.3,0.9-0.7,1.3-1.1c-0.1-0.1-0.2-0.2-0.3-0.3
			C209.3,158.3,208.9,158.7,208.6,159.2c-0.4,0.1-0.7,0.4-1,0.7c-0.7,0.6-1.5,1.2-2.2,1.8c-0.3,0.2-0.6,0.4-0.9,0.7
			c0.3-0.2,0.7-0.3,0.9-0.6c0.8-0.5,1.5-1.1,2.2-1.8C208.1,159.8,208.4,159.5,208.6,159.2z M212.3,155.4c-0.7,0.7-1.3,1.3-2,2
			c0,0,0.1,0.1,0.1,0.1C211.1,156.8,211.9,156.2,212.3,155.4c0.4-0.2,0.8-0.6,0.9-1.1C212.9,154.7,212.6,155,212.3,155.4z
			 M217.9,147.5c-0.6,1.1-1.3,2.1-1.9,3.2C216.8,149.7,217.5,148.7,217.9,147.5z M214.3,153c0.5-0.3,0.9-0.8,1-1.4
			C214.9,152.1,214.6,152.5,214.3,153z M199.2,165.9c0.6-0.2,1.1-0.5,1.5-0.9C200.1,165.2,199.6,165.5,199.2,165.9z M204.2,162.8
			c0,0-0.1-0.1-0.1-0.1c-0.3,0.2-0.6,0.4-0.8,0.6c0,0,0.1,0.1,0.1,0.1C203.7,163.2,203.9,163,204.2,162.8z M198.9,166.2
			c0,0-0.1-0.1-0.1-0.1c-0.3,0.2-0.6,0.3-0.9,0.5c0,0,0,0.1,0.1,0.1C198.3,166.5,198.6,166.3,198.9,166.2z"/>
		<path class="st2" d="M215.5,113.1c-11.8,0-23.6,0-35.3,0c-0.2,0-0.4,0-0.5,0c-0.2,0.1-0.1,0.2,0,0.2c0.2,0.3-0.2,0.3-0.3,0.5
			c-0.5,0.3-1.1,0.5-1.5,1c0.5-0.3,1-0.6,1.5-0.9c0.6-0.2,0.4,0.3,0.4,0.5c0.3,1.4,0.5,2.9,0.8,4.3c0.1,0.4,0,0.5-0.3,0.6
			c-0.7,0.4-1.4,0.7-2,1.1c-0.3,0.2-0.7,0.4-1,0.5c-0.4,0.3-0.9,0.5-1.3,0.8c-0.3,0.2-0.7,0.4-1,0.6c-0.7,0.3-1.3,0.7-2,1.1
			c-0.6,0.3-1.1,0.6-1.7,0.9c-0.1,0.1-0.3,0.2-0.4,0.2c-0.6,0.4-1.3,0.7-1.9,1.1c-0.1,0.1-0.3,0.1-0.4,0.2c-0.5,0.3-0.9,0.5-1.4,0.8
			c-0.8,0.4-1.7,0.9-2.5,1.4c-0.3,0.3-0.8,0.3-1,0.7c-0.2,0.1-0.4,0.3-0.6,0.4c-0.5,0-0.8,0.4-1.2,0.5c-1.4,0.8-2.9,1.6-4.3,2.4
			c-0.6,0.4-1.3,0.7-1.9,1.1c-0.7,0.4-1.5,0.8-2.2,1.3c-0.6,0.3-1.1,0.6-1.7,0.9c-1.8,1-3.6,2.1-5.5,3.1c-0.6,0.3-1.1,0.6-1.7,0.9
			c-0.2,0-0.4,0.2-0.5,0.4c-0.2,0-0.3,0-0.4-0.1l0,0c-0.1-0.8-0.2-1.7-0.5-2.5l0,0c-0.1-0.7-0.1-1.3-0.4-2c0,0,0,0,0,0
			c0.1-0.1,0.1-0.3,0.2-0.4c0.3-0.1,0.6-0.3,0.9-0.5c0.7-0.2,1.2-0.6,1.8-1c-0.6,0.3-1.3,0.5-1.8,1c-0.4,0.1-0.6,0.3-0.9,0.5
			c-0.2-0.6-0.6-0.5-1.1-0.5c-12.1,0-24.2,0-36.3,0c-0.6,0-0.8-0.2-0.8-0.8c0-1.4-0.1-2.7,0.1-4.1c0.3-2.8,0.9-5.6,1.8-8.3
			c0.1-0.2,0.2-0.4,0.3-0.6c1.3-3.5,3.2-6.6,5.5-9.6c3.4-4.4,7.6-8,12.3-11c3.5-2.2,7.1-4,10.9-5.5c2.8-1.1,5.7-2,8.7-2.8
			c0.6-0.1,1.3-0.2,1.8-0.5c0.3,0,0.6,0,0.8-0.1c2.8-0.6,5.7-1.1,8.5-1.3c4-0.4,8-0.5,12.1-0.3c3,0.2,6,0.4,9,1c0.2,0,0.3,0,0.5,0
			c2.5,0.5,5,1,7.5,1.7c6.4,1.8,12.4,4.4,17.9,8.1c4.1,2.7,7.8,5.9,10.9,9.7C214.1,111,214.9,111.9,215.5,113.1z M166.8,121.2
			c0.3-0.2,0.6-0.4,0.9-0.5c0.3-0.1,0.6-0.3,0.9-0.5c0.9-0.4,1.6-0.9,2.4-1.4c-0.8,0.4-1.7,0.8-2.4,1.4c-0.4,0.1-0.6,0.3-0.9,0.5
			C167.3,120.7,167,120.8,166.8,121.2c-0.4,0-0.7,0.2-0.8,0.5C166.2,121.5,166.5,121.3,166.8,121.2z M174.8,115.9
			c-0.3,0.1-0.6,0.3-0.9,0.5c-0.5,0.3-1,0.6-1.5,0.8c0,0.1,0.1,0.1,0.1,0.2c0.5-0.3,1-0.6,1.5-0.9
			C174.3,116.3,174.6,116.1,174.8,115.9c0.4-0.1,0.7-0.2,0.9-0.5C175.4,115.5,175.1,115.7,174.8,115.9z M159.9,124.5
			c0.4-0.2,0.8-0.4,1.1-0.7C160.6,124,160.2,124.2,159.9,124.5c-0.4,0-0.7,0.2-0.9,0.5C159.3,124.9,159.6,124.7,159.9,124.5z
			 M176,115.7c-0.4,0.2-0.9,0.4-1.2,0.9C175.2,116.4,175.6,116.1,176,115.7c0.4-0.1,0.7-0.2,0.8-0.5
			C176.5,115.4,176.2,115.6,176,115.7z M149.9,130.9c0.5-0.3,1-0.6,1.5-0.9c0,0-0.1-0.1-0.1-0.1
			C150.9,130.2,150.3,130.5,149.9,130.9c-0.4,0.1-0.7,0.2-1,0.4c-0.7,0.3-1.3,0.6-1.8,1c-0.3,0.1-0.6,0.2-0.8,0.6
			c0.3-0.2,0.6-0.4,0.8-0.5c0.6-0.3,1.3-0.6,1.8-1.1C149.4,131.3,149.6,131.1,149.9,130.9z M163.4,123.1c0.5-0.3,1-0.6,1.5-0.9
			c0,0-0.1-0.1-0.1-0.1C164.4,122.4,163.9,122.7,163.4,123.1c-0.4,0.1-0.7,0.3-1,0.4c-0.6,0.3-1.2,0.7-1.7,1c0,0.1,0.1,0.1,0.1,0.2
			c0.6-0.3,1.2-0.7,1.7-1C162.8,123.5,163.1,123.3,163.4,123.1z M151.7,129.2c0.7-0.2,1.2-0.6,1.8-1
			C152.9,128.4,152.2,128.7,151.7,129.2c-0.4,0-0.6,0.2-0.9,0.5C151.2,129.6,151.5,129.4,151.7,129.2z M158.2,126.1
			c0.6-0.3,1.2-0.7,1.8-1c0-0.1-0.1-0.1-0.1-0.2C159.3,125.3,158.7,125.7,158.2,126.1c-0.4,0.1-0.7,0.2-0.9,0.5
			C157.7,126.4,158,126.3,158.2,126.1z M157.2,131.1c-2.4,1-4.6,2.1-7,3c-2.2,0.8-4.3,1.9-6.8,1.6c0.2,0.8,0.5,1.5,0.6,2.2
			c0.1,0.5,0.3,0.5,0.7,0.3c3.2-1.8,6.4-3.7,9.6-5.5C155.3,132.2,156.3,131.7,157.2,131.1z M144,133.5c0,0,0.1,0.1,0.1,0.1
			c0.8-0.5,1.6-0.9,2.4-1.4c0,0-0.1-0.1-0.1-0.1C145.6,132.6,144.8,133,144,133.5z M164.4,121.8c0,0,0.1,0.1,0.1,0.1
			c0.5-0.3,1-0.6,1.5-0.9c0,0-0.1-0.1-0.1-0.1C165.4,121.2,164.9,121.5,164.4,121.8z M167.1,120.2c0,0,0.1,0.1,0.1,0.1
			c0.5-0.3,1-0.5,1.4-1C168.1,119.7,167.6,120,167.1,120.2z M158.8,125.2c-0.6,0.1-1.1,0.4-1.5,0.9
			C157.7,125.8,158.2,125.5,158.8,125.2z M154.7,127.4c0,0,0.1,0.1,0.1,0.1c0.5-0.3,1-0.6,1.5-0.9c0,0-0.1-0.1-0.1-0.1
			C155.7,126.8,155.2,127.1,154.7,127.4z M153.9,128.5c-0.6,0.2-1.1,0.5-1.5,0.9C152.9,129.2,153.4,128.9,153.9,128.5z M171.2,118.1
			c0-0.1-0.1-0.1-0.1-0.2c-0.5,0.3-1,0.6-1.5,0.9c0,0,0.1,0.1,0.1,0.1C170.2,118.7,170.7,118.4,171.2,118.1z M172,118.1
			c0.6-0.2,1.1-0.5,1.5-0.9C172.9,117.4,172.5,117.7,172,118.1z M155.5,127.6c0.5-0.1,0.9-0.4,1.3-0.7
			C156.4,127,155.9,127.2,155.5,127.6z M147.4,131.6c0.4-0.1,0.8-0.2,1.1-0.6C148.1,131.1,147.7,131.3,147.4,131.6z M162.4,123.1
			c0.4-0.2,0.7-0.4,1.1-0.6C163,122.5,162.7,122.8,162.4,123.1z M178.5,113.9c-0.4,0.1-0.8,0.2-1.1,0.6
			C177.8,114.3,178.1,114.1,178.5,113.9z M142.9,134.1c0.4,0,0.6-0.2,0.8-0.5C143.4,133.8,143.2,134,142.9,134.1z M150.1,130.1
			c-0.3,0.1-0.6,0.2-0.8,0.5C149.6,130.5,149.9,130.3,150.1,130.1z"/>
		<path class="st3" d="M227.8,141.4c-0.5,0.3-0.5,0.9-0.6,1.4c-1.6,4.5-3.9,8.5-6.8,12.3c-2.6,3.3-5.6,6.2-8.9,8.8
			c-5.6,4.2-11.8,7.2-18.5,9.2c-1.3,0.4-2.6,0.7-3.9,1c-0.1,0-0.2,0-0.3,0c2.2-0.8,4.4-1.5,6.6-2.4c2.8-1.2,5.6-2.6,8.2-4.3
			c2.7-1.7,5.2-3.7,7.4-6.1c3.4-3.6,6-7.6,7.7-12.2c0.6-1.8,1.1-3.5,1.4-5.4c0-0.2,0.1-0.5-0.1-0.7c0-0.2,0.3-0.4,0-0.5
			c0.1-0.8,0.7-1.3,0.7-2.1c0.1-1.1,0.5-2.2,0.6-3.3c0-0.1,0.1-0.2,0.1-0.3c0,0.1,0,0.2,0,0.3c0.1-0.6,0.4-1.3,0.1-1.9
			c0-0.2-0.1-0.5,0.1-0.7c0,0.4,0.1,0.6,0.5,0.7c1.1,0.3,2.1,0.7,3.2,1c0.2,0.1,0.5,0,0.8,0c4.1,0,8.1,0,12.2,0c0.3,0,0.6,0.2,1,0.2
			c0.2,0,0.1,0.3,0.1,0.4c-0.2,2.3-0.7,4.5-1.3,6.7c-2.7,9.5-8.2,17.2-15.5,23.8c-6.3,5.6-13.4,9.8-21.2,13.1
			c-4.8,2-9.7,3.6-14.8,4.8c-4.6,1.1-9.3,1.8-14.1,2.2c-5.9,0.5-11.8,0.5-17.7,0.1c-6.2-0.5-12.2-1.5-18.2-3.1
			c-5.8-1.5-11.3-3.6-16.7-6.2c-6.4-3.2-12.3-7-17.4-12c-3.1-3-5.4-6.7-6.6-10.9c-0.4-1.5,0.3-2.2,1.8-2c0.7,0.1,1.4,0.4,2,0.9
			c0.7,0.6,1.4,1.1,2.4,1.1c0.4,0,0.7,0,1-0.4c0.2-0.3-0.1-0.6-0.3-0.8c-2.2-3.8-3.9-7.8-4.6-12.1c-0.1-0.4,0.2-0.8-0.1-1.2
			c0-0.1,0-0.2,0-0.3c1.3,1.4,2.5,2.8,4,3.9c0.2,0.1,0.4,0.3,0.7,0.4c-0.4,0.1-0.8,0.2-1.2,0.3c0,0.5,0.4,0.2,0.5,0.2
			c13.9,0,27.7,0,41.6,0c0.2,0,0.5,0.1,0.7-0.1c0.1,0,0.1,0.1,0.1,0.2c-0.2,0-0.3,0-0.5,0c-14.2,0-28.4,0-42.5,0c-0.2,0-0.4,0-0.6,0
			c0-0.2,0.3,0,0.3-0.2c-0.1,0-0.1,0-0.2,0c-0.3,0-0.6,0.1-0.8,0.2c-0.2,0.1-0.5-0.1-0.6,0.2c-0.1,0.4,0.4,0.2,0.5,0.4
			c-0.2,0.2,0,0.3,0.1,0.5c0.5,1.3,1.2,2.6,1.9,3.8c0,0-0.1,0-0.1,0c0.3,0.8,0.8,1.6,1.4,2.3c0,0,0-0.1,0.1-0.1
			c1.2,1.7,2.5,3.5,3.9,5.1c-0.1,0.4,0.5,1,0.9,1c0.3,0.3,0.6,0.6,0.9,0.9c-0.1,0-0.2,0.1-0.1,0.2c0.5,0.5,1,1,1.5,1.5
			c0.1,0.1,0.2,0,0.2-0.1c0.2,0.1,0.3,0.2,0.4,0.4c0,0,0,0-0.1,0c0,0,0,0,0,0c0.3,0.4,0.5,0.8,1.1,0.9c0.1,0,0.2,0,0.2,0.1
			c-0.1,0-0.2,0.1-0.1,0.2c0.7,0.6,1.4,1.1,2.1,1.7c0.1,0.1,0.2,0.1,0.2-0.1c1.1,0.8,2.3,1.6,3.4,2.6c0.4,0.3,0.8,0.6,1.2,0.9
			c1.2,1.5,2.5,2.8,4,3.9c5.4,4.1,11.4,7.3,17.9,9.2c5.6,1.6,11.3,2.7,17.1,3.1c5,0.4,9.9,0.4,14.9-0.1c4.5-0.4,9-1.1,13.4-2.2
			c6.6-1.6,12.8-4,18.6-7.6c6.3-3.9,11.5-9,15.6-15.2c2-3.1,3.7-6.3,4.7-9.9c0.2-0.6,0.5-1.1,0.6-1.7c0,0,0,0,0,0
			c0.4-0.5,0.7-1.2,0.8-1.8c0,0,0,0,0,0c0.4-0.5,0.5-1.2,0.7-1.8c0.1-0.3,0.3-0.6,0.3-0.9c0.2-1.7,1.1-2.6,2.7-2.9
			c0.2,0,0.2-0.1,0.4-0.3c0.3-0.1,0.5-0.2,0.8-0.4c0,0,0.1,0.1,0.1,0.1c0.7-0.2,1.5-0.5,2.1-0.8c0,0,0-0.1-0.1-0.1
			c0.4-0.2,0.8-0.4,1.2-0.5c0,0.1,0.1,0.2,0.2,0.1c1-0.4,2-0.8,3-1.2c0.1-0.1,0-0.1-0.1-0.2c0.1-0.2,0.4-0.1,0.5-0.3
			c-4.3,0-8.5,0-12.9,0c0.8,1.4,1.7,2.7,2.5,4C228,140.5,228.1,141,227.8,141.4z M99.1,143.1c-0.1,0.5,0.1,0.9,0.5,1.3
			C99.4,144,99.2,143.6,99.1,143.1z"/>
		<path class="st2" d="M196.4,90.8c-1.8-0.6-3.6-1.3-5.4-1.9c-3.4-1.2-6.9-2-10.4-2.8c-7.4-1.5-14.9-2-22.5-1.5
			c-4.7,0.3-9.4,0.9-14.1,1.9c-3.3,0.7-6.5,1.4-9.6,2.5c-0.8,0.3-1.6,0.6-2.4,0.9c-0.7,0-1.1,0.7-1.7,0.9c-1.8,0.7-3.5,1.5-5.2,2.4
			c-2.6,1.3-5.1,2.9-7.6,4.5c-0.2-0.2-0.4,0-0.6,0.1c-0.8,0.4-1.6,0.8-2.3,1.3c-2.6,1.5-5.1,3-7.5,4.8c-2.3,1.6-4.5,3.3-6.5,5.2
			c-1.6,1.4-3.1,2.9-4.5,4.4c-1.1,1.2-2.2,2.5-3.2,3.8c-0.1,0.1-0.2,0.2-0.2,0c1.3-2.9,2.8-5.6,4.4-8.3c1.1-1.8,2.2-3.5,3.6-5
			c-3.7,1.9-10.6,12.3-12.6,19.2c0-0.1-0.1-0.2-0.1-0.3c1.8-7.4,5.3-13.8,10.2-19.6c4.7-5.5,10.2-9.9,16.3-13.7
			c5.9-3.6,12.1-6.3,18.7-8.3c4.6-1.4,9.3-2.5,14.1-3.3c5.8-0.9,11.6-1.3,17.4-1.2c6,0.1,12,0.6,17.9,1.7c2.6,0.5,5.1,1,7.6,1.8
			c-0.1,0.1-0.3,0.1-0.4,0.1c-1.9-0.5-3.9-0.7-5.9-1c-1-0.1-2.1-0.3-3.1,0.2c-1.2,0.6-1.8,1.9-1.2,2.9c0.3,0.5,0.6,0.9,1,1.3
			c1.7,1.7,3.8,2.7,6.1,3.5c3.1,1,6.3,1.9,9.3,3.2C195.9,90.5,196.3,90.5,196.4,90.8z"/>
		<path class="st3" d="M196.4,90.8c-0.1-0.4-0.5-0.4-0.8-0.5c-3-1.3-6.2-2.2-9.3-3.2c-2.2-0.7-4.4-1.7-6.1-3.5
			c-0.4-0.4-0.7-0.8-1-1.3c-0.6-1,0.1-2.3,1.2-2.9c1-0.5,2.1-0.3,3.1-0.2c2,0.3,3.9,0.5,5.9,1c0.1,0,0.3,0,0.4-0.1
			c1.7,0.3,3.3,0.9,5,1.4c4.5,1.5,8.8,3.2,12.9,5.4c2,1,4,2.1,5.8,3.4c-0.2,0.2,0,0.2,0.1,0.3c3.6,2.5,6.9,5.5,9.9,8.7
			c2.1,2.3,4,4.8,5.8,7.3c2.6,3.8,4.8,7.8,6.6,11.9c1.4,3.1,2.5,6.3,3.4,9.6c0.1,0.3,0.1,0.5-0.1,0.8c-1.5-0.7-2.9-1.3-4.4-2
			c-2-0.9-4-1.9-6.1-2.8c-0.2-0.1-0.4-0.1-0.5-0.4c-0.3-1.5-0.8-3-1.4-4.4c-1.5-4.1-3.7-7.8-6.4-11.1c-1.6-2.1-3.4-4-5.4-5.7
			c-0.4-0.4-0.9-0.9-1.3-1.3c0,0,0.1-0.1,0.1-0.1c-0.2-0.4-0.6-0.6-0.9-0.9c-2.7-2.4-5.7-4.3-8.8-6.1c-0.1-0.1-0.3-0.1-0.4,0
			C201.3,93.1,198.9,91.9,196.4,90.8z"/>
		<path class="st3" d="M101,128.3c-0.9-1.4-1.9-2.8-2.8-4.2c0.6-1.9,1.1-3.7,1.8-5.5c0.3-0.6,0.7-1.2,0.8-1.9l0,0
			c0.4-0.3,0.5-0.7,0.6-1.1c0.4-0.9,1-1.6,1.3-2.6l0,0c0.7-0.6,1-1.5,1.6-2.2c0.1-0.2,0.3-0.3,0.2-0.6c0.1-0.1,0.3-0.3,0.4-0.4
			c0.6-0.8,1.3-1.6,1.9-2.4c0.1-0.1,0.2-0.1,0.2-0.2c2.3-2.7,4.8-5,7.6-7.2c0.1-0.1,0.2-0.1,0.3-0.2c3.2-2.5,6.7-4.7,10.4-6.5
			c2.2-1.1,4.4-2,6.6-3c2.4-0.9,5-1.3,7.5-1.8c7.2-1.3,14.4-2,21.7-1.8c6.2,0.1,12.4,0.9,18.4,2.4c8.1,2,15.6,5.3,22.4,10.1
			c3.6,2.5,6.8,5.3,9.7,8.5c0.1,0.1,0.2,0.2,0.2,0.4c-0.3-0.1-0.5-0.4-0.7-0.6c-2.5-2.6-5.3-4.9-8.3-6.9c-4.1-2.7-8.5-4.9-13.1-6.6
			c-4.4-1.6-8.9-2.9-13.5-3.6c-3.3-0.6-6.6-0.9-9.9-1c-3.8-0.1-7.6-0.1-11.3,0.3c-3.1,0.3-6.2,0.8-9.2,1.5c-0.6,0.1-1.2,0.2-1.8,0.5
			c-2.4,0.5-4.6,1.3-6.9,2c-1.8,0.6-3.4,1.4-5.2,2c-0.3-0.3-0.6-0.2-0.9-0.1c-1.7,0.2-3.4,0.5-5.1,0.9c-4.4,0.9-8.5,2.4-12.3,4.8
			c-0.4,0.3-0.8,0.5-1.2,0.9c2.6-0.7,5.1-1.2,7.7-1.3c0.9,0,1.8,0.1,2.6,0c-1.1,0.9-2.3,1.7-3.5,2.6c-0.7,0.6-1.3,1.2-2.1,1.7
			c-0.2-0.3-0.4,0-0.5,0.1c-0.8,0.5-1.7,1.1-2.5,1.7c-3.1,2.2-5.6,4.9-7.8,7.9c-1.5,2.1-2.7,4.3-3.7,6.7
			C102.1,123.7,101.4,125.9,101,128.3z"/>
		<path class="st3" d="M103.3,144.6c-0.2-0.5-0.4-1.1-0.6-1.6c-0.1-0.3-0.1-0.5,0.3-0.4c0.1,0,0.3,0,0.5,0c13.1,0,26.2,0,39.3,0
			c1.1,0,2-0.3,3-0.8c6.9-3.9,13.8-7.8,20.7-11.7c4.9-2.8,9.8-5.5,14.7-8.3c0.3-0.1,0.5-0.2,0.8-0.2c13.8,0,27.7,0,41.5,0
			c0.5,0,0.6,0.2,0.7,0.6c0.5,1.5,0.5,1.5-1,1.5c-13.6,0-27.1,0-40.7,0c-0.3,0-0.7-0.1-1,0.2c0,0,0,0,0,0c-0.7,0.1-1.2,0.6-1.8,0.9
			c-0.1,0.1,0,0.1,0.1,0.1c-0.4,0.3-0.9,0.5-1.3,0.8c-0.7,0-1.1,0.4-1.6,0.8l0,0c-0.7,0.1-1.2,0.6-1.8,0.9c-0.1,0.1,0,0.1,0.1,0.1
			c-0.1,0.1-0.3,0.1-0.4,0.2c0,0,0-0.1-0.1-0.1c-0.6,0.2-1.2,0.6-1.7,0.9c0,0,0.1,0.1,0.1,0.1c-1.7,1-3.5,2-5.2,3
			c-0.5-0.1-0.8,0.1-1,0.5c-0.2,0.2-0.5,0.4-0.8,0.5c-0.4-0.1-1.5,0.5-1.7,0.9c0,0,0,0,0.1,0c-0.1,0.1-0.3,0.2-0.4,0.2
			c0,0,0-0.1,0-0.1c-0.6,0.1-1,0.5-1.5,0.8c0,0,0.1,0.1,0.1,0.1c-0.1,0.1-0.3,0.2-0.4,0.2c0,0,0-0.1-0.1-0.1
			c-0.6,0.2-1.2,0.6-1.7,0.9c0,0,0.1,0.1,0.1,0.1c-0.1,0.1-0.3,0.2-0.4,0.2c-0.4-0.1-1.3,0.4-1.6,0.9c-1.7,1.1-3.5,2-5.3,3
			c-0.4-0.2-0.6,0.2-0.9,0.3c-0.2,0.1-0.6,0.1-0.5,0.5c-0.8,0.5-1.6,0.9-2.5,1.4c-0.4-0.1-1.4,0.4-1.5,0.8c0,0,0,0,0.1,0
			c-0.1,0.1-0.3,0.2-0.4,0.2c0,0,0-0.1-0.1-0.1c-0.6,0.1-1,0.5-1.5,0.8c0,0,0.1,0.1,0.1,0.1c-0.1,0.1-0.3,0.2-0.4,0.2
			c-0.1-0.3-0.3-0.1-0.4,0c-0.6,0.5-1.3,0.5-2,0.5C130,144.6,116.6,144.6,103.3,144.6z"/>
		<path class="st2" d="M98.2,139.9c-1-0.6-2.1-0.9-3.2-1.4c-2.6-1.1-5.1-2.2-7.7-3.4c0-0.1,0-0.1,0-0.2c3.4,0,6.7,0,10.1,0
			c0.2,0,0.5,0,0.7,0c3.5,0,7.1,0,10.6,0c11.1,0,22.1,0,33.2,0c0.3,0,0.6-0.1,0.8,0.2c0,0,0,0,0,0c0,0.7,0.2,1.3,0.4,2c0,0,0,0,0,0
			c0.1,0.8,0.2,1.7,0.5,2.5c0,0,0,0,0,0c-0.1,0.5-0.5,0.3-0.7,0.3c-14.6,0-29.2,0-43.8,0C98.8,139.9,98.5,139.9,98.2,139.9z
			 M91.5,135.7c0.1,0.1,0.1,0.1,0.2,0.1c1.8,0.9,3.6,1.7,5.4,2.5c0.8,0.3,1.5,0.9,2.5,0.9c4,0,8,0,12.1,0c0.3,0,0.7,0,1,0
			C105.5,138.6,98.4,137.8,91.5,135.7z"/>
		<path class="st3" d="M181.7,123.9c0.1-0.4,0.4-0.3,0.7-0.3c3.6,0,7.2,0,10.8,0c10.1,0,20.3,0,30.4,0c0.5,0,0.9,0,1.4,0.2
			c-0.1,0-0.2,0-0.3,0c-7.8,0-15.6,0-23.4,0c-6.3,0-12.5,0-18.8,0c-0.2,0-0.6-0.2-0.7,0.2c-0.2,0.1-0.1,0.2-0.1,0.4
			c0.3,1.5,0.6,2.9,1,4.4c0.1,0.4,0,0.7-0.4,0.9c-6.1,3.4-12.1,6.9-18.1,10.4c-4.8,2.8-9.7,5.5-14.5,8.3c-1.2,0.7-2.5,1.4-3.8,2.1
			c-0.3-1.3-0.6-2.6-0.8-3.9c-0.1-0.5-0.3-0.9-0.2-1.4c0.2,0,0.4,0,0.2-0.3c0.4-0.2,0.7-0.4,1.1-0.6c0,0,0.1,0.1,0.1,0.1
			c0.6-0.3,1.2-0.5,1.7-1l0,0c0.7-0.2,1.2-0.6,1.8-0.9c0,0-0.1-0.1-0.1-0.1c0.3-0.2,0.7-0.5,1.1-0.6c0.4,0.1,1.1-0.3,1.3-0.7
			c0.3-0.3,0.7-0.5,1-0.6c0.3,0.1,1.1-0.3,1.2-0.7c0,0,0,0-0.1,0c1.1-0.6,2.3-1.3,3.4-1.9c0,0,0.1,0.1,0.1,0.1
			c0.5-0.3,1-0.5,1.4-0.8c0,0-0.1-0.1-0.1-0.1c0.1-0.1,0.3-0.2,0.4-0.2c0.4,0.1,1.4-0.5,1.5-0.8c0,0,0,0-0.1,0
			c0.4-0.3,0.9-0.5,1.3-0.8c0,0.2,0.1,0.2,0.2,0.1c0.5-0.3,1.1-0.6,1.6-1c0.6-0.3,1.1-0.6,1.7-0.9c0.1-0.1,0.1-0.2,0-0.2
			c0.9-0.5,1.8-1,2.6-1.6c0.2-0.1,0.3-0.1,0.5,0c0.5-0.3,0.9-0.5,1.4-0.8c0.1-0.1,0.3-0.1,0-0.2c1-0.6,2.1-1.2,3.1-1.8
			c0,0,0,0.1,0,0.1c0.6-0.1,1-0.5,1.5-0.8c0,0-0.1-0.1-0.1-0.1c0.4-0.2,0.9-0.5,1.3-0.7c0.5,0.1,0.8-0.1,1-0.6
			c1.3-0.9,2.7-1.7,4.2-2.3C181.6,124.3,181.7,124.2,181.7,123.9z M167.7,137.3c-0.1,0-0.2,0-0.2,0.1c-4.3,2.2-8.7,4.4-13.2,6.3
			c-2.7,1.1-5.3,2.3-8.3,2.3c0.3,1.1,0.6,2.2,0.9,3.3c0.6-0.3,1.1-0.6,1.7-0.9c3.4-1.9,6.9-3.9,10.3-5.8c3-1.7,6-3.4,9-5.1
			c1.1-0.5,2.1-1.2,3.1-1.8C169.8,136.2,168.7,136.7,167.7,137.3z M172.3,135c0,0,0-0.1-0.1-0.1c-0.3,0.1-0.5,0.3-0.8,0.4
			c0,0,0,0.1,0.1,0.1C171.8,135.3,172.1,135.1,172.3,135z"/>
		<path class="st2" d="M220.2,113.7c2,1.7,4.1,3.4,6.1,5.1c0.1,0,0.1,0.1,0.1,0.2c-0.2,0-0.4,0-0.6,0c-14.8,0-29.5,0-44.3,0
			c-0.4,0-0.7-0.1-0.8-0.6c-0.2-1.4-0.4-2.7-0.7-4.1c-0.2-0.7,0.1-0.7,0.6-0.7c12.9,0,25.8,0,38.8,0
			C219.7,113.7,219.9,113.7,220.2,113.7z M203,114.3c0.5,0.1,1.1,0.2,1.6,0.3c3.2,0.5,6.4,1,9.6,1.4c2.8,0.4,5.5,1,8.2,1.8
			c0.9,0.3,1.8,0.5,2.8,0.9c-0.7-0.9-1.7-1.3-2.5-1.7c-2.3-1.3-4.7-2.1-7.4-2.3c-1.3-0.1-2.7-0.2-4-0.3
			C208.6,114.1,205.8,114.3,203,114.3z M194.6,118.2c-2-0.3-4-0.4-6-0.8c-2.6-0.5-5.3-0.8-7.5-2.8c0.2,1,0.4,2,0.5,3
			c0.1,0.5,0.3,0.6,0.7,0.6c2.7,0,5.3,0,8,0C191.7,118.2,193.1,118.2,194.6,118.2z"/>
		<path class="st3" d="M135.2,169.7c0.9,0.2,1.8,0.5,2.6,0.8c0,0-0.1,0.1-0.1,0.1c0,0,0,0.1,0,0.1c0.5,0.1,0.9,0.5,1.4,0.4l0,0
			c0,0,0,0.1,0,0.1c0,0.7,0.6,1,1.1,1.3c1.1,0.8,2.4,1.4,3.6,1.9c0.2,0.1,0.4,0.2,0.7,0.4c-1.4-0.4-2.7-0.8-4-1.1
			c-2.2-0.6-4.4-1-6.7-1c-0.8,0-1.6,0.2-2.2,0.8c-0.1,0-0.2,0-0.3-0.1c0-0.3-0.3-0.3-0.5-0.4c-2.6-1.2-5.1-2.6-7.5-4.1
			c-4-2.6-7.6-5.5-10.8-9c-1.8-1.9-3.4-4-4.7-6.2c-0.6-1-1.3-1.9-1.5-3c1.3,0.1,2.6,0.3,3.9,0.4c0.4,0,0.7,0.1,1.1,0.1
			c3.7,0,7.5,0,11.2,0c-0.2,0.2-0.5,0.1-0.8,0.1c-3.3,0-6.5,0-9.8,0c-0.2,0-0.4,0-0.7,0c1.1,1.7,2.4,3.2,3.7,4.7
			c-0.2,0.1-0.1,0.2,0,0.3c0.6,0.7,1.3,1.3,1.9,2c0.1,0.1,0.2,0.1,0.3,0.1c1.7,1.3,3.2,2.8,5,4c1.9,1.3,3.9,2.6,5.9,3.8
			c0,0,0,0-0.1,0c0,0,0,0,0,0c0.9,0.6,1.9,1.2,3,1.5c1.1,0.4,2.2,0.9,3.2,1.4c0,0,0,0-0.1,0c0,0,0,0,0,0.1
			C134.4,169.5,134.8,169.7,135.2,169.7z"/>
		<path class="st3" d="M104.9,109.9c-0.1,0.1-0.3,0.3-0.4,0.4c-0.7,0.9-1.4,1.8-1.8,2.8l0,0c-0.4,0.2-0.4,0.6-0.6,0.9
			c-0.5,0.9-1.1,1.8-1.4,2.8c0,0,0,0,0,0c-0.2,0-0.2,0.2-0.3,0.4c-1,2.3-1.9,4.6-2.4,7c-1.3,0.7-2.8,1.1-4.1,1.6
			c-2.2,0.9-4.4,1.6-6.7,2.5c-0.4,0.2-0.5,0.1-0.4-0.3c3.2-1.3,6-3.2,8.1-6.1c-0.7,0.1-1.3,0.2-1.9,0c-1.5-0.3-2.1-1.3-1.6-2.7
			c0.2-0.6,0.5-1.3,0.9-1.9c0,0.2,0.1,0.2,0.2,0c1-1.3,2.1-2.6,3.2-3.8c1.4-1.6,2.9-3,4.5-4.4c2.1-1.8,4.3-3.5,6.5-5.2
			c2.4-1.7,5-3.3,7.5-4.8c0.8-0.4,1.6-0.8,2.3-1.3c0.2-0.1,0.4-0.2,0.6-0.1c-1,0.7-1.9,1.5-2.9,2.2c-2.9,2.1-5.4,4.6-7.7,7.3
			c-0.6,0.6-1.1,1.3-1.6,1.9C105.1,109.4,104.9,109.5,104.9,109.9z"/>
		<path class="st3" d="M86.8,134.3c-0.1-1.6-0.1-3.2,0-4.8c0.2,0,0.3,0,0.5,0c5.7,0,11.5,0,17.2,0c0,1.5,0,3,0,4.5
			c0,0.4-0.2,0.3-0.5,0.3C98.3,134.4,92.5,134.3,86.8,134.3z"/>
		<path class="st3" d="M230.7,134.7c-2.8,0-5.5,0-8.3,0c-0.5,0-0.6-0.1-0.6-0.6c0-1.2,0-2.3,0-3.5c0-0.4,0-0.5,0.5-0.5
			c5.6,0,11.2,0,16.9,0c0.4,0,0.5,0.1,0.5,0.5c0.1,1.2,0,2.4,0,3.6c0,0.4-0.2,0.5-0.6,0.5C236.3,134.7,233.5,134.7,230.7,134.7
			C230.7,134.7,230.7,134.7,230.7,134.7z"/>
		<path class="st2" d="M106.2,150.7c0.3,1.1,0.9,2,1.5,3c1.4,2.2,3,4.3,4.7,6.2c3.2,3.5,6.8,6.5,10.8,9c2.4,1.6,4.9,2.9,7.5,4.1
			c0.2,0.1,0.5,0.1,0.5,0.4c-0.1,0-0.2,0-0.3-0.1c-4.1-1.7-8-3.6-11.7-5.9c-0.4-0.4-0.8-0.6-1.3-0.8c-1-1-2.2-1.7-3.4-2.6
			c-0.7-0.6-1.5-1.2-2.2-1.8c0-0.1-0.1-0.1-0.2-0.1c-0.3-0.3-0.6-0.6-1-0.9c-0.1-0.2-0.2-0.3-0.4-0.4c-0.5-0.5-1-1-1.6-1.5
			c-0.3-0.3-0.6-0.6-0.9-0.9c-0.3-0.3-0.6-0.7-0.9-1c-1.4-1.6-2.6-3.3-3.9-5.1c-0.5-0.7-1-1.4-1.3-2.2c-0.7-1.3-1.4-2.5-1.9-3.8
			c-0.1-0.1-0.3-0.3-0.1-0.5C102.2,147.4,104.2,149.1,106.2,150.7z"/>
		<path class="st2" d="M239.3,129.2c0.2-0.3,0.1-0.5,0.1-0.8c-0.9-3.3-2-6.5-3.4-9.6c-1.9-4.2-4-8.2-6.6-11.9
			c-1.8-2.6-3.6-5-5.8-7.3c-3-3.3-6.3-6.2-9.9-8.7c-0.1-0.1-0.3-0.1-0.1-0.3c2.7,1.6,5.1,3.4,7.5,5.4c3.4,2.8,6.5,6,9.2,9.5
			c3.3,4.4,5.9,9.2,7.6,14.4c0.9,3,1.5,6,1.8,9.1C239.7,129.4,239.5,129.3,239.3,129.2z"/>
		<path class="st3" d="M215,102.8c1.8,1.8,3.6,3.7,5.2,5.8c2.4,3,4.4,6.3,6.1,9.8c0,0,0,0.1,0,0.2c-0.4-0.4-0.8-0.7-1.2-1.1
			c-0.4-0.4-0.8-0.7-1.2-1.1c-0.2-0.2-0.3-0.3-0.5-0.5c-2.4-1.5-3.5-4.1-4.8-6.5c-3-5.2-7.1-9.5-12-13c-0.4-0.3-0.7-0.5-1.1-0.8
			c0.9,0.3,1.6,0.9,2.3,1.4C210.3,98.7,212.7,100.7,215,102.8z"/>
		<path class="st2" d="M97.4,134.9c-3.4,0-6.7,0-10.1,0c-0.3,0-0.6,0.1-0.6-0.4c0.2,0,0.4,0,0.6,0c18.2,0,36.4,0,54.6,0
			c0.2,0,0.6-0.1,0.6,0.2c0,0.3-0.4,0.1-0.6,0.1c-14.6,0-29.2,0-43.8,0C97.9,134.9,97.7,134.9,97.4,134.9z"/>
		<path class="st4" d="M153.4,134.5c0.7-0.4,1.5-0.8,2.2-1.3c0,0,0,0.1,0.1,0.1c0.7-0.2,1.4-0.6,2-1.1c0,0-0.1-0.1-0.1-0.1
			c1.4-0.8,2.9-1.6,4.3-2.4c0.5,0.2,0.8-0.3,1.2-0.5c0.2-0.1,0.4-0.3,0.6-0.4c0.5,0,0.8-0.4,1.2-0.6c0,0-0.1-0.1-0.1-0.1
			c0.8-0.5,1.6-1,2.5-1.4c0.4,0.1,1.4-0.5,1.5-0.8c0,0,0,0-0.1,0c0.1-0.1,0.3-0.2,0.4-0.2c0.4,0.1,1.8-0.7,1.9-1.1
			c0.1-0.1,0.3-0.2,0.4-0.2c0,0,0.1,0.1,0.1,0.1c0.6-0.3,1.1-0.6,1.7-0.9c0,0-0.1-0.1-0.1-0.1c0.6-0.4,1.3-0.8,2-1.1
			c0.5,0.2,0.7-0.3,1.1-0.4c0,0-0.1-0.1-0.1-0.1c0.4-0.3,0.9-0.5,1.3-0.8c0.5,0.1,0.8-0.1,1-0.5c0.6-0.5,1.3-0.8,2-1.1
			c0,0.3,0.4-0.1,0.4,0.3c-1.5,1-3.2,1.9-4.8,2.8c-5.4,3.1-10.7,6.1-16.1,9.1c-5.2,3-10.4,5.9-15.6,8.9c-0.1,0-0.2,0-0.2,0.1
			c0-0.1,0-0.2-0.1-0.3c0,0,0,0,0,0c0.1-0.1,0.2-0.3,0.3-0.4c0.1-0.2,0.3-0.3,0.5-0.4c0,0,0.1,0.1,0.1,0.1c0.6-0.3,1.1-0.6,1.7-0.9
			c0,0-0.1-0.1-0.1-0.1c1.8-1,3.6-2.1,5.5-3.1c0,0,0,0.1,0.1,0.1c0.6-0.2,1.2-0.6,1.7-0.9C153.5,134.5,153.4,134.5,153.4,134.5z"/>
		<path class="st3" d="M225.4,119.3c-1.4,0.3-2.9,0.3-4.3,0.3c-13.1,0-26.3,0-39.4,0c-0.3,0-0.5,0-0.8,0c0-0.5,0.4-0.4,0.7-0.4
			c14.4,0,28.8,0,43.3,0C224.9,119.2,225.2,119.1,225.4,119.3z"/>
		<path class="st5" d="M101.6,140.5c-0.7-0.1-1.3-0.2-2-0.3c0.2-0.3,0.4-0.1,0.6-0.1c14.3,0,28.6,0,42.8,0c0.3,0,0.5,0,0.7,0.1
			c0,0,0,0,0,0c0,0.5-0.4,0.3-0.6,0.3c-4.8,0-9.6,0-14.5,0C119.6,140.5,110.6,140.5,101.6,140.5z"/>
		<path class="st6" d="M168.8,131.7c-0.2-0.1-0.3-0.1-0.5,0c-0.9,0.5-1.8,1-2.6,1.6c-0.6,0.3-1.1,0.6-1.7,1c-0.6,0.3-1.2,0.7-1.8,1
			c-0.4,0.3-0.9,0.5-1.3,0.8c-0.5,0.3-0.9,0.5-1.4,0.8c-0.1,0.1-0.3,0.2-0.4,0.2c-0.5,0.3-0.9,0.5-1.4,0.8c-1.1,0.6-2.3,1.3-3.4,1.9
			c-0.4,0.2-0.8,0.4-1.2,0.7c-0.4,0.2-0.7,0.3-1,0.6c-0.4,0.2-0.8,0.5-1.3,0.7c-0.4,0.1-0.7,0.4-1.1,0.6c-0.5,0.4-1.2,0.6-1.7,1.1
			c0,0,0,0,0,0c-0.7,0.2-1.2,0.7-1.8,0.9c-0.4,0.2-0.7,0.4-1.1,0.6c-0.1,0.1-0.3,0.3-0.4,0c-0.1-0.2,0-0.3,0.2-0.3
			c0.3-0.1,0.5-0.3,0.8-0.4c0.1-0.1,0.3-0.2,0.4-0.2c0.5-0.3,0.9-0.5,1.4-0.8c0.1-0.1,0.3-0.1,0.4-0.2c0.5-0.3,1-0.5,1.4-0.8
			c0.8-0.5,1.6-0.9,2.5-1.4c0.5-0.3,0.9-0.5,1.4-0.8c1.8-1,3.6-1.9,5.3-3c0.5-0.3,1-0.6,1.6-0.9c0.1-0.1,0.3-0.2,0.4-0.2
			c0.6-0.3,1.1-0.6,1.7-0.9c0.1-0.1,0.3-0.1,0.4-0.2c0.5-0.3,1-0.5,1.4-0.8c0.1-0.1,0.3-0.2,0.4-0.2c0.6-0.3,1.1-0.6,1.7-0.9
			c0.3-0.1,0.6-0.3,0.8-0.5c0.3-0.2,0.7-0.4,1-0.5c1.7-1,3.5-2,5.2-3c0.6-0.3,1.1-0.6,1.7-0.9c0.1-0.1,0.3-0.1,0.4-0.2
			c0.5-0.4,1.2-0.6,1.7-1.1l0,0c0.6-0.2,1-0.6,1.6-0.8c0.4-0.3,0.9-0.5,1.3-0.8c0.5-0.4,1.2-0.6,1.7-1.1c0,0,0,0,0,0
			c0.1,0,0.2-0.1,0.3,0.1c-0.1,0.2-0.2,0.4-0.4,0.5c-1.5,0.6-2.8,1.5-4.2,2.3c-0.3,0.2-0.7,0.4-1,0.6c-0.4,0.2-0.9,0.5-1.3,0.7
			c-0.5,0.3-0.9,0.5-1.4,0.8c-1,0.6-2.1,1.2-3.1,1.8c-0.2,0.1-0.5,0.2-0.6,0.4C169.4,131.3,168.9,131.3,168.8,131.7z"/>
		<path class="st7" d="M179.7,113.3c0.2-0.2,0.4-0.1,0.6-0.1c11.7,0,23.4,0,35,0c1.1,0,2.1,0.2,3.2,0.3c-0.2,0.1-0.4,0.1-0.6,0.1
			c-12.5,0-25.1,0-37.6,0C180.2,113.5,179.9,113.5,179.7,113.3z"/>
		<path class="st8" d="M97.4,134.9c0.3,0,0.5,0,0.8,0c14.6,0,29.2,0,43.8,0c0.2,0,0.6,0.1,0.6-0.1c0-0.4-0.4-0.2-0.6-0.2
			c-18.2,0-36.4,0-54.6,0c-0.2,0-0.4,0-0.6,0c0-0.1,0-0.1,0-0.2c5.8,0,11.5,0,17.3,0c0.2,0,0.5,0.1,0.5-0.3c0-1.5,0-3,0-4.5
			c0.1,0,0.2,0,0.3,0c-0.2,1.4-0.1,2.7-0.1,4.1c0,0.5,0.2,0.8,0.8,0.8c12.1,0,24.2,0,36.3,0c0.4,0,0.9-0.1,1.1,0.5
			c0,0,0,0.1,0.1,0.1c-0.1,0.1-0.1,0.3-0.2,0.4c-0.2-0.3-0.5-0.2-0.8-0.2c-11.1,0-22.1,0-33.2,0c-3.5,0-7.1,0-10.6,0
			C97.9,135,97.6,135,97.4,134.9C97.4,135,97.4,134.9,97.4,134.9z"/>
		<path class="st9" d="M179.7,113.3c0.2,0.2,0.4,0.2,0.7,0.2c12.5,0,25.1,0,37.6,0c0.2,0,0.4,0.1,0.6-0.1c0.5,0.1,1.1,0,1.6,0.2
			c-0.3,0-0.5,0-0.8,0c-12.9,0-25.8,0-38.8,0c-0.5,0-0.8,0-0.6,0.7c0.3,1.3,0.5,2.7,0.7,4.1c0.1,0.5,0.3,0.6,0.8,0.6
			c14.8,0,29.5,0,44.3,0c0.2,0,0.4,0,0.6,0c-0.4,0.1-0.7,0.2-1.1,0.2c-0.2-0.2-0.4-0.1-0.6-0.1c-14.4,0-28.8,0-43.3,0
			c-0.3,0-0.7-0.1-0.7,0.4c0,0-0.1,0-0.1,0c0-0.3-0.4,0-0.4-0.3c0.3-0.1,0.4-0.3,0.3-0.6c-0.3-1.4-0.5-2.9-0.8-4.3
			c0-0.1,0.2-0.7-0.4-0.5c0,0-0.1-0.1-0.1-0.1c0.1-0.2,0.5-0.1,0.3-0.5C179.7,113.3,179.7,113.3,179.7,113.3z"/>
		<path class="st2" d="M182,124.1c0.1-0.4,0.5-0.2,0.7-0.2c6.3,0,12.5,0,18.8,0c7.8,0,15.6,0,23.4,0c0.1,0,0.2,0,0.3,0
			c0.6,0.1,1.1,0.1,1.7,0.2c-0.2,0.2-0.4,0.1-0.6,0.1c-14.6,0-29.1,0-43.7,0C182.3,124.1,182.1,124.1,182,124.1z"/>
		<path class="st10" d="M145.7,144.2c-0.3,0.1-0.5,0.3-0.8,0.4c-0.1,0.1-0.2,0.1-0.2,0.3c0.1,0.3,0.3,0.1,0.4,0
			c0.2,0.3,0,0.3-0.2,0.3c-0.1,0-0.2,0-0.3,0c0-0.1,0-0.2-0.1-0.2c-0.2-0.2-0.4-0.1-0.7-0.1c-13.1,0-26.3,0-39.4,0
			c-0.8,0-1.5,0-2.3,0.1c-0.1,0-0.4,0.1-0.4-0.1c0.4-0.1,0.8-0.2,1.2-0.3c0.1,0,0.2,0.2,0.3,0c13.4,0,26.7,0,40.1,0
			c0.7,0,1.4,0,2-0.5C145.5,144.1,145.6,144,145.7,144.2z"/>
		<path class="st11" d="M176.4,90.3c4.6,0.7,9.1,2,13.5,3.6c4.6,1.7,9,3.9,13.1,6.6c3,2,5.8,4.3,8.3,6.9c0.2,0.2,0.4,0.5,0.7,0.6
			c0,0,0,0,0,0c0.3,0.4,0.5,0.9,1,1c1,1.1,1.8,2.2,2.6,3.4c0.2,0.2,0.1,0.4-0.1,0.5c-0.6-1.1-1.4-2.1-2.2-3c-3.1-3.8-6.8-7-10.9-9.7
			c-5.6-3.6-11.6-6.2-17.9-8.1c-2.5-0.7-5-1.2-7.5-1.7c-0.2,0-0.3,0-0.5,0C176.4,90.5,176.4,90.4,176.4,90.3z"/>
		<path class="st3" d="M228.1,124c-1.1-0.2-2.2-0.4-3.4-0.5c0.9-1.1,1.3-2.3,1.7-3.5c0.1-0.2,0.1-0.2,0.3-0.2
			c0.1,0.2,0.1,0.3,0.2,0.5C227.4,121.4,227.8,122.6,228.1,124z"/>
		<path class="st8" d="M143.8,140.2c-0.2-0.2-0.5-0.1-0.7-0.1c-14.3,0-28.6,0-42.8,0c-0.2,0-0.5-0.1-0.6,0.1c-0.2,0.2-0.4,0.1-0.6,0
			c-0.2-0.1-0.5-0.3-0.7,0.2c0,0.1,0,0.2,0,0.3c-0.2-0.2-0.1-0.4-0.1-0.7c0.3,0,0.6,0,0.9,0c14.6,0,29.2,0,43.8,0
			c0.2,0,0.6,0.2,0.7-0.3c0.1,0.1,0.3,0.1,0.4,0.1C144,139.9,143.9,140.1,143.8,140.2z"/>
		<path class="st8" d="M101.6,140.5c9,0,18.1,0,27.1,0c4.8,0,9.6,0,14.5,0c0.2,0,0.6,0.2,0.6-0.3c0.1,0,0.1,0.2,0.1,0.3
			c-0.2,0.2-0.4,0.2-0.7,0.2c-13.7,0-27.4,0-41.1,0C102,140.6,101.7,140.7,101.6,140.5z"/>
		<path class="st12" d="M104.8,129.6c-0.1,0-0.2,0-0.3,0c-5.7,0-11.5,0-17.2,0c-0.2,0-0.3,0-0.5,0c0-0.3,0-0.6,0-0.9
			c0,0,0.1-0.1,0.1-0.1c0,0.9,0,0.9,0.9,0.9c5.2,0,10.4,0,15.6,0c0.3,0,0.6,0.1,0.8-0.2c0.3,0.1,0.5,0.2,0.5-0.3
			c0-0.4,0.1-0.9,0.1-1.3c0.3-2.3,0.8-4.5,1.7-6.6c0,0.1,0.1,0.1,0.1,0.2C105.7,123.9,105.1,126.7,104.8,129.6z"/>
		<path class="st13" d="M114.6,99.9c1-0.7,1.9-1.5,2.9-2.2c2.5-1.6,4.9-3.2,7.6-4.5c1.7-0.9,3.4-1.7,5.2-2.4c0.6-0.2,1-0.9,1.7-0.9
			c0,0.1-0.1,0.3,0,0.4c-2.2,1-4.5,1.9-6.6,3c-3.7,1.9-7.1,4-10.4,6.5c-0.1,0.1-0.2,0.1-0.3,0.2C114.6,100,114.6,100,114.6,99.9z"/>
		<path class="st14" d="M215,102.8c-2.3-2.1-4.7-4.1-7.3-5.8c-0.8-0.5-1.5-1.1-2.3-1.4c-0.5-0.3-1-0.5-1.6-0.8
			c0.4-0.2,0.5,0.3,0.8,0c0.2,0.1,0.4,0.2,0.6,0.3c3.1,1.8,5.9,3.9,8.7,6.2c0.4,0.4,0.9,0.9,1.3,1.3
			C215.1,102.7,215,102.7,215,102.8z"/>
		<path class="st15" d="M213.8,101.4c-2.7-2.3-5.6-4.4-8.7-6.2c-0.2-0.1-0.4-0.2-0.6-0.3c-0.3-0.2-0.6-0.4-0.9-0.6
			c0.1-0.2,0.3-0.1,0.4,0c3.1,1.8,6.2,3.7,8.8,6.1c0.3,0.3,0.7,0.5,0.9,0.9C213.9,101.3,213.8,101.3,213.8,101.4z"/>
		<path class="st16" d="M228.1,124c-0.2-1.3-0.7-2.6-1.2-3.8c-0.1-0.2-0.1-0.3-0.2-0.5c0.1,0,0.2-0.1,0.3-0.1c0.6,1.4,1,2.9,1.4,4.4
			C228.2,124,228.2,124,228.1,124z"/>
		<path class="st17" d="M87.8,122.8c0,0.1,0.1,0.2,0.1,0.3c-0.1,0.5-0.3,1-0.4,1.5C87.5,124,87.5,123.4,87.8,122.8z"/>
		<path class="st18" d="M213,109.2c-0.6-0.1-0.8-0.6-1-1C212.4,108.3,212.7,108.8,213,109.2z"/>
		<path class="st2" d="M106.5,121.1c-0.9,2.1-1.4,4.3-1.7,6.6c-0.1,0.4-0.1,0.9-0.1,1.3c0,0.5-0.2,0.4-0.5,0.3
			c-0.9-0.4-1.8-0.6-2.8-0.9c-0.1,0-0.3,0.1-0.4-0.1c0.3-2.3,1.1-4.6,2-6.7c1-2.4,2.2-4.6,3.7-6.7c2.2-3,4.7-5.7,7.8-7.9
			c0.8-0.6,1.6-1.1,2.5-1.7c0.1-0.1,0.3-0.4,0.5-0.1c-0.2,0.2-0.4,0.4-0.6,0.6c-3,2.8-5.5,5.9-7.6,9.4
			C108.1,117.1,107.2,119,106.5,121.1z"/>
		<path class="st4" d="M101.4,128.4c0.9,0.2,1.9,0.5,2.8,0.9c-0.2,0.3-0.5,0.2-0.8,0.2c-5.2,0-10.4,0-15.6,0c-0.9,0-0.9,0-0.9-0.9
			c0.2-0.1,0.4-0.1,0.6-0.1c4.3,0,8.6,0,13,0C100.7,128.4,101.1,128.7,101.4,128.4z"/>
		<path class="st19" d="M98.1,124.1c0.5-2.5,1.4-4.8,2.4-7c0.1-0.1,0.1-0.3,0.3-0.4c-0.1,0.7-0.5,1.3-0.8,1.9
			c-0.7,1.8-1.3,3.7-1.8,5.5L98.1,124.1L98.1,124.1z"/>
		<path class="st0" d="M119.3,167.5c3.7,2.4,7.7,4.3,11.7,5.9c0.1,0,0.2,0.1,0.3,0.1c0.1,0.1,0.2,0.1,0.3,0.1c1.8,0.8,3.6,1.4,5.5,2
			c3.5,1.1,7.1,2,10.7,2.6c6.6,1.2,13.3,1.6,20.1,1.3c5.5-0.3,10.9-1,16.2-2.3c8.1-2,15.8-5,22.8-9.5c5.6-3.6,10.6-8,14.6-13.4
			c1.3-1.8,2.4-3.6,3.5-5.5c0.1,0,0.2,0,0.3,0c-1.1,3.5-2.7,6.8-4.7,9.9c-4,6.3-9.3,11.3-15.6,15.2c-5.8,3.6-12,6-18.6,7.6
			c-4.4,1.1-8.8,1.8-13.4,2.2c-5,0.4-9.9,0.5-14.9,0.1c-5.8-0.5-11.5-1.5-17.1-3.1c-6.6-1.9-12.5-5.1-17.9-9.2
			c-1.5-1.1-2.9-2.4-4-3.9C119.1,167.6,119.2,167.5,119.3,167.5z"/>
		<path class="st20" d="M153.9,174.3c2.3,0.2,4.5,0.4,6.8,0.5c2.1,0.1,4.3,0.1,6.4,0c2.7-0.1,5.4-0.4,8-0.8c1.3-0.2,2.6-0.4,3.9-0.7
			c0.1,0,0.1,0.1,0.2,0.1c-1.6,0.4-3.2,0.6-4.8,0.9c-4,0.6-8.1,0.8-12.1,0.8c-2.7,0-5.5-0.2-8.2-0.5c-0.1,0-0.3-0.1-0.4-0.1
			C153.7,174.4,153.8,174.3,153.9,174.3z"/>
		<path class="st21" d="M153.9,174.3c-0.1,0-0.2,0.1-0.3,0.1c-1.8-0.2-3.7-0.5-5.5-0.8c-3.1-0.6-6-1.4-9-2.3c0,0,0-0.1,0-0.1
			c1.1,0.1,2.1,0.6,3.1,0.9c3.1,0.9,6.2,1.5,9.4,2C152.4,174.1,153.1,174.2,153.9,174.3z"/>
		<path class="st22" d="M191.6,169.6c-3,1.3-6.1,2.2-9.2,3.1c-0.2,0-0.4,0-0.6,0c0,0,0,0,0,0c1.1-0.5,2.3-0.7,3.4-1
			c2.1-0.6,4.1-1.4,6.2-2.1C191.5,169.6,191.6,169.6,191.6,169.6z"/>
		<path class="st22" d="M191.6,169.6c-0.1,0-0.1,0-0.2,0c1.4-0.6,2.7-1.2,4.1-1.9c0.4-0.2,0.9-0.4,1.3-0.6
			C195.2,168.1,193.5,168.9,191.6,169.6z"/>
		<path class="st23" d="M230.8,139.3c-0.2,0.2-0.1,0.3-0.4,0.3c-1.7,0.3-2.6,1.3-2.7,2.9c0,0.3-0.2,0.6-0.3,0.9c-0.1,0-0.1,0-0.2,0
			c0.2-0.7,0.4-1.4,0.6-2.1c0.3-0.4,0.2-0.9,0.4-1.3c0.1,0.2,0.3,0.1,0.4,0C229.3,139.8,230.1,139.5,230.8,139.3z"/>
		<path class="st24" d="M217.9,147.5c-0.4,1.2-1.1,2.2-1.9,3.2C216.6,149.6,217.2,148.5,217.9,147.5z"/>
		<path class="st25" d="M117.1,158.4c-0.1,0-0.3,0-0.3-0.1c-0.6-0.6-1.3-1.3-1.9-2c-0.1-0.1-0.2-0.2,0-0.3
			C115.6,156.8,116.3,157.6,117.1,158.4z"/>
		<path class="st26" d="M130.8,167.7c-1.1-0.3-2-0.9-3-1.5c0,0,0,0,0,0c0,0,0,0,0.1,0C128.9,166.7,129.9,167.1,130.8,167.7z"/>
		<path class="st27" d="M212.4,155.4c-0.5,0.8-1.3,1.4-1.9,2.1c0,0-0.1-0.1-0.1-0.1C211,156.7,211.7,156,212.4,155.4
			C212.4,155.4,212.4,155.4,212.4,155.4z"/>
		<path class="st27" d="M205.4,161.7c0.7-0.6,1.5-1.2,2.2-1.8c0,0,0.1,0.1,0.1,0.1C207,160.7,206.3,161.3,205.4,161.7
			C205.5,161.8,205.5,161.7,205.4,161.7z"/>
		<path class="st28" d="M220,142.3c0.3,0.2,0,0.4,0,0.5c-0.3,0.7-0.5,1.5-0.9,2.2l0,0C219.4,144.1,219.7,143.2,220,142.3z"/>
		<path class="st29" d="M179.2,173.4c-0.1,0-0.1-0.1-0.2-0.1c1-0.1,1.9-0.5,2.8-0.6c0,0,0,0,0,0C181,173.1,180.1,173.2,179.2,173.4z
			"/>
		<path class="st30" d="M225.3,148.8c-0.1,0-0.2,0-0.3,0c0.3-0.6,0.5-1.2,0.9-1.7C225.8,147.7,225.4,148.2,225.3,148.8z"/>
		<path class="st31" d="M226.7,145.3c-0.1,0.7-0.4,1.3-0.8,1.8C226,146.4,226.3,145.8,226.7,145.3z"/>
		<path class="st32" d="M227.2,143.4c0.1,0,0.1,0,0.2,0c-0.3,0.6-0.3,1.3-0.7,1.8C226.7,144.6,227,144,227.2,143.4z"/>
		<path class="st29" d="M214.3,153c0.3-0.5,0.7-0.9,1-1.4C215.1,152.2,214.7,152.7,214.3,153z"/>
		<path class="st33" d="M199.2,165.9c0.4-0.4,0.9-0.7,1.5-0.9C200.2,165.4,199.7,165.7,199.2,165.9z"/>
		<path class="st34" d="M208.6,159.1c0.4-0.4,0.7-0.9,1.1-1.3c0.1,0.1,0.2,0.2,0.3,0.3C209.5,158.5,209.1,158.9,208.6,159.1
			C208.6,159.2,208.6,159.2,208.6,159.1z"/>
		<path class="st28" d="M219.1,145c-0.1,0.6-0.4,1.1-0.8,1.6C218.6,146.1,218.7,145.5,219.1,145C219.1,145,219.1,145,219.1,145z"/>
		<path class="st35" d="M221.6,134.9c0.3,0.7,0,1.3-0.1,1.9c0-0.1,0-0.2,0-0.3C221.5,136,221.6,135.5,221.6,134.9z"/>
		<path class="st36" d="M212.3,155.4c0.3-0.4,0.6-0.7,0.9-1.1C213.1,154.8,212.8,155.1,212.3,155.4
			C212.4,155.4,212.4,155.4,212.3,155.4z"/>
		<path class="st37" d="M139.1,171.1c-0.5,0-0.9-0.3-1.4-0.4c0,0,0,0,0-0.1c0,0,0.1-0.1,0.1-0.1
			C138.2,170.8,138.7,170.8,139.1,171.1z"/>
		<path class="st38" d="M135.2,169.7c-0.5,0-0.9-0.3-1.2-0.5c0,0,0,0,0-0.1c0,0,0,0,0.1,0C134.4,169.3,134.9,169.4,135.2,169.7z"/>
		<path class="st36" d="M207.7,159.9c0.3-0.3,0.6-0.6,0.9-0.8c0,0,0,0,0.1,0.1C208.4,159.5,208.1,159.8,207.7,159.9
			C207.7,160,207.7,159.9,207.7,159.9z"/>
		<path class="st33" d="M204.2,162.8c-0.3,0.2-0.6,0.4-0.9,0.6c0,0-0.1-0.1-0.1-0.1c0.3-0.2,0.6-0.4,0.8-0.6
			C204.2,162.7,204.2,162.7,204.2,162.8z"/>
		<path class="st39" d="M205.5,161.8c-0.2,0.3-0.6,0.5-0.9,0.6C204.8,162.1,205.1,161.9,205.5,161.8
			C205.5,161.7,205.5,161.8,205.5,161.8z"/>
		<path class="st25" d="M198.9,166.2c-0.3,0.2-0.6,0.3-0.9,0.5c0,0,0-0.1-0.1-0.1c0.3-0.2,0.6-0.3,0.9-0.5
			C198.8,166.1,198.9,166.1,198.9,166.2z"/>
		<path class="st40" d="M157.2,131.1c-0.9,0.5-1.9,1.1-2.8,1.6c-3.2,1.8-6.4,3.6-9.6,5.5c-0.4,0.2-0.6,0.3-0.7-0.3
			c-0.1-0.7-0.4-1.4-0.6-2.2c2.5,0.3,4.6-0.7,6.8-1.6C152.6,133.2,154.9,132.1,157.2,131.1z"/>
		<path class="st19" d="M106.5,121.1c0.7-2.1,1.7-4,2.8-5.9c2.1-3.5,4.6-6.6,7.6-9.4c0.2-0.2,0.4-0.4,0.6-0.6
			c0.8-0.4,1.4-1.1,2.1-1.7c1.1-0.9,2.3-1.8,3.5-2.6c2.9-2,6-3.6,9.1-5.2c1.7-0.7,3.4-1.5,5.2-2c2.3-0.8,4.5-1.6,6.9-2
			c0,0,0,0.1,0,0.1c-2.9,0.8-5.8,1.7-8.7,2.8c-3.8,1.5-7.4,3.4-10.9,5.5c-4.7,3-8.9,6.6-12.3,11c-2.3,2.9-4.1,6.1-5.5,9.6
			c-0.1,0.2-0.2,0.4-0.3,0.6C106.6,121.2,106.5,121.1,106.5,121.1z"/>
		<path class="st41" d="M176.4,90.3c0,0.1,0,0.2,0,0.2c-3-0.6-6-0.8-9-1c-4-0.2-8-0.1-12.1,0.3c-2.9,0.3-5.7,0.7-8.5,1.3
			c-0.3,0.1-0.5,0.1-0.8,0.1c0,0,0-0.1,0-0.1c3-0.7,6.1-1.2,9.2-1.5c3.8-0.4,7.6-0.5,11.3-0.3C169.8,89.4,173.1,89.7,176.4,90.3z"/>
		<path class="st33" d="M168.6,120c0.7-0.6,1.6-1,2.4-1.4C170.2,119.2,169.5,119.7,168.6,120C168.6,120.1,168.6,120.1,168.6,120z"/>
		<path class="st24" d="M144,133.5c0.8-0.5,1.6-0.9,2.4-1.4c0,0,0.1,0.1,0.1,0.1c-0.8,0.5-1.6,0.9-2.4,1.4
			C144.1,133.6,144,133.5,144,133.5z"/>
		<path class="st42" d="M157.5,132.1C157.6,132.2,157.6,132.2,157.5,132.1c-0.5,0.5-1.2,0.9-1.9,1.2c0,0,0-0.1-0.1-0.1
			C156.3,132.8,156.9,132.5,157.5,132.1z"/>
		<path class="st43" d="M170.9,124.6c-0.1,0.4-1.5,1.1-1.9,1.1C169.6,125.3,170.3,124.9,170.9,124.6z"/>
		<path class="st44" d="M146,91.1c0,0,0,0.1,0,0.1c-0.6,0.3-1.2,0.4-1.8,0.5c0,0,0-0.1,0-0.1C144.7,91.3,145.4,91.2,146,91.1z"/>
		<path class="st8" d="M143.7,139.7c-0.3-0.8-0.4-1.6-0.5-2.5C143.5,138,143.5,138.9,143.7,139.7z"/>
		<path class="st26" d="M158.2,126c0.6-0.3,1.2-0.7,1.7-1c0,0.1,0.1,0.1,0.1,0.2C159.4,125.4,158.8,125.8,158.2,126
			C158.2,126.1,158.2,126,158.2,126z"/>
		<path class="st26" d="M151.7,129.1c0.5-0.4,1.2-0.7,1.8-1C152.9,128.5,152.4,129,151.7,129.1C151.7,129.2,151.7,129.2,151.7,129.1
			z"/>
		<path class="st26" d="M143.8,134.3c0.5-0.5,1.2-0.7,1.8-1C145,133.8,144.5,134.1,143.8,134.3L143.8,134.3z"/>
		<path class="st39" d="M162.5,123.6c-0.6,0.3-1.2,0.7-1.7,1c0-0.1-0.1-0.1-0.1-0.2C161.3,124.2,161.9,123.9,162.5,123.6
			C162.5,123.6,162.5,123.6,162.5,123.6z"/>
		<path class="st43" d="M173,123.4c0,0,0.1,0.1,0.1,0.1c-0.6,0.3-1.1,0.6-1.7,0.9c0,0-0.1-0.1-0.1-0.1
			C171.9,124,172.4,123.7,173,123.4z"/>
		<path class="st42" d="M146.2,138.5c0,0,0.1,0.1,0.1,0.1c-0.6,0.3-1.1,0.6-1.7,0.9c0,0-0.1-0.1-0.1-0.1
			C145.1,139.1,145.7,138.8,146.2,138.5z"/>
		<path class="st23" d="M153.4,134.5c0,0,0.1,0.1,0.1,0.1c-0.6,0.3-1.1,0.7-1.7,0.9c0,0,0-0.1-0.1-0.1
			C152.3,135.1,152.8,134.8,153.4,134.5z"/>
		<path class="st26" d="M149,131.4c-0.5,0.4-1.2,0.7-1.8,1.1c0,0-0.1-0.1-0.1-0.1C147.7,132,148.3,131.6,149,131.4
			C149,131.4,149,131.4,149,131.4z"/>
		<path class="st45" d="M164.4,121.8c0.5-0.3,1-0.6,1.5-0.9c0,0,0.1,0.1,0.1,0.1c-0.5,0.3-1,0.6-1.5,0.9
			C164.5,121.9,164.4,121.8,164.4,121.8z"/>
		<path class="st46" d="M163.4,123c0.5-0.3,1-0.6,1.5-0.9c0,0,0.1,0.1,0.1,0.1C164.5,122.5,163.9,122.8,163.4,123
			C163.4,123.1,163.4,123,163.4,123z"/>
		<path class="st46" d="M167.1,120.2c0.5-0.3,1-0.6,1.5-0.9c-0.4,0.5-0.9,0.7-1.4,1C167.2,120.3,167.2,120.3,167.1,120.2z"/>
		<path class="st47" d="M158.8,125.2c-0.5,0.3-1,0.6-1.5,0.9C157.6,125.6,158.2,125.4,158.8,125.2z"/>
		<path class="st48" d="M168.6,125.9C168.6,125.9,168.6,125.9,168.6,125.9c0,0.3-1,0.9-1.4,0.8C167.6,126.4,168.1,126.2,168.6,125.9
			z"/>
		<path class="st38" d="M179.4,113.9c-0.5,0.3-1,0.6-1.5,0.9C178.3,114.3,178.8,114.1,179.4,113.9
			C179.4,113.8,179.4,113.8,179.4,113.9z"/>
		<path class="st45" d="M174,116.5c-0.5,0.3-1,0.6-1.5,0.9c0-0.1-0.1-0.1-0.1-0.2C172.9,117,173.4,116.7,174,116.5
			C173.9,116.4,173.9,116.5,174,116.5z"/>
		<path class="st49" d="M154.7,127.4c0.5-0.3,1-0.6,1.5-0.8c0,0,0.1,0.1,0.1,0.1c-0.5,0.3-1,0.6-1.5,0.9
			C154.7,127.5,154.7,127.4,154.7,127.4z"/>
		<path class="st50" d="M153.9,128.5c-0.5,0.4-1,0.7-1.5,0.9C152.8,129,153.3,128.7,153.9,128.5z"/>
		<path class="st46" d="M171.2,118.1c-0.5,0.3-1,0.6-1.5,0.9c0,0-0.1-0.1-0.1-0.1c0.5-0.3,1-0.6,1.5-0.9
			C171.2,118,171.2,118,171.2,118.1z"/>
		<path class="st51" d="M149.8,130.8c0.5-0.3,1-0.6,1.5-0.9c0,0,0.1,0.1,0.1,0.1C150.9,130.3,150.4,130.6,149.8,130.8
			C149.9,130.9,149.9,130.8,149.8,130.8z"/>
		<path class="st38" d="M172,118.1c0.5-0.4,1-0.7,1.5-0.9C173,117.6,172.6,117.9,172,118.1z"/>
		<path class="st8" d="M143.1,137.2c-0.2-0.6-0.4-1.3-0.4-2C143.1,135.9,143.1,136.6,143.1,137.2z"/>
		<path class="st52" d="M155.5,127.6c0.4-0.3,0.8-0.6,1.3-0.7C156.5,127.2,156,127.5,155.5,127.6z"/>
		<path class="st45" d="M176,115.8c-0.4,0.3-0.8,0.5-1.3,0.8C175.1,116.2,175.5,116,176,115.8C176,115.8,176,115.8,176,115.8z"/>
		<path class="st51" d="M147.4,131.6c0.4-0.2,0.7-0.4,1.1-0.6C148.2,131.3,147.8,131.5,147.4,131.6z"/>
		<path class="st31" d="M178.3,120.4c-0.2,0.4-0.5,0.6-1,0.5C177.6,120.8,178,120.6,178.3,120.4z"/>
		<path class="st53" d="M176,121.7c0,0,0.1,0.1,0.1,0.1c-0.4,0.1-0.6,0.6-1.1,0.4C175.3,122.1,175.6,121.9,176,121.7z"/>
		<path class="st54" d="M163,129.2c-0.4,0.3-0.6,0.7-1.2,0.5C162.3,129.6,162.5,129.2,163,129.2z"/>
		<path class="st55" d="M162.4,123.1c0.3-0.3,0.6-0.6,1.1-0.6C163.1,122.7,162.8,122.9,162.4,123.1z"/>
		<path class="st28" d="M178.5,113.9c-0.4,0.2-0.7,0.4-1.1,0.6C177.6,114.1,178,114,178.5,113.9z"/>
		<path class="st56" d="M164.7,128.1c0,0,0.1,0.1,0.1,0.1c-0.4,0.2-0.7,0.6-1.2,0.6C163.9,128.4,164.4,128.4,164.7,128.1z"/>
		<path class="st45" d="M159.9,124.5c0.3-0.3,0.7-0.5,1.1-0.6C160.7,124.2,160.3,124.3,159.9,124.5
			C159.9,124.5,159.9,124.5,159.9,124.5z"/>
		<path class="st57" d="M173.9,116.4c0.3-0.2,0.6-0.4,0.9-0.5c0,0,0.1,0.1,0.1,0.1C174.6,116.1,174.3,116.3,173.9,116.4
			C173.9,116.5,173.9,116.4,173.9,116.4z"/>
		<path class="st58" d="M176,115.7c0.3-0.2,0.6-0.4,0.8-0.5C176.7,115.6,176.3,115.7,176,115.7C176,115.8,176,115.8,176,115.7z"/>
		<path class="st39" d="M158.2,126.1c-0.3,0.2-0.6,0.4-0.9,0.5C157.5,126.3,157.9,126.1,158.2,126.1
			C158.2,126,158.2,126.1,158.2,126.1z"/>
		<path class="st46" d="M159.9,124.5c-0.3,0.2-0.6,0.3-0.9,0.5C159.2,124.7,159.5,124.6,159.9,124.5
			C159.9,124.5,159.9,124.5,159.9,124.5z"/>
		<path class="st37" d="M174.8,115.9c0.3-0.2,0.6-0.4,0.9-0.5C175.5,115.7,175.2,115.8,174.8,115.9
			C174.8,115.9,174.8,115.9,174.8,115.9z"/>
		<path class="st59" d="M143.8,134.4c-0.2,0.3-0.6,0.4-0.9,0.5c0,0-0.1,0-0.1-0.1C143.1,134.6,143.4,134.4,143.8,134.4
			C143.8,134.3,143.8,134.4,143.8,134.4z"/>
		<path class="st59" d="M163.4,123.1c-0.3,0.2-0.6,0.3-0.9,0.5c0,0-0.1-0.1-0.1-0.1C162.7,123.4,163,123.2,163.4,123.1
			C163.4,123,163.4,123.1,163.4,123.1z"/>
		<path class="st8" d="M142.9,134.1c0.3-0.2,0.6-0.3,0.8-0.5C143.5,134,143.2,134.1,142.9,134.1z"/>
		<path class="st46" d="M151.7,129.2c-0.3,0.2-0.5,0.4-0.9,0.5C151.1,129.4,151.3,129.2,151.7,129.2
			C151.7,129.2,151.7,129.2,151.7,129.2z"/>
		<path class="st26" d="M147.2,132.5c-0.3,0.2-0.6,0.4-0.8,0.5C146.5,132.6,146.8,132.5,147.2,132.5
			C147.1,132.4,147.2,132.4,147.2,132.5z"/>
		<path class="st47" d="M150.1,130.1c-0.2,0.2-0.5,0.4-0.8,0.5C149.5,130.3,149.8,130.2,150.1,130.1z"/>
		<path class="st59" d="M167.6,120.5c0.3-0.2,0.6-0.4,0.9-0.5c0,0,0,0,0,0.1C168.4,120.4,168.1,120.5,167.6,120.5
			C167.7,120.6,167.7,120.6,167.6,120.5z"/>
		<path class="st60" d="M166.7,121.1c0.3-0.3,0.6-0.4,0.9-0.5c0,0,0,0.1,0.1,0.1C167.4,120.8,167.1,121,166.7,121.1
			C166.8,121.1,166.8,121.1,166.7,121.1z"/>
		<path class="st57" d="M166.8,121.2c-0.3,0.2-0.6,0.3-0.8,0.5C166.1,121.3,166.4,121.2,166.8,121.2
			C166.8,121.1,166.8,121.1,166.8,121.2z"/>
		<path class="st39" d="M149.9,130.9c-0.3,0.2-0.6,0.4-0.9,0.5c0,0,0,0,0-0.1C149.2,131.1,149.5,131,149.9,130.9
			C149.9,130.8,149.9,130.9,149.9,130.9z"/>
		<path class="st2" d="M230.8,139.3c-0.7,0.3-1.5,0.6-2.2,0.8c-0.1,0.1-0.3,0.2-0.4,0c-0.8-1.3-1.6-2.6-2.5-4c4.4,0,8.6,0,12.9,0
			c-0.1,0.2-0.4,0.1-0.5,0.3c-1,0.4-2.1,0.8-3.1,1.2c-0.4,0.1-0.8,0.3-1.2,0.5c-0.7,0.3-1.5,0.5-2.2,0.8
			C231.3,139,231.1,139.1,230.8,139.3z"/>
		<path class="st2" d="M101.8,144.9c0.1,0.2,0.3,0.2,0.4,0.1c0.7-0.2,1.5-0.1,2.3-0.1c13.1,0,26.3,0,39.4,0c0.2,0,0.5-0.1,0.7,0.1
			c-0.2,0.2-0.4,0.1-0.7,0.1c-13.9,0-27.7,0-41.6,0C102.1,145.1,101.8,145.4,101.8,144.9z"/>
		<path class="st54" d="M235,137.6c1-0.4,2.1-0.8,3.1-1.2c0.1,0,0.2,0.1,0.1,0.2c-1,0.4-2,0.8-3,1.2
			C235.1,137.8,235,137.7,235,137.6z"/>
		<path class="st61" d="M112.4,162.3c0.7,0.6,1.5,1.2,2.2,1.8c0,0.2-0.1,0.2-0.2,0.1c-0.7-0.6-1.4-1.1-2.1-1.7
			C112.2,162.4,112.2,162.3,112.4,162.3z"/>
		<path class="st23" d="M102.2,150.1c0.4,0.8,0.9,1.5,1.3,2.2c0,0,0,0.1-0.1,0.1c-0.6-0.7-1.1-1.4-1.4-2.3
			C102.1,150.1,102.2,150.1,102.2,150.1z"/>
		<path class="st62" d="M109.2,159.3c0.5,0.5,1,1,1.6,1.5c0,0.1-0.1,0.2-0.2,0.1c-0.5-0.5-1-1-1.5-1.5
			C109.1,159.4,109.1,159.3,109.2,159.3z"/>
		<path class="st31" d="M231.6,138.9c0.7-0.3,1.5-0.5,2.2-0.8c0,0,0,0.1,0.1,0.1c-0.7,0.4-1.4,0.6-2.1,0.8
			C231.7,139,231.6,139,231.6,138.9z"/>
		<path class="st63" d="M119.3,167.5c-0.1,0.1-0.1,0.1-0.2,0.2c-0.4-0.3-0.8-0.6-1.2-0.9C118.4,166.8,118.9,167.1,119.3,167.5z"/>
		<path class="st64" d="M107.4,157.3c0.3,0.3,0.6,0.7,0.9,1C107.9,158.4,107.3,157.7,107.4,157.3z"/>
		<path class="st65" d="M99.1,143.1c0.2,0.4,0.3,0.9,0.5,1.3C99.2,144.1,99,143.6,99.1,143.1z"/>
		<path class="st66" d="M111.2,161.2c0.3,0.3,0.6,0.6,1,0.9c-0.5-0.1-0.8-0.5-1.1-0.9C111.1,161.3,111.1,161.3,111.2,161.2
			C111.1,161.2,111.2,161.2,111.2,161.2z"/>
		<path class="st2" d="M132.1,95.7c-3.2,1.5-6.2,3.2-9.1,5.2c-0.9,0.1-1.8,0-2.6,0c-2.6,0.1-5.1,0.6-7.7,1.3
			c0.3-0.4,0.8-0.7,1.2-0.9c3.8-2.4,7.9-3.8,12.3-4.8c1.7-0.4,3.4-0.6,5.1-0.9C131.5,95.5,131.8,95.4,132.1,95.7z"/>
		<path class="st67" d="M114.6,99.9c0,0,0.1,0.1,0.1,0.1c-2.8,2.1-5.3,4.5-7.6,7.2c-0.1,0.1-0.2,0.1-0.2,0.2c0-0.1,0-0.1,0-0.2
			C109.1,104.5,111.7,102.1,114.6,99.9z"/>
		<path class="st68" d="M100.8,116.7c0.2-1,0.9-1.9,1.4-2.8c0.2-0.3,0.3-0.7,0.6-0.9c-0.3,0.9-0.9,1.7-1.3,2.6
			C101.2,116,101.1,116.4,100.8,116.7z"/>
		<path class="st69" d="M102.7,113.1c0.4-1,1.1-1.9,1.8-2.8c0.1,0.3-0.1,0.4-0.2,0.6C103.7,111.5,103.4,112.4,102.7,113.1z"/>
		<path class="st68" d="M106.9,107.3c0,0.1,0,0.1,0,0.2c-0.6,0.8-1.3,1.6-1.9,2.4c-0.1-0.3,0.2-0.5,0.4-0.7
			C105.8,108.5,106.3,107.8,106.9,107.3z"/>
		<path class="st70" d="M176.9,126.4c-0.5,0.5-1.2,0.7-1.7,1.1c-0.1,0-0.2-0.1-0.1-0.1C175.7,127,176.2,126.6,176.9,126.4z"/>
		<path class="st32" d="M174.8,127.7c-0.6,0.3-1.1,0.6-1.7,0.9c0,0-0.1-0.1-0.1-0.1C173.6,128.2,174.1,127.8,174.8,127.7
			C174.8,127.6,174.8,127.7,174.8,127.7z"/>
		<path class="st43" d="M166.1,132.7c-0.6,0.3-1.1,0.6-1.7,0.9c0,0,0,0-0.1,0C164.6,133.2,165.7,132.6,166.1,132.7z"/>
		<path class="st23" d="M181.5,123.8c-0.5,0.5-1.2,0.7-1.7,1.1c-0.1,0-0.2-0.1-0.1-0.1C180.3,124.4,180.8,124,181.5,123.8z"/>
		<path class="st43" d="M162.2,134.9c-0.6,0.3-1.1,0.6-1.7,0.9c0,0-0.1-0.1-0.1-0.1C161,135.4,161.5,135,162.2,134.9
			C162.2,134.8,162.2,134.8,162.2,134.9z"/>
		<path class="st23" d="M160.1,136c-0.5,0.3-1,0.6-1.6,0.9C158.9,136.4,159.7,136,160.1,136z"/>
		<path class="st54" d="M178.5,125.7c-0.5,0.2-1,0.6-1.6,0.8C177.4,126,177.8,125.6,178.5,125.7z"/>
		<path class="st23" d="M164.1,133.8c-0.5,0.3-1,0.5-1.4,0.8c0,0-0.1-0.1-0.1-0.1c0.5-0.3,0.9-0.7,1.5-0.8
			C164,133.7,164,133.8,164.1,133.8z"/>
		<path class="st71" d="M153.3,139.9c-0.5,0.3-0.9,0.5-1.4,0.8c-0.1-0.4,0.3-0.4,0.5-0.5C152.6,140.1,152.9,139.7,153.3,139.9z"/>
		<path class="st23" d="M149.4,142.2c-0.5,0.3-1,0.5-1.4,0.8c0,0,0,0-0.1,0C148,142.6,149,142.1,149.4,142.2z"/>
		<path class="st31" d="M147.5,143.2c-0.5,0.3-0.9,0.5-1.4,0.8c0,0-0.1-0.1-0.1-0.1C146.5,143.6,146.9,143.2,147.5,143.2
			C147.5,143.1,147.5,143.2,147.5,143.2z"/>
		<path class="st48" d="M167.9,131.6c-0.3,0.2-0.7,0.4-1,0.5C167.1,131.7,167.5,131.6,167.9,131.6z"/>
		<path class="st3" d="M91.5,135.7c6.9,2,14,2.9,21.1,3.6c-0.3,0-0.7,0-1,0c-4,0-8,0-12.1,0c-1,0-1.7-0.5-2.5-0.9
			c-1.8-0.8-3.6-1.7-5.4-2.5C91.6,135.9,91.6,135.8,91.5,135.7z"/>
		<path class="st0" d="M167.8,137.5c-3,1.7-6,3.4-9,5.1c-3.4,1.9-6.9,3.9-10.3,5.8c-0.5,0.3-1.1,0.6-1.7,0.9
			c-0.3-1.1-0.6-2.2-0.9-3.3c3,0,5.7-1.2,8.3-2.3c4.5-1.8,8.9-4.1,13.2-6.3c0.1,0,0.2-0.1,0.2-0.1
			C167.7,137.4,167.8,137.4,167.8,137.5z"/>
		<path class="st16" d="M167.8,137.5c0,0-0.1-0.1-0.1-0.1c1-0.6,2.1-1.2,3.2-1.7C169.9,136.3,168.9,137,167.8,137.5z"/>
		<path class="st43" d="M162.2,135.3c0.6-0.3,1.2-0.7,1.8-1c0,0.1,0,0.1,0,0.2c-0.5,0.3-1.1,0.6-1.6,1
			C162.3,135.4,162.2,135.4,162.2,135.3z"/>
		<path class="st64" d="M146.3,144.4c0.6-0.3,1.1-0.8,1.8-0.9c-0.5,0.5-1.1,0.7-1.7,1C146.4,144.5,146.3,144.4,146.3,144.4z"/>
		<path class="st64" d="M148.1,143.5c0.5-0.5,1.2-0.7,1.7-1.1c0,0,0.1,0.1,0.1,0.1C149.3,142.9,148.7,143.3,148.1,143.5z"/>
		<path class="st32" d="M164.1,134.4c0-0.1,0-0.1,0-0.2c0.6-0.3,1.1-0.6,1.7-1c0.1,0,0.2,0.1,0,0.2
			C165.2,133.8,164.6,134.1,164.1,134.4z"/>
		<path class="st72" d="M157.7,137.9c0.5-0.3,0.9-0.5,1.4-0.8c0,0,0.1,0.1,0.1,0.1c-0.5,0.3-1,0.5-1.4,0.8
			C157.8,138,157.7,137.9,157.7,137.9z"/>
		<path class="st72" d="M173.4,128.9c0.5-0.3,0.9-0.5,1.4-0.8c0,0,0.1,0.1,0.1,0.1c-0.5,0.3-0.9,0.7-1.5,0.8
			C173.4,129,173.4,128.9,173.4,128.9z"/>
		<path class="st23" d="M159.5,136.8c0.5-0.3,0.9-0.5,1.4-0.8c0,0,0,0,0.1,0C160.9,136.4,159.9,136.9,159.5,136.8z"/>
		<path class="st42" d="M168.8,131.7c0.1-0.4,0.5-0.4,0.8-0.6c0.2-0.2,0.4-0.3,0.6-0.4c0.3,0.1,0.1,0.2,0,0.2
			C169.8,131.2,169.3,131.4,168.8,131.7z"/>
		<path class="st64" d="M150.8,141.8c0.4-0.2,0.8-0.5,1.3-0.7C151.9,141.5,151.2,141.8,150.8,141.8z"/>
		<path class="st71" d="M153.1,140.5c0.4-0.2,0.8-0.4,1.2-0.7c0,0,0,0,0.1,0C154.2,140.1,153.5,140.6,153.1,140.5z"/>
		<path class="st43" d="M176.1,127.3c0.3-0.2,0.7-0.4,1-0.6C177,127.2,176.6,127.4,176.1,127.3z"/>
		<path class="st16" d="M172.3,135c-0.3,0.1-0.5,0.3-0.8,0.4c0,0,0-0.1-0.1-0.1c0.3-0.1,0.5-0.3,0.8-0.4
			C172.3,134.9,172.3,134.9,172.3,135z"/>
		<path class="st3" d="M203,114.3c2.8,0,5.6-0.1,8.3,0.1c1.3,0.1,2.7,0.2,4,0.3c2.7,0.2,5.1,1,7.4,2.3c0.8,0.5,1.8,0.8,2.5,1.7
			c-1-0.3-1.9-0.6-2.8-0.9c-2.7-0.8-5.4-1.5-8.2-1.8c-3.2-0.4-6.4-0.9-9.6-1.4C204.1,114.4,203.6,114.4,203,114.3z"/>
		<path class="st73" d="M194.6,118.2c-1.4,0-2.9,0-4.3,0c-2.7,0-5.3,0-8,0c-0.5,0-0.7-0.1-0.7-0.6c-0.1-1-0.3-1.9-0.5-3
			c2.1,2,4.8,2.3,7.5,2.8C190.5,117.8,192.6,117.9,194.6,118.2z"/>
	</g>
</g>
</svg>
